<?xml version="1.0" encoding="utf-8" standalone="no"?>
<!DOCTYPE svg PUBLIC "-//W3C//DTD SVG 1.1//EN"
  "http://www.w3.org/Graphics/SVG/1.1/DTD/svg11.dtd">
<!-- Created with matplotlib (https://matplotlib.org/) -->
<svg height="504pt" version="1.1" viewBox="0 0 720 504" width="720pt" xmlns="http://www.w3.org/2000/svg" xmlns:xlink="http://www.w3.org/1999/xlink">
 <defs>
  <style type="text/css">
*{stroke-linecap:butt;stroke-linejoin:round;}
  </style>
 </defs>
 <g id="figure_1">
  <g id="patch_1">
   <path d="M 0 504 
L 720 504 
L 720 0 
L 0 0 
z
" style="fill:#ffffff;"/>
  </g>
  <g id="axes_1">
   <g id="patch_2">
    <path d="M 90 441 
L 648 441 
L 648 60.48 
L 90 60.48 
z
" style="fill:#ffffff;"/>
   </g>
   <g id="matplotlib.axis_1">
    <g id="xtick_1">
     <g id="line2d_1">
      <defs>
       <path d="M 0 0 
L 0 3.5 
" id="m3dbf91b1cc" style="stroke:#000000;stroke-width:0.8;"/>
      </defs>
      <g>
       <use style="stroke:#000000;stroke-width:0.8;" x="146.22782" xlink:href="#m3dbf91b1cc" y="441"/>
      </g>
     </g>
     <g id="text_1">
      <!-- 01/01/2014 -->
      <defs>
       <path d="M 31.78125 66.40625 
Q 24.171875 66.40625 20.328125 58.90625 
Q 16.5 51.421875 16.5 36.375 
Q 16.5 21.390625 20.328125 13.890625 
Q 24.171875 6.390625 31.78125 6.390625 
Q 39.453125 6.390625 43.28125 13.890625 
Q 47.125 21.390625 47.125 36.375 
Q 47.125 51.421875 43.28125 58.90625 
Q 39.453125 66.40625 31.78125 66.40625 
z
M 31.78125 74.21875 
Q 44.046875 74.21875 50.515625 64.515625 
Q 56.984375 54.828125 56.984375 36.375 
Q 56.984375 17.96875 50.515625 8.265625 
Q 44.046875 -1.421875 31.78125 -1.421875 
Q 19.53125 -1.421875 13.0625 8.265625 
Q 6.59375 17.96875 6.59375 36.375 
Q 6.59375 54.828125 13.0625 64.515625 
Q 19.53125 74.21875 31.78125 74.21875 
z
" id="DejaVuSans-48"/>
       <path d="M 12.40625 8.296875 
L 28.515625 8.296875 
L 28.515625 63.921875 
L 10.984375 60.40625 
L 10.984375 69.390625 
L 28.421875 72.90625 
L 38.28125 72.90625 
L 38.28125 8.296875 
L 54.390625 8.296875 
L 54.390625 0 
L 12.40625 0 
z
" id="DejaVuSans-49"/>
       <path d="M 25.390625 72.90625 
L 33.6875 72.90625 
L 8.296875 -9.28125 
L 0 -9.28125 
z
" id="DejaVuSans-47"/>
       <path d="M 19.1875 8.296875 
L 53.609375 8.296875 
L 53.609375 0 
L 7.328125 0 
L 7.328125 8.296875 
Q 12.9375 14.109375 22.625 23.890625 
Q 32.328125 33.6875 34.8125 36.53125 
Q 39.546875 41.84375 41.421875 45.53125 
Q 43.3125 49.21875 43.3125 52.78125 
Q 43.3125 58.59375 39.234375 62.25 
Q 35.15625 65.921875 28.609375 65.921875 
Q 23.96875 65.921875 18.8125 64.3125 
Q 13.671875 62.703125 7.8125 59.421875 
L 7.8125 69.390625 
Q 13.765625 71.78125 18.9375 73 
Q 24.125 74.21875 28.421875 74.21875 
Q 39.75 74.21875 46.484375 68.546875 
Q 53.21875 62.890625 53.21875 53.421875 
Q 53.21875 48.921875 51.53125 44.890625 
Q 49.859375 40.875 45.40625 35.40625 
Q 44.1875 33.984375 37.640625 27.21875 
Q 31.109375 20.453125 19.1875 8.296875 
z
" id="DejaVuSans-50"/>
       <path d="M 37.796875 64.3125 
L 12.890625 25.390625 
L 37.796875 25.390625 
z
M 35.203125 72.90625 
L 47.609375 72.90625 
L 47.609375 25.390625 
L 58.015625 25.390625 
L 58.015625 17.1875 
L 47.609375 17.1875 
L 47.609375 0 
L 37.796875 0 
L 37.796875 17.1875 
L 4.890625 17.1875 
L 4.890625 26.703125 
z
" id="DejaVuSans-52"/>
      </defs>
      <g transform="translate(120.29193 486.939109)rotate(-30)scale(0.11 -0.11)">
       <use xlink:href="#DejaVuSans-48"/>
       <use x="63.623047" xlink:href="#DejaVuSans-49"/>
       <use x="127.246094" xlink:href="#DejaVuSans-47"/>
       <use x="160.9375" xlink:href="#DejaVuSans-48"/>
       <use x="224.560547" xlink:href="#DejaVuSans-49"/>
       <use x="288.183594" xlink:href="#DejaVuSans-47"/>
       <use x="321.875" xlink:href="#DejaVuSans-50"/>
       <use x="385.498047" xlink:href="#DejaVuSans-48"/>
       <use x="449.121094" xlink:href="#DejaVuSans-49"/>
       <use x="512.744141" xlink:href="#DejaVuSans-52"/>
      </g>
     </g>
    </g>
    <g id="xtick_2">
     <g id="line2d_2">
      <g>
       <use style="stroke:#000000;stroke-width:0.8;" x="257.766703" xlink:href="#m3dbf91b1cc" y="441"/>
      </g>
     </g>
     <g id="text_2">
      <!-- 01/01/2015 -->
      <defs>
       <path d="M 10.796875 72.90625 
L 49.515625 72.90625 
L 49.515625 64.59375 
L 19.828125 64.59375 
L 19.828125 46.734375 
Q 21.96875 47.46875 24.109375 47.828125 
Q 26.265625 48.1875 28.421875 48.1875 
Q 40.625 48.1875 47.75 41.5 
Q 54.890625 34.8125 54.890625 23.390625 
Q 54.890625 11.625 47.5625 5.09375 
Q 40.234375 -1.421875 26.90625 -1.421875 
Q 22.3125 -1.421875 17.546875 -0.640625 
Q 12.796875 0.140625 7.71875 1.703125 
L 7.71875 11.625 
Q 12.109375 9.234375 16.796875 8.0625 
Q 21.484375 6.890625 26.703125 6.890625 
Q 35.15625 6.890625 40.078125 11.328125 
Q 45.015625 15.765625 45.015625 23.390625 
Q 45.015625 31 40.078125 35.4375 
Q 35.15625 39.890625 26.703125 39.890625 
Q 22.75 39.890625 18.8125 39.015625 
Q 14.890625 38.140625 10.796875 36.28125 
z
" id="DejaVuSans-53"/>
      </defs>
      <g transform="translate(231.830813 486.939109)rotate(-30)scale(0.11 -0.11)">
       <use xlink:href="#DejaVuSans-48"/>
       <use x="63.623047" xlink:href="#DejaVuSans-49"/>
       <use x="127.246094" xlink:href="#DejaVuSans-47"/>
       <use x="160.9375" xlink:href="#DejaVuSans-48"/>
       <use x="224.560547" xlink:href="#DejaVuSans-49"/>
       <use x="288.183594" xlink:href="#DejaVuSans-47"/>
       <use x="321.875" xlink:href="#DejaVuSans-50"/>
       <use x="385.498047" xlink:href="#DejaVuSans-48"/>
       <use x="449.121094" xlink:href="#DejaVuSans-49"/>
       <use x="512.744141" xlink:href="#DejaVuSans-53"/>
      </g>
     </g>
    </g>
    <g id="xtick_3">
     <g id="line2d_3">
      <g>
       <use style="stroke:#000000;stroke-width:0.8;" x="369.305586" xlink:href="#m3dbf91b1cc" y="441"/>
      </g>
     </g>
     <g id="text_3">
      <!-- 01/01/2016 -->
      <defs>
       <path d="M 33.015625 40.375 
Q 26.375 40.375 22.484375 35.828125 
Q 18.609375 31.296875 18.609375 23.390625 
Q 18.609375 15.53125 22.484375 10.953125 
Q 26.375 6.390625 33.015625 6.390625 
Q 39.65625 6.390625 43.53125 10.953125 
Q 47.40625 15.53125 47.40625 23.390625 
Q 47.40625 31.296875 43.53125 35.828125 
Q 39.65625 40.375 33.015625 40.375 
z
M 52.59375 71.296875 
L 52.59375 62.3125 
Q 48.875 64.0625 45.09375 64.984375 
Q 41.3125 65.921875 37.59375 65.921875 
Q 27.828125 65.921875 22.671875 59.328125 
Q 17.53125 52.734375 16.796875 39.40625 
Q 19.671875 43.65625 24.015625 45.921875 
Q 28.375 48.1875 33.59375 48.1875 
Q 44.578125 48.1875 50.953125 41.515625 
Q 57.328125 34.859375 57.328125 23.390625 
Q 57.328125 12.15625 50.6875 5.359375 
Q 44.046875 -1.421875 33.015625 -1.421875 
Q 20.359375 -1.421875 13.671875 8.265625 
Q 6.984375 17.96875 6.984375 36.375 
Q 6.984375 53.65625 15.1875 63.9375 
Q 23.390625 74.21875 37.203125 74.21875 
Q 40.921875 74.21875 44.703125 73.484375 
Q 48.484375 72.75 52.59375 71.296875 
z
" id="DejaVuSans-54"/>
      </defs>
      <g transform="translate(343.369696 486.939109)rotate(-30)scale(0.11 -0.11)">
       <use xlink:href="#DejaVuSans-48"/>
       <use x="63.623047" xlink:href="#DejaVuSans-49"/>
       <use x="127.246094" xlink:href="#DejaVuSans-47"/>
       <use x="160.9375" xlink:href="#DejaVuSans-48"/>
       <use x="224.560547" xlink:href="#DejaVuSans-49"/>
       <use x="288.183594" xlink:href="#DejaVuSans-47"/>
       <use x="321.875" xlink:href="#DejaVuSans-50"/>
       <use x="385.498047" xlink:href="#DejaVuSans-48"/>
       <use x="449.121094" xlink:href="#DejaVuSans-49"/>
       <use x="512.744141" xlink:href="#DejaVuSans-54"/>
      </g>
     </g>
    </g>
    <g id="xtick_4">
     <g id="line2d_4">
      <g>
       <use style="stroke:#000000;stroke-width:0.8;" x="481.150055" xlink:href="#m3dbf91b1cc" y="441"/>
      </g>
     </g>
     <g id="text_4">
      <!-- 01/01/2017 -->
      <defs>
       <path d="M 8.203125 72.90625 
L 55.078125 72.90625 
L 55.078125 68.703125 
L 28.609375 0 
L 18.3125 0 
L 43.21875 64.59375 
L 8.203125 64.59375 
z
" id="DejaVuSans-55"/>
      </defs>
      <g transform="translate(455.214164 486.939109)rotate(-30)scale(0.11 -0.11)">
       <use xlink:href="#DejaVuSans-48"/>
       <use x="63.623047" xlink:href="#DejaVuSans-49"/>
       <use x="127.246094" xlink:href="#DejaVuSans-47"/>
       <use x="160.9375" xlink:href="#DejaVuSans-48"/>
       <use x="224.560547" xlink:href="#DejaVuSans-49"/>
       <use x="288.183594" xlink:href="#DejaVuSans-47"/>
       <use x="321.875" xlink:href="#DejaVuSans-50"/>
       <use x="385.498047" xlink:href="#DejaVuSans-48"/>
       <use x="449.121094" xlink:href="#DejaVuSans-49"/>
       <use x="512.744141" xlink:href="#DejaVuSans-55"/>
      </g>
     </g>
    </g>
    <g id="xtick_5">
     <g id="line2d_5">
      <g>
       <use style="stroke:#000000;stroke-width:0.8;" x="592.688938" xlink:href="#m3dbf91b1cc" y="441"/>
      </g>
     </g>
     <g id="text_5">
      <!-- 01/01/2018 -->
      <defs>
       <path d="M 31.78125 34.625 
Q 24.75 34.625 20.71875 30.859375 
Q 16.703125 27.09375 16.703125 20.515625 
Q 16.703125 13.921875 20.71875 10.15625 
Q 24.75 6.390625 31.78125 6.390625 
Q 38.8125 6.390625 42.859375 10.171875 
Q 46.921875 13.96875 46.921875 20.515625 
Q 46.921875 27.09375 42.890625 30.859375 
Q 38.875 34.625 31.78125 34.625 
z
M 21.921875 38.8125 
Q 15.578125 40.375 12.03125 44.71875 
Q 8.5 49.078125 8.5 55.328125 
Q 8.5 64.0625 14.71875 69.140625 
Q 20.953125 74.21875 31.78125 74.21875 
Q 42.671875 74.21875 48.875 69.140625 
Q 55.078125 64.0625 55.078125 55.328125 
Q 55.078125 49.078125 51.53125 44.71875 
Q 48 40.375 41.703125 38.8125 
Q 48.828125 37.15625 52.796875 32.3125 
Q 56.78125 27.484375 56.78125 20.515625 
Q 56.78125 9.90625 50.3125 4.234375 
Q 43.84375 -1.421875 31.78125 -1.421875 
Q 19.734375 -1.421875 13.25 4.234375 
Q 6.78125 9.90625 6.78125 20.515625 
Q 6.78125 27.484375 10.78125 32.3125 
Q 14.796875 37.15625 21.921875 38.8125 
z
M 18.3125 54.390625 
Q 18.3125 48.734375 21.84375 45.5625 
Q 25.390625 42.390625 31.78125 42.390625 
Q 38.140625 42.390625 41.71875 45.5625 
Q 45.3125 48.734375 45.3125 54.390625 
Q 45.3125 60.0625 41.71875 63.234375 
Q 38.140625 66.40625 31.78125 66.40625 
Q 25.390625 66.40625 21.84375 63.234375 
Q 18.3125 60.0625 18.3125 54.390625 
z
" id="DejaVuSans-56"/>
      </defs>
      <g transform="translate(566.753047 486.939109)rotate(-30)scale(0.11 -0.11)">
       <use xlink:href="#DejaVuSans-48"/>
       <use x="63.623047" xlink:href="#DejaVuSans-49"/>
       <use x="127.246094" xlink:href="#DejaVuSans-47"/>
       <use x="160.9375" xlink:href="#DejaVuSans-48"/>
       <use x="224.560547" xlink:href="#DejaVuSans-49"/>
       <use x="288.183594" xlink:href="#DejaVuSans-47"/>
       <use x="321.875" xlink:href="#DejaVuSans-50"/>
       <use x="385.498047" xlink:href="#DejaVuSans-48"/>
       <use x="449.121094" xlink:href="#DejaVuSans-49"/>
       <use x="512.744141" xlink:href="#DejaVuSans-56"/>
      </g>
     </g>
    </g>
   </g>
   <g id="matplotlib.axis_2">
    <g id="ytick_1">
     <g id="line2d_6">
      <defs>
       <path d="M 0 0 
L -3.5 0 
" id="meaac600fa7" style="stroke:#000000;stroke-width:0.8;"/>
      </defs>
      <g>
       <use style="stroke:#000000;stroke-width:0.8;" x="90" xlink:href="#meaac600fa7" y="441"/>
      </g>
     </g>
     <g id="text_6">
      <!-- 80,000.0 -->
      <defs>
       <path d="M 11.71875 12.40625 
L 22.015625 12.40625 
L 22.015625 4 
L 14.015625 -11.625 
L 7.71875 -11.625 
L 11.71875 4 
z
" id="DejaVuSans-44"/>
       <path d="M 10.6875 12.40625 
L 21 12.40625 
L 21 0 
L 10.6875 0 
z
" id="DejaVuSans-46"/>
      </defs>
      <g transform="translate(34.015625 445.179141)scale(0.11 -0.11)">
       <use xlink:href="#DejaVuSans-56"/>
       <use x="63.623047" xlink:href="#DejaVuSans-48"/>
       <use x="127.246094" xlink:href="#DejaVuSans-44"/>
       <use x="159.033203" xlink:href="#DejaVuSans-48"/>
       <use x="222.65625" xlink:href="#DejaVuSans-48"/>
       <use x="286.279297" xlink:href="#DejaVuSans-48"/>
       <use x="349.902344" xlink:href="#DejaVuSans-46"/>
       <use x="381.689453" xlink:href="#DejaVuSans-48"/>
      </g>
     </g>
    </g>
    <g id="ytick_2">
     <g id="line2d_7">
      <g>
       <use style="stroke:#000000;stroke-width:0.8;" x="90" xlink:href="#meaac600fa7" y="377.58"/>
      </g>
     </g>
     <g id="text_7">
      <!-- 90,000.0 -->
      <defs>
       <path d="M 10.984375 1.515625 
L 10.984375 10.5 
Q 14.703125 8.734375 18.5 7.8125 
Q 22.3125 6.890625 25.984375 6.890625 
Q 35.75 6.890625 40.890625 13.453125 
Q 46.046875 20.015625 46.78125 33.40625 
Q 43.953125 29.203125 39.59375 26.953125 
Q 35.25 24.703125 29.984375 24.703125 
Q 19.046875 24.703125 12.671875 31.3125 
Q 6.296875 37.9375 6.296875 49.421875 
Q 6.296875 60.640625 12.9375 67.421875 
Q 19.578125 74.21875 30.609375 74.21875 
Q 43.265625 74.21875 49.921875 64.515625 
Q 56.59375 54.828125 56.59375 36.375 
Q 56.59375 19.140625 48.40625 8.859375 
Q 40.234375 -1.421875 26.421875 -1.421875 
Q 22.703125 -1.421875 18.890625 -0.6875 
Q 15.09375 0.046875 10.984375 1.515625 
z
M 30.609375 32.421875 
Q 37.25 32.421875 41.125 36.953125 
Q 45.015625 41.5 45.015625 49.421875 
Q 45.015625 57.28125 41.125 61.84375 
Q 37.25 66.40625 30.609375 66.40625 
Q 23.96875 66.40625 20.09375 61.84375 
Q 16.21875 57.28125 16.21875 49.421875 
Q 16.21875 41.5 20.09375 36.953125 
Q 23.96875 32.421875 30.609375 32.421875 
z
" id="DejaVuSans-57"/>
      </defs>
      <g transform="translate(34.015625 381.759141)scale(0.11 -0.11)">
       <use xlink:href="#DejaVuSans-57"/>
       <use x="63.623047" xlink:href="#DejaVuSans-48"/>
       <use x="127.246094" xlink:href="#DejaVuSans-44"/>
       <use x="159.033203" xlink:href="#DejaVuSans-48"/>
       <use x="222.65625" xlink:href="#DejaVuSans-48"/>
       <use x="286.279297" xlink:href="#DejaVuSans-48"/>
       <use x="349.902344" xlink:href="#DejaVuSans-46"/>
       <use x="381.689453" xlink:href="#DejaVuSans-48"/>
      </g>
     </g>
    </g>
    <g id="ytick_3">
     <g id="line2d_8">
      <g>
       <use style="stroke:#000000;stroke-width:0.8;" x="90" xlink:href="#meaac600fa7" y="314.16"/>
      </g>
     </g>
     <g id="text_8">
      <!-- 100,000.0 -->
      <g transform="translate(27.016875 318.339141)scale(0.11 -0.11)">
       <use xlink:href="#DejaVuSans-49"/>
       <use x="63.623047" xlink:href="#DejaVuSans-48"/>
       <use x="127.246094" xlink:href="#DejaVuSans-48"/>
       <use x="190.869141" xlink:href="#DejaVuSans-44"/>
       <use x="222.65625" xlink:href="#DejaVuSans-48"/>
       <use x="286.279297" xlink:href="#DejaVuSans-48"/>
       <use x="349.902344" xlink:href="#DejaVuSans-48"/>
       <use x="413.525391" xlink:href="#DejaVuSans-46"/>
       <use x="445.3125" xlink:href="#DejaVuSans-48"/>
      </g>
     </g>
    </g>
    <g id="ytick_4">
     <g id="line2d_9">
      <g>
       <use style="stroke:#000000;stroke-width:0.8;" x="90" xlink:href="#meaac600fa7" y="250.74"/>
      </g>
     </g>
     <g id="text_9">
      <!-- 110,000.0 -->
      <g transform="translate(27.016875 254.919141)scale(0.11 -0.11)">
       <use xlink:href="#DejaVuSans-49"/>
       <use x="63.623047" xlink:href="#DejaVuSans-49"/>
       <use x="127.246094" xlink:href="#DejaVuSans-48"/>
       <use x="190.869141" xlink:href="#DejaVuSans-44"/>
       <use x="222.65625" xlink:href="#DejaVuSans-48"/>
       <use x="286.279297" xlink:href="#DejaVuSans-48"/>
       <use x="349.902344" xlink:href="#DejaVuSans-48"/>
       <use x="413.525391" xlink:href="#DejaVuSans-46"/>
       <use x="445.3125" xlink:href="#DejaVuSans-48"/>
      </g>
     </g>
    </g>
    <g id="ytick_5">
     <g id="line2d_10">
      <g>
       <use style="stroke:#000000;stroke-width:0.8;" x="90" xlink:href="#meaac600fa7" y="187.32"/>
      </g>
     </g>
     <g id="text_10">
      <!-- 120,000.0 -->
      <g transform="translate(27.016875 191.499141)scale(0.11 -0.11)">
       <use xlink:href="#DejaVuSans-49"/>
       <use x="63.623047" xlink:href="#DejaVuSans-50"/>
       <use x="127.246094" xlink:href="#DejaVuSans-48"/>
       <use x="190.869141" xlink:href="#DejaVuSans-44"/>
       <use x="222.65625" xlink:href="#DejaVuSans-48"/>
       <use x="286.279297" xlink:href="#DejaVuSans-48"/>
       <use x="349.902344" xlink:href="#DejaVuSans-48"/>
       <use x="413.525391" xlink:href="#DejaVuSans-46"/>
       <use x="445.3125" xlink:href="#DejaVuSans-48"/>
      </g>
     </g>
    </g>
    <g id="ytick_6">
     <g id="line2d_11">
      <g>
       <use style="stroke:#000000;stroke-width:0.8;" x="90" xlink:href="#meaac600fa7" y="123.9"/>
      </g>
     </g>
     <g id="text_11">
      <!-- 130,000.0 -->
      <defs>
       <path d="M 40.578125 39.3125 
Q 47.65625 37.796875 51.625 33 
Q 55.609375 28.21875 55.609375 21.1875 
Q 55.609375 10.40625 48.1875 4.484375 
Q 40.765625 -1.421875 27.09375 -1.421875 
Q 22.515625 -1.421875 17.65625 -0.515625 
Q 12.796875 0.390625 7.625 2.203125 
L 7.625 11.71875 
Q 11.71875 9.328125 16.59375 8.109375 
Q 21.484375 6.890625 26.8125 6.890625 
Q 36.078125 6.890625 40.9375 10.546875 
Q 45.796875 14.203125 45.796875 21.1875 
Q 45.796875 27.640625 41.28125 31.265625 
Q 36.765625 34.90625 28.71875 34.90625 
L 20.21875 34.90625 
L 20.21875 43.015625 
L 29.109375 43.015625 
Q 36.375 43.015625 40.234375 45.921875 
Q 44.09375 48.828125 44.09375 54.296875 
Q 44.09375 59.90625 40.109375 62.90625 
Q 36.140625 65.921875 28.71875 65.921875 
Q 24.65625 65.921875 20.015625 65.03125 
Q 15.375 64.15625 9.8125 62.3125 
L 9.8125 71.09375 
Q 15.4375 72.65625 20.34375 73.4375 
Q 25.25 74.21875 29.59375 74.21875 
Q 40.828125 74.21875 47.359375 69.109375 
Q 53.90625 64.015625 53.90625 55.328125 
Q 53.90625 49.265625 50.4375 45.09375 
Q 46.96875 40.921875 40.578125 39.3125 
z
" id="DejaVuSans-51"/>
      </defs>
      <g transform="translate(27.016875 128.079141)scale(0.11 -0.11)">
       <use xlink:href="#DejaVuSans-49"/>
       <use x="63.623047" xlink:href="#DejaVuSans-51"/>
       <use x="127.246094" xlink:href="#DejaVuSans-48"/>
       <use x="190.869141" xlink:href="#DejaVuSans-44"/>
       <use x="222.65625" xlink:href="#DejaVuSans-48"/>
       <use x="286.279297" xlink:href="#DejaVuSans-48"/>
       <use x="349.902344" xlink:href="#DejaVuSans-48"/>
       <use x="413.525391" xlink:href="#DejaVuSans-46"/>
       <use x="445.3125" xlink:href="#DejaVuSans-48"/>
      </g>
     </g>
    </g>
    <g id="ytick_7">
     <g id="line2d_12">
      <g>
       <use style="stroke:#000000;stroke-width:0.8;" x="90" xlink:href="#meaac600fa7" y="60.48"/>
      </g>
     </g>
     <g id="text_12">
      <!-- 140,000.0 -->
      <g transform="translate(27.016875 64.659141)scale(0.11 -0.11)">
       <use xlink:href="#DejaVuSans-49"/>
       <use x="63.623047" xlink:href="#DejaVuSans-52"/>
       <use x="127.246094" xlink:href="#DejaVuSans-48"/>
       <use x="190.869141" xlink:href="#DejaVuSans-44"/>
       <use x="222.65625" xlink:href="#DejaVuSans-48"/>
       <use x="286.279297" xlink:href="#DejaVuSans-48"/>
       <use x="349.902344" xlink:href="#DejaVuSans-48"/>
       <use x="413.525391" xlink:href="#DejaVuSans-46"/>
       <use x="445.3125" xlink:href="#DejaVuSans-48"/>
      </g>
     </g>
    </g>
    <g id="text_13">
     <!-- Transfer from MF6 to HSPF (m3/day) -->
     <defs>
      <path d="M -0.296875 72.90625 
L 61.375 72.90625 
L 61.375 64.59375 
L 35.5 64.59375 
L 35.5 0 
L 25.59375 0 
L 25.59375 64.59375 
L -0.296875 64.59375 
z
" id="DejaVuSans-84"/>
      <path d="M 41.109375 46.296875 
Q 39.59375 47.171875 37.8125 47.578125 
Q 36.03125 48 33.890625 48 
Q 26.265625 48 22.1875 43.046875 
Q 18.109375 38.09375 18.109375 28.8125 
L 18.109375 0 
L 9.078125 0 
L 9.078125 54.6875 
L 18.109375 54.6875 
L 18.109375 46.1875 
Q 20.953125 51.171875 25.484375 53.578125 
Q 30.03125 56 36.53125 56 
Q 37.453125 56 38.578125 55.875 
Q 39.703125 55.765625 41.0625 55.515625 
z
" id="DejaVuSans-114"/>
      <path d="M 34.28125 27.484375 
Q 23.390625 27.484375 19.1875 25 
Q 14.984375 22.515625 14.984375 16.5 
Q 14.984375 11.71875 18.140625 8.90625 
Q 21.296875 6.109375 26.703125 6.109375 
Q 34.1875 6.109375 38.703125 11.40625 
Q 43.21875 16.703125 43.21875 25.484375 
L 43.21875 27.484375 
z
M 52.203125 31.203125 
L 52.203125 0 
L 43.21875 0 
L 43.21875 8.296875 
Q 40.140625 3.328125 35.546875 0.953125 
Q 30.953125 -1.421875 24.3125 -1.421875 
Q 15.921875 -1.421875 10.953125 3.296875 
Q 6 8.015625 6 15.921875 
Q 6 25.140625 12.171875 29.828125 
Q 18.359375 34.515625 30.609375 34.515625 
L 43.21875 34.515625 
L 43.21875 35.40625 
Q 43.21875 41.609375 39.140625 45 
Q 35.0625 48.390625 27.6875 48.390625 
Q 23 48.390625 18.546875 47.265625 
Q 14.109375 46.140625 10.015625 43.890625 
L 10.015625 52.203125 
Q 14.9375 54.109375 19.578125 55.046875 
Q 24.21875 56 28.609375 56 
Q 40.484375 56 46.34375 49.84375 
Q 52.203125 43.703125 52.203125 31.203125 
z
" id="DejaVuSans-97"/>
      <path d="M 54.890625 33.015625 
L 54.890625 0 
L 45.90625 0 
L 45.90625 32.71875 
Q 45.90625 40.484375 42.875 44.328125 
Q 39.84375 48.1875 33.796875 48.1875 
Q 26.515625 48.1875 22.3125 43.546875 
Q 18.109375 38.921875 18.109375 30.90625 
L 18.109375 0 
L 9.078125 0 
L 9.078125 54.6875 
L 18.109375 54.6875 
L 18.109375 46.1875 
Q 21.34375 51.125 25.703125 53.5625 
Q 30.078125 56 35.796875 56 
Q 45.21875 56 50.046875 50.171875 
Q 54.890625 44.34375 54.890625 33.015625 
z
" id="DejaVuSans-110"/>
      <path d="M 44.28125 53.078125 
L 44.28125 44.578125 
Q 40.484375 46.53125 36.375 47.5 
Q 32.28125 48.484375 27.875 48.484375 
Q 21.1875 48.484375 17.84375 46.4375 
Q 14.5 44.390625 14.5 40.28125 
Q 14.5 37.15625 16.890625 35.375 
Q 19.28125 33.59375 26.515625 31.984375 
L 29.59375 31.296875 
Q 39.15625 29.25 43.1875 25.515625 
Q 47.21875 21.78125 47.21875 15.09375 
Q 47.21875 7.46875 41.1875 3.015625 
Q 35.15625 -1.421875 24.609375 -1.421875 
Q 20.21875 -1.421875 15.453125 -0.5625 
Q 10.6875 0.296875 5.421875 2 
L 5.421875 11.28125 
Q 10.40625 8.6875 15.234375 7.390625 
Q 20.0625 6.109375 24.8125 6.109375 
Q 31.15625 6.109375 34.5625 8.28125 
Q 37.984375 10.453125 37.984375 14.40625 
Q 37.984375 18.0625 35.515625 20.015625 
Q 33.0625 21.96875 24.703125 23.78125 
L 21.578125 24.515625 
Q 13.234375 26.265625 9.515625 29.90625 
Q 5.8125 33.546875 5.8125 39.890625 
Q 5.8125 47.609375 11.28125 51.796875 
Q 16.75 56 26.8125 56 
Q 31.78125 56 36.171875 55.265625 
Q 40.578125 54.546875 44.28125 53.078125 
z
" id="DejaVuSans-115"/>
      <path d="M 37.109375 75.984375 
L 37.109375 68.5 
L 28.515625 68.5 
Q 23.6875 68.5 21.796875 66.546875 
Q 19.921875 64.59375 19.921875 59.515625 
L 19.921875 54.6875 
L 34.71875 54.6875 
L 34.71875 47.703125 
L 19.921875 47.703125 
L 19.921875 0 
L 10.890625 0 
L 10.890625 47.703125 
L 2.296875 47.703125 
L 2.296875 54.6875 
L 10.890625 54.6875 
L 10.890625 58.5 
Q 10.890625 67.625 15.140625 71.796875 
Q 19.390625 75.984375 28.609375 75.984375 
z
" id="DejaVuSans-102"/>
      <path d="M 56.203125 29.59375 
L 56.203125 25.203125 
L 14.890625 25.203125 
Q 15.484375 15.921875 20.484375 11.0625 
Q 25.484375 6.203125 34.421875 6.203125 
Q 39.59375 6.203125 44.453125 7.46875 
Q 49.3125 8.734375 54.109375 11.28125 
L 54.109375 2.78125 
Q 49.265625 0.734375 44.1875 -0.34375 
Q 39.109375 -1.421875 33.890625 -1.421875 
Q 20.796875 -1.421875 13.15625 6.1875 
Q 5.515625 13.8125 5.515625 26.8125 
Q 5.515625 40.234375 12.765625 48.109375 
Q 20.015625 56 32.328125 56 
Q 43.359375 56 49.78125 48.890625 
Q 56.203125 41.796875 56.203125 29.59375 
z
M 47.21875 32.234375 
Q 47.125 39.59375 43.09375 43.984375 
Q 39.0625 48.390625 32.421875 48.390625 
Q 24.90625 48.390625 20.390625 44.140625 
Q 15.875 39.890625 15.1875 32.171875 
z
" id="DejaVuSans-101"/>
      <path id="DejaVuSans-32"/>
      <path d="M 30.609375 48.390625 
Q 23.390625 48.390625 19.1875 42.75 
Q 14.984375 37.109375 14.984375 27.296875 
Q 14.984375 17.484375 19.15625 11.84375 
Q 23.34375 6.203125 30.609375 6.203125 
Q 37.796875 6.203125 41.984375 11.859375 
Q 46.1875 17.53125 46.1875 27.296875 
Q 46.1875 37.015625 41.984375 42.703125 
Q 37.796875 48.390625 30.609375 48.390625 
z
M 30.609375 56 
Q 42.328125 56 49.015625 48.375 
Q 55.71875 40.765625 55.71875 27.296875 
Q 55.71875 13.875 49.015625 6.21875 
Q 42.328125 -1.421875 30.609375 -1.421875 
Q 18.84375 -1.421875 12.171875 6.21875 
Q 5.515625 13.875 5.515625 27.296875 
Q 5.515625 40.765625 12.171875 48.375 
Q 18.84375 56 30.609375 56 
z
" id="DejaVuSans-111"/>
      <path d="M 52 44.1875 
Q 55.375 50.25 60.0625 53.125 
Q 64.75 56 71.09375 56 
Q 79.640625 56 84.28125 50.015625 
Q 88.921875 44.046875 88.921875 33.015625 
L 88.921875 0 
L 79.890625 0 
L 79.890625 32.71875 
Q 79.890625 40.578125 77.09375 44.375 
Q 74.3125 48.1875 68.609375 48.1875 
Q 61.625 48.1875 57.5625 43.546875 
Q 53.515625 38.921875 53.515625 30.90625 
L 53.515625 0 
L 44.484375 0 
L 44.484375 32.71875 
Q 44.484375 40.625 41.703125 44.40625 
Q 38.921875 48.1875 33.109375 48.1875 
Q 26.21875 48.1875 22.15625 43.53125 
Q 18.109375 38.875 18.109375 30.90625 
L 18.109375 0 
L 9.078125 0 
L 9.078125 54.6875 
L 18.109375 54.6875 
L 18.109375 46.1875 
Q 21.1875 51.21875 25.484375 53.609375 
Q 29.78125 56 35.6875 56 
Q 41.65625 56 45.828125 52.96875 
Q 50 49.953125 52 44.1875 
z
" id="DejaVuSans-109"/>
      <path d="M 9.8125 72.90625 
L 24.515625 72.90625 
L 43.109375 23.296875 
L 61.8125 72.90625 
L 76.515625 72.90625 
L 76.515625 0 
L 66.890625 0 
L 66.890625 64.015625 
L 48.09375 14.015625 
L 38.1875 14.015625 
L 19.390625 64.015625 
L 19.390625 0 
L 9.8125 0 
z
" id="DejaVuSans-77"/>
      <path d="M 9.8125 72.90625 
L 51.703125 72.90625 
L 51.703125 64.59375 
L 19.671875 64.59375 
L 19.671875 43.109375 
L 48.578125 43.109375 
L 48.578125 34.8125 
L 19.671875 34.8125 
L 19.671875 0 
L 9.8125 0 
z
" id="DejaVuSans-70"/>
      <path d="M 18.3125 70.21875 
L 18.3125 54.6875 
L 36.8125 54.6875 
L 36.8125 47.703125 
L 18.3125 47.703125 
L 18.3125 18.015625 
Q 18.3125 11.328125 20.140625 9.421875 
Q 21.96875 7.515625 27.59375 7.515625 
L 36.8125 7.515625 
L 36.8125 0 
L 27.59375 0 
Q 17.1875 0 13.234375 3.875 
Q 9.28125 7.765625 9.28125 18.015625 
L 9.28125 47.703125 
L 2.6875 47.703125 
L 2.6875 54.6875 
L 9.28125 54.6875 
L 9.28125 70.21875 
z
" id="DejaVuSans-116"/>
      <path d="M 9.8125 72.90625 
L 19.671875 72.90625 
L 19.671875 43.015625 
L 55.515625 43.015625 
L 55.515625 72.90625 
L 65.375 72.90625 
L 65.375 0 
L 55.515625 0 
L 55.515625 34.71875 
L 19.671875 34.71875 
L 19.671875 0 
L 9.8125 0 
z
" id="DejaVuSans-72"/>
      <path d="M 53.515625 70.515625 
L 53.515625 60.890625 
Q 47.90625 63.578125 42.921875 64.890625 
Q 37.9375 66.21875 33.296875 66.21875 
Q 25.25 66.21875 20.875 63.09375 
Q 16.5 59.96875 16.5 54.203125 
Q 16.5 49.359375 19.40625 46.890625 
Q 22.3125 44.4375 30.421875 42.921875 
L 36.375 41.703125 
Q 47.40625 39.59375 52.65625 34.296875 
Q 57.90625 29 57.90625 20.125 
Q 57.90625 9.515625 50.796875 4.046875 
Q 43.703125 -1.421875 29.984375 -1.421875 
Q 24.8125 -1.421875 18.96875 -0.25 
Q 13.140625 0.921875 6.890625 3.21875 
L 6.890625 13.375 
Q 12.890625 10.015625 18.65625 8.296875 
Q 24.421875 6.59375 29.984375 6.59375 
Q 38.421875 6.59375 43.015625 9.90625 
Q 47.609375 13.234375 47.609375 19.390625 
Q 47.609375 24.75 44.3125 27.78125 
Q 41.015625 30.8125 33.5 32.328125 
L 27.484375 33.5 
Q 16.453125 35.6875 11.515625 40.375 
Q 6.59375 45.0625 6.59375 53.421875 
Q 6.59375 63.09375 13.40625 68.65625 
Q 20.21875 74.21875 32.171875 74.21875 
Q 37.3125 74.21875 42.625 73.28125 
Q 47.953125 72.359375 53.515625 70.515625 
z
" id="DejaVuSans-83"/>
      <path d="M 19.671875 64.796875 
L 19.671875 37.40625 
L 32.078125 37.40625 
Q 38.96875 37.40625 42.71875 40.96875 
Q 46.484375 44.53125 46.484375 51.125 
Q 46.484375 57.671875 42.71875 61.234375 
Q 38.96875 64.796875 32.078125 64.796875 
z
M 9.8125 72.90625 
L 32.078125 72.90625 
Q 44.34375 72.90625 50.609375 67.359375 
Q 56.890625 61.8125 56.890625 51.125 
Q 56.890625 40.328125 50.609375 34.8125 
Q 44.34375 29.296875 32.078125 29.296875 
L 19.671875 29.296875 
L 19.671875 0 
L 9.8125 0 
z
" id="DejaVuSans-80"/>
      <path d="M 31 75.875 
Q 24.46875 64.65625 21.28125 53.65625 
Q 18.109375 42.671875 18.109375 31.390625 
Q 18.109375 20.125 21.3125 9.0625 
Q 24.515625 -2 31 -13.1875 
L 23.1875 -13.1875 
Q 15.875 -1.703125 12.234375 9.375 
Q 8.59375 20.453125 8.59375 31.390625 
Q 8.59375 42.28125 12.203125 53.3125 
Q 15.828125 64.359375 23.1875 75.875 
z
" id="DejaVuSans-40"/>
      <path d="M 45.40625 46.390625 
L 45.40625 75.984375 
L 54.390625 75.984375 
L 54.390625 0 
L 45.40625 0 
L 45.40625 8.203125 
Q 42.578125 3.328125 38.25 0.953125 
Q 33.9375 -1.421875 27.875 -1.421875 
Q 17.96875 -1.421875 11.734375 6.484375 
Q 5.515625 14.40625 5.515625 27.296875 
Q 5.515625 40.1875 11.734375 48.09375 
Q 17.96875 56 27.875 56 
Q 33.9375 56 38.25 53.625 
Q 42.578125 51.265625 45.40625 46.390625 
z
M 14.796875 27.296875 
Q 14.796875 17.390625 18.875 11.75 
Q 22.953125 6.109375 30.078125 6.109375 
Q 37.203125 6.109375 41.296875 11.75 
Q 45.40625 17.390625 45.40625 27.296875 
Q 45.40625 37.203125 41.296875 42.84375 
Q 37.203125 48.484375 30.078125 48.484375 
Q 22.953125 48.484375 18.875 42.84375 
Q 14.796875 37.203125 14.796875 27.296875 
z
" id="DejaVuSans-100"/>
      <path d="M 32.171875 -5.078125 
Q 28.375 -14.84375 24.75 -17.8125 
Q 21.140625 -20.796875 15.09375 -20.796875 
L 7.90625 -20.796875 
L 7.90625 -13.28125 
L 13.1875 -13.28125 
Q 16.890625 -13.28125 18.9375 -11.515625 
Q 21 -9.765625 23.484375 -3.21875 
L 25.09375 0.875 
L 2.984375 54.6875 
L 12.5 54.6875 
L 29.59375 11.921875 
L 46.6875 54.6875 
L 56.203125 54.6875 
z
" id="DejaVuSans-121"/>
      <path d="M 8.015625 75.875 
L 15.828125 75.875 
Q 23.140625 64.359375 26.78125 53.3125 
Q 30.421875 42.28125 30.421875 31.390625 
Q 30.421875 20.453125 26.78125 9.375 
Q 23.140625 -1.703125 15.828125 -13.1875 
L 8.015625 -13.1875 
Q 14.5 -2 17.703125 9.0625 
Q 20.90625 20.125 20.90625 31.390625 
Q 20.90625 42.671875 17.703125 53.65625 
Q 14.5 64.65625 8.015625 75.875 
z
" id="DejaVuSans-41"/>
     </defs>
     <g transform="translate(20.52125 360.621562)rotate(-90)scale(0.12 -0.12)">
      <use xlink:href="#DejaVuSans-84"/>
      <use x="60.865234" xlink:href="#DejaVuSans-114"/>
      <use x="101.978516" xlink:href="#DejaVuSans-97"/>
      <use x="163.257812" xlink:href="#DejaVuSans-110"/>
      <use x="226.636719" xlink:href="#DejaVuSans-115"/>
      <use x="278.736328" xlink:href="#DejaVuSans-102"/>
      <use x="313.941406" xlink:href="#DejaVuSans-101"/>
      <use x="375.464844" xlink:href="#DejaVuSans-114"/>
      <use x="416.578125" xlink:href="#DejaVuSans-32"/>
      <use x="448.365234" xlink:href="#DejaVuSans-102"/>
      <use x="483.570312" xlink:href="#DejaVuSans-114"/>
      <use x="524.652344" xlink:href="#DejaVuSans-111"/>
      <use x="585.833984" xlink:href="#DejaVuSans-109"/>
      <use x="683.246094" xlink:href="#DejaVuSans-32"/>
      <use x="715.033203" xlink:href="#DejaVuSans-77"/>
      <use x="801.3125" xlink:href="#DejaVuSans-70"/>
      <use x="858.832031" xlink:href="#DejaVuSans-54"/>
      <use x="922.455078" xlink:href="#DejaVuSans-32"/>
      <use x="954.242188" xlink:href="#DejaVuSans-116"/>
      <use x="993.451172" xlink:href="#DejaVuSans-111"/>
      <use x="1054.632812" xlink:href="#DejaVuSans-32"/>
      <use x="1086.419922" xlink:href="#DejaVuSans-72"/>
      <use x="1161.615234" xlink:href="#DejaVuSans-83"/>
      <use x="1225.091797" xlink:href="#DejaVuSans-80"/>
      <use x="1285.394531" xlink:href="#DejaVuSans-70"/>
      <use x="1342.914062" xlink:href="#DejaVuSans-32"/>
      <use x="1374.701172" xlink:href="#DejaVuSans-40"/>
      <use x="1413.714844" xlink:href="#DejaVuSans-109"/>
      <use x="1511.126953" xlink:href="#DejaVuSans-51"/>
      <use x="1574.75" xlink:href="#DejaVuSans-47"/>
      <use x="1608.441406" xlink:href="#DejaVuSans-100"/>
      <use x="1671.917969" xlink:href="#DejaVuSans-97"/>
      <use x="1733.197266" xlink:href="#DejaVuSans-121"/>
      <use x="1792.376953" xlink:href="#DejaVuSans-41"/>
     </g>
    </g>
   </g>
   <g id="line2d_13">
    <path clip-path="url(#pe67b90b08b)" d="M 90 157.505376 
L 92.444688 160.46756 
L 94.58379 162.941273 
L 95.500548 163.650299 
L 97.334064 165.418911 
L 101.001095 169.421271 
L 106.501643 175.773802 
L 107.112815 176.397624 
L 108.335159 176.927985 
L 111.391019 179.017815 
L 114.446878 181.48413 
L 114.752464 181.254044 
L 115.05805 179.178647 
L 116.891566 176.996829 
L 117.808324 176.438745 
L 119.030668 175.929083 
L 120.864184 175.527083 
L 122.6977 175.314293 
L 123.308872 175.415487 
L 125.447974 175.630026 
L 128.198248 176.166604 
L 137.365827 178.427152 
L 143.783133 180.659207 
L 148.061336 182.767953 
L 150.506024 184.274527 
L 157.228916 188.326304 
L 163.035049 191.446067 
L 167.313253 193.566261 
L 170.980285 195.314497 
L 174.647317 197.061486 
L 175.86966 197.901805 
L 177.703176 199.498061 
L 179.842278 201.607093 
L 182.592552 204.664222 
L 190.232202 213.266384 
L 190.843373 213.698114 
L 192.371303 215.119333 
L 197.871851 220.639771 
L 198.177437 220.64194 
L 198.483023 219.601974 
L 198.788609 219.243855 
L 199.094195 219.183567 
L 199.399781 219.004171 
L 199.705367 218.491949 
L 200.010953 218.445221 
L 200.927711 217.922084 
L 202.455641 217.4221 
L 203.677985 217.246978 
L 205.511501 217.293256 
L 207.650602 217.636853 
L 209.484118 218.299522 
L 211.012048 219.098544 
L 211.317634 219.258382 
L 211.62322 219.242004 
L 213.456736 220.111317 
L 217.429354 222.5056 
L 220.485214 224.813581 
L 228.430449 231.385099 
L 229.958379 232.416058 
L 232.097481 234.085103 
L 233.625411 235.246779 
L 239.125958 239.555464 
L 240.042716 240.289342 
L 240.348302 240.257339 
L 240.653888 239.490061 
L 241.26506 239.130762 
L 242.181818 238.80198 
L 243.404162 238.567842 
L 244.932092 238.521065 
L 246.765608 238.70152 
L 248.599124 239.127348 
L 250.738226 239.896626 
L 252.877327 240.882433 
L 258.683461 243.658377 
L 262.656079 245.495388 
L 266.323111 247.475677 
L 271.823658 250.798137 
L 280.380066 256.438858 
L 281.60241 257.257613 
L 282.824754 257.563778 
L 284.352683 258.243702 
L 285.880613 259.076768 
L 290.464403 261.748315 
L 294.742607 264.257872 
L 297.492881 265.857676 
L 298.104053 262.376375 
L 299.326396 259.657748 
L 300.243154 258.342871 
L 300.854326 257.310832 
L 301.771084 256.01246 
L 302.993428 254.504566 
L 303.299014 254.35551 
L 303.6046 253.926081 
L 304.215772 253.560637 
L 305.743702 252.482452 
L 307.271632 251.672509 
L 308.799562 251.030622 
L 310.938664 250.393955 
L 313.688938 249.863409 
L 316.744797 249.550349 
L 319.189485 249.443467 
L 320.106243 249.480168 
L 321.634173 249.796031 
L 329.579409 251.934256 
L 340.88609 254.321911 
L 342.41402 255.177593 
L 346.997809 258.211415 
L 347.914567 258.886217 
L 348.220153 258.628086 
L 348.525739 257.48261 
L 349.136911 257.061718 
L 350.664841 256.102015 
L 350.970427 256.187924 
L 353.720701 255.682244 
L 356.165389 255.493545 
L 359.526835 255.526396 
L 366.555312 256.110082 
L 373.58379 257.062587 
L 376.334064 257.94559 
L 380.306681 259.389606 
L 383.362541 260.379161 
L 386.723987 261.324183 
L 390.085433 262.133384 
L 390.696605 262.159774 
L 391.002191 261.984573 
L 393.141292 261.699025 
L 393.752464 261.794157 
L 396.502738 261.767673 
L 401.086528 262.090804 
L 407.198248 262.797632 
L 414.532311 263.876476 
L 419.116101 265.171519 
L 421.866375 266.321222 
L 423.394304 266.868723 
L 424.005476 266.703421 
L 426.144578 267.372421 
L 431.950712 269.030195 
L 438.368018 270.498123 
L 440.201533 270.777726 
L 440.507119 270.72231 
L 441.423877 271.071243 
L 442.646221 271.33541 
L 443.562979 271.476486 
L 444.174151 271.613431 
L 444.479737 271.56496 
L 445.090909 271.782921 
L 451.202629 272.879637 
L 451.813801 271.920473 
L 452.119387 272.247246 
L 453.952903 272.030392 
L 459.45345 272.078236 
L 465.259584 272.562226 
L 467.0931 272.788718 
L 471.065717 273.259446 
L 472.593647 273.515488 
L 473.510405 273.575852 
L 478.705367 274.364546 
L 480.538883 274.92183 
L 482.983571 275.809171 
L 487.261774 277.222803 
L 492.762322 278.664486 
L 498.26287 279.81892 
L 502.541073 280.775154 
L 504.985761 281.436219 
L 506.208105 282.07704 
L 509.263965 283.800062 
L 510.486309 284.494895 
L 513.542169 286.532834 
L 515.681271 288.201852 
L 518.73713 290.867603 
L 523.932092 295.358528 
L 524.543264 295.717331 
L 526.071194 296.853126 
L 526.682366 296.971905 
L 526.987952 295.299755 
L 527.293538 294.721098 
L 527.599124 294.646609 
L 528.515882 293.908893 
L 529.127054 293.360726 
L 529.738226 292.765536 
L 530.96057 292.044013 
L 532.488499 291.432929 
L 534.322015 290.902161 
L 538.294633 290.29104 
L 540.128149 290.138521 
L 543.795181 290.054236 
L 545.628697 290.097932 
L 550.212486 290.456509 
L 552.96276 290.812365 
L 554.49069 291.104788 
L 556.01862 291.621154 
L 561.213582 293.677858 
L 563.047097 294.251404 
L 563.352683 294.232684 
L 563.658269 293.405957 
L 564.269441 293.170124 
L 564.575027 293.180526 
L 565.797371 292.848501 
L 569.158817 292.32131 
L 572.520263 292.02786 
L 575.576123 291.926128 
L 589.021906 292.43057 
L 590.549836 292.642945 
L 594.216867 293.583356 
L 597.272727 294.46171 
L 600.634173 295.253464 
L 603.690033 295.860375 
L 614.996714 297.655687 
L 616.219058 298.200535 
L 617.746988 299.100109 
L 620.497262 301.106509 
L 623.858708 303.92419 
L 629.664841 309.115529 
L 629.970427 309.395553 
L 630.581599 309.629656 
L 632.109529 310.65503 
L 635.470975 313.159695 
L 636.693319 313.891079 
L 638.526835 315.211485 
L 642.499452 318.363674 
L 648 322.838678 
L 648 322.838678 
" style="fill:none;stroke:#03719c;stroke-linecap:square;stroke-width:4;"/>
   </g>
   <g id="line2d_14">
    <path clip-path="url(#pe67b90b08b)" d="M 90 157.130465 
L 94.889376 162.942255 
L 95.806134 163.643528 
L 97.63965 165.414137 
L 101.306681 169.427805 
L 107.418401 176.393621 
L 108.640745 176.924261 
L 112.002191 179.262155 
L 113.53012 180.498603 
L 114.752464 181.474357 
L 115.05805 181.255619 
L 115.363636 179.180449 
L 116.891566 177.264512 
L 117.808324 176.521879 
L 118.419496 176.287147 
L 119.64184 175.839645 
L 121.475356 175.48316 
L 123.308872 175.395725 
L 125.75356 175.624071 
L 128.198248 176.093059 
L 137.060241 178.239192 
L 142.560789 180.030511 
L 147.144578 182.091656 
L 150.200438 183.87074 
L 156.617744 187.796554 
L 162.118291 190.812385 
L 168.230011 193.865279 
L 175.564074 197.458003 
L 177.092004 198.66079 
L 179.536692 200.976303 
L 181.675794 203.268242 
L 190.537788 213.26857 
L 191.148959 213.694645 
L 193.288061 215.730186 
L 198.177437 220.636827 
L 198.483023 220.641244 
L 198.788609 219.59954 
L 199.094195 219.24216 
L 199.705367 219.004026 
L 200.010953 218.493439 
L 200.316539 218.443962 
L 201.233297 217.92132 
L 202.455641 217.491306 
L 203.677985 217.271733 
L 205.511501 217.261826 
L 207.650602 217.564417 
L 209.178532 218.040805 
L 210.706462 218.757357 
L 211.62322 219.25726 
L 211.928806 219.246696 
L 213.456736 219.943671 
L 215.595838 221.232163 
L 216.818182 221.945611 
L 218.346112 222.925722 
L 220.485214 224.558523 
L 229.347207 231.765757 
L 231.486309 233.348365 
L 240.348302 240.2881 
L 240.653888 240.256946 
L 240.959474 239.493006 
L 241.570646 239.132582 
L 242.487404 238.800507 
L 243.709748 238.565774 
L 245.543264 238.531338 
L 247.682366 238.815905 
L 249.515882 239.314316 
L 251.654984 240.15262 
L 254.405257 241.507718 
L 257.766703 243.174002 
L 262.656079 245.333384 
L 267.545455 247.972498 
L 271.518072 250.396991 
L 282.213582 257.308377 
L 282.824754 257.449109 
L 284.658269 258.236862 
L 287.102957 259.619235 
L 290.769989 261.748657 
L 294.742607 264.062021 
L 297.798467 265.858115 
L 298.409639 262.375863 
L 299.631982 259.657312 
L 300.54874 258.335757 
L 301.159912 257.315718 
L 302.07667 256.01517 
L 303.299014 254.509434 
L 303.6046 254.35402 
L 303.910186 253.923289 
L 304.215772 253.805057 
L 305.743702 252.680634 
L 307.271632 251.813801 
L 309.410734 250.927094 
L 311.549836 250.316837 
L 313.994524 249.862293 
L 316.744797 249.568355 
L 319.800657 249.433711 
L 321.023001 249.579994 
L 323.162103 250.140594 
L 326.523549 251.145115 
L 330.190581 252.000787 
L 336.3023 253.204828 
L 340.580504 254.085089 
L 341.497262 254.475593 
L 343.330778 255.57304 
L 344.247536 256.072048 
L 346.081051 257.301275 
L 348.220153 258.884003 
L 348.525739 258.622055 
L 348.831325 257.479309 
L 349.442497 257.060932 
L 350.970427 256.093653 
L 351.276013 256.187355 
L 354.026287 255.6822 
L 356.470975 255.492051 
L 359.526835 255.515626 
L 363.805038 255.728514 
L 364.41621 255.861607 
L 370.833516 256.579292 
L 373.889376 257.066721 
L 376.334064 257.835615 
L 383.056955 260.189683 
L 387.029573 261.321507 
L 390.696605 262.175508 
L 391.002191 262.155514 
L 391.307777 261.984702 
L 393.446878 261.699419 
L 394.05805 261.787272 
L 398.030668 261.818068 
L 402.920044 262.204693 
L 404.75356 262.450526 
L 412.698795 263.510075 
L 415.143483 263.962828 
L 416.365827 264.250559 
L 417.282585 264.40848 
L 418.810515 264.919245 
L 423.69989 266.861562 
L 424.311062 266.708475 
L 427.061336 267.560865 
L 431.950712 268.950698 
L 438.368018 270.456972 
L 441.423877 270.867291 
L 442.035049 271.156096 
L 444.479737 271.613923 
L 444.785323 271.566117 
L 445.396495 271.780259 
L 451.508215 272.874602 
L 452.119387 271.922184 
L 452.424973 272.241666 
L 454.564074 272.018572 
L 457.314348 271.975839 
L 460.98138 272.156917 
L 466.787514 272.714951 
L 471.982475 273.396946 
L 472.899233 273.513864 
L 474.121577 273.617116 
L 479.010953 274.362852 
L 481.150055 275.022884 
L 488.178532 277.39611 
L 493.067908 278.660788 
L 498.874042 279.879809 
L 502.846659 280.765741 
L 505.596933 281.570026 
L 507.124863 282.457031 
L 508.958379 283.623054 
L 509.569551 283.793806 
L 511.097481 284.690301 
L 515.986857 288.205558 
L 519.348302 291.133237 
L 523.932092 295.109125 
L 524.84885 295.720575 
L 526.37678 296.857353 
L 526.682366 296.857652 
L 526.987952 296.970452 
L 527.293538 295.296469 
L 527.599124 294.721068 
L 527.90471 294.644375 
L 530.349398 292.561028 
L 531.571742 291.896461 
L 533.405257 291.2381 
L 535.544359 290.703223 
L 538.294633 290.318627 
L 541.656079 290.075658 
L 545.017525 290.063543 
L 548.990142 290.304184 
L 553.268346 290.808085 
L 554.796276 291.098979 
L 556.629792 291.745463 
L 560.907996 293.452689 
L 563.352683 294.24832 
L 563.658269 294.2334 
L 563.963855 293.406375 
L 564.575027 293.163884 
L 565.186199 293.079373 
L 565.491785 292.99534 
L 565.797371 292.779706 
L 566.102957 292.847327 
L 568.853231 292.396722 
L 571.909091 292.083327 
L 576.187295 291.927913 
L 581.382256 292.02824 
L 589.021906 292.411045 
L 590.549836 292.592421 
L 592.994524 293.145979 
L 595.439211 293.8833 
L 598.189485 294.618712 
L 603.078861 295.684587 
L 608.579409 296.601254 
L 615.607886 297.766561 
L 617.135816 298.532351 
L 618.969332 299.737286 
L 620.802848 301.103903 
L 624.46988 304.194218 
L 630.581599 309.479188 
L 631.498357 310.015438 
L 633.637459 311.596614 
L 635.776561 313.162153 
L 636.998905 313.885389 
L 639.138007 315.441319 
L 643.721796 319.109423 
L 648 322.590362 
L 648 322.590362 
" style="fill:none;stroke:#c04e01;stroke-linecap:square;stroke-width:2;"/>
   </g>
   <g id="patch_3">
    <path d="M 90 441 
L 90 60.48 
" style="fill:none;stroke:#000000;stroke-linecap:square;stroke-linejoin:miter;stroke-width:0.8;"/>
   </g>
   <g id="patch_4">
    <path d="M 648 441 
L 648 60.48 
" style="fill:none;stroke:#000000;stroke-linecap:square;stroke-linejoin:miter;stroke-width:0.8;"/>
   </g>
   <g id="patch_5">
    <path d="M 90 441 
L 648 441 
" style="fill:none;stroke:#000000;stroke-linecap:square;stroke-linejoin:miter;stroke-width:0.8;"/>
   </g>
   <g id="patch_6">
    <path d="M 90 60.48 
L 648 60.48 
" style="fill:none;stroke:#000000;stroke-linecap:square;stroke-linejoin:miter;stroke-width:0.8;"/>
   </g>
   <g id="legend_1">
    <g id="patch_7">
     <path d="M 231.18375 105.3075 
L 506.81625 105.3075 
Q 509.21625 105.3075 509.21625 102.9075 
L 509.21625 68.88 
Q 509.21625 66.48 506.81625 66.48 
L 231.18375 66.48 
Q 228.78375 66.48 228.78375 68.88 
L 228.78375 102.9075 
Q 228.78375 105.3075 231.18375 105.3075 
z
" style="fill:#ffffff;opacity:0.8;stroke:#cccccc;stroke-linejoin:miter;"/>
    </g>
    <g id="line2d_15">
     <path d="M 233.58375 76.198125 
L 257.58375 76.198125 
" style="fill:none;stroke:#03719c;stroke-linecap:square;stroke-width:4;"/>
    </g>
    <g id="line2d_16"/>
    <g id="text_14">
     <!-- MF6 Total Surface Discharge -->
     <defs>
      <path d="M 9.421875 75.984375 
L 18.40625 75.984375 
L 18.40625 0 
L 9.421875 0 
z
" id="DejaVuSans-108"/>
      <path d="M 8.5 21.578125 
L 8.5 54.6875 
L 17.484375 54.6875 
L 17.484375 21.921875 
Q 17.484375 14.15625 20.5 10.265625 
Q 23.53125 6.390625 29.59375 6.390625 
Q 36.859375 6.390625 41.078125 11.03125 
Q 45.3125 15.671875 45.3125 23.6875 
L 45.3125 54.6875 
L 54.296875 54.6875 
L 54.296875 0 
L 45.3125 0 
L 45.3125 8.40625 
Q 42.046875 3.421875 37.71875 1 
Q 33.40625 -1.421875 27.6875 -1.421875 
Q 18.265625 -1.421875 13.375 4.4375 
Q 8.5 10.296875 8.5 21.578125 
z
M 31.109375 56 
z
" id="DejaVuSans-117"/>
      <path d="M 48.78125 52.59375 
L 48.78125 44.1875 
Q 44.96875 46.296875 41.140625 47.34375 
Q 37.3125 48.390625 33.40625 48.390625 
Q 24.65625 48.390625 19.8125 42.84375 
Q 14.984375 37.3125 14.984375 27.296875 
Q 14.984375 17.28125 19.8125 11.734375 
Q 24.65625 6.203125 33.40625 6.203125 
Q 37.3125 6.203125 41.140625 7.25 
Q 44.96875 8.296875 48.78125 10.40625 
L 48.78125 2.09375 
Q 45.015625 0.34375 40.984375 -0.53125 
Q 36.96875 -1.421875 32.421875 -1.421875 
Q 20.0625 -1.421875 12.78125 6.34375 
Q 5.515625 14.109375 5.515625 27.296875 
Q 5.515625 40.671875 12.859375 48.328125 
Q 20.21875 56 33.015625 56 
Q 37.15625 56 41.109375 55.140625 
Q 45.0625 54.296875 48.78125 52.59375 
z
" id="DejaVuSans-99"/>
      <path d="M 19.671875 64.796875 
L 19.671875 8.109375 
L 31.59375 8.109375 
Q 46.6875 8.109375 53.6875 14.9375 
Q 60.6875 21.78125 60.6875 36.53125 
Q 60.6875 51.171875 53.6875 57.984375 
Q 46.6875 64.796875 31.59375 64.796875 
z
M 9.8125 72.90625 
L 30.078125 72.90625 
Q 51.265625 72.90625 61.171875 64.09375 
Q 71.09375 55.28125 71.09375 36.53125 
Q 71.09375 17.671875 61.125 8.828125 
Q 51.171875 0 30.078125 0 
L 9.8125 0 
z
" id="DejaVuSans-68"/>
      <path d="M 9.421875 54.6875 
L 18.40625 54.6875 
L 18.40625 0 
L 9.421875 0 
z
M 9.421875 75.984375 
L 18.40625 75.984375 
L 18.40625 64.59375 
L 9.421875 64.59375 
z
" id="DejaVuSans-105"/>
      <path d="M 54.890625 33.015625 
L 54.890625 0 
L 45.90625 0 
L 45.90625 32.71875 
Q 45.90625 40.484375 42.875 44.328125 
Q 39.84375 48.1875 33.796875 48.1875 
Q 26.515625 48.1875 22.3125 43.546875 
Q 18.109375 38.921875 18.109375 30.90625 
L 18.109375 0 
L 9.078125 0 
L 9.078125 75.984375 
L 18.109375 75.984375 
L 18.109375 46.1875 
Q 21.34375 51.125 25.703125 53.5625 
Q 30.078125 56 35.796875 56 
Q 45.21875 56 50.046875 50.171875 
Q 54.890625 44.34375 54.890625 33.015625 
z
" id="DejaVuSans-104"/>
      <path d="M 45.40625 27.984375 
Q 45.40625 37.75 41.375 43.109375 
Q 37.359375 48.484375 30.078125 48.484375 
Q 22.859375 48.484375 18.828125 43.109375 
Q 14.796875 37.75 14.796875 27.984375 
Q 14.796875 18.265625 18.828125 12.890625 
Q 22.859375 7.515625 30.078125 7.515625 
Q 37.359375 7.515625 41.375 12.890625 
Q 45.40625 18.265625 45.40625 27.984375 
z
M 54.390625 6.78125 
Q 54.390625 -7.171875 48.1875 -13.984375 
Q 42 -20.796875 29.203125 -20.796875 
Q 24.46875 -20.796875 20.265625 -20.09375 
Q 16.0625 -19.390625 12.109375 -17.921875 
L 12.109375 -9.1875 
Q 16.0625 -11.328125 19.921875 -12.34375 
Q 23.78125 -13.375 27.78125 -13.375 
Q 36.625 -13.375 41.015625 -8.765625 
Q 45.40625 -4.15625 45.40625 5.171875 
L 45.40625 9.625 
Q 42.625 4.78125 38.28125 2.390625 
Q 33.9375 0 27.875 0 
Q 17.828125 0 11.671875 7.65625 
Q 5.515625 15.328125 5.515625 27.984375 
Q 5.515625 40.671875 11.671875 48.328125 
Q 17.828125 56 27.875 56 
Q 33.9375 56 38.28125 53.609375 
Q 42.625 51.21875 45.40625 46.390625 
L 45.40625 54.6875 
L 54.390625 54.6875 
z
" id="DejaVuSans-103"/>
     </defs>
     <g transform="translate(267.18375 80.398125)scale(0.12 -0.12)">
      <use xlink:href="#DejaVuSans-77"/>
      <use x="86.279297" xlink:href="#DejaVuSans-70"/>
      <use x="143.798828" xlink:href="#DejaVuSans-54"/>
      <use x="207.421875" xlink:href="#DejaVuSans-32"/>
      <use x="239.208984" xlink:href="#DejaVuSans-84"/>
      <use x="300.027344" xlink:href="#DejaVuSans-111"/>
      <use x="361.208984" xlink:href="#DejaVuSans-116"/>
      <use x="400.417969" xlink:href="#DejaVuSans-97"/>
      <use x="461.697266" xlink:href="#DejaVuSans-108"/>
      <use x="489.480469" xlink:href="#DejaVuSans-32"/>
      <use x="521.267578" xlink:href="#DejaVuSans-83"/>
      <use x="584.744141" xlink:href="#DejaVuSans-117"/>
      <use x="648.123047" xlink:href="#DejaVuSans-114"/>
      <use x="689.236328" xlink:href="#DejaVuSans-102"/>
      <use x="724.441406" xlink:href="#DejaVuSans-97"/>
      <use x="785.720703" xlink:href="#DejaVuSans-99"/>
      <use x="840.701172" xlink:href="#DejaVuSans-101"/>
      <use x="902.224609" xlink:href="#DejaVuSans-32"/>
      <use x="934.011719" xlink:href="#DejaVuSans-68"/>
      <use x="1011.013672" xlink:href="#DejaVuSans-105"/>
      <use x="1038.796875" xlink:href="#DejaVuSans-115"/>
      <use x="1090.896484" xlink:href="#DejaVuSans-99"/>
      <use x="1145.876953" xlink:href="#DejaVuSans-104"/>
      <use x="1209.255859" xlink:href="#DejaVuSans-97"/>
      <use x="1270.535156" xlink:href="#DejaVuSans-114"/>
      <use x="1311.632812" xlink:href="#DejaVuSans-103"/>
      <use x="1375.109375" xlink:href="#DejaVuSans-101"/>
     </g>
    </g>
    <g id="line2d_17">
     <path d="M 233.58375 93.811875 
L 257.58375 93.811875 
" style="fill:none;stroke:#c04e01;stroke-linecap:square;stroke-width:2;"/>
    </g>
    <g id="line2d_18"/>
    <g id="text_15">
     <!-- HSPF Total Surface Discharge Received -->
     <defs>
      <path d="M 44.390625 34.1875 
Q 47.5625 33.109375 50.5625 29.59375 
Q 53.5625 26.078125 56.59375 19.921875 
L 66.609375 0 
L 56 0 
L 46.6875 18.703125 
Q 43.0625 26.03125 39.671875 28.421875 
Q 36.28125 30.8125 30.421875 30.8125 
L 19.671875 30.8125 
L 19.671875 0 
L 9.8125 0 
L 9.8125 72.90625 
L 32.078125 72.90625 
Q 44.578125 72.90625 50.734375 67.671875 
Q 56.890625 62.453125 56.890625 51.90625 
Q 56.890625 45.015625 53.6875 40.46875 
Q 50.484375 35.9375 44.390625 34.1875 
z
M 19.671875 64.796875 
L 19.671875 38.921875 
L 32.078125 38.921875 
Q 39.203125 38.921875 42.84375 42.21875 
Q 46.484375 45.515625 46.484375 51.90625 
Q 46.484375 58.296875 42.84375 61.546875 
Q 39.203125 64.796875 32.078125 64.796875 
z
" id="DejaVuSans-82"/>
      <path d="M 2.984375 54.6875 
L 12.5 54.6875 
L 29.59375 8.796875 
L 46.6875 54.6875 
L 56.203125 54.6875 
L 35.6875 0 
L 23.484375 0 
z
" id="DejaVuSans-118"/>
     </defs>
     <g transform="translate(267.18375 98.011875)scale(0.12 -0.12)">
      <use xlink:href="#DejaVuSans-72"/>
      <use x="75.195312" xlink:href="#DejaVuSans-83"/>
      <use x="138.671875" xlink:href="#DejaVuSans-80"/>
      <use x="198.974609" xlink:href="#DejaVuSans-70"/>
      <use x="256.494141" xlink:href="#DejaVuSans-32"/>
      <use x="288.28125" xlink:href="#DejaVuSans-84"/>
      <use x="349.099609" xlink:href="#DejaVuSans-111"/>
      <use x="410.28125" xlink:href="#DejaVuSans-116"/>
      <use x="449.490234" xlink:href="#DejaVuSans-97"/>
      <use x="510.769531" xlink:href="#DejaVuSans-108"/>
      <use x="538.552734" xlink:href="#DejaVuSans-32"/>
      <use x="570.339844" xlink:href="#DejaVuSans-83"/>
      <use x="633.816406" xlink:href="#DejaVuSans-117"/>
      <use x="697.195312" xlink:href="#DejaVuSans-114"/>
      <use x="738.308594" xlink:href="#DejaVuSans-102"/>
      <use x="773.513672" xlink:href="#DejaVuSans-97"/>
      <use x="834.792969" xlink:href="#DejaVuSans-99"/>
      <use x="889.773438" xlink:href="#DejaVuSans-101"/>
      <use x="951.296875" xlink:href="#DejaVuSans-32"/>
      <use x="983.083984" xlink:href="#DejaVuSans-68"/>
      <use x="1060.085938" xlink:href="#DejaVuSans-105"/>
      <use x="1087.869141" xlink:href="#DejaVuSans-115"/>
      <use x="1139.96875" xlink:href="#DejaVuSans-99"/>
      <use x="1194.949219" xlink:href="#DejaVuSans-104"/>
      <use x="1258.328125" xlink:href="#DejaVuSans-97"/>
      <use x="1319.607422" xlink:href="#DejaVuSans-114"/>
      <use x="1360.705078" xlink:href="#DejaVuSans-103"/>
      <use x="1424.181641" xlink:href="#DejaVuSans-101"/>
      <use x="1485.705078" xlink:href="#DejaVuSans-32"/>
      <use x="1517.492188" xlink:href="#DejaVuSans-82"/>
      <use x="1586.912109" xlink:href="#DejaVuSans-101"/>
      <use x="1648.435547" xlink:href="#DejaVuSans-99"/>
      <use x="1703.416016" xlink:href="#DejaVuSans-101"/>
      <use x="1764.939453" xlink:href="#DejaVuSans-105"/>
      <use x="1792.722656" xlink:href="#DejaVuSans-118"/>
      <use x="1851.902344" xlink:href="#DejaVuSans-101"/>
      <use x="1913.425781" xlink:href="#DejaVuSans-100"/>
     </g>
    </g>
   </g>
  </g>
 </g>
 <defs>
  <clipPath id="pe67b90b08b">
   <rect height="380.52" width="558" x="90" y="60.48"/>
  </clipPath>
 </defs>
</svg>
