<?xml version="1.0" encoding="utf-8" standalone="no"?>
<!DOCTYPE svg PUBLIC "-//W3C//DTD SVG 1.1//EN"
  "http://www.w3.org/Graphics/SVG/1.1/DTD/svg11.dtd">
<!-- Created with matplotlib (https://matplotlib.org/) -->
<svg height="504pt" version="1.1" viewBox="0 0 720 504" width="720pt" xmlns="http://www.w3.org/2000/svg" xmlns:xlink="http://www.w3.org/1999/xlink">
 <defs>
  <style type="text/css">
*{stroke-linecap:butt;stroke-linejoin:round;}
  </style>
 </defs>
 <g id="figure_1">
  <g id="patch_1">
   <path d="M 0 504 
L 720 504 
L 720 0 
L 0 0 
z
" style="fill:#ffffff;"/>
  </g>
  <g id="axes_1">
   <g id="patch_2">
    <path d="M 90 441 
L 648 441 
L 648 60.48 
L 90 60.48 
z
" style="fill:#ffffff;"/>
   </g>
   <g id="matplotlib.axis_1">
    <g id="xtick_1">
     <g id="line2d_1">
      <defs>
       <path d="M 0 0 
L 0 3.5 
" id="m8533db8821" style="stroke:#000000;stroke-width:0.8;"/>
      </defs>
      <g>
       <use style="stroke:#000000;stroke-width:0.8;" x="146.22782" xlink:href="#m8533db8821" y="441"/>
      </g>
     </g>
     <g id="text_1">
      <!-- 01/01/2014 -->
      <defs>
       <path d="M 31.78125 66.40625 
Q 24.171875 66.40625 20.328125 58.90625 
Q 16.5 51.421875 16.5 36.375 
Q 16.5 21.390625 20.328125 13.890625 
Q 24.171875 6.390625 31.78125 6.390625 
Q 39.453125 6.390625 43.28125 13.890625 
Q 47.125 21.390625 47.125 36.375 
Q 47.125 51.421875 43.28125 58.90625 
Q 39.453125 66.40625 31.78125 66.40625 
z
M 31.78125 74.21875 
Q 44.046875 74.21875 50.515625 64.515625 
Q 56.984375 54.828125 56.984375 36.375 
Q 56.984375 17.96875 50.515625 8.265625 
Q 44.046875 -1.421875 31.78125 -1.421875 
Q 19.53125 -1.421875 13.0625 8.265625 
Q 6.59375 17.96875 6.59375 36.375 
Q 6.59375 54.828125 13.0625 64.515625 
Q 19.53125 74.21875 31.78125 74.21875 
z
" id="DejaVuSans-48"/>
       <path d="M 12.40625 8.296875 
L 28.515625 8.296875 
L 28.515625 63.921875 
L 10.984375 60.40625 
L 10.984375 69.390625 
L 28.421875 72.90625 
L 38.28125 72.90625 
L 38.28125 8.296875 
L 54.390625 8.296875 
L 54.390625 0 
L 12.40625 0 
z
" id="DejaVuSans-49"/>
       <path d="M 25.390625 72.90625 
L 33.6875 72.90625 
L 8.296875 -9.28125 
L 0 -9.28125 
z
" id="DejaVuSans-47"/>
       <path d="M 19.1875 8.296875 
L 53.609375 8.296875 
L 53.609375 0 
L 7.328125 0 
L 7.328125 8.296875 
Q 12.9375 14.109375 22.625 23.890625 
Q 32.328125 33.6875 34.8125 36.53125 
Q 39.546875 41.84375 41.421875 45.53125 
Q 43.3125 49.21875 43.3125 52.78125 
Q 43.3125 58.59375 39.234375 62.25 
Q 35.15625 65.921875 28.609375 65.921875 
Q 23.96875 65.921875 18.8125 64.3125 
Q 13.671875 62.703125 7.8125 59.421875 
L 7.8125 69.390625 
Q 13.765625 71.78125 18.9375 73 
Q 24.125 74.21875 28.421875 74.21875 
Q 39.75 74.21875 46.484375 68.546875 
Q 53.21875 62.890625 53.21875 53.421875 
Q 53.21875 48.921875 51.53125 44.890625 
Q 49.859375 40.875 45.40625 35.40625 
Q 44.1875 33.984375 37.640625 27.21875 
Q 31.109375 20.453125 19.1875 8.296875 
z
" id="DejaVuSans-50"/>
       <path d="M 37.796875 64.3125 
L 12.890625 25.390625 
L 37.796875 25.390625 
z
M 35.203125 72.90625 
L 47.609375 72.90625 
L 47.609375 25.390625 
L 58.015625 25.390625 
L 58.015625 17.1875 
L 47.609375 17.1875 
L 47.609375 0 
L 37.796875 0 
L 37.796875 17.1875 
L 4.890625 17.1875 
L 4.890625 26.703125 
z
" id="DejaVuSans-52"/>
      </defs>
      <g transform="translate(117.934122 490.479028)rotate(-30)scale(0.12 -0.12)">
       <use xlink:href="#DejaVuSans-48"/>
       <use x="63.623047" xlink:href="#DejaVuSans-49"/>
       <use x="127.246094" xlink:href="#DejaVuSans-47"/>
       <use x="160.9375" xlink:href="#DejaVuSans-48"/>
       <use x="224.560547" xlink:href="#DejaVuSans-49"/>
       <use x="288.183594" xlink:href="#DejaVuSans-47"/>
       <use x="321.875" xlink:href="#DejaVuSans-50"/>
       <use x="385.498047" xlink:href="#DejaVuSans-48"/>
       <use x="449.121094" xlink:href="#DejaVuSans-49"/>
       <use x="512.744141" xlink:href="#DejaVuSans-52"/>
      </g>
     </g>
    </g>
    <g id="xtick_2">
     <g id="line2d_2">
      <g>
       <use style="stroke:#000000;stroke-width:0.8;" x="257.766703" xlink:href="#m8533db8821" y="441"/>
      </g>
     </g>
     <g id="text_2">
      <!-- 01/01/2015 -->
      <defs>
       <path d="M 10.796875 72.90625 
L 49.515625 72.90625 
L 49.515625 64.59375 
L 19.828125 64.59375 
L 19.828125 46.734375 
Q 21.96875 47.46875 24.109375 47.828125 
Q 26.265625 48.1875 28.421875 48.1875 
Q 40.625 48.1875 47.75 41.5 
Q 54.890625 34.8125 54.890625 23.390625 
Q 54.890625 11.625 47.5625 5.09375 
Q 40.234375 -1.421875 26.90625 -1.421875 
Q 22.3125 -1.421875 17.546875 -0.640625 
Q 12.796875 0.140625 7.71875 1.703125 
L 7.71875 11.625 
Q 12.109375 9.234375 16.796875 8.0625 
Q 21.484375 6.890625 26.703125 6.890625 
Q 35.15625 6.890625 40.078125 11.328125 
Q 45.015625 15.765625 45.015625 23.390625 
Q 45.015625 31 40.078125 35.4375 
Q 35.15625 39.890625 26.703125 39.890625 
Q 22.75 39.890625 18.8125 39.015625 
Q 14.890625 38.140625 10.796875 36.28125 
z
" id="DejaVuSans-53"/>
      </defs>
      <g transform="translate(229.473005 490.479028)rotate(-30)scale(0.12 -0.12)">
       <use xlink:href="#DejaVuSans-48"/>
       <use x="63.623047" xlink:href="#DejaVuSans-49"/>
       <use x="127.246094" xlink:href="#DejaVuSans-47"/>
       <use x="160.9375" xlink:href="#DejaVuSans-48"/>
       <use x="224.560547" xlink:href="#DejaVuSans-49"/>
       <use x="288.183594" xlink:href="#DejaVuSans-47"/>
       <use x="321.875" xlink:href="#DejaVuSans-50"/>
       <use x="385.498047" xlink:href="#DejaVuSans-48"/>
       <use x="449.121094" xlink:href="#DejaVuSans-49"/>
       <use x="512.744141" xlink:href="#DejaVuSans-53"/>
      </g>
     </g>
    </g>
    <g id="xtick_3">
     <g id="line2d_3">
      <g>
       <use style="stroke:#000000;stroke-width:0.8;" x="369.305586" xlink:href="#m8533db8821" y="441"/>
      </g>
     </g>
     <g id="text_3">
      <!-- 01/01/2016 -->
      <defs>
       <path d="M 33.015625 40.375 
Q 26.375 40.375 22.484375 35.828125 
Q 18.609375 31.296875 18.609375 23.390625 
Q 18.609375 15.53125 22.484375 10.953125 
Q 26.375 6.390625 33.015625 6.390625 
Q 39.65625 6.390625 43.53125 10.953125 
Q 47.40625 15.53125 47.40625 23.390625 
Q 47.40625 31.296875 43.53125 35.828125 
Q 39.65625 40.375 33.015625 40.375 
z
M 52.59375 71.296875 
L 52.59375 62.3125 
Q 48.875 64.0625 45.09375 64.984375 
Q 41.3125 65.921875 37.59375 65.921875 
Q 27.828125 65.921875 22.671875 59.328125 
Q 17.53125 52.734375 16.796875 39.40625 
Q 19.671875 43.65625 24.015625 45.921875 
Q 28.375 48.1875 33.59375 48.1875 
Q 44.578125 48.1875 50.953125 41.515625 
Q 57.328125 34.859375 57.328125 23.390625 
Q 57.328125 12.15625 50.6875 5.359375 
Q 44.046875 -1.421875 33.015625 -1.421875 
Q 20.359375 -1.421875 13.671875 8.265625 
Q 6.984375 17.96875 6.984375 36.375 
Q 6.984375 53.65625 15.1875 63.9375 
Q 23.390625 74.21875 37.203125 74.21875 
Q 40.921875 74.21875 44.703125 73.484375 
Q 48.484375 72.75 52.59375 71.296875 
z
" id="DejaVuSans-54"/>
      </defs>
      <g transform="translate(341.011887 490.479028)rotate(-30)scale(0.12 -0.12)">
       <use xlink:href="#DejaVuSans-48"/>
       <use x="63.623047" xlink:href="#DejaVuSans-49"/>
       <use x="127.246094" xlink:href="#DejaVuSans-47"/>
       <use x="160.9375" xlink:href="#DejaVuSans-48"/>
       <use x="224.560547" xlink:href="#DejaVuSans-49"/>
       <use x="288.183594" xlink:href="#DejaVuSans-47"/>
       <use x="321.875" xlink:href="#DejaVuSans-50"/>
       <use x="385.498047" xlink:href="#DejaVuSans-48"/>
       <use x="449.121094" xlink:href="#DejaVuSans-49"/>
       <use x="512.744141" xlink:href="#DejaVuSans-54"/>
      </g>
     </g>
    </g>
    <g id="xtick_4">
     <g id="line2d_4">
      <g>
       <use style="stroke:#000000;stroke-width:0.8;" x="481.150055" xlink:href="#m8533db8821" y="441"/>
      </g>
     </g>
     <g id="text_4">
      <!-- 01/01/2017 -->
      <defs>
       <path d="M 8.203125 72.90625 
L 55.078125 72.90625 
L 55.078125 68.703125 
L 28.609375 0 
L 18.3125 0 
L 43.21875 64.59375 
L 8.203125 64.59375 
z
" id="DejaVuSans-55"/>
      </defs>
      <g transform="translate(452.856356 490.479028)rotate(-30)scale(0.12 -0.12)">
       <use xlink:href="#DejaVuSans-48"/>
       <use x="63.623047" xlink:href="#DejaVuSans-49"/>
       <use x="127.246094" xlink:href="#DejaVuSans-47"/>
       <use x="160.9375" xlink:href="#DejaVuSans-48"/>
       <use x="224.560547" xlink:href="#DejaVuSans-49"/>
       <use x="288.183594" xlink:href="#DejaVuSans-47"/>
       <use x="321.875" xlink:href="#DejaVuSans-50"/>
       <use x="385.498047" xlink:href="#DejaVuSans-48"/>
       <use x="449.121094" xlink:href="#DejaVuSans-49"/>
       <use x="512.744141" xlink:href="#DejaVuSans-55"/>
      </g>
     </g>
    </g>
    <g id="xtick_5">
     <g id="line2d_5">
      <g>
       <use style="stroke:#000000;stroke-width:0.8;" x="592.688938" xlink:href="#m8533db8821" y="441"/>
      </g>
     </g>
     <g id="text_5">
      <!-- 01/01/2018 -->
      <defs>
       <path d="M 31.78125 34.625 
Q 24.75 34.625 20.71875 30.859375 
Q 16.703125 27.09375 16.703125 20.515625 
Q 16.703125 13.921875 20.71875 10.15625 
Q 24.75 6.390625 31.78125 6.390625 
Q 38.8125 6.390625 42.859375 10.171875 
Q 46.921875 13.96875 46.921875 20.515625 
Q 46.921875 27.09375 42.890625 30.859375 
Q 38.875 34.625 31.78125 34.625 
z
M 21.921875 38.8125 
Q 15.578125 40.375 12.03125 44.71875 
Q 8.5 49.078125 8.5 55.328125 
Q 8.5 64.0625 14.71875 69.140625 
Q 20.953125 74.21875 31.78125 74.21875 
Q 42.671875 74.21875 48.875 69.140625 
Q 55.078125 64.0625 55.078125 55.328125 
Q 55.078125 49.078125 51.53125 44.71875 
Q 48 40.375 41.703125 38.8125 
Q 48.828125 37.15625 52.796875 32.3125 
Q 56.78125 27.484375 56.78125 20.515625 
Q 56.78125 9.90625 50.3125 4.234375 
Q 43.84375 -1.421875 31.78125 -1.421875 
Q 19.734375 -1.421875 13.25 4.234375 
Q 6.78125 9.90625 6.78125 20.515625 
Q 6.78125 27.484375 10.78125 32.3125 
Q 14.796875 37.15625 21.921875 38.8125 
z
M 18.3125 54.390625 
Q 18.3125 48.734375 21.84375 45.5625 
Q 25.390625 42.390625 31.78125 42.390625 
Q 38.140625 42.390625 41.71875 45.5625 
Q 45.3125 48.734375 45.3125 54.390625 
Q 45.3125 60.0625 41.71875 63.234375 
Q 38.140625 66.40625 31.78125 66.40625 
Q 25.390625 66.40625 21.84375 63.234375 
Q 18.3125 60.0625 18.3125 54.390625 
z
" id="DejaVuSans-56"/>
      </defs>
      <g transform="translate(564.395239 490.479028)rotate(-30)scale(0.12 -0.12)">
       <use xlink:href="#DejaVuSans-48"/>
       <use x="63.623047" xlink:href="#DejaVuSans-49"/>
       <use x="127.246094" xlink:href="#DejaVuSans-47"/>
       <use x="160.9375" xlink:href="#DejaVuSans-48"/>
       <use x="224.560547" xlink:href="#DejaVuSans-49"/>
       <use x="288.183594" xlink:href="#DejaVuSans-47"/>
       <use x="321.875" xlink:href="#DejaVuSans-50"/>
       <use x="385.498047" xlink:href="#DejaVuSans-48"/>
       <use x="449.121094" xlink:href="#DejaVuSans-49"/>
       <use x="512.744141" xlink:href="#DejaVuSans-56"/>
      </g>
     </g>
    </g>
   </g>
   <g id="matplotlib.axis_2">
    <g id="ytick_1">
     <g id="line2d_6">
      <path clip-path="url(#pa9afc380eb)" d="M 90 441 
L 648 441 
" style="fill:none;stroke:#b0b0b0;stroke-linecap:square;stroke-width:0.8;"/>
     </g>
     <g id="line2d_7">
      <defs>
       <path d="M 0 0 
L -3.5 0 
" id="m75c322d1e9" style="stroke:#000000;stroke-width:0.8;"/>
      </defs>
      <g>
       <use style="stroke:#000000;stroke-width:0.8;" x="90" xlink:href="#m75c322d1e9" y="441"/>
      </g>
     </g>
     <g id="text_6">
      <!-- 20,000 -->
      <defs>
       <path d="M 11.71875 12.40625 
L 22.015625 12.40625 
L 22.015625 4 
L 14.015625 -11.625 
L 7.71875 -11.625 
L 11.71875 4 
z
" id="DejaVuSans-44"/>
      </defs>
      <g transform="translate(41.01125 445.559062)scale(0.12 -0.12)">
       <use xlink:href="#DejaVuSans-50"/>
       <use x="63.623047" xlink:href="#DejaVuSans-48"/>
       <use x="127.246094" xlink:href="#DejaVuSans-44"/>
       <use x="159.033203" xlink:href="#DejaVuSans-48"/>
       <use x="222.65625" xlink:href="#DejaVuSans-48"/>
       <use x="286.279297" xlink:href="#DejaVuSans-48"/>
      </g>
     </g>
    </g>
    <g id="ytick_2">
     <g id="line2d_8">
      <path clip-path="url(#pa9afc380eb)" d="M 90 377.58 
L 648 377.58 
" style="fill:none;stroke:#b0b0b0;stroke-linecap:square;stroke-width:0.8;"/>
     </g>
     <g id="line2d_9">
      <g>
       <use style="stroke:#000000;stroke-width:0.8;" x="90" xlink:href="#m75c322d1e9" y="377.58"/>
      </g>
     </g>
     <g id="text_7">
      <!-- 25,000 -->
      <g transform="translate(41.01125 382.139062)scale(0.12 -0.12)">
       <use xlink:href="#DejaVuSans-50"/>
       <use x="63.623047" xlink:href="#DejaVuSans-53"/>
       <use x="127.246094" xlink:href="#DejaVuSans-44"/>
       <use x="159.033203" xlink:href="#DejaVuSans-48"/>
       <use x="222.65625" xlink:href="#DejaVuSans-48"/>
       <use x="286.279297" xlink:href="#DejaVuSans-48"/>
      </g>
     </g>
    </g>
    <g id="ytick_3">
     <g id="line2d_10">
      <path clip-path="url(#pa9afc380eb)" d="M 90 314.16 
L 648 314.16 
" style="fill:none;stroke:#b0b0b0;stroke-linecap:square;stroke-width:0.8;"/>
     </g>
     <g id="line2d_11">
      <g>
       <use style="stroke:#000000;stroke-width:0.8;" x="90" xlink:href="#m75c322d1e9" y="314.16"/>
      </g>
     </g>
     <g id="text_8">
      <!-- 30,000 -->
      <defs>
       <path d="M 40.578125 39.3125 
Q 47.65625 37.796875 51.625 33 
Q 55.609375 28.21875 55.609375 21.1875 
Q 55.609375 10.40625 48.1875 4.484375 
Q 40.765625 -1.421875 27.09375 -1.421875 
Q 22.515625 -1.421875 17.65625 -0.515625 
Q 12.796875 0.390625 7.625 2.203125 
L 7.625 11.71875 
Q 11.71875 9.328125 16.59375 8.109375 
Q 21.484375 6.890625 26.8125 6.890625 
Q 36.078125 6.890625 40.9375 10.546875 
Q 45.796875 14.203125 45.796875 21.1875 
Q 45.796875 27.640625 41.28125 31.265625 
Q 36.765625 34.90625 28.71875 34.90625 
L 20.21875 34.90625 
L 20.21875 43.015625 
L 29.109375 43.015625 
Q 36.375 43.015625 40.234375 45.921875 
Q 44.09375 48.828125 44.09375 54.296875 
Q 44.09375 59.90625 40.109375 62.90625 
Q 36.140625 65.921875 28.71875 65.921875 
Q 24.65625 65.921875 20.015625 65.03125 
Q 15.375 64.15625 9.8125 62.3125 
L 9.8125 71.09375 
Q 15.4375 72.65625 20.34375 73.4375 
Q 25.25 74.21875 29.59375 74.21875 
Q 40.828125 74.21875 47.359375 69.109375 
Q 53.90625 64.015625 53.90625 55.328125 
Q 53.90625 49.265625 50.4375 45.09375 
Q 46.96875 40.921875 40.578125 39.3125 
z
" id="DejaVuSans-51"/>
      </defs>
      <g transform="translate(41.01125 318.719062)scale(0.12 -0.12)">
       <use xlink:href="#DejaVuSans-51"/>
       <use x="63.623047" xlink:href="#DejaVuSans-48"/>
       <use x="127.246094" xlink:href="#DejaVuSans-44"/>
       <use x="159.033203" xlink:href="#DejaVuSans-48"/>
       <use x="222.65625" xlink:href="#DejaVuSans-48"/>
       <use x="286.279297" xlink:href="#DejaVuSans-48"/>
      </g>
     </g>
    </g>
    <g id="ytick_4">
     <g id="line2d_12">
      <path clip-path="url(#pa9afc380eb)" d="M 90 250.74 
L 648 250.74 
" style="fill:none;stroke:#b0b0b0;stroke-linecap:square;stroke-width:0.8;"/>
     </g>
     <g id="line2d_13">
      <g>
       <use style="stroke:#000000;stroke-width:0.8;" x="90" xlink:href="#m75c322d1e9" y="250.74"/>
      </g>
     </g>
     <g id="text_9">
      <!-- 35,000 -->
      <g transform="translate(41.01125 255.299062)scale(0.12 -0.12)">
       <use xlink:href="#DejaVuSans-51"/>
       <use x="63.623047" xlink:href="#DejaVuSans-53"/>
       <use x="127.246094" xlink:href="#DejaVuSans-44"/>
       <use x="159.033203" xlink:href="#DejaVuSans-48"/>
       <use x="222.65625" xlink:href="#DejaVuSans-48"/>
       <use x="286.279297" xlink:href="#DejaVuSans-48"/>
      </g>
     </g>
    </g>
    <g id="ytick_5">
     <g id="line2d_14">
      <path clip-path="url(#pa9afc380eb)" d="M 90 187.32 
L 648 187.32 
" style="fill:none;stroke:#b0b0b0;stroke-linecap:square;stroke-width:0.8;"/>
     </g>
     <g id="line2d_15">
      <g>
       <use style="stroke:#000000;stroke-width:0.8;" x="90" xlink:href="#m75c322d1e9" y="187.32"/>
      </g>
     </g>
     <g id="text_10">
      <!-- 40,000 -->
      <g transform="translate(41.01125 191.879062)scale(0.12 -0.12)">
       <use xlink:href="#DejaVuSans-52"/>
       <use x="63.623047" xlink:href="#DejaVuSans-48"/>
       <use x="127.246094" xlink:href="#DejaVuSans-44"/>
       <use x="159.033203" xlink:href="#DejaVuSans-48"/>
       <use x="222.65625" xlink:href="#DejaVuSans-48"/>
       <use x="286.279297" xlink:href="#DejaVuSans-48"/>
      </g>
     </g>
    </g>
    <g id="ytick_6">
     <g id="line2d_16">
      <path clip-path="url(#pa9afc380eb)" d="M 90 123.9 
L 648 123.9 
" style="fill:none;stroke:#b0b0b0;stroke-linecap:square;stroke-width:0.8;"/>
     </g>
     <g id="line2d_17">
      <g>
       <use style="stroke:#000000;stroke-width:0.8;" x="90" xlink:href="#m75c322d1e9" y="123.9"/>
      </g>
     </g>
     <g id="text_11">
      <!-- 45,000 -->
      <g transform="translate(41.01125 128.459062)scale(0.12 -0.12)">
       <use xlink:href="#DejaVuSans-52"/>
       <use x="63.623047" xlink:href="#DejaVuSans-53"/>
       <use x="127.246094" xlink:href="#DejaVuSans-44"/>
       <use x="159.033203" xlink:href="#DejaVuSans-48"/>
       <use x="222.65625" xlink:href="#DejaVuSans-48"/>
       <use x="286.279297" xlink:href="#DejaVuSans-48"/>
      </g>
     </g>
    </g>
    <g id="ytick_7">
     <g id="line2d_18">
      <path clip-path="url(#pa9afc380eb)" d="M 90 60.48 
L 648 60.48 
" style="fill:none;stroke:#b0b0b0;stroke-linecap:square;stroke-width:0.8;"/>
     </g>
     <g id="line2d_19">
      <g>
       <use style="stroke:#000000;stroke-width:0.8;" x="90" xlink:href="#m75c322d1e9" y="60.48"/>
      </g>
     </g>
     <g id="text_12">
      <!-- 50,000 -->
      <g transform="translate(41.01125 65.039062)scale(0.12 -0.12)">
       <use xlink:href="#DejaVuSans-53"/>
       <use x="63.623047" xlink:href="#DejaVuSans-48"/>
       <use x="127.246094" xlink:href="#DejaVuSans-44"/>
       <use x="159.033203" xlink:href="#DejaVuSans-48"/>
       <use x="222.65625" xlink:href="#DejaVuSans-48"/>
       <use x="286.279297" xlink:href="#DejaVuSans-48"/>
      </g>
     </g>
    </g>
    <g id="text_13">
     <!-- Transfer from HSPF to MF6 ($m^{3}/day$) -->
     <defs>
      <path d="M -0.296875 72.90625 
L 61.375 72.90625 
L 61.375 64.59375 
L 35.5 64.59375 
L 35.5 0 
L 25.59375 0 
L 25.59375 64.59375 
L -0.296875 64.59375 
z
" id="DejaVuSans-84"/>
      <path d="M 41.109375 46.296875 
Q 39.59375 47.171875 37.8125 47.578125 
Q 36.03125 48 33.890625 48 
Q 26.265625 48 22.1875 43.046875 
Q 18.109375 38.09375 18.109375 28.8125 
L 18.109375 0 
L 9.078125 0 
L 9.078125 54.6875 
L 18.109375 54.6875 
L 18.109375 46.1875 
Q 20.953125 51.171875 25.484375 53.578125 
Q 30.03125 56 36.53125 56 
Q 37.453125 56 38.578125 55.875 
Q 39.703125 55.765625 41.0625 55.515625 
z
" id="DejaVuSans-114"/>
      <path d="M 34.28125 27.484375 
Q 23.390625 27.484375 19.1875 25 
Q 14.984375 22.515625 14.984375 16.5 
Q 14.984375 11.71875 18.140625 8.90625 
Q 21.296875 6.109375 26.703125 6.109375 
Q 34.1875 6.109375 38.703125 11.40625 
Q 43.21875 16.703125 43.21875 25.484375 
L 43.21875 27.484375 
z
M 52.203125 31.203125 
L 52.203125 0 
L 43.21875 0 
L 43.21875 8.296875 
Q 40.140625 3.328125 35.546875 0.953125 
Q 30.953125 -1.421875 24.3125 -1.421875 
Q 15.921875 -1.421875 10.953125 3.296875 
Q 6 8.015625 6 15.921875 
Q 6 25.140625 12.171875 29.828125 
Q 18.359375 34.515625 30.609375 34.515625 
L 43.21875 34.515625 
L 43.21875 35.40625 
Q 43.21875 41.609375 39.140625 45 
Q 35.0625 48.390625 27.6875 48.390625 
Q 23 48.390625 18.546875 47.265625 
Q 14.109375 46.140625 10.015625 43.890625 
L 10.015625 52.203125 
Q 14.9375 54.109375 19.578125 55.046875 
Q 24.21875 56 28.609375 56 
Q 40.484375 56 46.34375 49.84375 
Q 52.203125 43.703125 52.203125 31.203125 
z
" id="DejaVuSans-97"/>
      <path d="M 54.890625 33.015625 
L 54.890625 0 
L 45.90625 0 
L 45.90625 32.71875 
Q 45.90625 40.484375 42.875 44.328125 
Q 39.84375 48.1875 33.796875 48.1875 
Q 26.515625 48.1875 22.3125 43.546875 
Q 18.109375 38.921875 18.109375 30.90625 
L 18.109375 0 
L 9.078125 0 
L 9.078125 54.6875 
L 18.109375 54.6875 
L 18.109375 46.1875 
Q 21.34375 51.125 25.703125 53.5625 
Q 30.078125 56 35.796875 56 
Q 45.21875 56 50.046875 50.171875 
Q 54.890625 44.34375 54.890625 33.015625 
z
" id="DejaVuSans-110"/>
      <path d="M 44.28125 53.078125 
L 44.28125 44.578125 
Q 40.484375 46.53125 36.375 47.5 
Q 32.28125 48.484375 27.875 48.484375 
Q 21.1875 48.484375 17.84375 46.4375 
Q 14.5 44.390625 14.5 40.28125 
Q 14.5 37.15625 16.890625 35.375 
Q 19.28125 33.59375 26.515625 31.984375 
L 29.59375 31.296875 
Q 39.15625 29.25 43.1875 25.515625 
Q 47.21875 21.78125 47.21875 15.09375 
Q 47.21875 7.46875 41.1875 3.015625 
Q 35.15625 -1.421875 24.609375 -1.421875 
Q 20.21875 -1.421875 15.453125 -0.5625 
Q 10.6875 0.296875 5.421875 2 
L 5.421875 11.28125 
Q 10.40625 8.6875 15.234375 7.390625 
Q 20.0625 6.109375 24.8125 6.109375 
Q 31.15625 6.109375 34.5625 8.28125 
Q 37.984375 10.453125 37.984375 14.40625 
Q 37.984375 18.0625 35.515625 20.015625 
Q 33.0625 21.96875 24.703125 23.78125 
L 21.578125 24.515625 
Q 13.234375 26.265625 9.515625 29.90625 
Q 5.8125 33.546875 5.8125 39.890625 
Q 5.8125 47.609375 11.28125 51.796875 
Q 16.75 56 26.8125 56 
Q 31.78125 56 36.171875 55.265625 
Q 40.578125 54.546875 44.28125 53.078125 
z
" id="DejaVuSans-115"/>
      <path d="M 37.109375 75.984375 
L 37.109375 68.5 
L 28.515625 68.5 
Q 23.6875 68.5 21.796875 66.546875 
Q 19.921875 64.59375 19.921875 59.515625 
L 19.921875 54.6875 
L 34.71875 54.6875 
L 34.71875 47.703125 
L 19.921875 47.703125 
L 19.921875 0 
L 10.890625 0 
L 10.890625 47.703125 
L 2.296875 47.703125 
L 2.296875 54.6875 
L 10.890625 54.6875 
L 10.890625 58.5 
Q 10.890625 67.625 15.140625 71.796875 
Q 19.390625 75.984375 28.609375 75.984375 
z
" id="DejaVuSans-102"/>
      <path d="M 56.203125 29.59375 
L 56.203125 25.203125 
L 14.890625 25.203125 
Q 15.484375 15.921875 20.484375 11.0625 
Q 25.484375 6.203125 34.421875 6.203125 
Q 39.59375 6.203125 44.453125 7.46875 
Q 49.3125 8.734375 54.109375 11.28125 
L 54.109375 2.78125 
Q 49.265625 0.734375 44.1875 -0.34375 
Q 39.109375 -1.421875 33.890625 -1.421875 
Q 20.796875 -1.421875 13.15625 6.1875 
Q 5.515625 13.8125 5.515625 26.8125 
Q 5.515625 40.234375 12.765625 48.109375 
Q 20.015625 56 32.328125 56 
Q 43.359375 56 49.78125 48.890625 
Q 56.203125 41.796875 56.203125 29.59375 
z
M 47.21875 32.234375 
Q 47.125 39.59375 43.09375 43.984375 
Q 39.0625 48.390625 32.421875 48.390625 
Q 24.90625 48.390625 20.390625 44.140625 
Q 15.875 39.890625 15.1875 32.171875 
z
" id="DejaVuSans-101"/>
      <path id="DejaVuSans-32"/>
      <path d="M 30.609375 48.390625 
Q 23.390625 48.390625 19.1875 42.75 
Q 14.984375 37.109375 14.984375 27.296875 
Q 14.984375 17.484375 19.15625 11.84375 
Q 23.34375 6.203125 30.609375 6.203125 
Q 37.796875 6.203125 41.984375 11.859375 
Q 46.1875 17.53125 46.1875 27.296875 
Q 46.1875 37.015625 41.984375 42.703125 
Q 37.796875 48.390625 30.609375 48.390625 
z
M 30.609375 56 
Q 42.328125 56 49.015625 48.375 
Q 55.71875 40.765625 55.71875 27.296875 
Q 55.71875 13.875 49.015625 6.21875 
Q 42.328125 -1.421875 30.609375 -1.421875 
Q 18.84375 -1.421875 12.171875 6.21875 
Q 5.515625 13.875 5.515625 27.296875 
Q 5.515625 40.765625 12.171875 48.375 
Q 18.84375 56 30.609375 56 
z
" id="DejaVuSans-111"/>
      <path d="M 52 44.1875 
Q 55.375 50.25 60.0625 53.125 
Q 64.75 56 71.09375 56 
Q 79.640625 56 84.28125 50.015625 
Q 88.921875 44.046875 88.921875 33.015625 
L 88.921875 0 
L 79.890625 0 
L 79.890625 32.71875 
Q 79.890625 40.578125 77.09375 44.375 
Q 74.3125 48.1875 68.609375 48.1875 
Q 61.625 48.1875 57.5625 43.546875 
Q 53.515625 38.921875 53.515625 30.90625 
L 53.515625 0 
L 44.484375 0 
L 44.484375 32.71875 
Q 44.484375 40.625 41.703125 44.40625 
Q 38.921875 48.1875 33.109375 48.1875 
Q 26.21875 48.1875 22.15625 43.53125 
Q 18.109375 38.875 18.109375 30.90625 
L 18.109375 0 
L 9.078125 0 
L 9.078125 54.6875 
L 18.109375 54.6875 
L 18.109375 46.1875 
Q 21.1875 51.21875 25.484375 53.609375 
Q 29.78125 56 35.6875 56 
Q 41.65625 56 45.828125 52.96875 
Q 50 49.953125 52 44.1875 
z
" id="DejaVuSans-109"/>
      <path d="M 9.8125 72.90625 
L 19.671875 72.90625 
L 19.671875 43.015625 
L 55.515625 43.015625 
L 55.515625 72.90625 
L 65.375 72.90625 
L 65.375 0 
L 55.515625 0 
L 55.515625 34.71875 
L 19.671875 34.71875 
L 19.671875 0 
L 9.8125 0 
z
" id="DejaVuSans-72"/>
      <path d="M 53.515625 70.515625 
L 53.515625 60.890625 
Q 47.90625 63.578125 42.921875 64.890625 
Q 37.9375 66.21875 33.296875 66.21875 
Q 25.25 66.21875 20.875 63.09375 
Q 16.5 59.96875 16.5 54.203125 
Q 16.5 49.359375 19.40625 46.890625 
Q 22.3125 44.4375 30.421875 42.921875 
L 36.375 41.703125 
Q 47.40625 39.59375 52.65625 34.296875 
Q 57.90625 29 57.90625 20.125 
Q 57.90625 9.515625 50.796875 4.046875 
Q 43.703125 -1.421875 29.984375 -1.421875 
Q 24.8125 -1.421875 18.96875 -0.25 
Q 13.140625 0.921875 6.890625 3.21875 
L 6.890625 13.375 
Q 12.890625 10.015625 18.65625 8.296875 
Q 24.421875 6.59375 29.984375 6.59375 
Q 38.421875 6.59375 43.015625 9.90625 
Q 47.609375 13.234375 47.609375 19.390625 
Q 47.609375 24.75 44.3125 27.78125 
Q 41.015625 30.8125 33.5 32.328125 
L 27.484375 33.5 
Q 16.453125 35.6875 11.515625 40.375 
Q 6.59375 45.0625 6.59375 53.421875 
Q 6.59375 63.09375 13.40625 68.65625 
Q 20.21875 74.21875 32.171875 74.21875 
Q 37.3125 74.21875 42.625 73.28125 
Q 47.953125 72.359375 53.515625 70.515625 
z
" id="DejaVuSans-83"/>
      <path d="M 19.671875 64.796875 
L 19.671875 37.40625 
L 32.078125 37.40625 
Q 38.96875 37.40625 42.71875 40.96875 
Q 46.484375 44.53125 46.484375 51.125 
Q 46.484375 57.671875 42.71875 61.234375 
Q 38.96875 64.796875 32.078125 64.796875 
z
M 9.8125 72.90625 
L 32.078125 72.90625 
Q 44.34375 72.90625 50.609375 67.359375 
Q 56.890625 61.8125 56.890625 51.125 
Q 56.890625 40.328125 50.609375 34.8125 
Q 44.34375 29.296875 32.078125 29.296875 
L 19.671875 29.296875 
L 19.671875 0 
L 9.8125 0 
z
" id="DejaVuSans-80"/>
      <path d="M 9.8125 72.90625 
L 51.703125 72.90625 
L 51.703125 64.59375 
L 19.671875 64.59375 
L 19.671875 43.109375 
L 48.578125 43.109375 
L 48.578125 34.8125 
L 19.671875 34.8125 
L 19.671875 0 
L 9.8125 0 
z
" id="DejaVuSans-70"/>
      <path d="M 18.3125 70.21875 
L 18.3125 54.6875 
L 36.8125 54.6875 
L 36.8125 47.703125 
L 18.3125 47.703125 
L 18.3125 18.015625 
Q 18.3125 11.328125 20.140625 9.421875 
Q 21.96875 7.515625 27.59375 7.515625 
L 36.8125 7.515625 
L 36.8125 0 
L 27.59375 0 
Q 17.1875 0 13.234375 3.875 
Q 9.28125 7.765625 9.28125 18.015625 
L 9.28125 47.703125 
L 2.6875 47.703125 
L 2.6875 54.6875 
L 9.28125 54.6875 
L 9.28125 70.21875 
z
" id="DejaVuSans-116"/>
      <path d="M 9.8125 72.90625 
L 24.515625 72.90625 
L 43.109375 23.296875 
L 61.8125 72.90625 
L 76.515625 72.90625 
L 76.515625 0 
L 66.890625 0 
L 66.890625 64.015625 
L 48.09375 14.015625 
L 38.1875 14.015625 
L 19.390625 64.015625 
L 19.390625 0 
L 9.8125 0 
z
" id="DejaVuSans-77"/>
      <path d="M 31 75.875 
Q 24.46875 64.65625 21.28125 53.65625 
Q 18.109375 42.671875 18.109375 31.390625 
Q 18.109375 20.125 21.3125 9.0625 
Q 24.515625 -2 31 -13.1875 
L 23.1875 -13.1875 
Q 15.875 -1.703125 12.234375 9.375 
Q 8.59375 20.453125 8.59375 31.390625 
Q 8.59375 42.28125 12.203125 53.3125 
Q 15.828125 64.359375 23.1875 75.875 
z
" id="DejaVuSans-40"/>
      <path d="M 89.796875 33.015625 
L 83.40625 0 
L 74.421875 0 
L 80.71875 32.71875 
Q 81.109375 34.8125 81.296875 36.328125 
Q 81.5 37.84375 81.5 38.921875 
Q 81.5 43.3125 79.046875 45.75 
Q 76.609375 48.1875 72.21875 48.1875 
Q 65.671875 48.1875 60.546875 43.28125 
Q 55.421875 38.375 53.90625 30.515625 
L 47.90625 0 
L 38.921875 0 
L 45.3125 32.71875 
Q 45.703125 34.515625 45.890625 36.046875 
Q 46.09375 37.59375 46.09375 38.8125 
Q 46.09375 43.265625 43.65625 45.71875 
Q 41.21875 48.1875 36.921875 48.1875 
Q 30.28125 48.1875 25.140625 43.28125 
Q 20.015625 38.375 18.5 30.515625 
L 12.5 0 
L 3.515625 0 
L 14.203125 54.6875 
L 23.1875 54.6875 
L 21.484375 46.1875 
Q 25.140625 50.984375 30.046875 53.484375 
Q 34.96875 56 40.578125 56 
Q 46.53125 56 50.359375 52.875 
Q 54.203125 49.75 54.984375 44.1875 
Q 59.078125 49.953125 64.46875 52.96875 
Q 69.875 56 75.875 56 
Q 82.90625 56 86.734375 51.953125 
Q 90.578125 47.90625 90.578125 40.484375 
Q 90.578125 38.875 90.375 36.9375 
Q 90.1875 35.015625 89.796875 33.015625 
z
" id="DejaVuSans-Oblique-109"/>
      <path d="M 41.796875 8.203125 
Q 38.1875 3.46875 33.25 1.015625 
Q 28.328125 -1.421875 22.3125 -1.421875 
Q 14.109375 -1.421875 9.34375 4.171875 
Q 4.59375 9.765625 4.59375 19.484375 
Q 4.59375 27.59375 7.46875 34.9375 
Q 10.359375 42.28125 15.828125 48.09375 
Q 19.4375 51.953125 23.96875 53.96875 
Q 28.515625 56 33.5 56 
Q 38.765625 56 42.796875 53.453125 
Q 46.828125 50.921875 49.03125 46.1875 
L 54.890625 75.984375 
L 63.921875 75.984375 
L 49.125 0 
L 40.09375 0 
z
M 13.921875 21.09375 
Q 13.921875 14.015625 17.109375 10.0625 
Q 20.3125 6.109375 25.984375 6.109375 
Q 30.171875 6.109375 33.765625 8.125 
Q 37.359375 10.15625 40.09375 14.109375 
Q 42.96875 18.21875 44.625 23.578125 
Q 46.296875 28.953125 46.296875 34.1875 
Q 46.296875 40.96875 43.09375 44.765625 
Q 39.890625 48.578125 34.28125 48.578125 
Q 30.03125 48.578125 26.359375 46.578125 
Q 22.703125 44.578125 20.125 40.828125 
Q 17.28125 36.765625 15.59375 31.390625 
Q 13.921875 26.03125 13.921875 21.09375 
z
" id="DejaVuSans-Oblique-100"/>
      <path d="M 53.71875 31.203125 
L 47.609375 0 
L 38.625 0 
L 40.28125 8.296875 
Q 36.328125 3.421875 31.265625 1 
Q 26.21875 -1.421875 20.015625 -1.421875 
Q 13.03125 -1.421875 8.5625 2.84375 
Q 4.109375 7.125 4.109375 13.8125 
Q 4.109375 23.390625 11.75 28.953125 
Q 19.390625 34.515625 32.8125 34.515625 
L 45.3125 34.515625 
L 45.796875 36.921875 
Q 45.90625 37.3125 45.953125 37.765625 
Q 46 38.234375 46 39.203125 
Q 46 43.5625 42.453125 45.96875 
Q 38.921875 48.390625 32.515625 48.390625 
Q 28.125 48.390625 23.5 47.265625 
Q 18.890625 46.140625 14.015625 43.890625 
L 15.578125 52.203125 
Q 20.65625 54.109375 25.515625 55.046875 
Q 30.375 56 34.90625 56 
Q 44.578125 56 49.625 51.796875 
Q 54.6875 47.609375 54.6875 39.59375 
Q 54.6875 37.984375 54.4375 35.8125 
Q 54.203125 33.640625 53.71875 31.203125 
z
M 44 27.484375 
L 35.015625 27.484375 
Q 23.96875 27.484375 18.671875 24.53125 
Q 13.375 21.578125 13.375 15.375 
Q 13.375 11.078125 16.078125 8.640625 
Q 18.796875 6.203125 23.578125 6.203125 
Q 30.90625 6.203125 36.375 11.453125 
Q 41.84375 16.703125 43.609375 25.484375 
z
" id="DejaVuSans-Oblique-97"/>
      <path d="M 24.8125 -5.078125 
Q 18.5625 -15.578125 14.625 -18.1875 
Q 10.6875 -20.796875 4.59375 -20.796875 
L -2.484375 -20.796875 
L -0.984375 -13.28125 
L 4.203125 -13.28125 
Q 7.953125 -13.28125 10.59375 -11.234375 
Q 13.234375 -9.1875 16.5 -3.21875 
L 19.28125 2 
L 7.171875 54.6875 
L 16.703125 54.6875 
L 25.78125 12.796875 
L 50.875 54.6875 
L 60.296875 54.6875 
z
" id="DejaVuSans-Oblique-121"/>
      <path d="M 8.015625 75.875 
L 15.828125 75.875 
Q 23.140625 64.359375 26.78125 53.3125 
Q 30.421875 42.28125 30.421875 31.390625 
Q 30.421875 20.453125 26.78125 9.375 
Q 23.140625 -1.703125 15.828125 -13.1875 
L 8.015625 -13.1875 
Q 14.5 -2 17.703125 9.0625 
Q 20.90625 20.125 20.90625 31.390625 
Q 20.90625 42.671875 17.703125 53.65625 
Q 14.5 64.65625 8.015625 75.875 
z
" id="DejaVuSans-41"/>
     </defs>
     <g transform="translate(34.28125 369.04)rotate(-90)scale(0.13 -0.13)">
      <use transform="translate(0 0.765625)" xlink:href="#DejaVuSans-84"/>
      <use transform="translate(61.083984 0.765625)" xlink:href="#DejaVuSans-114"/>
      <use transform="translate(102.197266 0.765625)" xlink:href="#DejaVuSans-97"/>
      <use transform="translate(163.476562 0.765625)" xlink:href="#DejaVuSans-110"/>
      <use transform="translate(226.855469 0.765625)" xlink:href="#DejaVuSans-115"/>
      <use transform="translate(278.955078 0.765625)" xlink:href="#DejaVuSans-102"/>
      <use transform="translate(314.160156 0.765625)" xlink:href="#DejaVuSans-101"/>
      <use transform="translate(375.683594 0.765625)" xlink:href="#DejaVuSans-114"/>
      <use transform="translate(416.796875 0.765625)" xlink:href="#DejaVuSans-32"/>
      <use transform="translate(448.583984 0.765625)" xlink:href="#DejaVuSans-102"/>
      <use transform="translate(483.789062 0.765625)" xlink:href="#DejaVuSans-114"/>
      <use transform="translate(524.902344 0.765625)" xlink:href="#DejaVuSans-111"/>
      <use transform="translate(586.083984 0.765625)" xlink:href="#DejaVuSans-109"/>
      <use transform="translate(683.496094 0.765625)" xlink:href="#DejaVuSans-32"/>
      <use transform="translate(715.283203 0.765625)" xlink:href="#DejaVuSans-72"/>
      <use transform="translate(790.478516 0.765625)" xlink:href="#DejaVuSans-83"/>
      <use transform="translate(853.955078 0.765625)" xlink:href="#DejaVuSans-80"/>
      <use transform="translate(914.257812 0.765625)" xlink:href="#DejaVuSans-70"/>
      <use transform="translate(971.777344 0.765625)" xlink:href="#DejaVuSans-32"/>
      <use transform="translate(1003.564453 0.765625)" xlink:href="#DejaVuSans-116"/>
      <use transform="translate(1042.773438 0.765625)" xlink:href="#DejaVuSans-111"/>
      <use transform="translate(1103.955078 0.765625)" xlink:href="#DejaVuSans-32"/>
      <use transform="translate(1135.742188 0.765625)" xlink:href="#DejaVuSans-77"/>
      <use transform="translate(1222.021484 0.765625)" xlink:href="#DejaVuSans-70"/>
      <use transform="translate(1279.541016 0.765625)" xlink:href="#DejaVuSans-54"/>
      <use transform="translate(1343.164062 0.765625)" xlink:href="#DejaVuSans-32"/>
      <use transform="translate(1374.951172 0.765625)" xlink:href="#DejaVuSans-40"/>
      <use transform="translate(1413.964844 0.765625)" xlink:href="#DejaVuSans-Oblique-109"/>
      <use transform="translate(1516.026849 39.046875)scale(0.7)" xlink:href="#DejaVuSans-51"/>
      <use transform="translate(1563.297357 0.765625)" xlink:href="#DejaVuSans-47"/>
      <use transform="translate(1596.988763 0.765625)" xlink:href="#DejaVuSans-Oblique-100"/>
      <use transform="translate(1660.465326 0.765625)" xlink:href="#DejaVuSans-Oblique-97"/>
      <use transform="translate(1721.744622 0.765625)" xlink:href="#DejaVuSans-Oblique-121"/>
      <use transform="translate(1780.92431 0.765625)" xlink:href="#DejaVuSans-41"/>
     </g>
    </g>
   </g>
   <g id="line2d_20">
    <path clip-path="url(#pa9afc380eb)" d="M 90 277.985422 
L 90.305586 278.093312 
L 91.52793 279.783633 
L 94.278204 283.739329 
L 94.58379 279.025358 
L 94.889376 270.109736 
L 95.194962 278.40884 
L 95.500548 274.801421 
L 95.806134 278.045316 
L 96.11172 278.201621 
L 96.722892 278.905025 
L 98.250821 280.993281 
L 98.556407 281.099013 
L 99.167579 282.220115 
L 102.834611 287.924934 
L 105.890471 292.17845 
L 106.196057 292.569232 
L 106.501643 290.860821 
L 106.807229 291.085457 
L 107.112815 291.084633 
L 107.418401 283.615495 
L 107.723987 262.951014 
L 108.029573 282.498263 
L 108.335159 283.286599 
L 108.946331 283.876367 
L 109.251917 284.245902 
L 109.557503 277.469526 
L 109.863089 283.971281 
L 110.168675 280.946058 
L 110.474261 281.900529 
L 110.779847 283.443347 
L 111.085433 283.790141 
L 111.391019 281.995215 
L 111.696605 283.998995 
L 112.002191 284.063037 
L 113.53012 286.086807 
L 113.835706 286.028309 
L 114.141292 283.798347 
L 114.446878 285.804702 
L 114.752464 257.70377 
L 115.05805 146.673488 
L 115.363636 220.252357 
L 115.669222 227.709154 
L 115.974808 228.802007 
L 116.58598 229.904247 
L 117.197152 230.66237 
L 117.502738 223.653191 
L 117.808324 230.798849 
L 121.780942 235.47648 
L 122.086528 234.978988 
L 122.392114 227.046732 
L 122.6977 193.055197 
L 123.003286 230.820666 
L 123.308872 230.915289 
L 126.670318 234.017909 
L 127.892662 235.196291 
L 128.198248 235.462718 
L 128.503834 235.435511 
L 129.115005 235.744354 
L 129.420591 235.750494 
L 129.726177 236.068366 
L 130.031763 236.094331 
L 131.559693 237.230145 
L 132.782037 238.189867 
L 134.004381 239.033315 
L 134.309967 239.067486 
L 134.615553 237.937065 
L 134.921139 235.815283 
L 135.226725 237.767439 
L 135.837897 237.852244 
L 136.143483 237.960287 
L 137.060241 239.216852 
L 137.976999 240.658617 
L 138.282585 240.81444 
L 139.810515 242.58689 
L 142.255203 245.909387 
L 142.560789 246.381537 
L 142.866375 245.972353 
L 144.394304 246.926987 
L 145.005476 246.449926 
L 145.311062 246.830867 
L 146.533406 247.559665 
L 149.28368 249.350569 
L 150.506024 250.226793 
L 152.645126 251.498757 
L 153.256298 251.776739 
L 154.173056 252.283694 
L 155.700986 253.045989 
L 156.617744 253.5379 
L 157.534502 253.937078 
L 159.368018 254.869251 
L 161.201533 256.169006 
L 163.035049 257.507193 
L 163.340635 257.185831 
L 163.646221 257.157356 
L 163.951807 257.2776 
L 164.257393 257.540818 
L 164.868565 258.930985 
L 165.479737 260.201478 
L 171.897043 275.490188 
L 173.119387 278.539815 
L 174.341731 281.794288 
L 174.647317 282.166489 
L 179.231106 292.392607 
L 180.45345 295.195923 
L 182.592552 300.171451 
L 184.120482 303.125098 
L 184.426068 303.808042 
L 184.731654 304.020689 
L 185.342826 305.269784 
L 185.648412 305.534804 
L 186.259584 306.819262 
L 186.56517 306.847725 
L 186.870756 307.151481 
L 187.787514 308.736639 
L 189.926616 312.808304 
L 190.232202 313.067375 
L 190.537788 310.63306 
L 190.843373 310.410749 
L 191.454545 311.179793 
L 193.593647 314.880844 
L 195.427163 317.923952 
L 196.038335 318.681859 
L 196.343921 318.000259 
L 196.955093 319.003385 
L 197.871851 320.354168 
L 198.177437 309.255478 
L 198.483023 259.652793 
L 199.094195 290.407434 
L 199.399781 290.840529 
L 199.705367 245.070633 
L 200.010953 285.216127 
L 200.316539 285.367383 
L 200.927711 284.304972 
L 201.844469 283.403456 
L 202.455641 283.107019 
L 203.066813 283.052997 
L 203.677985 283.209619 
L 204.594743 283.675858 
L 204.900329 283.404141 
L 205.817087 284.407141 
L 206.122673 280.024794 
L 206.428258 283.561588 
L 206.733844 283.708798 
L 207.345016 284.762458 
L 209.484118 288.188457 
L 211.012048 291.203812 
L 211.317634 289.682988 
L 211.62322 278.229919 
L 211.928806 288.731776 
L 212.845564 290.337964 
L 214.373494 293.298372 
L 214.67908 292.04036 
L 214.984666 294.128108 
L 215.901424 295.96054 
L 216.20701 295.024182 
L 216.512596 294.665707 
L 216.818182 295.781226 
L 217.73494 297.463746 
L 220.7908 303.832383 
L 221.401972 305.155311 
L 221.707558 304.957202 
L 222.318729 306.31818 
L 222.624315 306.34105 
L 223.846659 308.862134 
L 225.374589 311.242743 
L 225.680175 311.821869 
L 225.985761 311.518608 
L 226.291347 312.323928 
L 226.596933 311.810454 
L 228.124863 314.239909 
L 228.430449 308.68863 
L 228.736035 309.515715 
L 229.041621 311.219202 
L 232.403067 316.777572 
L 232.708653 311.566477 
L 233.014239 316.5977 
L 235.153341 319.296525 
L 235.764513 320.020896 
L 236.070099 320.27606 
L 236.375685 319.54172 
L 236.681271 320.460752 
L 240.042716 324.415255 
L 240.348302 317.74876 
L 240.653888 277.537233 
L 240.959474 307.630924 
L 241.26506 309.094289 
L 242.487404 310.08888 
L 243.709748 310.559811 
L 244.626506 311.034967 
L 245.543264 311.79725 
L 245.84885 310.345541 
L 246.154436 311.856421 
L 247.37678 312.838733 
L 251.96057 317.194812 
L 253.488499 318.669517 
L 256.238773 321.007686 
L 256.544359 319.036562 
L 256.849945 319.482688 
L 257.461117 319.732538 
L 257.766703 319.641555 
L 258.072289 318.770061 
L 258.377875 317.048003 
L 258.683461 319.16895 
L 259.294633 319.481826 
L 260.211391 320.091064 
L 260.516977 317.495886 
L 260.822563 319.597491 
L 262.350493 320.666372 
L 263.878423 322.133302 
L 264.184009 322.012874 
L 264.489595 320.943525 
L 264.795181 322.058175 
L 266.017525 323.184374 
L 266.628697 323.840543 
L 266.934283 323.777491 
L 267.239869 322.937908 
L 267.545455 323.890442 
L 269.073384 325.184007 
L 270.295728 326.53843 
L 271.823658 328.142385 
L 272.740416 328.918303 
L 274.573932 330.696765 
L 275.185104 331.250663 
L 275.49069 331.326843 
L 276.101862 331.772457 
L 276.713034 332.373032 
L 277.01862 332.11905 
L 279.157722 333.955779 
L 281.296824 336.321612 
L 281.60241 336.147881 
L 281.907996 332.851307 
L 282.213582 319.305011 
L 282.519168 330.764472 
L 284.047097 331.932605 
L 285.575027 333.910092 
L 286.491785 335.090477 
L 287.102957 335.790063 
L 287.408543 336.212897 
L 287.714129 336.365549 
L 288.325301 337.236902 
L 288.630887 337.499702 
L 288.936473 336.030057 
L 289.242059 337.211204 
L 289.547645 337.472773 
L 289.853231 337.05684 
L 290.158817 337.684812 
L 290.464403 335.818742 
L 290.769989 337.364642 
L 291.686747 338.264661 
L 291.992333 338.658081 
L 292.297919 337.877571 
L 292.603505 339.049141 
L 292.909091 339.460597 
L 293.214677 336.882993 
L 293.520263 339.442586 
L 294.131435 340.019201 
L 295.353779 341.518805 
L 297.187295 344.035183 
L 297.492881 337.328417 
L 297.798467 258.439188 
L 298.104053 243.173867 
L 298.409639 262.718224 
L 298.715225 272.709183 
L 299.326396 207.859074 
L 299.631982 265.180962 
L 299.937568 266.438822 
L 300.243154 266.736452 
L 300.54874 240.460633 
L 300.854326 265.369168 
L 301.159912 265.414665 
L 301.465498 254.212892 
L 301.771084 265.562243 
L 302.07667 265.708426 
L 302.687842 266.398195 
L 302.993428 216.122193 
L 303.299014 263.428236 
L 303.6046 209.214994 
L 303.910186 259.7515 
L 304.826944 260.124257 
L 305.438116 260.482479 
L 306.354874 261.422668 
L 307.577218 263.036149 
L 307.882804 248.534126 
L 308.18839 261.28256 
L 308.493976 254.716815 
L 308.799562 260.54439 
L 309.410734 261.472072 
L 309.71632 252.375348 
L 310.021906 261.459845 
L 310.327492 262.017433 
L 310.633078 261.631243 
L 310.938664 262.941488 
L 311.549836 264.093297 
L 312.161008 248.091238 
L 312.466594 262.078316 
L 312.77218 262.280487 
L 313.077766 262.315203 
L 313.994524 263.435961 
L 314.911281 264.717958 
L 315.216867 259.508675 
L 315.522453 264.270961 
L 316.133625 264.889953 
L 317.967141 266.981152 
L 321.328587 270.680897 
L 322.245345 271.600766 
L 322.550931 271.549764 
L 322.856517 271.699181 
L 324.384447 273.12074 
L 325.301205 276.45974 
L 326.217963 279.507472 
L 326.523549 280.429604 
L 326.829135 280.93 
L 327.134721 280.320445 
L 328.051479 283.00887 
L 328.357065 281.89885 
L 328.662651 282.560828 
L 329.273823 284.706839 
L 330.190581 287.407744 
L 330.496166 288.006657 
L 334.468784 300.209972 
L 334.77437 300.47936 
L 335.385542 302.109778 
L 338.135816 309.409436 
L 339.663746 313.035995 
L 340.274918 314.189148 
L 343.330778 320.68347 
L 343.636364 319.524202 
L 343.94195 317.452361 
L 344.247536 319.603389 
L 345.164294 321.64616 
L 346.692223 324.352038 
L 347.608981 325.772557 
L 347.914567 325.861738 
L 348.220153 310.647433 
L 348.525739 217.802189 
L 348.831325 263.637155 
L 349.136911 270.744875 
L 349.442497 271.877163 
L 349.748083 272.576381 
L 350.053669 272.850305 
L 350.359255 199.120813 
L 350.664841 258.935373 
L 350.970427 267.637904 
L 351.276013 269.348075 
L 351.581599 270.323804 
L 352.192771 271.250307 
L 354.637459 272.609702 
L 355.248631 272.825673 
L 356.470975 273.440796 
L 358.304491 274.310043 
L 358.610077 273.777378 
L 358.915663 243.225237 
L 359.221249 272.564408 
L 359.832421 272.492286 
L 360.749179 272.720433 
L 361.665936 273.067569 
L 361.971522 273.383274 
L 363.193866 276.463938 
L 363.499452 249.173526 
L 363.805038 273.954054 
L 365.332968 277.16308 
L 367.47207 282.331354 
L 367.777656 260.134278 
L 368.083242 273.576578 
L 368.388828 280.487874 
L 369 281.496747 
L 369.611172 282.702145 
L 369.916758 282.935315 
L 373.58379 290.852757 
L 375.722892 295.387946 
L 376.945235 297.920624 
L 377.250821 293.232174 
L 377.556407 297.681772 
L 378.473165 299.442336 
L 380.001095 302.462219 
L 382.445783 307.341449 
L 384.890471 312.479091 
L 385.196057 312.725262 
L 385.501643 311.384193 
L 385.807229 312.033045 
L 386.418401 312.860765 
L 387.335159 314.502189 
L 389.474261 318.651899 
L 389.779847 315.215231 
L 390.391019 292.47022 
L 390.696605 269.522467 
L 391.002191 273.869655 
L 391.307777 297.949341 
L 391.918949 295.944647 
L 392.835706 293.717108 
L 393.141292 274.152876 
L 393.446878 291.455691 
L 394.05805 290.549444 
L 394.974808 289.953398 
L 395.58598 289.922119 
L 396.197152 290.074746 
L 397.419496 291.022507 
L 398.030668 291.591866 
L 399.253012 293.36977 
L 400.475356 295.6036 
L 400.780942 294.274963 
L 401.086528 295.315039 
L 401.6977 296.386012 
L 402.308872 261.67716 
L 402.614458 278.356176 
L 402.920044 281.106942 
L 403.22563 281.760536 
L 403.836802 281.85805 
L 404.142388 281.881655 
L 404.75356 282.35761 
L 405.059146 275.113701 
L 405.364732 281.976316 
L 406.587076 283.458289 
L 407.198248 284.281024 
L 408.115005 285.977763 
L 409.948521 290.033294 
L 410.254107 290.813868 
L 410.559693 290.87158 
L 411.170865 292.433044 
L 411.476451 291.309812 
L 411.782037 284.740084 
L 412.087623 290.286061 
L 412.698795 291.648982 
L 414.226725 295.923262 
L 415.754655 300.093038 
L 416.060241 291.794721 
L 416.365827 286.959771 
L 416.671413 293.987316 
L 417.282585 296.884455 
L 421.255203 307.784476 
L 421.560789 307.187516 
L 421.866375 308.667803 
L 423.088719 311.962789 
L 423.394304 311.155186 
L 423.69989 286.068238 
L 424.311062 297.211855 
L 424.922234 299.521789 
L 431.033954 316.439442 
L 432.561884 320.266965 
L 432.86747 320.273352 
L 433.478642 321.875512 
L 437.756846 331.478112 
L 438.062432 328.17427 
L 438.368018 310.05698 
L 438.979189 321.498607 
L 439.284775 299.768607 
L 439.590361 320.113527 
L 439.895947 321.172451 
L 440.201533 210.413125 
L 440.507119 269.843449 
L 441.118291 260.95582 
L 441.423877 292.322579 
L 441.729463 293.963153 
L 442.340635 294.856905 
L 442.646221 294.791951 
L 442.951807 291.412768 
L 443.257393 294.369954 
L 443.562979 292.395436 
L 443.868565 294.313802 
L 444.174151 294.36403 
L 444.479737 278.724481 
L 444.785323 294.622201 
L 445.702081 295.7441 
L 446.618839 297.126327 
L 446.924425 297.148232 
L 447.230011 297.791628 
L 447.535597 293.010724 
L 447.841183 298.282955 
L 448.146769 298.650056 
L 449.980285 302.297086 
L 450.897043 304.193002 
L 451.202629 293.742819 
L 451.508215 141.178398 
L 452.119387 255.437862 
L 453.036145 261.199049 
L 453.647317 262.702344 
L 454.564074 264.816855 
L 458.231106 274.252102 
L 459.45345 277.450411 
L 462.203724 284.650991 
L 463.120482 287.114998 
L 463.426068 283.732564 
L 463.731654 286.201699 
L 464.953998 288.785696 
L 465.259584 280.268999 
L 465.56517 286.808857 
L 466.176342 287.889292 
L 468.62103 293.250363 
L 471.065717 298.396223 
L 471.982475 300.268179 
L 472.288061 299.567488 
L 472.593647 295.458013 
L 472.899233 246.072669 
L 473.204819 278.279247 
L 473.510405 285.546266 
L 474.427163 288.571311 
L 475.343921 291.243018 
L 476.871851 294.672848 
L 478.094195 296.896746 
L 481.761227 304.230077 
L 482.983571 306.390822 
L 483.900329 307.948912 
L 485.122673 310.175778 
L 485.428258 310.472723 
L 485.733844 306.624385 
L 486.03943 310.670555 
L 486.345016 303.970994 
L 486.650602 310.52592 
L 487.56736 311.94928 
L 492.15115 319.54952 
L 494.290252 323.450003 
L 494.595838 317.563891 
L 494.901424 319.444281 
L 495.20701 319.579987 
L 495.818182 320.28608 
L 496.123768 320.777864 
L 496.429354 321.004439 
L 498.26287 324.198041 
L 500.096386 327.414805 
L 500.401972 327.772684 
L 507.430449 340.25029 
L 507.736035 339.448747 
L 508.652793 340.740121 
L 508.958379 336.054537 
L 509.263965 338.227573 
L 509.875137 338.80732 
L 510.791895 340.003599 
L 511.403067 341.04143 
L 511.708653 339.240289 
L 512.319825 341.406056 
L 512.625411 336.643735 
L 512.930997 341.280244 
L 513.236583 341.628103 
L 513.542169 341.795975 
L 518.431544 349.756251 
L 520.570646 352.928583 
L 520.876232 352.202893 
L 521.181818 352.809924 
L 522.098576 354.00397 
L 523.32092 355.787848 
L 523.626506 354.379952 
L 523.932092 355.097699 
L 524.237678 347.627977 
L 524.543264 353.549426 
L 526.071194 355.557595 
L 526.37678 345.696458 
L 526.682366 351.524832 
L 526.987952 236.685874 
L 527.293538 298.286887 
L 527.599124 334.977108 
L 527.90471 333.717307 
L 528.210296 295.857432 
L 528.515882 335.131104 
L 529.127054 336.319963 
L 530.043812 337.754866 
L 532.182913 341.60881 
L 534.322015 345.479384 
L 534.933187 346.50401 
L 535.238773 344.942888 
L 535.544359 346.638105 
L 537.989047 350.257751 
L 538.294633 350.081037 
L 538.600219 347.394207 
L 538.905805 349.476949 
L 539.516977 350.080898 
L 540.433735 351.175159 
L 540.739321 351.389912 
L 541.044907 350.536545 
L 541.350493 351.549121 
L 541.961665 352.254403 
L 543.184009 353.993163 
L 543.489595 348.901476 
L 543.795181 351.088844 
L 544.100767 351.194629 
L 544.711939 351.771954 
L 545.628697 352.712993 
L 545.934283 352.996987 
L 546.239869 352.591467 
L 546.851041 353.576025 
L 548.073384 355.190787 
L 548.37897 338.071243 
L 548.684556 348.201674 
L 548.990142 348.140055 
L 549.601314 348.66804 
L 552.657174 352.602198 
L 552.96276 351.45578 
L 553.573932 352.856893 
L 553.879518 350.93585 
L 554.185104 353.099499 
L 555.713034 354.911206 
L 557.54655 357.253281 
L 562.435926 362.976594 
L 562.741512 360.816804 
L 563.047097 354.16455 
L 563.352683 300.299813 
L 563.658269 157.900857 
L 563.963855 210.535018 
L 564.575027 256.529472 
L 565.186199 260.120845 
L 565.491785 230.806029 
L 565.797371 260.68385 
L 567.019715 262.527749 
L 567.325301 247.21362 
L 567.630887 263.037544 
L 570.686747 266.192258 
L 572.214677 267.530585 
L 573.437021 268.431605 
L 576.492881 270.728081 
L 581.07667 273.651883 
L 583.826944 278.915274 
L 584.438116 280.141157 
L 584.743702 280.090649 
L 585.049288 277.459565 
L 585.354874 273.463475 
L 585.66046 277.186901 
L 585.966046 277.474879 
L 586.882804 277.847978 
L 587.799562 278.372728 
L 588.105148 275.396694 
L 588.410734 278.352117 
L 589.021906 278.663052 
L 589.938664 279.265644 
L 592.688938 280.417402 
L 593.911281 280.82277 
L 597.272727 282.23989 
L 598.189485 282.512012 
L 598.495071 282.793242 
L 600.023001 287.480994 
L 604.912377 301.463671 
L 607.662651 308.591191 
L 607.968237 308.787263 
L 608.273823 305.820621 
L 608.579409 305.899177 
L 609.190581 307.041968 
L 618.969332 331.433401 
L 624.46988 343.288108 
L 627.525739 349.318171 
L 627.831325 349.492512 
L 629.970427 353.361234 
L 630.276013 350.852639 
L 630.581599 349.99301 
L 631.192771 350.566505 
L 632.109529 352.002016 
L 635.165389 357.332112 
L 635.470975 352.152918 
L 635.776561 354.156229 
L 636.387733 354.78618 
L 637.304491 356.248429 
L 639.443593 359.914778 
L 640.665936 361.820904 
L 643.41621 365.960099 
L 646.166484 369.685986 
L 648 371.99488 
L 648 371.99488 
" style="fill:none;stroke:#03719c;stroke-linecap:square;stroke-opacity:0.9;stroke-width:4;"/>
   </g>
   <g id="line2d_21">
    <path clip-path="url(#pa9afc380eb)" d="M 90 277.984229 
L 90.305586 278.092672 
L 91.52793 279.782441 
L 94.278204 283.739559 
L 94.58379 279.010116 
L 94.889376 270.048776 
L 95.194962 278.408484 
L 95.500548 274.800838 
L 95.806134 278.044031 
L 96.11172 278.200728 
L 96.722892 278.904388 
L 98.250821 280.993136 
L 98.556407 281.096537 
L 99.167579 282.220005 
L 102.834611 287.926097 
L 105.890471 292.178317 
L 106.196057 292.569716 
L 106.501643 290.858372 
L 106.807229 291.085227 
L 107.112815 291.084122 
L 107.418401 283.577281 
L 107.723987 262.762552 
L 108.029573 282.495262 
L 108.335159 283.285671 
L 108.946331 283.87668 
L 109.251917 284.245042 
L 109.557503 277.415631 
L 109.863089 283.970293 
L 110.168675 280.945868 
L 110.474261 281.900016 
L 110.779847 283.443234 
L 111.085433 283.788648 
L 111.391019 281.994971 
L 111.696605 283.998314 
L 112.002191 284.06304 
L 113.53012 286.087211 
L 113.835706 286.028483 
L 114.141292 283.785127 
L 114.446878 285.804882 
L 114.752464 257.5193 
L 115.05805 145.965253 
L 115.363636 220.25149 
L 115.669222 227.707809 
L 115.974808 228.803018 
L 116.58598 229.903151 
L 117.197152 230.663271 
L 117.502738 223.654125 
L 117.808324 230.800004 
L 121.780942 235.477165 
L 122.086528 234.975889 
L 122.392114 226.990392 
L 122.6977 192.707079 
L 123.003286 230.820744 
L 123.308872 230.912625 
L 126.670318 234.018607 
L 127.892662 235.197253 
L 128.198248 235.461886 
L 128.503834 235.436491 
L 129.115005 235.744514 
L 129.420591 235.748632 
L 129.726177 236.0688 
L 130.031763 236.095329 
L 131.559693 237.229422 
L 132.782037 238.189747 
L 134.004381 239.033781 
L 134.309967 239.068397 
L 134.615553 237.932246 
L 134.921139 235.808374 
L 135.226725 237.766865 
L 135.837897 237.852569 
L 136.143483 237.961103 
L 137.060241 239.215784 
L 137.976999 240.657839 
L 138.282585 240.816058 
L 139.810515 242.587056 
L 142.560789 246.381359 
L 142.866375 245.971815 
L 144.394304 246.926113 
L 145.005476 246.447905 
L 145.311062 246.830203 
L 146.838992 247.749975 
L 152.950712 251.679907 
L 153.86747 252.080736 
L 154.478642 252.419526 
L 155.3954 252.84214 
L 156.617744 253.537623 
L 157.534502 253.938244 
L 159.062432 254.703317 
L 160.284775 255.493249 
L 163.035049 257.507125 
L 163.340635 257.185107 
L 163.646221 257.157652 
L 163.951807 257.277197 
L 164.257393 257.541323 
L 164.868565 258.9305 
L 165.479737 260.200639 
L 171.897043 275.490354 
L 173.119387 278.539935 
L 174.341731 281.793691 
L 174.647317 282.1645 
L 178.314348 290.339102 
L 180.147864 294.455484 
L 182.592552 300.17211 
L 184.120482 303.124736 
L 184.426068 303.807298 
L 184.731654 304.020247 
L 185.342826 305.269407 
L 185.648412 305.53604 
L 186.259584 306.819071 
L 186.56517 306.849181 
L 186.870756 307.151862 
L 187.787514 308.73635 
L 189.926616 312.807462 
L 190.232202 313.068724 
L 190.537788 310.630443 
L 190.843373 310.411437 
L 191.454545 311.18051 
L 193.593647 314.880723 
L 195.427163 317.923083 
L 196.038335 318.674787 
L 196.343921 318.001028 
L 196.955093 319.003669 
L 197.871851 320.353843 
L 198.177437 309.11844 
L 198.483023 259.431089 
L 199.094195 290.405798 
L 199.399781 290.841034 
L 199.705367 244.774161 
L 200.010953 285.215455 
L 200.316539 285.366959 
L 200.927711 284.306426 
L 201.844469 283.403306 
L 202.455641 283.105459 
L 203.066813 283.05258 
L 203.677985 283.209695 
L 204.594743 283.675131 
L 204.900329 283.403784 
L 205.817087 284.407409 
L 206.122673 279.91437 
L 206.428258 283.561078 
L 206.733844 283.708375 
L 207.345016 284.762403 
L 209.484118 288.186762 
L 211.012048 291.203398 
L 211.317634 289.624371 
L 211.62322 277.851852 
L 211.928806 288.731069 
L 212.845564 290.338237 
L 214.373494 293.298473 
L 214.67908 291.983273 
L 214.984666 294.129466 
L 215.901424 295.95943 
L 216.20701 295.024648 
L 216.512596 294.665716 
L 216.818182 295.779218 
L 217.73494 297.463914 
L 220.7908 303.832544 
L 221.401972 305.154637 
L 221.707558 304.952551 
L 222.318729 306.31875 
L 222.624315 306.342295 
L 223.846659 308.860222 
L 225.374589 311.243236 
L 225.680175 311.821443 
L 225.985761 311.511361 
L 226.291347 312.324718 
L 226.596933 311.796913 
L 228.124863 314.239879 
L 228.430449 308.595887 
L 228.736035 309.495068 
L 229.041621 311.216588 
L 232.403067 316.778068 
L 232.708653 311.413899 
L 233.014239 316.598632 
L 235.153341 319.296742 
L 235.764513 320.020843 
L 236.070099 320.276285 
L 236.375685 319.526371 
L 236.681271 320.461063 
L 240.042716 324.416391 
L 240.348302 317.699959 
L 240.653888 277.162844 
L 240.959474 307.629653 
L 241.26506 309.093134 
L 242.487404 310.088762 
L 243.709748 310.557988 
L 244.932092 311.254457 
L 245.543264 311.798585 
L 245.84885 310.345368 
L 246.154436 311.856537 
L 247.37678 312.839333 
L 251.96057 317.19546 
L 253.488499 318.670222 
L 256.238773 321.008653 
L 256.544359 319.032675 
L 256.849945 319.482564 
L 257.461117 319.733202 
L 257.766703 319.641887 
L 258.072289 318.765983 
L 258.377875 317.041628 
L 258.683461 319.16914 
L 259.294633 319.48149 
L 260.211391 320.091209 
L 260.516977 317.493814 
L 260.822563 319.597394 
L 262.350493 320.667118 
L 263.878423 322.133554 
L 264.184009 322.011622 
L 264.489595 320.941152 
L 264.795181 322.05716 
L 266.017525 323.183941 
L 266.628697 323.840661 
L 266.934283 323.776084 
L 267.239869 322.935691 
L 267.545455 323.889869 
L 269.073384 325.182926 
L 271.212486 327.498917 
L 272.129244 328.361035 
L 273.046002 329.241923 
L 273.96276 330.255665 
L 274.879518 330.995045 
L 275.185104 331.24995 
L 275.49069 331.325807 
L 276.407448 332.051758 
L 276.713034 332.372374 
L 277.01862 332.119469 
L 279.157722 333.954863 
L 281.296824 336.32042 
L 281.60241 336.147609 
L 281.907996 332.844137 
L 282.213582 319.129779 
L 282.519168 330.764072 
L 284.047097 331.932751 
L 285.575027 333.909803 
L 286.491785 335.089881 
L 287.102957 335.790646 
L 287.408543 336.212484 
L 287.714129 336.365958 
L 288.325301 337.235298 
L 288.630887 337.500439 
L 288.936473 336.018992 
L 289.242059 337.212051 
L 289.547645 337.472716 
L 289.853231 337.053683 
L 290.158817 337.683605 
L 290.464403 335.808372 
L 290.769989 337.364362 
L 291.686747 338.264468 
L 291.992333 338.658613 
L 292.297919 337.86698 
L 292.603505 339.049117 
L 292.909091 339.46063 
L 293.214677 336.856193 
L 293.520263 339.443531 
L 294.131435 340.018097 
L 295.353779 341.517836 
L 297.187295 344.036957 
L 297.492881 337.303933 
L 297.798467 257.986408 
L 298.104053 242.632773 
L 298.409639 262.475956 
L 298.715225 272.648349 
L 299.326396 207.631266 
L 299.631982 265.18069 
L 299.937568 266.438773 
L 300.243154 266.737336 
L 300.54874 240.458409 
L 300.854326 265.367945 
L 301.159912 265.415243 
L 301.465498 254.09506 
L 301.771084 265.56072 
L 302.07667 265.708793 
L 302.687842 266.398905 
L 302.993428 215.687935 
L 303.299014 263.426434 
L 303.6046 208.93635 
L 303.910186 259.751854 
L 304.826944 260.124006 
L 305.438116 260.482103 
L 306.354874 261.42148 
L 307.577218 263.037481 
L 307.882804 248.411827 
L 308.18839 261.282181 
L 308.493976 254.715075 
L 308.799562 260.54474 
L 309.410734 261.471196 
L 309.71632 252.276556 
L 310.021906 261.459409 
L 310.327492 262.017562 
L 310.633078 261.631534 
L 310.938664 262.941063 
L 311.549836 264.092374 
L 312.161008 248.080647 
L 312.466594 262.076529 
L 312.77218 262.279152 
L 313.077766 262.314842 
L 313.994524 263.435356 
L 314.911281 264.717492 
L 315.216867 259.506588 
L 315.522453 264.271184 
L 316.133625 264.8909 
L 317.967141 266.98129 
L 321.328587 270.679951 
L 322.245345 271.600648 
L 322.550931 271.550245 
L 322.856517 271.699184 
L 324.384447 273.120141 
L 325.301205 276.459393 
L 326.217963 279.50805 
L 326.523549 280.430417 
L 326.829135 280.92853 
L 327.134721 280.319855 
L 328.051479 283.009012 
L 328.357065 281.897808 
L 328.662651 282.560734 
L 329.273823 284.707077 
L 330.190581 287.407544 
L 330.496166 288.006818 
L 334.468784 300.210366 
L 334.77437 300.476074 
L 335.385542 302.10989 
L 338.135816 309.408617 
L 339.663746 313.035182 
L 340.274918 314.188104 
L 343.330778 320.68365 
L 343.636364 319.519329 
L 343.94195 317.38916 
L 344.247536 319.602019 
L 345.164294 321.646602 
L 346.692223 324.352053 
L 347.608981 325.772712 
L 347.914567 325.86343 
L 348.220153 310.393622 
L 348.525739 217.197671 
L 348.831325 263.63789 
L 349.136911 270.742529 
L 349.442497 271.875576 
L 349.748083 272.57473 
L 350.053669 272.847391 
L 350.359255 197.731474 
L 350.664841 258.93235 
L 350.970427 267.63601 
L 351.276013 269.346548 
L 351.581599 270.321466 
L 352.192771 271.248907 
L 354.943045 272.663568 
L 357.998905 274.173184 
L 358.304491 274.309261 
L 358.610077 273.77704 
L 358.915663 242.969413 
L 359.221249 272.562704 
L 359.832421 272.493293 
L 360.749179 272.720953 
L 361.665936 273.068217 
L 361.971522 273.382537 
L 363.193866 276.462735 
L 363.499452 248.971234 
L 363.805038 273.952119 
L 365.332968 277.164157 
L 367.47207 282.331045 
L 367.777656 259.977276 
L 368.083242 273.538727 
L 368.388828 280.488011 
L 369 281.496262 
L 369.611172 282.703197 
L 369.916758 282.935333 
L 373.278204 290.174378 
L 375.722892 295.386953 
L 376.945235 297.920696 
L 377.250821 293.201578 
L 377.556407 297.680055 
L 378.473165 299.441443 
L 380.001095 302.463361 
L 382.445783 307.343295 
L 384.890471 312.479267 
L 385.196057 312.72507 
L 385.501643 311.378537 
L 385.807229 312.033317 
L 386.418401 312.860759 
L 387.335159 314.502722 
L 389.474261 318.653391 
L 389.779847 315.211873 
L 390.391019 292.45059 
L 390.696605 269.32927 
L 391.002191 273.777368 
L 391.307777 297.946986 
L 391.918949 295.942033 
L 392.835706 293.71676 
L 393.141292 274.039107 
L 393.446878 291.455528 
L 394.05805 290.548828 
L 394.974808 289.953134 
L 395.58598 289.921591 
L 396.197152 290.074111 
L 397.725082 291.273973 
L 398.336254 291.990913 
L 399.864184 294.414273 
L 400.475356 295.602497 
L 400.780942 294.275033 
L 401.086528 295.315304 
L 401.6977 296.385893 
L 402.308872 261.558094 
L 402.614458 278.356052 
L 402.920044 281.106504 
L 403.22563 281.760687 
L 403.836802 281.857552 
L 404.142388 281.881455 
L 404.75356 282.357067 
L 405.059146 275.112771 
L 405.364732 281.976022 
L 406.587076 283.457528 
L 407.198248 284.280971 
L 408.115005 285.977246 
L 409.948521 290.033138 
L 410.254107 290.812387 
L 410.559693 290.872249 
L 411.170865 292.432565 
L 411.476451 291.310887 
L 411.782037 284.714686 
L 412.087623 290.286134 
L 412.698795 291.648781 
L 414.226725 295.922844 
L 415.754655 300.09297 
L 416.060241 291.741469 
L 416.365827 286.92838 
L 416.671413 293.98587 
L 417.282585 296.883469 
L 421.255203 307.784977 
L 421.560789 307.186418 
L 421.866375 308.667059 
L 423.088719 311.963548 
L 423.394304 311.149803 
L 423.69989 285.97068 
L 424.311062 297.211276 
L 424.922234 299.521955 
L 431.033954 316.439786 
L 432.561884 320.266736 
L 432.86747 320.271093 
L 433.478642 321.874053 
L 437.756846 331.478565 
L 438.062432 328.167543 
L 438.368018 309.706106 
L 438.979189 321.461048 
L 439.284775 299.53983 
L 439.590361 320.108905 
L 439.895947 321.170035 
L 440.201533 209.111161 
L 440.507119 269.685069 
L 441.118291 260.592755 
L 441.423877 292.321705 
L 441.729463 293.962026 
L 442.340635 294.854224 
L 442.646221 294.791438 
L 442.951807 291.340281 
L 443.257393 294.370227 
L 443.562979 292.322301 
L 443.868565 294.312245 
L 444.174151 294.364378 
L 444.479737 278.48258 
L 444.785323 294.623312 
L 445.702081 295.745139 
L 446.618839 297.125841 
L 446.924425 297.148938 
L 447.230011 297.792348 
L 447.535597 292.977201 
L 447.841183 298.283358 
L 448.146769 298.649691 
L 449.980285 302.29622 
L 450.897043 304.192879 
L 451.202629 293.665552 
L 451.508215 139.922968 
L 452.119387 255.437654 
L 453.036145 261.196058 
L 453.647317 262.701586 
L 454.564074 264.815759 
L 458.231106 274.252712 
L 459.45345 277.450784 
L 461.898138 283.85045 
L 463.120482 287.114053 
L 463.426068 283.722997 
L 463.731654 286.200787 
L 464.953998 288.785738 
L 465.259584 280.24922 
L 465.56517 286.809224 
L 466.176342 287.88793 
L 468.62103 293.250369 
L 471.065717 298.395323 
L 471.982475 300.267692 
L 472.288061 299.564569 
L 472.593647 295.442846 
L 472.899233 245.738575 
L 473.204819 278.278853 
L 473.510405 285.544635 
L 474.427163 288.569329 
L 475.343921 291.241864 
L 476.871851 294.672132 
L 478.094195 296.895734 
L 481.761227 304.229375 
L 482.983571 306.390131 
L 483.900329 307.949224 
L 485.122673 310.174795 
L 485.428258 310.472612 
L 485.733844 306.617074 
L 486.03943 310.67237 
L 486.345016 303.92186 
L 486.650602 310.52576 
L 487.56736 311.948508 
L 492.15115 319.549976 
L 494.290252 323.448933 
L 494.595838 317.545708 
L 494.901424 319.44383 
L 495.20701 319.577639 
L 495.818182 320.286014 
L 496.123768 320.776158 
L 496.429354 321.004177 
L 498.26287 324.19831 
L 502.846659 332.128063 
L 504.374589 334.78714 
L 507.430449 340.248801 
L 507.736035 339.446217 
L 508.652793 340.740498 
L 508.958379 336.026005 
L 509.263965 338.225405 
L 509.875137 338.806566 
L 510.791895 340.003714 
L 511.403067 341.043268 
L 511.708653 339.239326 
L 512.319825 341.405065 
L 512.625411 336.6103 
L 512.930997 341.280537 
L 513.236583 341.627354 
L 513.542169 341.796107 
L 518.431544 349.757074 
L 520.570646 352.929035 
L 520.876232 352.202636 
L 521.181818 352.811132 
L 522.098576 354.002967 
L 523.32092 355.787632 
L 523.626506 354.375776 
L 523.932092 355.096535 
L 524.237678 347.467493 
L 524.543264 353.547349 
L 526.071194 355.559106 
L 526.37678 345.687245 
L 526.682366 351.523565 
L 526.987952 236.073127 
L 527.293538 298.254263 
L 527.599124 334.977259 
L 527.90471 333.69966 
L 528.210296 295.809984 
L 528.515882 335.132136 
L 529.127054 336.320003 
L 530.043812 337.754359 
L 532.488499 342.190789 
L 534.627601 345.989479 
L 534.933187 346.504512 
L 535.238773 344.943061 
L 535.544359 346.638708 
L 537.989047 350.258917 
L 538.294633 350.080913 
L 538.600219 347.391816 
L 538.905805 349.476595 
L 539.516977 350.082733 
L 540.433735 351.175943 
L 540.739321 351.388772 
L 541.044907 350.536651 
L 541.350493 351.549408 
L 541.961665 352.254321 
L 543.184009 353.994462 
L 543.489595 348.901313 
L 543.795181 351.089075 
L 544.100767 351.19349 
L 544.711939 351.771756 
L 545.628697 352.713043 
L 545.934283 352.996566 
L 546.239869 352.590276 
L 546.851041 353.574892 
L 548.073384 355.189998 
L 548.37897 338.070708 
L 548.684556 348.20192 
L 548.990142 348.140327 
L 549.601314 348.668997 
L 552.657174 352.600511 
L 552.96276 351.455079 
L 553.573932 352.856282 
L 553.879518 350.935749 
L 554.185104 353.099996 
L 555.713034 354.911548 
L 557.54655 357.253292 
L 562.435926 362.975319 
L 562.741512 360.815339 
L 563.047097 354.124332 
L 563.352683 299.702824 
L 563.658269 157.061058 
L 563.963855 209.957313 
L 564.575027 256.526925 
L 565.186199 260.120276 
L 565.491785 230.457186 
L 565.797371 260.682428 
L 567.019715 262.528894 
L 567.325301 246.811373 
L 567.630887 263.039212 
L 570.686747 266.191836 
L 572.214677 267.530043 
L 573.437021 268.433461 
L 576.798467 270.916355 
L 580.159912 272.929157 
L 580.771084 273.253592 
L 581.382256 274.217678 
L 584.438116 280.141821 
L 584.743702 280.090136 
L 585.049288 277.456961 
L 585.354874 273.424136 
L 585.66046 277.185971 
L 585.966046 277.475582 
L 586.882804 277.847794 
L 587.799562 278.372704 
L 588.105148 275.366751 
L 588.410734 278.350681 
L 589.021906 278.662464 
L 589.938664 279.266931 
L 592.688938 280.416989 
L 593.911281 280.823458 
L 597.272727 282.238418 
L 598.189485 282.511407 
L 598.495071 282.793288 
L 600.023001 287.481968 
L 604.912377 301.463555 
L 607.662651 308.590665 
L 607.968237 308.785947 
L 608.273823 305.817086 
L 608.579409 305.897658 
L 609.190581 307.040613 
L 618.969332 331.431774 
L 624.164294 342.725487 
L 625.386637 345.169706 
L 627.525739 349.319331 
L 627.831325 349.492112 
L 629.970427 353.362899 
L 630.276013 350.849896 
L 630.581599 349.992881 
L 631.192771 350.565627 
L 632.109529 352.003295 
L 635.165389 357.332879 
L 635.470975 352.141312 
L 635.776561 354.155546 
L 636.387733 354.784931 
L 637.304491 356.24898 
L 639.443593 359.915114 
L 640.665936 361.822307 
L 643.41621 365.959488 
L 645.860898 369.260901 
L 647.694414 371.628218 
L 648 371.994522 
L 648 371.994522 
" style="fill:none;stroke:#e17701;stroke-linecap:square;stroke-width:1.3;"/>
   </g>
   <g id="patch_3">
    <path d="M 90 441 
L 90 60.48 
" style="fill:none;stroke:#000000;stroke-linecap:square;stroke-linejoin:miter;stroke-width:0.8;"/>
   </g>
   <g id="patch_4">
    <path d="M 648 441 
L 648 60.48 
" style="fill:none;stroke:#000000;stroke-linecap:square;stroke-linejoin:miter;stroke-width:0.8;"/>
   </g>
   <g id="patch_5">
    <path d="M 90 441 
L 648 441 
" style="fill:none;stroke:#000000;stroke-linecap:square;stroke-linejoin:miter;stroke-width:0.8;"/>
   </g>
   <g id="patch_6">
    <path d="M 90 60.48 
L 648 60.48 
" style="fill:none;stroke:#000000;stroke-linecap:square;stroke-linejoin:miter;stroke-width:0.8;"/>
   </g>
   <g id="legend_1">
    <g id="patch_7">
     <path d="M 248.25375 435 
L 489.74625 435 
Q 492.14625 435 492.14625 432.6 
L 492.14625 398.5725 
Q 492.14625 396.1725 489.74625 396.1725 
L 248.25375 396.1725 
Q 245.85375 396.1725 245.85375 398.5725 
L 245.85375 432.6 
Q 245.85375 435 248.25375 435 
z
" style="fill:#ffffff;opacity:0.8;stroke:#cccccc;stroke-linejoin:miter;"/>
    </g>
    <g id="line2d_22">
     <path d="M 250.65375 405.890625 
L 274.65375 405.890625 
" style="fill:none;stroke:#03719c;stroke-linecap:square;stroke-opacity:0.9;stroke-width:4;"/>
    </g>
    <g id="line2d_23"/>
    <g id="text_14">
     <!-- MF6 Total Applied Infiltration -->
     <defs>
      <path d="M 9.421875 75.984375 
L 18.40625 75.984375 
L 18.40625 0 
L 9.421875 0 
z
" id="DejaVuSans-108"/>
      <path d="M 34.1875 63.1875 
L 20.796875 26.90625 
L 47.609375 26.90625 
z
M 28.609375 72.90625 
L 39.796875 72.90625 
L 67.578125 0 
L 57.328125 0 
L 50.6875 18.703125 
L 17.828125 18.703125 
L 11.1875 0 
L 0.78125 0 
z
" id="DejaVuSans-65"/>
      <path d="M 18.109375 8.203125 
L 18.109375 -20.796875 
L 9.078125 -20.796875 
L 9.078125 54.6875 
L 18.109375 54.6875 
L 18.109375 46.390625 
Q 20.953125 51.265625 25.265625 53.625 
Q 29.59375 56 35.59375 56 
Q 45.5625 56 51.78125 48.09375 
Q 58.015625 40.1875 58.015625 27.296875 
Q 58.015625 14.40625 51.78125 6.484375 
Q 45.5625 -1.421875 35.59375 -1.421875 
Q 29.59375 -1.421875 25.265625 0.953125 
Q 20.953125 3.328125 18.109375 8.203125 
z
M 48.6875 27.296875 
Q 48.6875 37.203125 44.609375 42.84375 
Q 40.53125 48.484375 33.40625 48.484375 
Q 26.265625 48.484375 22.1875 42.84375 
Q 18.109375 37.203125 18.109375 27.296875 
Q 18.109375 17.390625 22.1875 11.75 
Q 26.265625 6.109375 33.40625 6.109375 
Q 40.53125 6.109375 44.609375 11.75 
Q 48.6875 17.390625 48.6875 27.296875 
z
" id="DejaVuSans-112"/>
      <path d="M 9.421875 54.6875 
L 18.40625 54.6875 
L 18.40625 0 
L 9.421875 0 
z
M 9.421875 75.984375 
L 18.40625 75.984375 
L 18.40625 64.59375 
L 9.421875 64.59375 
z
" id="DejaVuSans-105"/>
      <path d="M 45.40625 46.390625 
L 45.40625 75.984375 
L 54.390625 75.984375 
L 54.390625 0 
L 45.40625 0 
L 45.40625 8.203125 
Q 42.578125 3.328125 38.25 0.953125 
Q 33.9375 -1.421875 27.875 -1.421875 
Q 17.96875 -1.421875 11.734375 6.484375 
Q 5.515625 14.40625 5.515625 27.296875 
Q 5.515625 40.1875 11.734375 48.09375 
Q 17.96875 56 27.875 56 
Q 33.9375 56 38.25 53.625 
Q 42.578125 51.265625 45.40625 46.390625 
z
M 14.796875 27.296875 
Q 14.796875 17.390625 18.875 11.75 
Q 22.953125 6.109375 30.078125 6.109375 
Q 37.203125 6.109375 41.296875 11.75 
Q 45.40625 17.390625 45.40625 27.296875 
Q 45.40625 37.203125 41.296875 42.84375 
Q 37.203125 48.484375 30.078125 48.484375 
Q 22.953125 48.484375 18.875 42.84375 
Q 14.796875 37.203125 14.796875 27.296875 
z
" id="DejaVuSans-100"/>
      <path d="M 9.8125 72.90625 
L 19.671875 72.90625 
L 19.671875 0 
L 9.8125 0 
z
" id="DejaVuSans-73"/>
     </defs>
     <g transform="translate(284.25375 410.090625)scale(0.12 -0.12)">
      <use xlink:href="#DejaVuSans-77"/>
      <use x="86.279297" xlink:href="#DejaVuSans-70"/>
      <use x="143.798828" xlink:href="#DejaVuSans-54"/>
      <use x="207.421875" xlink:href="#DejaVuSans-32"/>
      <use x="239.208984" xlink:href="#DejaVuSans-84"/>
      <use x="300.027344" xlink:href="#DejaVuSans-111"/>
      <use x="361.208984" xlink:href="#DejaVuSans-116"/>
      <use x="400.417969" xlink:href="#DejaVuSans-97"/>
      <use x="461.697266" xlink:href="#DejaVuSans-108"/>
      <use x="489.480469" xlink:href="#DejaVuSans-32"/>
      <use x="521.267578" xlink:href="#DejaVuSans-65"/>
      <use x="589.675781" xlink:href="#DejaVuSans-112"/>
      <use x="653.152344" xlink:href="#DejaVuSans-112"/>
      <use x="716.628906" xlink:href="#DejaVuSans-108"/>
      <use x="744.412109" xlink:href="#DejaVuSans-105"/>
      <use x="772.195312" xlink:href="#DejaVuSans-101"/>
      <use x="833.71875" xlink:href="#DejaVuSans-100"/>
      <use x="897.195312" xlink:href="#DejaVuSans-32"/>
      <use x="928.982422" xlink:href="#DejaVuSans-73"/>
      <use x="958.474609" xlink:href="#DejaVuSans-110"/>
      <use x="1021.853516" xlink:href="#DejaVuSans-102"/>
      <use x="1057.058594" xlink:href="#DejaVuSans-105"/>
      <use x="1084.841797" xlink:href="#DejaVuSans-108"/>
      <use x="1112.625" xlink:href="#DejaVuSans-116"/>
      <use x="1151.833984" xlink:href="#DejaVuSans-114"/>
      <use x="1192.947266" xlink:href="#DejaVuSans-97"/>
      <use x="1254.226562" xlink:href="#DejaVuSans-116"/>
      <use x="1293.435547" xlink:href="#DejaVuSans-105"/>
      <use x="1321.21875" xlink:href="#DejaVuSans-111"/>
      <use x="1382.400391" xlink:href="#DejaVuSans-110"/>
     </g>
    </g>
    <g id="line2d_24">
     <path d="M 250.65375 423.504375 
L 274.65375 423.504375 
" style="fill:none;stroke:#e17701;stroke-linecap:square;stroke-width:1.3;"/>
    </g>
    <g id="line2d_25"/>
    <g id="text_15">
     <!-- HSPF Losses to Unsaturated Zone -->
     <defs>
      <path d="M 9.8125 72.90625 
L 19.671875 72.90625 
L 19.671875 8.296875 
L 55.171875 8.296875 
L 55.171875 0 
L 9.8125 0 
z
" id="DejaVuSans-76"/>
      <path d="M 8.6875 72.90625 
L 18.609375 72.90625 
L 18.609375 28.609375 
Q 18.609375 16.890625 22.84375 11.734375 
Q 27.09375 6.59375 36.625 6.59375 
Q 46.09375 6.59375 50.34375 11.734375 
Q 54.59375 16.890625 54.59375 28.609375 
L 54.59375 72.90625 
L 64.5 72.90625 
L 64.5 27.390625 
Q 64.5 13.140625 57.4375 5.859375 
Q 50.390625 -1.421875 36.625 -1.421875 
Q 22.796875 -1.421875 15.734375 5.859375 
Q 8.6875 13.140625 8.6875 27.390625 
z
" id="DejaVuSans-85"/>
      <path d="M 8.5 21.578125 
L 8.5 54.6875 
L 17.484375 54.6875 
L 17.484375 21.921875 
Q 17.484375 14.15625 20.5 10.265625 
Q 23.53125 6.390625 29.59375 6.390625 
Q 36.859375 6.390625 41.078125 11.03125 
Q 45.3125 15.671875 45.3125 23.6875 
L 45.3125 54.6875 
L 54.296875 54.6875 
L 54.296875 0 
L 45.3125 0 
L 45.3125 8.40625 
Q 42.046875 3.421875 37.71875 1 
Q 33.40625 -1.421875 27.6875 -1.421875 
Q 18.265625 -1.421875 13.375 4.4375 
Q 8.5 10.296875 8.5 21.578125 
z
M 31.109375 56 
z
" id="DejaVuSans-117"/>
      <path d="M 5.609375 72.90625 
L 62.890625 72.90625 
L 62.890625 65.375 
L 16.796875 8.296875 
L 64.015625 8.296875 
L 64.015625 0 
L 4.5 0 
L 4.5 7.515625 
L 50.59375 64.59375 
L 5.609375 64.59375 
z
" id="DejaVuSans-90"/>
     </defs>
     <g transform="translate(284.25375 427.704375)scale(0.12 -0.12)">
      <use xlink:href="#DejaVuSans-72"/>
      <use x="75.195312" xlink:href="#DejaVuSans-83"/>
      <use x="138.671875" xlink:href="#DejaVuSans-80"/>
      <use x="198.974609" xlink:href="#DejaVuSans-70"/>
      <use x="256.494141" xlink:href="#DejaVuSans-32"/>
      <use x="288.28125" xlink:href="#DejaVuSans-76"/>
      <use x="343.978516" xlink:href="#DejaVuSans-111"/>
      <use x="405.160156" xlink:href="#DejaVuSans-115"/>
      <use x="457.259766" xlink:href="#DejaVuSans-115"/>
      <use x="509.359375" xlink:href="#DejaVuSans-101"/>
      <use x="570.882812" xlink:href="#DejaVuSans-115"/>
      <use x="622.982422" xlink:href="#DejaVuSans-32"/>
      <use x="654.769531" xlink:href="#DejaVuSans-116"/>
      <use x="693.978516" xlink:href="#DejaVuSans-111"/>
      <use x="755.160156" xlink:href="#DejaVuSans-32"/>
      <use x="786.947266" xlink:href="#DejaVuSans-85"/>
      <use x="860.140625" xlink:href="#DejaVuSans-110"/>
      <use x="923.519531" xlink:href="#DejaVuSans-115"/>
      <use x="975.619141" xlink:href="#DejaVuSans-97"/>
      <use x="1036.898438" xlink:href="#DejaVuSans-116"/>
      <use x="1076.107422" xlink:href="#DejaVuSans-117"/>
      <use x="1139.486328" xlink:href="#DejaVuSans-114"/>
      <use x="1180.599609" xlink:href="#DejaVuSans-97"/>
      <use x="1241.878906" xlink:href="#DejaVuSans-116"/>
      <use x="1281.087891" xlink:href="#DejaVuSans-101"/>
      <use x="1342.611328" xlink:href="#DejaVuSans-100"/>
      <use x="1406.087891" xlink:href="#DejaVuSans-32"/>
      <use x="1437.875" xlink:href="#DejaVuSans-90"/>
      <use x="1506.380859" xlink:href="#DejaVuSans-111"/>
      <use x="1567.5625" xlink:href="#DejaVuSans-110"/>
      <use x="1630.941406" xlink:href="#DejaVuSans-101"/>
     </g>
    </g>
   </g>
  </g>
 </g>
 <defs>
  <clipPath id="pa9afc380eb">
   <rect height="380.52" width="558" x="90" y="60.48"/>
  </clipPath>
 </defs>
</svg>
