<?xml version="1.0" encoding="utf-8" standalone="no"?>
<!DOCTYPE svg PUBLIC "-//W3C//DTD SVG 1.1//EN"
  "http://www.w3.org/Graphics/SVG/1.1/DTD/svg11.dtd">
<!-- Created with matplotlib (https://matplotlib.org/) -->
<svg height="504pt" version="1.1" viewBox="0 0 720 504" width="720pt" xmlns="http://www.w3.org/2000/svg" xmlns:xlink="http://www.w3.org/1999/xlink">
 <defs>
  <style type="text/css">
*{stroke-linecap:butt;stroke-linejoin:round;}
  </style>
 </defs>
 <g id="figure_1">
  <g id="patch_1">
   <path d="M 0 504 
L 720 504 
L 720 0 
L 0 0 
z
" style="fill:#ffffff;"/>
  </g>
  <g id="axes_1">
   <g id="patch_2">
    <path d="M 90 441 
L 648 441 
L 648 60.48 
L 90 60.48 
z
" style="fill:#ffffff;"/>
   </g>
   <g id="matplotlib.axis_1">
    <g id="xtick_1">
     <g id="line2d_1">
      <defs>
       <path d="M 0 0 
L 0 3.5 
" id="m763852736b" style="stroke:#000000;stroke-width:0.8;"/>
      </defs>
      <g>
       <use style="stroke:#000000;stroke-width:0.8;" x="146.22782" xlink:href="#m763852736b" y="441"/>
      </g>
     </g>
     <g id="text_1">
      <!-- 01/01/2014 -->
      <defs>
       <path d="M 31.78125 66.40625 
Q 24.171875 66.40625 20.328125 58.90625 
Q 16.5 51.421875 16.5 36.375 
Q 16.5 21.390625 20.328125 13.890625 
Q 24.171875 6.390625 31.78125 6.390625 
Q 39.453125 6.390625 43.28125 13.890625 
Q 47.125 21.390625 47.125 36.375 
Q 47.125 51.421875 43.28125 58.90625 
Q 39.453125 66.40625 31.78125 66.40625 
z
M 31.78125 74.21875 
Q 44.046875 74.21875 50.515625 64.515625 
Q 56.984375 54.828125 56.984375 36.375 
Q 56.984375 17.96875 50.515625 8.265625 
Q 44.046875 -1.421875 31.78125 -1.421875 
Q 19.53125 -1.421875 13.0625 8.265625 
Q 6.59375 17.96875 6.59375 36.375 
Q 6.59375 54.828125 13.0625 64.515625 
Q 19.53125 74.21875 31.78125 74.21875 
z
" id="DejaVuSans-48"/>
       <path d="M 12.40625 8.296875 
L 28.515625 8.296875 
L 28.515625 63.921875 
L 10.984375 60.40625 
L 10.984375 69.390625 
L 28.421875 72.90625 
L 38.28125 72.90625 
L 38.28125 8.296875 
L 54.390625 8.296875 
L 54.390625 0 
L 12.40625 0 
z
" id="DejaVuSans-49"/>
       <path d="M 25.390625 72.90625 
L 33.6875 72.90625 
L 8.296875 -9.28125 
L 0 -9.28125 
z
" id="DejaVuSans-47"/>
       <path d="M 19.1875 8.296875 
L 53.609375 8.296875 
L 53.609375 0 
L 7.328125 0 
L 7.328125 8.296875 
Q 12.9375 14.109375 22.625 23.890625 
Q 32.328125 33.6875 34.8125 36.53125 
Q 39.546875 41.84375 41.421875 45.53125 
Q 43.3125 49.21875 43.3125 52.78125 
Q 43.3125 58.59375 39.234375 62.25 
Q 35.15625 65.921875 28.609375 65.921875 
Q 23.96875 65.921875 18.8125 64.3125 
Q 13.671875 62.703125 7.8125 59.421875 
L 7.8125 69.390625 
Q 13.765625 71.78125 18.9375 73 
Q 24.125 74.21875 28.421875 74.21875 
Q 39.75 74.21875 46.484375 68.546875 
Q 53.21875 62.890625 53.21875 53.421875 
Q 53.21875 48.921875 51.53125 44.890625 
Q 49.859375 40.875 45.40625 35.40625 
Q 44.1875 33.984375 37.640625 27.21875 
Q 31.109375 20.453125 19.1875 8.296875 
z
" id="DejaVuSans-50"/>
       <path d="M 37.796875 64.3125 
L 12.890625 25.390625 
L 37.796875 25.390625 
z
M 35.203125 72.90625 
L 47.609375 72.90625 
L 47.609375 25.390625 
L 58.015625 25.390625 
L 58.015625 17.1875 
L 47.609375 17.1875 
L 47.609375 0 
L 37.796875 0 
L 37.796875 17.1875 
L 4.890625 17.1875 
L 4.890625 26.703125 
z
" id="DejaVuSans-52"/>
      </defs>
      <g transform="translate(117.934122 490.479028)rotate(-30)scale(0.12 -0.12)">
       <use xlink:href="#DejaVuSans-48"/>
       <use x="63.623047" xlink:href="#DejaVuSans-49"/>
       <use x="127.246094" xlink:href="#DejaVuSans-47"/>
       <use x="160.9375" xlink:href="#DejaVuSans-48"/>
       <use x="224.560547" xlink:href="#DejaVuSans-49"/>
       <use x="288.183594" xlink:href="#DejaVuSans-47"/>
       <use x="321.875" xlink:href="#DejaVuSans-50"/>
       <use x="385.498047" xlink:href="#DejaVuSans-48"/>
       <use x="449.121094" xlink:href="#DejaVuSans-49"/>
       <use x="512.744141" xlink:href="#DejaVuSans-52"/>
      </g>
     </g>
    </g>
    <g id="xtick_2">
     <g id="line2d_2">
      <g>
       <use style="stroke:#000000;stroke-width:0.8;" x="257.766703" xlink:href="#m763852736b" y="441"/>
      </g>
     </g>
     <g id="text_2">
      <!-- 01/01/2015 -->
      <defs>
       <path d="M 10.796875 72.90625 
L 49.515625 72.90625 
L 49.515625 64.59375 
L 19.828125 64.59375 
L 19.828125 46.734375 
Q 21.96875 47.46875 24.109375 47.828125 
Q 26.265625 48.1875 28.421875 48.1875 
Q 40.625 48.1875 47.75 41.5 
Q 54.890625 34.8125 54.890625 23.390625 
Q 54.890625 11.625 47.5625 5.09375 
Q 40.234375 -1.421875 26.90625 -1.421875 
Q 22.3125 -1.421875 17.546875 -0.640625 
Q 12.796875 0.140625 7.71875 1.703125 
L 7.71875 11.625 
Q 12.109375 9.234375 16.796875 8.0625 
Q 21.484375 6.890625 26.703125 6.890625 
Q 35.15625 6.890625 40.078125 11.328125 
Q 45.015625 15.765625 45.015625 23.390625 
Q 45.015625 31 40.078125 35.4375 
Q 35.15625 39.890625 26.703125 39.890625 
Q 22.75 39.890625 18.8125 39.015625 
Q 14.890625 38.140625 10.796875 36.28125 
z
" id="DejaVuSans-53"/>
      </defs>
      <g transform="translate(229.473005 490.479028)rotate(-30)scale(0.12 -0.12)">
       <use xlink:href="#DejaVuSans-48"/>
       <use x="63.623047" xlink:href="#DejaVuSans-49"/>
       <use x="127.246094" xlink:href="#DejaVuSans-47"/>
       <use x="160.9375" xlink:href="#DejaVuSans-48"/>
       <use x="224.560547" xlink:href="#DejaVuSans-49"/>
       <use x="288.183594" xlink:href="#DejaVuSans-47"/>
       <use x="321.875" xlink:href="#DejaVuSans-50"/>
       <use x="385.498047" xlink:href="#DejaVuSans-48"/>
       <use x="449.121094" xlink:href="#DejaVuSans-49"/>
       <use x="512.744141" xlink:href="#DejaVuSans-53"/>
      </g>
     </g>
    </g>
    <g id="xtick_3">
     <g id="line2d_3">
      <g>
       <use style="stroke:#000000;stroke-width:0.8;" x="369.305586" xlink:href="#m763852736b" y="441"/>
      </g>
     </g>
     <g id="text_3">
      <!-- 01/01/2016 -->
      <defs>
       <path d="M 33.015625 40.375 
Q 26.375 40.375 22.484375 35.828125 
Q 18.609375 31.296875 18.609375 23.390625 
Q 18.609375 15.53125 22.484375 10.953125 
Q 26.375 6.390625 33.015625 6.390625 
Q 39.65625 6.390625 43.53125 10.953125 
Q 47.40625 15.53125 47.40625 23.390625 
Q 47.40625 31.296875 43.53125 35.828125 
Q 39.65625 40.375 33.015625 40.375 
z
M 52.59375 71.296875 
L 52.59375 62.3125 
Q 48.875 64.0625 45.09375 64.984375 
Q 41.3125 65.921875 37.59375 65.921875 
Q 27.828125 65.921875 22.671875 59.328125 
Q 17.53125 52.734375 16.796875 39.40625 
Q 19.671875 43.65625 24.015625 45.921875 
Q 28.375 48.1875 33.59375 48.1875 
Q 44.578125 48.1875 50.953125 41.515625 
Q 57.328125 34.859375 57.328125 23.390625 
Q 57.328125 12.15625 50.6875 5.359375 
Q 44.046875 -1.421875 33.015625 -1.421875 
Q 20.359375 -1.421875 13.671875 8.265625 
Q 6.984375 17.96875 6.984375 36.375 
Q 6.984375 53.65625 15.1875 63.9375 
Q 23.390625 74.21875 37.203125 74.21875 
Q 40.921875 74.21875 44.703125 73.484375 
Q 48.484375 72.75 52.59375 71.296875 
z
" id="DejaVuSans-54"/>
      </defs>
      <g transform="translate(341.011887 490.479028)rotate(-30)scale(0.12 -0.12)">
       <use xlink:href="#DejaVuSans-48"/>
       <use x="63.623047" xlink:href="#DejaVuSans-49"/>
       <use x="127.246094" xlink:href="#DejaVuSans-47"/>
       <use x="160.9375" xlink:href="#DejaVuSans-48"/>
       <use x="224.560547" xlink:href="#DejaVuSans-49"/>
       <use x="288.183594" xlink:href="#DejaVuSans-47"/>
       <use x="321.875" xlink:href="#DejaVuSans-50"/>
       <use x="385.498047" xlink:href="#DejaVuSans-48"/>
       <use x="449.121094" xlink:href="#DejaVuSans-49"/>
       <use x="512.744141" xlink:href="#DejaVuSans-54"/>
      </g>
     </g>
    </g>
    <g id="xtick_4">
     <g id="line2d_4">
      <g>
       <use style="stroke:#000000;stroke-width:0.8;" x="481.150055" xlink:href="#m763852736b" y="441"/>
      </g>
     </g>
     <g id="text_4">
      <!-- 01/01/2017 -->
      <defs>
       <path d="M 8.203125 72.90625 
L 55.078125 72.90625 
L 55.078125 68.703125 
L 28.609375 0 
L 18.3125 0 
L 43.21875 64.59375 
L 8.203125 64.59375 
z
" id="DejaVuSans-55"/>
      </defs>
      <g transform="translate(452.856356 490.479028)rotate(-30)scale(0.12 -0.12)">
       <use xlink:href="#DejaVuSans-48"/>
       <use x="63.623047" xlink:href="#DejaVuSans-49"/>
       <use x="127.246094" xlink:href="#DejaVuSans-47"/>
       <use x="160.9375" xlink:href="#DejaVuSans-48"/>
       <use x="224.560547" xlink:href="#DejaVuSans-49"/>
       <use x="288.183594" xlink:href="#DejaVuSans-47"/>
       <use x="321.875" xlink:href="#DejaVuSans-50"/>
       <use x="385.498047" xlink:href="#DejaVuSans-48"/>
       <use x="449.121094" xlink:href="#DejaVuSans-49"/>
       <use x="512.744141" xlink:href="#DejaVuSans-55"/>
      </g>
     </g>
    </g>
    <g id="xtick_5">
     <g id="line2d_5">
      <g>
       <use style="stroke:#000000;stroke-width:0.8;" x="592.688938" xlink:href="#m763852736b" y="441"/>
      </g>
     </g>
     <g id="text_5">
      <!-- 01/01/2018 -->
      <defs>
       <path d="M 31.78125 34.625 
Q 24.75 34.625 20.71875 30.859375 
Q 16.703125 27.09375 16.703125 20.515625 
Q 16.703125 13.921875 20.71875 10.15625 
Q 24.75 6.390625 31.78125 6.390625 
Q 38.8125 6.390625 42.859375 10.171875 
Q 46.921875 13.96875 46.921875 20.515625 
Q 46.921875 27.09375 42.890625 30.859375 
Q 38.875 34.625 31.78125 34.625 
z
M 21.921875 38.8125 
Q 15.578125 40.375 12.03125 44.71875 
Q 8.5 49.078125 8.5 55.328125 
Q 8.5 64.0625 14.71875 69.140625 
Q 20.953125 74.21875 31.78125 74.21875 
Q 42.671875 74.21875 48.875 69.140625 
Q 55.078125 64.0625 55.078125 55.328125 
Q 55.078125 49.078125 51.53125 44.71875 
Q 48 40.375 41.703125 38.8125 
Q 48.828125 37.15625 52.796875 32.3125 
Q 56.78125 27.484375 56.78125 20.515625 
Q 56.78125 9.90625 50.3125 4.234375 
Q 43.84375 -1.421875 31.78125 -1.421875 
Q 19.734375 -1.421875 13.25 4.234375 
Q 6.78125 9.90625 6.78125 20.515625 
Q 6.78125 27.484375 10.78125 32.3125 
Q 14.796875 37.15625 21.921875 38.8125 
z
M 18.3125 54.390625 
Q 18.3125 48.734375 21.84375 45.5625 
Q 25.390625 42.390625 31.78125 42.390625 
Q 38.140625 42.390625 41.71875 45.5625 
Q 45.3125 48.734375 45.3125 54.390625 
Q 45.3125 60.0625 41.71875 63.234375 
Q 38.140625 66.40625 31.78125 66.40625 
Q 25.390625 66.40625 21.84375 63.234375 
Q 18.3125 60.0625 18.3125 54.390625 
z
" id="DejaVuSans-56"/>
      </defs>
      <g transform="translate(564.395239 490.479028)rotate(-30)scale(0.12 -0.12)">
       <use xlink:href="#DejaVuSans-48"/>
       <use x="63.623047" xlink:href="#DejaVuSans-49"/>
       <use x="127.246094" xlink:href="#DejaVuSans-47"/>
       <use x="160.9375" xlink:href="#DejaVuSans-48"/>
       <use x="224.560547" xlink:href="#DejaVuSans-49"/>
       <use x="288.183594" xlink:href="#DejaVuSans-47"/>
       <use x="321.875" xlink:href="#DejaVuSans-50"/>
       <use x="385.498047" xlink:href="#DejaVuSans-48"/>
       <use x="449.121094" xlink:href="#DejaVuSans-49"/>
       <use x="512.744141" xlink:href="#DejaVuSans-56"/>
      </g>
     </g>
    </g>
   </g>
   <g id="matplotlib.axis_2">
    <g id="ytick_1">
     <g id="line2d_6">
      <path clip-path="url(#pb91159dc4b)" d="M 90 441 
L 648 441 
" style="fill:none;stroke:#b0b0b0;stroke-linecap:square;stroke-width:0.8;"/>
     </g>
     <g id="line2d_7">
      <defs>
       <path d="M 0 0 
L -3.5 0 
" id="m70f32d443b" style="stroke:#000000;stroke-width:0.8;"/>
      </defs>
      <g>
       <use style="stroke:#000000;stroke-width:0.8;" x="90" xlink:href="#m70f32d443b" y="441"/>
      </g>
     </g>
     <g id="text_6">
      <!-- 5,000 -->
      <defs>
       <path d="M 11.71875 12.40625 
L 22.015625 12.40625 
L 22.015625 4 
L 14.015625 -11.625 
L 7.71875 -11.625 
L 11.71875 4 
z
" id="DejaVuSans-44"/>
      </defs>
      <g transform="translate(48.64625 445.559062)scale(0.12 -0.12)">
       <use xlink:href="#DejaVuSans-53"/>
       <use x="63.623047" xlink:href="#DejaVuSans-44"/>
       <use x="95.410156" xlink:href="#DejaVuSans-48"/>
       <use x="159.033203" xlink:href="#DejaVuSans-48"/>
       <use x="222.65625" xlink:href="#DejaVuSans-48"/>
      </g>
     </g>
    </g>
    <g id="ytick_2">
     <g id="line2d_8">
      <path clip-path="url(#pb91159dc4b)" d="M 90 377.58 
L 648 377.58 
" style="fill:none;stroke:#b0b0b0;stroke-linecap:square;stroke-width:0.8;"/>
     </g>
     <g id="line2d_9">
      <g>
       <use style="stroke:#000000;stroke-width:0.8;" x="90" xlink:href="#m70f32d443b" y="377.58"/>
      </g>
     </g>
     <g id="text_7">
      <!-- 10,000 -->
      <g transform="translate(41.01125 382.139063)scale(0.12 -0.12)">
       <use xlink:href="#DejaVuSans-49"/>
       <use x="63.623047" xlink:href="#DejaVuSans-48"/>
       <use x="127.246094" xlink:href="#DejaVuSans-44"/>
       <use x="159.033203" xlink:href="#DejaVuSans-48"/>
       <use x="222.65625" xlink:href="#DejaVuSans-48"/>
       <use x="286.279297" xlink:href="#DejaVuSans-48"/>
      </g>
     </g>
    </g>
    <g id="ytick_3">
     <g id="line2d_10">
      <path clip-path="url(#pb91159dc4b)" d="M 90 314.16 
L 648 314.16 
" style="fill:none;stroke:#b0b0b0;stroke-linecap:square;stroke-width:0.8;"/>
     </g>
     <g id="line2d_11">
      <g>
       <use style="stroke:#000000;stroke-width:0.8;" x="90" xlink:href="#m70f32d443b" y="314.16"/>
      </g>
     </g>
     <g id="text_8">
      <!-- 15,000 -->
      <g transform="translate(41.01125 318.719062)scale(0.12 -0.12)">
       <use xlink:href="#DejaVuSans-49"/>
       <use x="63.623047" xlink:href="#DejaVuSans-53"/>
       <use x="127.246094" xlink:href="#DejaVuSans-44"/>
       <use x="159.033203" xlink:href="#DejaVuSans-48"/>
       <use x="222.65625" xlink:href="#DejaVuSans-48"/>
       <use x="286.279297" xlink:href="#DejaVuSans-48"/>
      </g>
     </g>
    </g>
    <g id="ytick_4">
     <g id="line2d_12">
      <path clip-path="url(#pb91159dc4b)" d="M 90 250.74 
L 648 250.74 
" style="fill:none;stroke:#b0b0b0;stroke-linecap:square;stroke-width:0.8;"/>
     </g>
     <g id="line2d_13">
      <g>
       <use style="stroke:#000000;stroke-width:0.8;" x="90" xlink:href="#m70f32d443b" y="250.74"/>
      </g>
     </g>
     <g id="text_9">
      <!-- 20,000 -->
      <g transform="translate(41.01125 255.299063)scale(0.12 -0.12)">
       <use xlink:href="#DejaVuSans-50"/>
       <use x="63.623047" xlink:href="#DejaVuSans-48"/>
       <use x="127.246094" xlink:href="#DejaVuSans-44"/>
       <use x="159.033203" xlink:href="#DejaVuSans-48"/>
       <use x="222.65625" xlink:href="#DejaVuSans-48"/>
       <use x="286.279297" xlink:href="#DejaVuSans-48"/>
      </g>
     </g>
    </g>
    <g id="ytick_5">
     <g id="line2d_14">
      <path clip-path="url(#pb91159dc4b)" d="M 90 187.32 
L 648 187.32 
" style="fill:none;stroke:#b0b0b0;stroke-linecap:square;stroke-width:0.8;"/>
     </g>
     <g id="line2d_15">
      <g>
       <use style="stroke:#000000;stroke-width:0.8;" x="90" xlink:href="#m70f32d443b" y="187.32"/>
      </g>
     </g>
     <g id="text_10">
      <!-- 25,000 -->
      <g transform="translate(41.01125 191.879062)scale(0.12 -0.12)">
       <use xlink:href="#DejaVuSans-50"/>
       <use x="63.623047" xlink:href="#DejaVuSans-53"/>
       <use x="127.246094" xlink:href="#DejaVuSans-44"/>
       <use x="159.033203" xlink:href="#DejaVuSans-48"/>
       <use x="222.65625" xlink:href="#DejaVuSans-48"/>
       <use x="286.279297" xlink:href="#DejaVuSans-48"/>
      </g>
     </g>
    </g>
    <g id="ytick_6">
     <g id="line2d_16">
      <path clip-path="url(#pb91159dc4b)" d="M 90 123.9 
L 648 123.9 
" style="fill:none;stroke:#b0b0b0;stroke-linecap:square;stroke-width:0.8;"/>
     </g>
     <g id="line2d_17">
      <g>
       <use style="stroke:#000000;stroke-width:0.8;" x="90" xlink:href="#m70f32d443b" y="123.9"/>
      </g>
     </g>
     <g id="text_11">
      <!-- 30,000 -->
      <defs>
       <path d="M 40.578125 39.3125 
Q 47.65625 37.796875 51.625 33 
Q 55.609375 28.21875 55.609375 21.1875 
Q 55.609375 10.40625 48.1875 4.484375 
Q 40.765625 -1.421875 27.09375 -1.421875 
Q 22.515625 -1.421875 17.65625 -0.515625 
Q 12.796875 0.390625 7.625 2.203125 
L 7.625 11.71875 
Q 11.71875 9.328125 16.59375 8.109375 
Q 21.484375 6.890625 26.8125 6.890625 
Q 36.078125 6.890625 40.9375 10.546875 
Q 45.796875 14.203125 45.796875 21.1875 
Q 45.796875 27.640625 41.28125 31.265625 
Q 36.765625 34.90625 28.71875 34.90625 
L 20.21875 34.90625 
L 20.21875 43.015625 
L 29.109375 43.015625 
Q 36.375 43.015625 40.234375 45.921875 
Q 44.09375 48.828125 44.09375 54.296875 
Q 44.09375 59.90625 40.109375 62.90625 
Q 36.140625 65.921875 28.71875 65.921875 
Q 24.65625 65.921875 20.015625 65.03125 
Q 15.375 64.15625 9.8125 62.3125 
L 9.8125 71.09375 
Q 15.4375 72.65625 20.34375 73.4375 
Q 25.25 74.21875 29.59375 74.21875 
Q 40.828125 74.21875 47.359375 69.109375 
Q 53.90625 64.015625 53.90625 55.328125 
Q 53.90625 49.265625 50.4375 45.09375 
Q 46.96875 40.921875 40.578125 39.3125 
z
" id="DejaVuSans-51"/>
      </defs>
      <g transform="translate(41.01125 128.459062)scale(0.12 -0.12)">
       <use xlink:href="#DejaVuSans-51"/>
       <use x="63.623047" xlink:href="#DejaVuSans-48"/>
       <use x="127.246094" xlink:href="#DejaVuSans-44"/>
       <use x="159.033203" xlink:href="#DejaVuSans-48"/>
       <use x="222.65625" xlink:href="#DejaVuSans-48"/>
       <use x="286.279297" xlink:href="#DejaVuSans-48"/>
      </g>
     </g>
    </g>
    <g id="ytick_7">
     <g id="line2d_18">
      <path clip-path="url(#pb91159dc4b)" d="M 90 60.48 
L 648 60.48 
" style="fill:none;stroke:#b0b0b0;stroke-linecap:square;stroke-width:0.8;"/>
     </g>
     <g id="line2d_19">
      <g>
       <use style="stroke:#000000;stroke-width:0.8;" x="90" xlink:href="#m70f32d443b" y="60.48"/>
      </g>
     </g>
     <g id="text_12">
      <!-- 35,000 -->
      <g transform="translate(41.01125 65.039062)scale(0.12 -0.12)">
       <use xlink:href="#DejaVuSans-51"/>
       <use x="63.623047" xlink:href="#DejaVuSans-53"/>
       <use x="127.246094" xlink:href="#DejaVuSans-44"/>
       <use x="159.033203" xlink:href="#DejaVuSans-48"/>
       <use x="222.65625" xlink:href="#DejaVuSans-48"/>
       <use x="286.279297" xlink:href="#DejaVuSans-48"/>
      </g>
     </g>
    </g>
    <g id="text_13">
     <!-- Transfer from MF6 to Outside of HSPF ($m^{3}/day$) -->
     <defs>
      <path d="M -0.296875 72.90625 
L 61.375 72.90625 
L 61.375 64.59375 
L 35.5 64.59375 
L 35.5 0 
L 25.59375 0 
L 25.59375 64.59375 
L -0.296875 64.59375 
z
" id="DejaVuSans-84"/>
      <path d="M 41.109375 46.296875 
Q 39.59375 47.171875 37.8125 47.578125 
Q 36.03125 48 33.890625 48 
Q 26.265625 48 22.1875 43.046875 
Q 18.109375 38.09375 18.109375 28.8125 
L 18.109375 0 
L 9.078125 0 
L 9.078125 54.6875 
L 18.109375 54.6875 
L 18.109375 46.1875 
Q 20.953125 51.171875 25.484375 53.578125 
Q 30.03125 56 36.53125 56 
Q 37.453125 56 38.578125 55.875 
Q 39.703125 55.765625 41.0625 55.515625 
z
" id="DejaVuSans-114"/>
      <path d="M 34.28125 27.484375 
Q 23.390625 27.484375 19.1875 25 
Q 14.984375 22.515625 14.984375 16.5 
Q 14.984375 11.71875 18.140625 8.90625 
Q 21.296875 6.109375 26.703125 6.109375 
Q 34.1875 6.109375 38.703125 11.40625 
Q 43.21875 16.703125 43.21875 25.484375 
L 43.21875 27.484375 
z
M 52.203125 31.203125 
L 52.203125 0 
L 43.21875 0 
L 43.21875 8.296875 
Q 40.140625 3.328125 35.546875 0.953125 
Q 30.953125 -1.421875 24.3125 -1.421875 
Q 15.921875 -1.421875 10.953125 3.296875 
Q 6 8.015625 6 15.921875 
Q 6 25.140625 12.171875 29.828125 
Q 18.359375 34.515625 30.609375 34.515625 
L 43.21875 34.515625 
L 43.21875 35.40625 
Q 43.21875 41.609375 39.140625 45 
Q 35.0625 48.390625 27.6875 48.390625 
Q 23 48.390625 18.546875 47.265625 
Q 14.109375 46.140625 10.015625 43.890625 
L 10.015625 52.203125 
Q 14.9375 54.109375 19.578125 55.046875 
Q 24.21875 56 28.609375 56 
Q 40.484375 56 46.34375 49.84375 
Q 52.203125 43.703125 52.203125 31.203125 
z
" id="DejaVuSans-97"/>
      <path d="M 54.890625 33.015625 
L 54.890625 0 
L 45.90625 0 
L 45.90625 32.71875 
Q 45.90625 40.484375 42.875 44.328125 
Q 39.84375 48.1875 33.796875 48.1875 
Q 26.515625 48.1875 22.3125 43.546875 
Q 18.109375 38.921875 18.109375 30.90625 
L 18.109375 0 
L 9.078125 0 
L 9.078125 54.6875 
L 18.109375 54.6875 
L 18.109375 46.1875 
Q 21.34375 51.125 25.703125 53.5625 
Q 30.078125 56 35.796875 56 
Q 45.21875 56 50.046875 50.171875 
Q 54.890625 44.34375 54.890625 33.015625 
z
" id="DejaVuSans-110"/>
      <path d="M 44.28125 53.078125 
L 44.28125 44.578125 
Q 40.484375 46.53125 36.375 47.5 
Q 32.28125 48.484375 27.875 48.484375 
Q 21.1875 48.484375 17.84375 46.4375 
Q 14.5 44.390625 14.5 40.28125 
Q 14.5 37.15625 16.890625 35.375 
Q 19.28125 33.59375 26.515625 31.984375 
L 29.59375 31.296875 
Q 39.15625 29.25 43.1875 25.515625 
Q 47.21875 21.78125 47.21875 15.09375 
Q 47.21875 7.46875 41.1875 3.015625 
Q 35.15625 -1.421875 24.609375 -1.421875 
Q 20.21875 -1.421875 15.453125 -0.5625 
Q 10.6875 0.296875 5.421875 2 
L 5.421875 11.28125 
Q 10.40625 8.6875 15.234375 7.390625 
Q 20.0625 6.109375 24.8125 6.109375 
Q 31.15625 6.109375 34.5625 8.28125 
Q 37.984375 10.453125 37.984375 14.40625 
Q 37.984375 18.0625 35.515625 20.015625 
Q 33.0625 21.96875 24.703125 23.78125 
L 21.578125 24.515625 
Q 13.234375 26.265625 9.515625 29.90625 
Q 5.8125 33.546875 5.8125 39.890625 
Q 5.8125 47.609375 11.28125 51.796875 
Q 16.75 56 26.8125 56 
Q 31.78125 56 36.171875 55.265625 
Q 40.578125 54.546875 44.28125 53.078125 
z
" id="DejaVuSans-115"/>
      <path d="M 37.109375 75.984375 
L 37.109375 68.5 
L 28.515625 68.5 
Q 23.6875 68.5 21.796875 66.546875 
Q 19.921875 64.59375 19.921875 59.515625 
L 19.921875 54.6875 
L 34.71875 54.6875 
L 34.71875 47.703125 
L 19.921875 47.703125 
L 19.921875 0 
L 10.890625 0 
L 10.890625 47.703125 
L 2.296875 47.703125 
L 2.296875 54.6875 
L 10.890625 54.6875 
L 10.890625 58.5 
Q 10.890625 67.625 15.140625 71.796875 
Q 19.390625 75.984375 28.609375 75.984375 
z
" id="DejaVuSans-102"/>
      <path d="M 56.203125 29.59375 
L 56.203125 25.203125 
L 14.890625 25.203125 
Q 15.484375 15.921875 20.484375 11.0625 
Q 25.484375 6.203125 34.421875 6.203125 
Q 39.59375 6.203125 44.453125 7.46875 
Q 49.3125 8.734375 54.109375 11.28125 
L 54.109375 2.78125 
Q 49.265625 0.734375 44.1875 -0.34375 
Q 39.109375 -1.421875 33.890625 -1.421875 
Q 20.796875 -1.421875 13.15625 6.1875 
Q 5.515625 13.8125 5.515625 26.8125 
Q 5.515625 40.234375 12.765625 48.109375 
Q 20.015625 56 32.328125 56 
Q 43.359375 56 49.78125 48.890625 
Q 56.203125 41.796875 56.203125 29.59375 
z
M 47.21875 32.234375 
Q 47.125 39.59375 43.09375 43.984375 
Q 39.0625 48.390625 32.421875 48.390625 
Q 24.90625 48.390625 20.390625 44.140625 
Q 15.875 39.890625 15.1875 32.171875 
z
" id="DejaVuSans-101"/>
      <path id="DejaVuSans-32"/>
      <path d="M 30.609375 48.390625 
Q 23.390625 48.390625 19.1875 42.75 
Q 14.984375 37.109375 14.984375 27.296875 
Q 14.984375 17.484375 19.15625 11.84375 
Q 23.34375 6.203125 30.609375 6.203125 
Q 37.796875 6.203125 41.984375 11.859375 
Q 46.1875 17.53125 46.1875 27.296875 
Q 46.1875 37.015625 41.984375 42.703125 
Q 37.796875 48.390625 30.609375 48.390625 
z
M 30.609375 56 
Q 42.328125 56 49.015625 48.375 
Q 55.71875 40.765625 55.71875 27.296875 
Q 55.71875 13.875 49.015625 6.21875 
Q 42.328125 -1.421875 30.609375 -1.421875 
Q 18.84375 -1.421875 12.171875 6.21875 
Q 5.515625 13.875 5.515625 27.296875 
Q 5.515625 40.765625 12.171875 48.375 
Q 18.84375 56 30.609375 56 
z
" id="DejaVuSans-111"/>
      <path d="M 52 44.1875 
Q 55.375 50.25 60.0625 53.125 
Q 64.75 56 71.09375 56 
Q 79.640625 56 84.28125 50.015625 
Q 88.921875 44.046875 88.921875 33.015625 
L 88.921875 0 
L 79.890625 0 
L 79.890625 32.71875 
Q 79.890625 40.578125 77.09375 44.375 
Q 74.3125 48.1875 68.609375 48.1875 
Q 61.625 48.1875 57.5625 43.546875 
Q 53.515625 38.921875 53.515625 30.90625 
L 53.515625 0 
L 44.484375 0 
L 44.484375 32.71875 
Q 44.484375 40.625 41.703125 44.40625 
Q 38.921875 48.1875 33.109375 48.1875 
Q 26.21875 48.1875 22.15625 43.53125 
Q 18.109375 38.875 18.109375 30.90625 
L 18.109375 0 
L 9.078125 0 
L 9.078125 54.6875 
L 18.109375 54.6875 
L 18.109375 46.1875 
Q 21.1875 51.21875 25.484375 53.609375 
Q 29.78125 56 35.6875 56 
Q 41.65625 56 45.828125 52.96875 
Q 50 49.953125 52 44.1875 
z
" id="DejaVuSans-109"/>
      <path d="M 9.8125 72.90625 
L 24.515625 72.90625 
L 43.109375 23.296875 
L 61.8125 72.90625 
L 76.515625 72.90625 
L 76.515625 0 
L 66.890625 0 
L 66.890625 64.015625 
L 48.09375 14.015625 
L 38.1875 14.015625 
L 19.390625 64.015625 
L 19.390625 0 
L 9.8125 0 
z
" id="DejaVuSans-77"/>
      <path d="M 9.8125 72.90625 
L 51.703125 72.90625 
L 51.703125 64.59375 
L 19.671875 64.59375 
L 19.671875 43.109375 
L 48.578125 43.109375 
L 48.578125 34.8125 
L 19.671875 34.8125 
L 19.671875 0 
L 9.8125 0 
z
" id="DejaVuSans-70"/>
      <path d="M 18.3125 70.21875 
L 18.3125 54.6875 
L 36.8125 54.6875 
L 36.8125 47.703125 
L 18.3125 47.703125 
L 18.3125 18.015625 
Q 18.3125 11.328125 20.140625 9.421875 
Q 21.96875 7.515625 27.59375 7.515625 
L 36.8125 7.515625 
L 36.8125 0 
L 27.59375 0 
Q 17.1875 0 13.234375 3.875 
Q 9.28125 7.765625 9.28125 18.015625 
L 9.28125 47.703125 
L 2.6875 47.703125 
L 2.6875 54.6875 
L 9.28125 54.6875 
L 9.28125 70.21875 
z
" id="DejaVuSans-116"/>
      <path d="M 39.40625 66.21875 
Q 28.65625 66.21875 22.328125 58.203125 
Q 16.015625 50.203125 16.015625 36.375 
Q 16.015625 22.609375 22.328125 14.59375 
Q 28.65625 6.59375 39.40625 6.59375 
Q 50.140625 6.59375 56.421875 14.59375 
Q 62.703125 22.609375 62.703125 36.375 
Q 62.703125 50.203125 56.421875 58.203125 
Q 50.140625 66.21875 39.40625 66.21875 
z
M 39.40625 74.21875 
Q 54.734375 74.21875 63.90625 63.9375 
Q 73.09375 53.65625 73.09375 36.375 
Q 73.09375 19.140625 63.90625 8.859375 
Q 54.734375 -1.421875 39.40625 -1.421875 
Q 24.03125 -1.421875 14.8125 8.828125 
Q 5.609375 19.09375 5.609375 36.375 
Q 5.609375 53.65625 14.8125 63.9375 
Q 24.03125 74.21875 39.40625 74.21875 
z
" id="DejaVuSans-79"/>
      <path d="M 8.5 21.578125 
L 8.5 54.6875 
L 17.484375 54.6875 
L 17.484375 21.921875 
Q 17.484375 14.15625 20.5 10.265625 
Q 23.53125 6.390625 29.59375 6.390625 
Q 36.859375 6.390625 41.078125 11.03125 
Q 45.3125 15.671875 45.3125 23.6875 
L 45.3125 54.6875 
L 54.296875 54.6875 
L 54.296875 0 
L 45.3125 0 
L 45.3125 8.40625 
Q 42.046875 3.421875 37.71875 1 
Q 33.40625 -1.421875 27.6875 -1.421875 
Q 18.265625 -1.421875 13.375 4.4375 
Q 8.5 10.296875 8.5 21.578125 
z
M 31.109375 56 
z
" id="DejaVuSans-117"/>
      <path d="M 9.421875 54.6875 
L 18.40625 54.6875 
L 18.40625 0 
L 9.421875 0 
z
M 9.421875 75.984375 
L 18.40625 75.984375 
L 18.40625 64.59375 
L 9.421875 64.59375 
z
" id="DejaVuSans-105"/>
      <path d="M 45.40625 46.390625 
L 45.40625 75.984375 
L 54.390625 75.984375 
L 54.390625 0 
L 45.40625 0 
L 45.40625 8.203125 
Q 42.578125 3.328125 38.25 0.953125 
Q 33.9375 -1.421875 27.875 -1.421875 
Q 17.96875 -1.421875 11.734375 6.484375 
Q 5.515625 14.40625 5.515625 27.296875 
Q 5.515625 40.1875 11.734375 48.09375 
Q 17.96875 56 27.875 56 
Q 33.9375 56 38.25 53.625 
Q 42.578125 51.265625 45.40625 46.390625 
z
M 14.796875 27.296875 
Q 14.796875 17.390625 18.875 11.75 
Q 22.953125 6.109375 30.078125 6.109375 
Q 37.203125 6.109375 41.296875 11.75 
Q 45.40625 17.390625 45.40625 27.296875 
Q 45.40625 37.203125 41.296875 42.84375 
Q 37.203125 48.484375 30.078125 48.484375 
Q 22.953125 48.484375 18.875 42.84375 
Q 14.796875 37.203125 14.796875 27.296875 
z
" id="DejaVuSans-100"/>
      <path d="M 9.8125 72.90625 
L 19.671875 72.90625 
L 19.671875 43.015625 
L 55.515625 43.015625 
L 55.515625 72.90625 
L 65.375 72.90625 
L 65.375 0 
L 55.515625 0 
L 55.515625 34.71875 
L 19.671875 34.71875 
L 19.671875 0 
L 9.8125 0 
z
" id="DejaVuSans-72"/>
      <path d="M 53.515625 70.515625 
L 53.515625 60.890625 
Q 47.90625 63.578125 42.921875 64.890625 
Q 37.9375 66.21875 33.296875 66.21875 
Q 25.25 66.21875 20.875 63.09375 
Q 16.5 59.96875 16.5 54.203125 
Q 16.5 49.359375 19.40625 46.890625 
Q 22.3125 44.4375 30.421875 42.921875 
L 36.375 41.703125 
Q 47.40625 39.59375 52.65625 34.296875 
Q 57.90625 29 57.90625 20.125 
Q 57.90625 9.515625 50.796875 4.046875 
Q 43.703125 -1.421875 29.984375 -1.421875 
Q 24.8125 -1.421875 18.96875 -0.25 
Q 13.140625 0.921875 6.890625 3.21875 
L 6.890625 13.375 
Q 12.890625 10.015625 18.65625 8.296875 
Q 24.421875 6.59375 29.984375 6.59375 
Q 38.421875 6.59375 43.015625 9.90625 
Q 47.609375 13.234375 47.609375 19.390625 
Q 47.609375 24.75 44.3125 27.78125 
Q 41.015625 30.8125 33.5 32.328125 
L 27.484375 33.5 
Q 16.453125 35.6875 11.515625 40.375 
Q 6.59375 45.0625 6.59375 53.421875 
Q 6.59375 63.09375 13.40625 68.65625 
Q 20.21875 74.21875 32.171875 74.21875 
Q 37.3125 74.21875 42.625 73.28125 
Q 47.953125 72.359375 53.515625 70.515625 
z
" id="DejaVuSans-83"/>
      <path d="M 19.671875 64.796875 
L 19.671875 37.40625 
L 32.078125 37.40625 
Q 38.96875 37.40625 42.71875 40.96875 
Q 46.484375 44.53125 46.484375 51.125 
Q 46.484375 57.671875 42.71875 61.234375 
Q 38.96875 64.796875 32.078125 64.796875 
z
M 9.8125 72.90625 
L 32.078125 72.90625 
Q 44.34375 72.90625 50.609375 67.359375 
Q 56.890625 61.8125 56.890625 51.125 
Q 56.890625 40.328125 50.609375 34.8125 
Q 44.34375 29.296875 32.078125 29.296875 
L 19.671875 29.296875 
L 19.671875 0 
L 9.8125 0 
z
" id="DejaVuSans-80"/>
      <path d="M 31 75.875 
Q 24.46875 64.65625 21.28125 53.65625 
Q 18.109375 42.671875 18.109375 31.390625 
Q 18.109375 20.125 21.3125 9.0625 
Q 24.515625 -2 31 -13.1875 
L 23.1875 -13.1875 
Q 15.875 -1.703125 12.234375 9.375 
Q 8.59375 20.453125 8.59375 31.390625 
Q 8.59375 42.28125 12.203125 53.3125 
Q 15.828125 64.359375 23.1875 75.875 
z
" id="DejaVuSans-40"/>
      <path d="M 89.796875 33.015625 
L 83.40625 0 
L 74.421875 0 
L 80.71875 32.71875 
Q 81.109375 34.8125 81.296875 36.328125 
Q 81.5 37.84375 81.5 38.921875 
Q 81.5 43.3125 79.046875 45.75 
Q 76.609375 48.1875 72.21875 48.1875 
Q 65.671875 48.1875 60.546875 43.28125 
Q 55.421875 38.375 53.90625 30.515625 
L 47.90625 0 
L 38.921875 0 
L 45.3125 32.71875 
Q 45.703125 34.515625 45.890625 36.046875 
Q 46.09375 37.59375 46.09375 38.8125 
Q 46.09375 43.265625 43.65625 45.71875 
Q 41.21875 48.1875 36.921875 48.1875 
Q 30.28125 48.1875 25.140625 43.28125 
Q 20.015625 38.375 18.5 30.515625 
L 12.5 0 
L 3.515625 0 
L 14.203125 54.6875 
L 23.1875 54.6875 
L 21.484375 46.1875 
Q 25.140625 50.984375 30.046875 53.484375 
Q 34.96875 56 40.578125 56 
Q 46.53125 56 50.359375 52.875 
Q 54.203125 49.75 54.984375 44.1875 
Q 59.078125 49.953125 64.46875 52.96875 
Q 69.875 56 75.875 56 
Q 82.90625 56 86.734375 51.953125 
Q 90.578125 47.90625 90.578125 40.484375 
Q 90.578125 38.875 90.375 36.9375 
Q 90.1875 35.015625 89.796875 33.015625 
z
" id="DejaVuSans-Oblique-109"/>
      <path d="M 41.796875 8.203125 
Q 38.1875 3.46875 33.25 1.015625 
Q 28.328125 -1.421875 22.3125 -1.421875 
Q 14.109375 -1.421875 9.34375 4.171875 
Q 4.59375 9.765625 4.59375 19.484375 
Q 4.59375 27.59375 7.46875 34.9375 
Q 10.359375 42.28125 15.828125 48.09375 
Q 19.4375 51.953125 23.96875 53.96875 
Q 28.515625 56 33.5 56 
Q 38.765625 56 42.796875 53.453125 
Q 46.828125 50.921875 49.03125 46.1875 
L 54.890625 75.984375 
L 63.921875 75.984375 
L 49.125 0 
L 40.09375 0 
z
M 13.921875 21.09375 
Q 13.921875 14.015625 17.109375 10.0625 
Q 20.3125 6.109375 25.984375 6.109375 
Q 30.171875 6.109375 33.765625 8.125 
Q 37.359375 10.15625 40.09375 14.109375 
Q 42.96875 18.21875 44.625 23.578125 
Q 46.296875 28.953125 46.296875 34.1875 
Q 46.296875 40.96875 43.09375 44.765625 
Q 39.890625 48.578125 34.28125 48.578125 
Q 30.03125 48.578125 26.359375 46.578125 
Q 22.703125 44.578125 20.125 40.828125 
Q 17.28125 36.765625 15.59375 31.390625 
Q 13.921875 26.03125 13.921875 21.09375 
z
" id="DejaVuSans-Oblique-100"/>
      <path d="M 53.71875 31.203125 
L 47.609375 0 
L 38.625 0 
L 40.28125 8.296875 
Q 36.328125 3.421875 31.265625 1 
Q 26.21875 -1.421875 20.015625 -1.421875 
Q 13.03125 -1.421875 8.5625 2.84375 
Q 4.109375 7.125 4.109375 13.8125 
Q 4.109375 23.390625 11.75 28.953125 
Q 19.390625 34.515625 32.8125 34.515625 
L 45.3125 34.515625 
L 45.796875 36.921875 
Q 45.90625 37.3125 45.953125 37.765625 
Q 46 38.234375 46 39.203125 
Q 46 43.5625 42.453125 45.96875 
Q 38.921875 48.390625 32.515625 48.390625 
Q 28.125 48.390625 23.5 47.265625 
Q 18.890625 46.140625 14.015625 43.890625 
L 15.578125 52.203125 
Q 20.65625 54.109375 25.515625 55.046875 
Q 30.375 56 34.90625 56 
Q 44.578125 56 49.625 51.796875 
Q 54.6875 47.609375 54.6875 39.59375 
Q 54.6875 37.984375 54.4375 35.8125 
Q 54.203125 33.640625 53.71875 31.203125 
z
M 44 27.484375 
L 35.015625 27.484375 
Q 23.96875 27.484375 18.671875 24.53125 
Q 13.375 21.578125 13.375 15.375 
Q 13.375 11.078125 16.078125 8.640625 
Q 18.796875 6.203125 23.578125 6.203125 
Q 30.90625 6.203125 36.375 11.453125 
Q 41.84375 16.703125 43.609375 25.484375 
z
" id="DejaVuSans-Oblique-97"/>
      <path d="M 24.8125 -5.078125 
Q 18.5625 -15.578125 14.625 -18.1875 
Q 10.6875 -20.796875 4.59375 -20.796875 
L -2.484375 -20.796875 
L -0.984375 -13.28125 
L 4.203125 -13.28125 
Q 7.953125 -13.28125 10.59375 -11.234375 
Q 13.234375 -9.1875 16.5 -3.21875 
L 19.28125 2 
L 7.171875 54.6875 
L 16.703125 54.6875 
L 25.78125 12.796875 
L 50.875 54.6875 
L 60.296875 54.6875 
z
" id="DejaVuSans-Oblique-121"/>
      <path d="M 8.015625 75.875 
L 15.828125 75.875 
Q 23.140625 64.359375 26.78125 53.3125 
Q 30.421875 42.28125 30.421875 31.390625 
Q 30.421875 20.453125 26.78125 9.375 
Q 23.140625 -1.703125 15.828125 -13.1875 
L 8.015625 -13.1875 
Q 14.5 -2 17.703125 9.0625 
Q 20.90625 20.125 20.90625 31.390625 
Q 20.90625 42.671875 17.703125 53.65625 
Q 14.5 64.65625 8.015625 75.875 
z
" id="DejaVuSans-41"/>
     </defs>
     <g transform="translate(34.28125 404.595)rotate(-90)scale(0.13 -0.13)">
      <use transform="translate(0 0.765625)" xlink:href="#DejaVuSans-84"/>
      <use transform="translate(61.083984 0.765625)" xlink:href="#DejaVuSans-114"/>
      <use transform="translate(102.197266 0.765625)" xlink:href="#DejaVuSans-97"/>
      <use transform="translate(163.476562 0.765625)" xlink:href="#DejaVuSans-110"/>
      <use transform="translate(226.855469 0.765625)" xlink:href="#DejaVuSans-115"/>
      <use transform="translate(278.955078 0.765625)" xlink:href="#DejaVuSans-102"/>
      <use transform="translate(314.160156 0.765625)" xlink:href="#DejaVuSans-101"/>
      <use transform="translate(375.683594 0.765625)" xlink:href="#DejaVuSans-114"/>
      <use transform="translate(416.796875 0.765625)" xlink:href="#DejaVuSans-32"/>
      <use transform="translate(448.583984 0.765625)" xlink:href="#DejaVuSans-102"/>
      <use transform="translate(483.789062 0.765625)" xlink:href="#DejaVuSans-114"/>
      <use transform="translate(524.902344 0.765625)" xlink:href="#DejaVuSans-111"/>
      <use transform="translate(586.083984 0.765625)" xlink:href="#DejaVuSans-109"/>
      <use transform="translate(683.496094 0.765625)" xlink:href="#DejaVuSans-32"/>
      <use transform="translate(715.283203 0.765625)" xlink:href="#DejaVuSans-77"/>
      <use transform="translate(801.5625 0.765625)" xlink:href="#DejaVuSans-70"/>
      <use transform="translate(859.082031 0.765625)" xlink:href="#DejaVuSans-54"/>
      <use transform="translate(922.705078 0.765625)" xlink:href="#DejaVuSans-32"/>
      <use transform="translate(954.492188 0.765625)" xlink:href="#DejaVuSans-116"/>
      <use transform="translate(993.701172 0.765625)" xlink:href="#DejaVuSans-111"/>
      <use transform="translate(1054.882812 0.765625)" xlink:href="#DejaVuSans-32"/>
      <use transform="translate(1086.669922 0.765625)" xlink:href="#DejaVuSans-79"/>
      <use transform="translate(1165.380859 0.765625)" xlink:href="#DejaVuSans-117"/>
      <use transform="translate(1228.759766 0.765625)" xlink:href="#DejaVuSans-116"/>
      <use transform="translate(1267.96875 0.765625)" xlink:href="#DejaVuSans-115"/>
      <use transform="translate(1320.068359 0.765625)" xlink:href="#DejaVuSans-105"/>
      <use transform="translate(1347.851562 0.765625)" xlink:href="#DejaVuSans-100"/>
      <use transform="translate(1411.328125 0.765625)" xlink:href="#DejaVuSans-101"/>
      <use transform="translate(1472.851562 0.765625)" xlink:href="#DejaVuSans-32"/>
      <use transform="translate(1504.638672 0.765625)" xlink:href="#DejaVuSans-111"/>
      <use transform="translate(1565.820312 0.765625)" xlink:href="#DejaVuSans-102"/>
      <use transform="translate(1601.025391 0.765625)" xlink:href="#DejaVuSans-32"/>
      <use transform="translate(1632.8125 0.765625)" xlink:href="#DejaVuSans-72"/>
      <use transform="translate(1708.007812 0.765625)" xlink:href="#DejaVuSans-83"/>
      <use transform="translate(1771.484375 0.765625)" xlink:href="#DejaVuSans-80"/>
      <use transform="translate(1831.787109 0.765625)" xlink:href="#DejaVuSans-70"/>
      <use transform="translate(1889.306641 0.765625)" xlink:href="#DejaVuSans-32"/>
      <use transform="translate(1921.09375 0.765625)" xlink:href="#DejaVuSans-40"/>
      <use transform="translate(1960.107422 0.765625)" xlink:href="#DejaVuSans-Oblique-109"/>
      <use transform="translate(2062.169427 39.046875)scale(0.7)" xlink:href="#DejaVuSans-51"/>
      <use transform="translate(2109.439935 0.765625)" xlink:href="#DejaVuSans-47"/>
      <use transform="translate(2143.131341 0.765625)" xlink:href="#DejaVuSans-Oblique-100"/>
      <use transform="translate(2206.607904 0.765625)" xlink:href="#DejaVuSans-Oblique-97"/>
      <use transform="translate(2267.887201 0.765625)" xlink:href="#DejaVuSans-Oblique-121"/>
      <use transform="translate(2327.066888 0.765625)" xlink:href="#DejaVuSans-41"/>
     </g>
    </g>
   </g>
   <g id="line2d_20">
    <path clip-path="url(#pb91159dc4b)" d="M 90 130.236926 
L 92.750274 146.245403 
L 94.58379 155.669615 
L 96.11172 163.14937 
L 98.250821 173.278812 
L 102.223439 190.049597 
L 104.668127 199.293696 
L 106.501643 205.527882 
L 107.418401 208.31202 
L 108.029573 210.101732 
L 109.863089 216.015013 
L 114.446878 229.05036 
L 115.05805 229.520936 
L 118.419496 238.47584 
L 121.475356 245.693036 
L 122.392114 247.506848 
L 122.6977 247.752918 
L 128.198248 259.094951 
L 135.226725 270.818772 
L 137.976999 275.075522 
L 143.171961 282.157 
L 145.922234 285.56519 
L 148.978094 289.22833 
L 152.33954 292.961231 
L 156.006572 296.729647 
L 160.284775 300.783454 
L 163.035049 303.209903 
L 163.951807 303.904986 
L 167.618839 306.93012 
L 171.897043 310.170882 
L 176.175246 313.132596 
L 180.45345 315.939565 
L 184.426068 318.368551 
L 185.953998 319.168912 
L 189.926616 321.369586 
L 190.232202 321.497694 
L 190.537788 321.407638 
L 191.454545 321.912461 
L 194.204819 323.433272 
L 196.038335 324.3072 
L 196.649507 324.511412 
L 197.871851 325.149418 
L 198.177437 324.747335 
L 198.483023 324.630642 
L 199.094195 324.927448 
L 199.399781 325.127855 
L 199.705367 325.121513 
L 203.677985 327.279061 
L 205.817087 328.23924 
L 207.345016 328.775773 
L 210.400876 330.130424 
L 211.317634 330.425962 
L 211.62322 330.291511 
L 213.15115 330.999278 
L 214.67908 331.575132 
L 216.20701 332.123081 
L 216.818182 332.272752 
L 219.874042 333.517052 
L 222.318729 334.333902 
L 223.235487 334.629439 
L 225.680175 335.483072 
L 225.985761 335.460241 
L 228.124863 336.145177 
L 228.430449 335.966333 
L 229.041621 336.133762 
L 231.486309 337.088867 
L 232.403067 337.407235 
L 233.014239 337.485876 
L 236.070099 338.499328 
L 236.681271 338.622362 
L 240.042716 339.69416 
L 240.653888 339.224852 
L 241.876232 339.708113 
L 244.32092 340.551599 
L 249.515882 342.036895 
L 255.933187 343.712452 
L 256.238773 343.789824 
L 256.544359 343.712452 
L 259.905805 344.481102 
L 263.878423 345.412108 
L 265.100767 345.598562 
L 266.934283 346.009524 
L 267.545455 346.086896 
L 272.129244 347.161231 
L 276.713034 348.126484 
L 277.324206 348.186098 
L 281.296824 348.994069 
L 281.60241 348.981385 
L 282.213582 348.657943 
L 288.019715 349.997374 
L 288.630887 350.105188 
L 288.936473 350.046841 
L 290.158817 350.234564 
L 290.769989 350.276422 
L 292.909091 350.700067 
L 293.520263 350.71402 
L 297.187295 351.494086 
L 297.798467 350.972773 
L 298.104053 350.844665 
L 299.020811 350.889059 
L 299.326396 350.722898 
L 301.159912 351.185864 
L 302.07667 351.352025 
L 302.687842 351.52199 
L 302.993428 351.305094 
L 303.299014 351.358367 
L 303.6046 351.22138 
L 307.577218 352.258931 
L 307.882804 352.127017 
L 310.633078 352.52149 
L 311.549836 352.738386 
L 312.466594 352.707944 
L 314.911281 353.255893 
L 315.522453 353.257162 
L 320.106243 354.174215 
L 325.912377 355.124246 
L 329.273823 355.404563 
L 331.71851 355.804109 
L 335.079956 356.296248 
L 336.3023 356.470019 
L 343.330778 357.513912 
L 343.636364 357.286868 
L 344.247536 357.329994 
L 347.303395 357.875406 
L 347.914567 357.9198 
L 348.220153 357.40483 
L 348.525739 357.171444 
L 350.053669 357.590016 
L 350.359255 357.336336 
L 351.581599 357.64202 
L 354.026287 358.120207 
L 357.998905 358.731576 
L 358.610077 358.764554 
L 358.915663 358.603468 
L 360.138007 358.816559 
L 363.193866 359.312503 
L 363.499452 359.120975 
L 364.721796 359.327724 
L 367.47207 359.762785 
L 367.777656 359.606772 
L 368.388828 359.648629 
L 371.139102 360.07608 
L 376.945235 360.863756 
L 377.250821 360.778774 
L 380.001095 361.156757 
L 385.196057 361.742758 
L 385.501643 361.645091 
L 388.557503 362.058589 
L 389.474261 362.16894 
L 390.696605 361.557571 
L 391.002191 361.494151 
L 392.835706 361.927944 
L 393.446878 361.933018 
L 396.197152 362.369347 
L 400.475356 362.909686 
L 401.086528 362.888123 
L 401.6977 362.970569 
L 402.003286 362.423888 
L 402.308872 362.29578 
L 405.975904 362.978179 
L 410.254107 363.533738 
L 411.476451 363.56418 
L 411.782037 363.410704 
L 412.393209 363.458903 
L 415.143483 363.871133 
L 415.754655 363.926942 
L 416.060241 363.583206 
L 416.365827 363.513444 
L 421.255203 364.294778 
L 421.866375 364.278289 
L 423.394304 364.401324 
L 423.69989 363.796297 
L 424.311062 363.850838 
L 426.144578 364.275752 
L 430.117196 364.831312 
L 436.534502 365.494685 
L 437.756846 365.621525 
L 438.368018 365.2372 
L 439.590361 365.166169 
L 439.895947 365.211832 
L 440.201533 364.784381 
L 441.118291 364.714619 
L 442.951807 365.116702 
L 447.230011 365.636746 
L 448.146769 365.663382 
L 450.897043 366.032486 
L 451.202629 365.761049 
L 451.508215 365.071039 
L 451.813801 365.005082 
L 454.258488 365.674798 
L 457.619934 366.180889 
L 463.120482 366.815089 
L 463.426068 366.712349 
L 464.953998 366.873436 
L 465.259584 366.709812 
L 466.481928 366.874704 
L 470.148959 367.297081 
L 472.288061 367.442947 
L 472.593647 367.33767 
L 472.899233 366.92544 
L 473.510405 366.969834 
L 475.343921 367.326254 
L 479.010953 367.752437 
L 485.122673 368.343511 
L 487.56736 368.414542 
L 492.456736 368.893997 
L 494.290252 369.05762 
L 494.595838 368.786183 
L 495.818182 368.925707 
L 498.568456 369.207292 
L 506.208105 369.860518 
L 507.430449 369.960721 
L 507.736035 369.854176 
L 508.652793 369.93789 
L 508.958379 369.719725 
L 510.486309 369.911254 
L 511.708653 369.968332 
L 514.458927 370.086293 
L 519.042716 370.528964 
L 520.570646 370.657073 
L 521.181818 370.597458 
L 523.32092 370.80167 
L 523.626506 370.626631 
L 523.932092 370.625363 
L 524.237678 370.495986 
L 526.071194 370.740787 
L 526.37678 370.574627 
L 526.682366 370.591116 
L 526.987952 369.970868 
L 527.293538 369.89857 
L 527.90471 370.010189 
L 528.515882 370.034288 
L 530.654984 370.457934 
L 534.627601 370.923437 
L 537.989047 371.178385 
L 538.905805 371.083255 
L 540.739321 371.249416 
L 541.656079 371.251952 
L 543.184009 371.42065 
L 543.489595 371.257026 
L 545.017525 371.439676 
L 546.239869 371.505632 
L 547.156627 371.56271 
L 548.073384 371.652767 
L 548.37897 371.433334 
L 549.601314 371.584273 
L 552.657174 371.898836 
L 553.879518 371.822732 
L 560.907996 372.4823 
L 562.435926 372.592651 
L 563.047097 372.283162 
L 563.658269 371.463775 
L 563.963855 371.316641 
L 564.575027 371.429528 
L 565.186199 371.624862 
L 565.797371 371.621057 
L 567.325301 371.86459 
L 572.825849 372.53811 
L 581.382256 373.249682 
L 584.743702 373.446284 
L 585.049288 373.252219 
L 585.66046 373.242072 
L 587.799562 373.491947 
L 588.410734 373.469116 
L 592.688938 373.826804 
L 606.745893 374.766689 
L 607.968237 374.762884 
L 608.273823 374.534572 
L 609.190581 374.604334 
L 612.552026 374.915092 
L 622.94195 375.586075 
L 629.970427 375.947569 
L 630.276013 375.683742 
L 630.887185 375.674863 
L 633.637459 375.956448 
L 635.165389 376.036357 
L 635.470975 375.786482 
L 636.387733 375.865123 
L 639.443593 376.147976 
L 642.499452 376.344578 
L 648 376.643921 
L 648 376.643921 
" style="fill:none;stroke:#03719c;stroke-linecap:square;stroke-opacity:0.9;stroke-width:4;"/>
   </g>
   <g id="line2d_21">
    <path clip-path="url(#pb91159dc4b)" d="M 90 128.370652 
L 92.444688 142.828806 
L 94.58379 154.394584 
L 95.500548 158.584793 
L 98.556407 173.270906 
L 102.223439 188.838325 
L 104.973713 199.296867 
L 106.807229 205.529809 
L 107.723987 208.309923 
L 108.335159 210.105688 
L 110.168675 216.017208 
L 114.752464 229.045125 
L 115.363636 229.517991 
L 119.030668 239.229932 
L 121.780942 245.691817 
L 122.6977 247.506203 
L 123.003286 247.751291 
L 128.503834 259.094466 
L 135.226725 270.334152 
L 138.893757 275.949422 
L 142.255203 280.65068 
L 144.394304 283.35616 
L 151.117196 291.298879 
L 154.784228 295.19139 
L 158.756846 299.089228 
L 162.729463 302.684534 
L 165.785323 305.198776 
L 169.757941 308.356488 
L 174.036145 311.490311 
L 178.008762 314.164756 
L 182.592552 317.081857 
L 185.648412 318.846632 
L 187.176342 319.655603 
L 190.537788 321.498234 
L 190.843373 321.407083 
L 191.760131 321.91203 
L 194.510405 323.433015 
L 196.343921 324.305906 
L 196.955093 324.510439 
L 198.177437 325.148642 
L 198.483023 324.745917 
L 198.788609 324.63064 
L 199.399781 324.927263 
L 199.705367 325.127962 
L 200.010953 325.1208 
L 203.983571 327.278989 
L 206.122673 328.237942 
L 207.650602 328.776773 
L 211.012048 330.26274 
L 211.62322 330.424317 
L 211.928806 330.291567 
L 213.456736 330.999241 
L 214.984666 331.574135 
L 216.512596 332.123217 
L 217.123768 332.272439 
L 220.179628 333.517287 
L 222.624315 334.333763 
L 223.541073 334.628924 
L 225.985761 335.482925 
L 226.291347 335.459484 
L 228.430449 336.144896 
L 228.736035 335.965117 
L 229.347207 336.133408 
L 231.791895 337.089004 
L 232.708653 337.407933 
L 233.014239 337.390849 
L 240.348302 339.694053 
L 240.959474 339.224349 
L 242.181818 339.707347 
L 244.626506 340.550665 
L 249.210296 341.866536 
L 255.933187 343.6344 
L 256.544359 343.789635 
L 256.849945 343.711748 
L 260.211391 344.481477 
L 264.184009 345.412365 
L 265.406353 345.59771 
L 267.239869 346.008297 
L 267.851041 346.08681 
L 272.43483 347.161205 
L 277.01862 348.127364 
L 277.629792 348.185645 
L 281.60241 348.993168 
L 281.907996 348.980739 
L 282.519168 348.657109 
L 288.325301 349.99651 
L 288.936473 350.104222 
L 289.242059 350.046136 
L 290.464403 350.235077 
L 291.075575 350.276049 
L 293.214677 350.6992 
L 293.825849 350.7133 
L 297.492881 351.493071 
L 298.104053 350.972577 
L 298.409639 350.845602 
L 299.326396 350.889275 
L 299.631982 350.721984 
L 301.465498 351.186226 
L 302.382256 351.352294 
L 302.993428 351.521241 
L 303.299014 351.304637 
L 303.6046 351.358814 
L 303.910186 351.221081 
L 307.882804 352.258293 
L 308.18839 352.127096 
L 310.938664 352.521226 
L 311.855422 352.738979 
L 312.77218 352.707556 
L 315.216867 353.256563 
L 315.828039 353.256697 
L 320.106243 354.117979 
L 326.217963 355.123157 
L 329.579409 355.405008 
L 332.329682 355.856255 
L 335.385542 356.296639 
L 336.607886 356.469033 
L 342.719606 357.382448 
L 343.636364 357.514273 
L 343.94195 357.287239 
L 344.553122 357.330017 
L 347.608981 357.874995 
L 348.220153 357.920086 
L 348.525739 357.403889 
L 348.831325 357.171022 
L 350.359255 357.590592 
L 350.664841 357.336224 
L 351.887185 357.641531 
L 354.026287 358.063966 
L 357.998905 358.683757 
L 358.915663 358.763448 
L 359.221249 358.603558 
L 360.443593 358.815447 
L 363.499452 359.312694 
L 363.805038 359.119725 
L 365.027382 359.326913 
L 367.777656 359.763732 
L 368.083242 359.606363 
L 368.694414 359.649215 
L 371.444688 360.076231 
L 377.250821 360.86282 
L 377.861993 360.809538 
L 383.668127 361.573015 
L 385.501643 361.742574 
L 385.807229 361.646067 
L 388.863089 362.058311 
L 389.779847 362.169381 
L 391.002191 361.557975 
L 391.307777 361.493115 
L 393.141292 361.929053 
L 393.752464 361.934007 
L 397.11391 362.452874 
L 402.003286 362.970846 
L 402.308872 362.422674 
L 402.614458 362.296192 
L 406.28149 362.976934 
L 410.254107 363.49586 
L 411.476451 363.594188 
L 411.782037 363.562869 
L 412.087623 363.411663 
L 412.698795 363.458395 
L 415.449069 363.871205 
L 416.060241 363.927248 
L 416.365827 363.582535 
L 416.671413 363.513855 
L 421.560789 364.294685 
L 422.171961 364.279525 
L 423.69989 364.401308 
L 424.005476 363.79602 
L 424.616648 363.850272 
L 426.450164 364.274542 
L 430.117196 364.793528 
L 435.92333 365.392803 
L 438.062432 365.622507 
L 438.673604 365.236569 
L 439.895947 365.165113 
L 440.201533 365.211487 
L 440.507119 364.785098 
L 441.423877 364.713882 
L 443.257393 365.116024 
L 447.535597 365.636204 
L 448.452355 365.662629 
L 451.202629 366.031633 
L 451.508215 365.761031 
L 451.813801 365.070576 
L 452.119387 365.004179 
L 454.564074 365.674193 
L 457.92552 366.179915 
L 463.426068 366.814701 
L 463.731654 366.712688 
L 465.259584 366.872653 
L 465.56517 366.709346 
L 466.787514 366.873757 
L 470.454545 367.29652 
L 472.593647 367.442758 
L 472.899233 367.338074 
L 473.204819 366.925741 
L 473.815991 366.968772 
L 475.649507 367.325555 
L 479.316539 367.752616 
L 485.428258 368.343923 
L 487.56736 368.375823 
L 492.15115 368.838156 
L 494.595838 369.057013 
L 494.901424 368.786396 
L 496.123768 368.926084 
L 499.179628 369.237449 
L 507.430449 369.935558 
L 507.736035 369.960535 
L 508.041621 369.854211 
L 508.958379 369.937573 
L 509.263965 369.719939 
L 510.486309 369.871325 
L 512.014239 369.968429 
L 514.764513 370.085884 
L 519.653888 370.554633 
L 521.181818 370.578058 
L 523.626506 370.80157 
L 523.932092 370.625805 
L 524.237678 370.626013 
L 524.543264 370.496457 
L 526.37678 370.741156 
L 526.682366 370.573478 
L 526.987952 370.591174 
L 527.293538 369.970726 
L 527.599124 369.898182 
L 528.210296 370.009326 
L 528.821468 370.033647 
L 530.96057 370.458185 
L 534.933187 370.921712 
L 538.294633 371.176945 
L 539.211391 371.08284 
L 541.044907 371.249296 
L 541.961665 371.252563 
L 543.489595 371.419496 
L 543.795181 371.257621 
L 545.323111 371.439356 
L 546.545455 371.505976 
L 547.462212 371.56363 
L 548.37897 371.652498 
L 548.684556 371.433402 
L 549.9069 371.584206 
L 552.96276 371.897943 
L 554.185104 371.823056 
L 561.213582 372.481775 
L 562.741512 372.593606 
L 563.352683 372.282315 
L 563.963855 371.46299 
L 564.269441 371.315946 
L 564.880613 371.429239 
L 565.491785 371.62379 
L 566.102957 371.620657 
L 567.630887 371.865729 
L 574.048193 372.624685 
L 584.743702 373.48179 
L 585.049288 373.446383 
L 585.354874 373.252369 
L 585.966046 373.242417 
L 588.105148 373.492443 
L 588.71632 373.469167 
L 592.688938 373.802331 
L 602.773275 374.512377 
L 608.273823 374.763149 
L 608.579409 374.534863 
L 609.496166 374.602946 
L 612.552026 374.890886 
L 621.41402 375.472509 
L 630.276013 375.946152 
L 630.581599 375.683309 
L 631.192771 375.67464 
L 633.943045 375.955776 
L 635.470975 376.036899 
L 635.776561 375.786814 
L 636.693319 375.865162 
L 639.749179 376.148312 
L 642.499452 376.324093 
L 648 376.627177 
L 648 376.627177 
" style="fill:none;stroke:#e17701;stroke-linecap:square;stroke-width:1.3;"/>
   </g>
   <g id="patch_3">
    <path d="M 90 441 
L 90 60.48 
" style="fill:none;stroke:#000000;stroke-linecap:square;stroke-linejoin:miter;stroke-width:0.8;"/>
   </g>
   <g id="patch_4">
    <path d="M 648 441 
L 648 60.48 
" style="fill:none;stroke:#000000;stroke-linecap:square;stroke-linejoin:miter;stroke-width:0.8;"/>
   </g>
   <g id="patch_5">
    <path d="M 90 441 
L 648 441 
" style="fill:none;stroke:#000000;stroke-linecap:square;stroke-linejoin:miter;stroke-width:0.8;"/>
   </g>
   <g id="patch_6">
    <path d="M 90 60.48 
L 648 60.48 
" style="fill:none;stroke:#000000;stroke-linecap:square;stroke-linejoin:miter;stroke-width:0.8;"/>
   </g>
   <g id="legend_1">
    <g id="patch_7">
     <path d="M 293.4975 105.3075 
L 639.6 105.3075 
Q 642 105.3075 642 102.9075 
L 642 68.88 
Q 642 66.48 639.6 66.48 
L 293.4975 66.48 
Q 291.0975 66.48 291.0975 68.88 
L 291.0975 102.9075 
Q 291.0975 105.3075 293.4975 105.3075 
z
" style="fill:#ffffff;opacity:0.8;stroke:#cccccc;stroke-linejoin:miter;"/>
    </g>
    <g id="line2d_22">
     <path d="M 295.8975 76.198125 
L 319.8975 76.198125 
" style="fill:none;stroke:#03719c;stroke-linecap:square;stroke-opacity:0.9;stroke-width:4;"/>
    </g>
    <g id="line2d_23"/>
    <g id="text_14">
     <!-- MF6 Total Surface Discharge Outside -->
     <defs>
      <path d="M 9.421875 75.984375 
L 18.40625 75.984375 
L 18.40625 0 
L 9.421875 0 
z
" id="DejaVuSans-108"/>
      <path d="M 48.78125 52.59375 
L 48.78125 44.1875 
Q 44.96875 46.296875 41.140625 47.34375 
Q 37.3125 48.390625 33.40625 48.390625 
Q 24.65625 48.390625 19.8125 42.84375 
Q 14.984375 37.3125 14.984375 27.296875 
Q 14.984375 17.28125 19.8125 11.734375 
Q 24.65625 6.203125 33.40625 6.203125 
Q 37.3125 6.203125 41.140625 7.25 
Q 44.96875 8.296875 48.78125 10.40625 
L 48.78125 2.09375 
Q 45.015625 0.34375 40.984375 -0.53125 
Q 36.96875 -1.421875 32.421875 -1.421875 
Q 20.0625 -1.421875 12.78125 6.34375 
Q 5.515625 14.109375 5.515625 27.296875 
Q 5.515625 40.671875 12.859375 48.328125 
Q 20.21875 56 33.015625 56 
Q 37.15625 56 41.109375 55.140625 
Q 45.0625 54.296875 48.78125 52.59375 
z
" id="DejaVuSans-99"/>
      <path d="M 19.671875 64.796875 
L 19.671875 8.109375 
L 31.59375 8.109375 
Q 46.6875 8.109375 53.6875 14.9375 
Q 60.6875 21.78125 60.6875 36.53125 
Q 60.6875 51.171875 53.6875 57.984375 
Q 46.6875 64.796875 31.59375 64.796875 
z
M 9.8125 72.90625 
L 30.078125 72.90625 
Q 51.265625 72.90625 61.171875 64.09375 
Q 71.09375 55.28125 71.09375 36.53125 
Q 71.09375 17.671875 61.125 8.828125 
Q 51.171875 0 30.078125 0 
L 9.8125 0 
z
" id="DejaVuSans-68"/>
      <path d="M 54.890625 33.015625 
L 54.890625 0 
L 45.90625 0 
L 45.90625 32.71875 
Q 45.90625 40.484375 42.875 44.328125 
Q 39.84375 48.1875 33.796875 48.1875 
Q 26.515625 48.1875 22.3125 43.546875 
Q 18.109375 38.921875 18.109375 30.90625 
L 18.109375 0 
L 9.078125 0 
L 9.078125 75.984375 
L 18.109375 75.984375 
L 18.109375 46.1875 
Q 21.34375 51.125 25.703125 53.5625 
Q 30.078125 56 35.796875 56 
Q 45.21875 56 50.046875 50.171875 
Q 54.890625 44.34375 54.890625 33.015625 
z
" id="DejaVuSans-104"/>
      <path d="M 45.40625 27.984375 
Q 45.40625 37.75 41.375 43.109375 
Q 37.359375 48.484375 30.078125 48.484375 
Q 22.859375 48.484375 18.828125 43.109375 
Q 14.796875 37.75 14.796875 27.984375 
Q 14.796875 18.265625 18.828125 12.890625 
Q 22.859375 7.515625 30.078125 7.515625 
Q 37.359375 7.515625 41.375 12.890625 
Q 45.40625 18.265625 45.40625 27.984375 
z
M 54.390625 6.78125 
Q 54.390625 -7.171875 48.1875 -13.984375 
Q 42 -20.796875 29.203125 -20.796875 
Q 24.46875 -20.796875 20.265625 -20.09375 
Q 16.0625 -19.390625 12.109375 -17.921875 
L 12.109375 -9.1875 
Q 16.0625 -11.328125 19.921875 -12.34375 
Q 23.78125 -13.375 27.78125 -13.375 
Q 36.625 -13.375 41.015625 -8.765625 
Q 45.40625 -4.15625 45.40625 5.171875 
L 45.40625 9.625 
Q 42.625 4.78125 38.28125 2.390625 
Q 33.9375 0 27.875 0 
Q 17.828125 0 11.671875 7.65625 
Q 5.515625 15.328125 5.515625 27.984375 
Q 5.515625 40.671875 11.671875 48.328125 
Q 17.828125 56 27.875 56 
Q 33.9375 56 38.28125 53.609375 
Q 42.625 51.21875 45.40625 46.390625 
L 45.40625 54.6875 
L 54.390625 54.6875 
z
" id="DejaVuSans-103"/>
     </defs>
     <g transform="translate(329.4975 80.398125)scale(0.12 -0.12)">
      <use xlink:href="#DejaVuSans-77"/>
      <use x="86.279297" xlink:href="#DejaVuSans-70"/>
      <use x="143.798828" xlink:href="#DejaVuSans-54"/>
      <use x="207.421875" xlink:href="#DejaVuSans-32"/>
      <use x="239.208984" xlink:href="#DejaVuSans-84"/>
      <use x="300.027344" xlink:href="#DejaVuSans-111"/>
      <use x="361.208984" xlink:href="#DejaVuSans-116"/>
      <use x="400.417969" xlink:href="#DejaVuSans-97"/>
      <use x="461.697266" xlink:href="#DejaVuSans-108"/>
      <use x="489.480469" xlink:href="#DejaVuSans-32"/>
      <use x="521.267578" xlink:href="#DejaVuSans-83"/>
      <use x="584.744141" xlink:href="#DejaVuSans-117"/>
      <use x="648.123047" xlink:href="#DejaVuSans-114"/>
      <use x="689.236328" xlink:href="#DejaVuSans-102"/>
      <use x="724.441406" xlink:href="#DejaVuSans-97"/>
      <use x="785.720703" xlink:href="#DejaVuSans-99"/>
      <use x="840.701172" xlink:href="#DejaVuSans-101"/>
      <use x="902.224609" xlink:href="#DejaVuSans-32"/>
      <use x="934.011719" xlink:href="#DejaVuSans-68"/>
      <use x="1011.013672" xlink:href="#DejaVuSans-105"/>
      <use x="1038.796875" xlink:href="#DejaVuSans-115"/>
      <use x="1090.896484" xlink:href="#DejaVuSans-99"/>
      <use x="1145.876953" xlink:href="#DejaVuSans-104"/>
      <use x="1209.255859" xlink:href="#DejaVuSans-97"/>
      <use x="1270.535156" xlink:href="#DejaVuSans-114"/>
      <use x="1311.632812" xlink:href="#DejaVuSans-103"/>
      <use x="1375.109375" xlink:href="#DejaVuSans-101"/>
      <use x="1436.632812" xlink:href="#DejaVuSans-32"/>
      <use x="1468.419922" xlink:href="#DejaVuSans-79"/>
      <use x="1547.130859" xlink:href="#DejaVuSans-117"/>
      <use x="1610.509766" xlink:href="#DejaVuSans-116"/>
      <use x="1649.71875" xlink:href="#DejaVuSans-115"/>
      <use x="1701.818359" xlink:href="#DejaVuSans-105"/>
      <use x="1729.601562" xlink:href="#DejaVuSans-100"/>
      <use x="1793.078125" xlink:href="#DejaVuSans-101"/>
     </g>
    </g>
    <g id="line2d_24">
     <path d="M 295.8975 93.811875 
L 319.8975 93.811875 
" style="fill:none;stroke:#e17701;stroke-linecap:square;stroke-width:1.3;"/>
    </g>
    <g id="line2d_25"/>
    <g id="text_15">
     <!-- HSPF Total Surface Discharge Received for Outside -->
     <defs>
      <path d="M 44.390625 34.1875 
Q 47.5625 33.109375 50.5625 29.59375 
Q 53.5625 26.078125 56.59375 19.921875 
L 66.609375 0 
L 56 0 
L 46.6875 18.703125 
Q 43.0625 26.03125 39.671875 28.421875 
Q 36.28125 30.8125 30.421875 30.8125 
L 19.671875 30.8125 
L 19.671875 0 
L 9.8125 0 
L 9.8125 72.90625 
L 32.078125 72.90625 
Q 44.578125 72.90625 50.734375 67.671875 
Q 56.890625 62.453125 56.890625 51.90625 
Q 56.890625 45.015625 53.6875 40.46875 
Q 50.484375 35.9375 44.390625 34.1875 
z
M 19.671875 64.796875 
L 19.671875 38.921875 
L 32.078125 38.921875 
Q 39.203125 38.921875 42.84375 42.21875 
Q 46.484375 45.515625 46.484375 51.90625 
Q 46.484375 58.296875 42.84375 61.546875 
Q 39.203125 64.796875 32.078125 64.796875 
z
" id="DejaVuSans-82"/>
      <path d="M 2.984375 54.6875 
L 12.5 54.6875 
L 29.59375 8.796875 
L 46.6875 54.6875 
L 56.203125 54.6875 
L 35.6875 0 
L 23.484375 0 
z
" id="DejaVuSans-118"/>
     </defs>
     <g transform="translate(329.4975 98.011875)scale(0.12 -0.12)">
      <use xlink:href="#DejaVuSans-72"/>
      <use x="75.195312" xlink:href="#DejaVuSans-83"/>
      <use x="138.671875" xlink:href="#DejaVuSans-80"/>
      <use x="198.974609" xlink:href="#DejaVuSans-70"/>
      <use x="256.494141" xlink:href="#DejaVuSans-32"/>
      <use x="288.28125" xlink:href="#DejaVuSans-84"/>
      <use x="349.099609" xlink:href="#DejaVuSans-111"/>
      <use x="410.28125" xlink:href="#DejaVuSans-116"/>
      <use x="449.490234" xlink:href="#DejaVuSans-97"/>
      <use x="510.769531" xlink:href="#DejaVuSans-108"/>
      <use x="538.552734" xlink:href="#DejaVuSans-32"/>
      <use x="570.339844" xlink:href="#DejaVuSans-83"/>
      <use x="633.816406" xlink:href="#DejaVuSans-117"/>
      <use x="697.195312" xlink:href="#DejaVuSans-114"/>
      <use x="738.308594" xlink:href="#DejaVuSans-102"/>
      <use x="773.513672" xlink:href="#DejaVuSans-97"/>
      <use x="834.792969" xlink:href="#DejaVuSans-99"/>
      <use x="889.773438" xlink:href="#DejaVuSans-101"/>
      <use x="951.296875" xlink:href="#DejaVuSans-32"/>
      <use x="983.083984" xlink:href="#DejaVuSans-68"/>
      <use x="1060.085938" xlink:href="#DejaVuSans-105"/>
      <use x="1087.869141" xlink:href="#DejaVuSans-115"/>
      <use x="1139.96875" xlink:href="#DejaVuSans-99"/>
      <use x="1194.949219" xlink:href="#DejaVuSans-104"/>
      <use x="1258.328125" xlink:href="#DejaVuSans-97"/>
      <use x="1319.607422" xlink:href="#DejaVuSans-114"/>
      <use x="1360.705078" xlink:href="#DejaVuSans-103"/>
      <use x="1424.181641" xlink:href="#DejaVuSans-101"/>
      <use x="1485.705078" xlink:href="#DejaVuSans-32"/>
      <use x="1517.492188" xlink:href="#DejaVuSans-82"/>
      <use x="1586.912109" xlink:href="#DejaVuSans-101"/>
      <use x="1648.435547" xlink:href="#DejaVuSans-99"/>
      <use x="1703.416016" xlink:href="#DejaVuSans-101"/>
      <use x="1764.939453" xlink:href="#DejaVuSans-105"/>
      <use x="1792.722656" xlink:href="#DejaVuSans-118"/>
      <use x="1851.902344" xlink:href="#DejaVuSans-101"/>
      <use x="1913.425781" xlink:href="#DejaVuSans-100"/>
      <use x="1976.902344" xlink:href="#DejaVuSans-32"/>
      <use x="2008.689453" xlink:href="#DejaVuSans-102"/>
      <use x="2043.894531" xlink:href="#DejaVuSans-111"/>
      <use x="2105.076172" xlink:href="#DejaVuSans-114"/>
      <use x="2146.189453" xlink:href="#DejaVuSans-32"/>
      <use x="2177.976562" xlink:href="#DejaVuSans-79"/>
      <use x="2256.6875" xlink:href="#DejaVuSans-117"/>
      <use x="2320.066406" xlink:href="#DejaVuSans-116"/>
      <use x="2359.275391" xlink:href="#DejaVuSans-115"/>
      <use x="2411.375" xlink:href="#DejaVuSans-105"/>
      <use x="2439.158203" xlink:href="#DejaVuSans-100"/>
      <use x="2502.634766" xlink:href="#DejaVuSans-101"/>
     </g>
    </g>
   </g>
  </g>
 </g>
 <defs>
  <clipPath id="pb91159dc4b">
   <rect height="380.52" width="558" x="90" y="60.48"/>
  </clipPath>
 </defs>
</svg>
