<?xml version="1.0" encoding="utf-8" standalone="no"?>
<!DOCTYPE svg PUBLIC "-//W3C//DTD SVG 1.1//EN"
  "http://www.w3.org/Graphics/SVG/1.1/DTD/svg11.dtd">
<!-- Created with matplotlib (https://matplotlib.org/) -->
<svg height="504pt" version="1.1" viewBox="0 0 720 504" width="720pt" xmlns="http://www.w3.org/2000/svg" xmlns:xlink="http://www.w3.org/1999/xlink">
 <defs>
  <style type="text/css">
*{stroke-linecap:butt;stroke-linejoin:round;}
  </style>
 </defs>
 <g id="figure_1">
  <g id="patch_1">
   <path d="M 0 504 
L 720 504 
L 720 0 
L 0 0 
z
" style="fill:#ffffff;"/>
  </g>
  <g id="axes_1">
   <g id="patch_2">
    <path d="M 90 441 
L 648 441 
L 648 60.48 
L 90 60.48 
z
" style="fill:#ffffff;"/>
   </g>
   <g id="matplotlib.axis_1">
    <g id="xtick_1">
     <g id="line2d_1">
      <defs>
       <path d="M 0 0 
L 0 3.5 
" id="m91f81c1492" style="stroke:#000000;stroke-width:0.8;"/>
      </defs>
      <g>
       <use style="stroke:#000000;stroke-width:0.8;" x="146.22782" xlink:href="#m91f81c1492" y="441"/>
      </g>
     </g>
     <g id="text_1">
      <!-- 01/01/2014 -->
      <defs>
       <path d="M 31.78125 66.40625 
Q 24.171875 66.40625 20.328125 58.90625 
Q 16.5 51.421875 16.5 36.375 
Q 16.5 21.390625 20.328125 13.890625 
Q 24.171875 6.390625 31.78125 6.390625 
Q 39.453125 6.390625 43.28125 13.890625 
Q 47.125 21.390625 47.125 36.375 
Q 47.125 51.421875 43.28125 58.90625 
Q 39.453125 66.40625 31.78125 66.40625 
z
M 31.78125 74.21875 
Q 44.046875 74.21875 50.515625 64.515625 
Q 56.984375 54.828125 56.984375 36.375 
Q 56.984375 17.96875 50.515625 8.265625 
Q 44.046875 -1.421875 31.78125 -1.421875 
Q 19.53125 -1.421875 13.0625 8.265625 
Q 6.59375 17.96875 6.59375 36.375 
Q 6.59375 54.828125 13.0625 64.515625 
Q 19.53125 74.21875 31.78125 74.21875 
z
" id="DejaVuSans-48"/>
       <path d="M 12.40625 8.296875 
L 28.515625 8.296875 
L 28.515625 63.921875 
L 10.984375 60.40625 
L 10.984375 69.390625 
L 28.421875 72.90625 
L 38.28125 72.90625 
L 38.28125 8.296875 
L 54.390625 8.296875 
L 54.390625 0 
L 12.40625 0 
z
" id="DejaVuSans-49"/>
       <path d="M 25.390625 72.90625 
L 33.6875 72.90625 
L 8.296875 -9.28125 
L 0 -9.28125 
z
" id="DejaVuSans-47"/>
       <path d="M 19.1875 8.296875 
L 53.609375 8.296875 
L 53.609375 0 
L 7.328125 0 
L 7.328125 8.296875 
Q 12.9375 14.109375 22.625 23.890625 
Q 32.328125 33.6875 34.8125 36.53125 
Q 39.546875 41.84375 41.421875 45.53125 
Q 43.3125 49.21875 43.3125 52.78125 
Q 43.3125 58.59375 39.234375 62.25 
Q 35.15625 65.921875 28.609375 65.921875 
Q 23.96875 65.921875 18.8125 64.3125 
Q 13.671875 62.703125 7.8125 59.421875 
L 7.8125 69.390625 
Q 13.765625 71.78125 18.9375 73 
Q 24.125 74.21875 28.421875 74.21875 
Q 39.75 74.21875 46.484375 68.546875 
Q 53.21875 62.890625 53.21875 53.421875 
Q 53.21875 48.921875 51.53125 44.890625 
Q 49.859375 40.875 45.40625 35.40625 
Q 44.1875 33.984375 37.640625 27.21875 
Q 31.109375 20.453125 19.1875 8.296875 
z
" id="DejaVuSans-50"/>
       <path d="M 37.796875 64.3125 
L 12.890625 25.390625 
L 37.796875 25.390625 
z
M 35.203125 72.90625 
L 47.609375 72.90625 
L 47.609375 25.390625 
L 58.015625 25.390625 
L 58.015625 17.1875 
L 47.609375 17.1875 
L 47.609375 0 
L 37.796875 0 
L 37.796875 17.1875 
L 4.890625 17.1875 
L 4.890625 26.703125 
z
" id="DejaVuSans-52"/>
      </defs>
      <g transform="translate(117.934122 490.479028)rotate(-30)scale(0.12 -0.12)">
       <use xlink:href="#DejaVuSans-48"/>
       <use x="63.623047" xlink:href="#DejaVuSans-49"/>
       <use x="127.246094" xlink:href="#DejaVuSans-47"/>
       <use x="160.9375" xlink:href="#DejaVuSans-48"/>
       <use x="224.560547" xlink:href="#DejaVuSans-49"/>
       <use x="288.183594" xlink:href="#DejaVuSans-47"/>
       <use x="321.875" xlink:href="#DejaVuSans-50"/>
       <use x="385.498047" xlink:href="#DejaVuSans-48"/>
       <use x="449.121094" xlink:href="#DejaVuSans-49"/>
       <use x="512.744141" xlink:href="#DejaVuSans-52"/>
      </g>
     </g>
    </g>
    <g id="xtick_2">
     <g id="line2d_2">
      <g>
       <use style="stroke:#000000;stroke-width:0.8;" x="257.766703" xlink:href="#m91f81c1492" y="441"/>
      </g>
     </g>
     <g id="text_2">
      <!-- 01/01/2015 -->
      <defs>
       <path d="M 10.796875 72.90625 
L 49.515625 72.90625 
L 49.515625 64.59375 
L 19.828125 64.59375 
L 19.828125 46.734375 
Q 21.96875 47.46875 24.109375 47.828125 
Q 26.265625 48.1875 28.421875 48.1875 
Q 40.625 48.1875 47.75 41.5 
Q 54.890625 34.8125 54.890625 23.390625 
Q 54.890625 11.625 47.5625 5.09375 
Q 40.234375 -1.421875 26.90625 -1.421875 
Q 22.3125 -1.421875 17.546875 -0.640625 
Q 12.796875 0.140625 7.71875 1.703125 
L 7.71875 11.625 
Q 12.109375 9.234375 16.796875 8.0625 
Q 21.484375 6.890625 26.703125 6.890625 
Q 35.15625 6.890625 40.078125 11.328125 
Q 45.015625 15.765625 45.015625 23.390625 
Q 45.015625 31 40.078125 35.4375 
Q 35.15625 39.890625 26.703125 39.890625 
Q 22.75 39.890625 18.8125 39.015625 
Q 14.890625 38.140625 10.796875 36.28125 
z
" id="DejaVuSans-53"/>
      </defs>
      <g transform="translate(229.473005 490.479028)rotate(-30)scale(0.12 -0.12)">
       <use xlink:href="#DejaVuSans-48"/>
       <use x="63.623047" xlink:href="#DejaVuSans-49"/>
       <use x="127.246094" xlink:href="#DejaVuSans-47"/>
       <use x="160.9375" xlink:href="#DejaVuSans-48"/>
       <use x="224.560547" xlink:href="#DejaVuSans-49"/>
       <use x="288.183594" xlink:href="#DejaVuSans-47"/>
       <use x="321.875" xlink:href="#DejaVuSans-50"/>
       <use x="385.498047" xlink:href="#DejaVuSans-48"/>
       <use x="449.121094" xlink:href="#DejaVuSans-49"/>
       <use x="512.744141" xlink:href="#DejaVuSans-53"/>
      </g>
     </g>
    </g>
    <g id="xtick_3">
     <g id="line2d_3">
      <g>
       <use style="stroke:#000000;stroke-width:0.8;" x="369.305586" xlink:href="#m91f81c1492" y="441"/>
      </g>
     </g>
     <g id="text_3">
      <!-- 01/01/2016 -->
      <defs>
       <path d="M 33.015625 40.375 
Q 26.375 40.375 22.484375 35.828125 
Q 18.609375 31.296875 18.609375 23.390625 
Q 18.609375 15.53125 22.484375 10.953125 
Q 26.375 6.390625 33.015625 6.390625 
Q 39.65625 6.390625 43.53125 10.953125 
Q 47.40625 15.53125 47.40625 23.390625 
Q 47.40625 31.296875 43.53125 35.828125 
Q 39.65625 40.375 33.015625 40.375 
z
M 52.59375 71.296875 
L 52.59375 62.3125 
Q 48.875 64.0625 45.09375 64.984375 
Q 41.3125 65.921875 37.59375 65.921875 
Q 27.828125 65.921875 22.671875 59.328125 
Q 17.53125 52.734375 16.796875 39.40625 
Q 19.671875 43.65625 24.015625 45.921875 
Q 28.375 48.1875 33.59375 48.1875 
Q 44.578125 48.1875 50.953125 41.515625 
Q 57.328125 34.859375 57.328125 23.390625 
Q 57.328125 12.15625 50.6875 5.359375 
Q 44.046875 -1.421875 33.015625 -1.421875 
Q 20.359375 -1.421875 13.671875 8.265625 
Q 6.984375 17.96875 6.984375 36.375 
Q 6.984375 53.65625 15.1875 63.9375 
Q 23.390625 74.21875 37.203125 74.21875 
Q 40.921875 74.21875 44.703125 73.484375 
Q 48.484375 72.75 52.59375 71.296875 
z
" id="DejaVuSans-54"/>
      </defs>
      <g transform="translate(341.011887 490.479028)rotate(-30)scale(0.12 -0.12)">
       <use xlink:href="#DejaVuSans-48"/>
       <use x="63.623047" xlink:href="#DejaVuSans-49"/>
       <use x="127.246094" xlink:href="#DejaVuSans-47"/>
       <use x="160.9375" xlink:href="#DejaVuSans-48"/>
       <use x="224.560547" xlink:href="#DejaVuSans-49"/>
       <use x="288.183594" xlink:href="#DejaVuSans-47"/>
       <use x="321.875" xlink:href="#DejaVuSans-50"/>
       <use x="385.498047" xlink:href="#DejaVuSans-48"/>
       <use x="449.121094" xlink:href="#DejaVuSans-49"/>
       <use x="512.744141" xlink:href="#DejaVuSans-54"/>
      </g>
     </g>
    </g>
    <g id="xtick_4">
     <g id="line2d_4">
      <g>
       <use style="stroke:#000000;stroke-width:0.8;" x="481.150055" xlink:href="#m91f81c1492" y="441"/>
      </g>
     </g>
     <g id="text_4">
      <!-- 01/01/2017 -->
      <defs>
       <path d="M 8.203125 72.90625 
L 55.078125 72.90625 
L 55.078125 68.703125 
L 28.609375 0 
L 18.3125 0 
L 43.21875 64.59375 
L 8.203125 64.59375 
z
" id="DejaVuSans-55"/>
      </defs>
      <g transform="translate(452.856356 490.479028)rotate(-30)scale(0.12 -0.12)">
       <use xlink:href="#DejaVuSans-48"/>
       <use x="63.623047" xlink:href="#DejaVuSans-49"/>
       <use x="127.246094" xlink:href="#DejaVuSans-47"/>
       <use x="160.9375" xlink:href="#DejaVuSans-48"/>
       <use x="224.560547" xlink:href="#DejaVuSans-49"/>
       <use x="288.183594" xlink:href="#DejaVuSans-47"/>
       <use x="321.875" xlink:href="#DejaVuSans-50"/>
       <use x="385.498047" xlink:href="#DejaVuSans-48"/>
       <use x="449.121094" xlink:href="#DejaVuSans-49"/>
       <use x="512.744141" xlink:href="#DejaVuSans-55"/>
      </g>
     </g>
    </g>
    <g id="xtick_5">
     <g id="line2d_5">
      <g>
       <use style="stroke:#000000;stroke-width:0.8;" x="592.688938" xlink:href="#m91f81c1492" y="441"/>
      </g>
     </g>
     <g id="text_5">
      <!-- 01/01/2018 -->
      <defs>
       <path d="M 31.78125 34.625 
Q 24.75 34.625 20.71875 30.859375 
Q 16.703125 27.09375 16.703125 20.515625 
Q 16.703125 13.921875 20.71875 10.15625 
Q 24.75 6.390625 31.78125 6.390625 
Q 38.8125 6.390625 42.859375 10.171875 
Q 46.921875 13.96875 46.921875 20.515625 
Q 46.921875 27.09375 42.890625 30.859375 
Q 38.875 34.625 31.78125 34.625 
z
M 21.921875 38.8125 
Q 15.578125 40.375 12.03125 44.71875 
Q 8.5 49.078125 8.5 55.328125 
Q 8.5 64.0625 14.71875 69.140625 
Q 20.953125 74.21875 31.78125 74.21875 
Q 42.671875 74.21875 48.875 69.140625 
Q 55.078125 64.0625 55.078125 55.328125 
Q 55.078125 49.078125 51.53125 44.71875 
Q 48 40.375 41.703125 38.8125 
Q 48.828125 37.15625 52.796875 32.3125 
Q 56.78125 27.484375 56.78125 20.515625 
Q 56.78125 9.90625 50.3125 4.234375 
Q 43.84375 -1.421875 31.78125 -1.421875 
Q 19.734375 -1.421875 13.25 4.234375 
Q 6.78125 9.90625 6.78125 20.515625 
Q 6.78125 27.484375 10.78125 32.3125 
Q 14.796875 37.15625 21.921875 38.8125 
z
M 18.3125 54.390625 
Q 18.3125 48.734375 21.84375 45.5625 
Q 25.390625 42.390625 31.78125 42.390625 
Q 38.140625 42.390625 41.71875 45.5625 
Q 45.3125 48.734375 45.3125 54.390625 
Q 45.3125 60.0625 41.71875 63.234375 
Q 38.140625 66.40625 31.78125 66.40625 
Q 25.390625 66.40625 21.84375 63.234375 
Q 18.3125 60.0625 18.3125 54.390625 
z
" id="DejaVuSans-56"/>
      </defs>
      <g transform="translate(564.395239 490.479028)rotate(-30)scale(0.12 -0.12)">
       <use xlink:href="#DejaVuSans-48"/>
       <use x="63.623047" xlink:href="#DejaVuSans-49"/>
       <use x="127.246094" xlink:href="#DejaVuSans-47"/>
       <use x="160.9375" xlink:href="#DejaVuSans-48"/>
       <use x="224.560547" xlink:href="#DejaVuSans-49"/>
       <use x="288.183594" xlink:href="#DejaVuSans-47"/>
       <use x="321.875" xlink:href="#DejaVuSans-50"/>
       <use x="385.498047" xlink:href="#DejaVuSans-48"/>
       <use x="449.121094" xlink:href="#DejaVuSans-49"/>
       <use x="512.744141" xlink:href="#DejaVuSans-56"/>
      </g>
     </g>
    </g>
   </g>
   <g id="matplotlib.axis_2">
    <g id="ytick_1">
     <g id="line2d_6">
      <path clip-path="url(#pefb1da7c59)" d="M 90 441 
L 648 441 
" style="fill:none;stroke:#b0b0b0;stroke-linecap:square;stroke-width:0.8;"/>
     </g>
     <g id="line2d_7">
      <defs>
       <path d="M 0 0 
L -3.5 0 
" id="me928586c3d" style="stroke:#000000;stroke-width:0.8;"/>
      </defs>
      <g>
       <use style="stroke:#000000;stroke-width:0.8;" x="90" xlink:href="#me928586c3d" y="441"/>
      </g>
     </g>
     <g id="text_6">
      <!-- 90,000 -->
      <defs>
       <path d="M 10.984375 1.515625 
L 10.984375 10.5 
Q 14.703125 8.734375 18.5 7.8125 
Q 22.3125 6.890625 25.984375 6.890625 
Q 35.75 6.890625 40.890625 13.453125 
Q 46.046875 20.015625 46.78125 33.40625 
Q 43.953125 29.203125 39.59375 26.953125 
Q 35.25 24.703125 29.984375 24.703125 
Q 19.046875 24.703125 12.671875 31.3125 
Q 6.296875 37.9375 6.296875 49.421875 
Q 6.296875 60.640625 12.9375 67.421875 
Q 19.578125 74.21875 30.609375 74.21875 
Q 43.265625 74.21875 49.921875 64.515625 
Q 56.59375 54.828125 56.59375 36.375 
Q 56.59375 19.140625 48.40625 8.859375 
Q 40.234375 -1.421875 26.421875 -1.421875 
Q 22.703125 -1.421875 18.890625 -0.6875 
Q 15.09375 0.046875 10.984375 1.515625 
z
M 30.609375 32.421875 
Q 37.25 32.421875 41.125 36.953125 
Q 45.015625 41.5 45.015625 49.421875 
Q 45.015625 57.28125 41.125 61.84375 
Q 37.25 66.40625 30.609375 66.40625 
Q 23.96875 66.40625 20.09375 61.84375 
Q 16.21875 57.28125 16.21875 49.421875 
Q 16.21875 41.5 20.09375 36.953125 
Q 23.96875 32.421875 30.609375 32.421875 
z
" id="DejaVuSans-57"/>
       <path d="M 11.71875 12.40625 
L 22.015625 12.40625 
L 22.015625 4 
L 14.015625 -11.625 
L 7.71875 -11.625 
L 11.71875 4 
z
" id="DejaVuSans-44"/>
      </defs>
      <g transform="translate(41.01125 445.559062)scale(0.12 -0.12)">
       <use xlink:href="#DejaVuSans-57"/>
       <use x="63.623047" xlink:href="#DejaVuSans-48"/>
       <use x="127.246094" xlink:href="#DejaVuSans-44"/>
       <use x="159.033203" xlink:href="#DejaVuSans-48"/>
       <use x="222.65625" xlink:href="#DejaVuSans-48"/>
       <use x="286.279297" xlink:href="#DejaVuSans-48"/>
      </g>
     </g>
    </g>
    <g id="ytick_2">
     <g id="line2d_8">
      <path clip-path="url(#pefb1da7c59)" d="M 90 393.435 
L 648 393.435 
" style="fill:none;stroke:#b0b0b0;stroke-linecap:square;stroke-width:0.8;"/>
     </g>
     <g id="line2d_9">
      <g>
       <use style="stroke:#000000;stroke-width:0.8;" x="90" xlink:href="#me928586c3d" y="393.435"/>
      </g>
     </g>
     <g id="text_7">
      <!-- 95,000 -->
      <g transform="translate(41.01125 397.994062)scale(0.12 -0.12)">
       <use xlink:href="#DejaVuSans-57"/>
       <use x="63.623047" xlink:href="#DejaVuSans-53"/>
       <use x="127.246094" xlink:href="#DejaVuSans-44"/>
       <use x="159.033203" xlink:href="#DejaVuSans-48"/>
       <use x="222.65625" xlink:href="#DejaVuSans-48"/>
       <use x="286.279297" xlink:href="#DejaVuSans-48"/>
      </g>
     </g>
    </g>
    <g id="ytick_3">
     <g id="line2d_10">
      <path clip-path="url(#pefb1da7c59)" d="M 90 345.87 
L 648 345.87 
" style="fill:none;stroke:#b0b0b0;stroke-linecap:square;stroke-width:0.8;"/>
     </g>
     <g id="line2d_11">
      <g>
       <use style="stroke:#000000;stroke-width:0.8;" x="90" xlink:href="#me928586c3d" y="345.87"/>
      </g>
     </g>
     <g id="text_8">
      <!-- 100,000 -->
      <g transform="translate(33.37625 350.429062)scale(0.12 -0.12)">
       <use xlink:href="#DejaVuSans-49"/>
       <use x="63.623047" xlink:href="#DejaVuSans-48"/>
       <use x="127.246094" xlink:href="#DejaVuSans-48"/>
       <use x="190.869141" xlink:href="#DejaVuSans-44"/>
       <use x="222.65625" xlink:href="#DejaVuSans-48"/>
       <use x="286.279297" xlink:href="#DejaVuSans-48"/>
       <use x="349.902344" xlink:href="#DejaVuSans-48"/>
      </g>
     </g>
    </g>
    <g id="ytick_4">
     <g id="line2d_12">
      <path clip-path="url(#pefb1da7c59)" d="M 90 298.305 
L 648 298.305 
" style="fill:none;stroke:#b0b0b0;stroke-linecap:square;stroke-width:0.8;"/>
     </g>
     <g id="line2d_13">
      <g>
       <use style="stroke:#000000;stroke-width:0.8;" x="90" xlink:href="#me928586c3d" y="298.305"/>
      </g>
     </g>
     <g id="text_9">
      <!-- 105,000 -->
      <g transform="translate(33.37625 302.864062)scale(0.12 -0.12)">
       <use xlink:href="#DejaVuSans-49"/>
       <use x="63.623047" xlink:href="#DejaVuSans-48"/>
       <use x="127.246094" xlink:href="#DejaVuSans-53"/>
       <use x="190.869141" xlink:href="#DejaVuSans-44"/>
       <use x="222.65625" xlink:href="#DejaVuSans-48"/>
       <use x="286.279297" xlink:href="#DejaVuSans-48"/>
       <use x="349.902344" xlink:href="#DejaVuSans-48"/>
      </g>
     </g>
    </g>
    <g id="ytick_5">
     <g id="line2d_14">
      <path clip-path="url(#pefb1da7c59)" d="M 90 250.74 
L 648 250.74 
" style="fill:none;stroke:#b0b0b0;stroke-linecap:square;stroke-width:0.8;"/>
     </g>
     <g id="line2d_15">
      <g>
       <use style="stroke:#000000;stroke-width:0.8;" x="90" xlink:href="#me928586c3d" y="250.74"/>
      </g>
     </g>
     <g id="text_10">
      <!-- 110,000 -->
      <g transform="translate(33.37625 255.299062)scale(0.12 -0.12)">
       <use xlink:href="#DejaVuSans-49"/>
       <use x="63.623047" xlink:href="#DejaVuSans-49"/>
       <use x="127.246094" xlink:href="#DejaVuSans-48"/>
       <use x="190.869141" xlink:href="#DejaVuSans-44"/>
       <use x="222.65625" xlink:href="#DejaVuSans-48"/>
       <use x="286.279297" xlink:href="#DejaVuSans-48"/>
       <use x="349.902344" xlink:href="#DejaVuSans-48"/>
      </g>
     </g>
    </g>
    <g id="ytick_6">
     <g id="line2d_16">
      <path clip-path="url(#pefb1da7c59)" d="M 90 203.175 
L 648 203.175 
" style="fill:none;stroke:#b0b0b0;stroke-linecap:square;stroke-width:0.8;"/>
     </g>
     <g id="line2d_17">
      <g>
       <use style="stroke:#000000;stroke-width:0.8;" x="90" xlink:href="#me928586c3d" y="203.175"/>
      </g>
     </g>
     <g id="text_11">
      <!-- 115,000 -->
      <g transform="translate(33.37625 207.734062)scale(0.12 -0.12)">
       <use xlink:href="#DejaVuSans-49"/>
       <use x="63.623047" xlink:href="#DejaVuSans-49"/>
       <use x="127.246094" xlink:href="#DejaVuSans-53"/>
       <use x="190.869141" xlink:href="#DejaVuSans-44"/>
       <use x="222.65625" xlink:href="#DejaVuSans-48"/>
       <use x="286.279297" xlink:href="#DejaVuSans-48"/>
       <use x="349.902344" xlink:href="#DejaVuSans-48"/>
      </g>
     </g>
    </g>
    <g id="ytick_7">
     <g id="line2d_18">
      <path clip-path="url(#pefb1da7c59)" d="M 90 155.61 
L 648 155.61 
" style="fill:none;stroke:#b0b0b0;stroke-linecap:square;stroke-width:0.8;"/>
     </g>
     <g id="line2d_19">
      <g>
       <use style="stroke:#000000;stroke-width:0.8;" x="90" xlink:href="#me928586c3d" y="155.61"/>
      </g>
     </g>
     <g id="text_12">
      <!-- 120,000 -->
      <g transform="translate(33.37625 160.169062)scale(0.12 -0.12)">
       <use xlink:href="#DejaVuSans-49"/>
       <use x="63.623047" xlink:href="#DejaVuSans-50"/>
       <use x="127.246094" xlink:href="#DejaVuSans-48"/>
       <use x="190.869141" xlink:href="#DejaVuSans-44"/>
       <use x="222.65625" xlink:href="#DejaVuSans-48"/>
       <use x="286.279297" xlink:href="#DejaVuSans-48"/>
       <use x="349.902344" xlink:href="#DejaVuSans-48"/>
      </g>
     </g>
    </g>
    <g id="ytick_8">
     <g id="line2d_20">
      <path clip-path="url(#pefb1da7c59)" d="M 90 108.045 
L 648 108.045 
" style="fill:none;stroke:#b0b0b0;stroke-linecap:square;stroke-width:0.8;"/>
     </g>
     <g id="line2d_21">
      <g>
       <use style="stroke:#000000;stroke-width:0.8;" x="90" xlink:href="#me928586c3d" y="108.045"/>
      </g>
     </g>
     <g id="text_13">
      <!-- 125,000 -->
      <g transform="translate(33.37625 112.604062)scale(0.12 -0.12)">
       <use xlink:href="#DejaVuSans-49"/>
       <use x="63.623047" xlink:href="#DejaVuSans-50"/>
       <use x="127.246094" xlink:href="#DejaVuSans-53"/>
       <use x="190.869141" xlink:href="#DejaVuSans-44"/>
       <use x="222.65625" xlink:href="#DejaVuSans-48"/>
       <use x="286.279297" xlink:href="#DejaVuSans-48"/>
       <use x="349.902344" xlink:href="#DejaVuSans-48"/>
      </g>
     </g>
    </g>
    <g id="ytick_9">
     <g id="line2d_22">
      <path clip-path="url(#pefb1da7c59)" d="M 90 60.48 
L 648 60.48 
" style="fill:none;stroke:#b0b0b0;stroke-linecap:square;stroke-width:0.8;"/>
     </g>
     <g id="line2d_23">
      <g>
       <use style="stroke:#000000;stroke-width:0.8;" x="90" xlink:href="#me928586c3d" y="60.48"/>
      </g>
     </g>
     <g id="text_14">
      <!-- 130,000 -->
      <defs>
       <path d="M 40.578125 39.3125 
Q 47.65625 37.796875 51.625 33 
Q 55.609375 28.21875 55.609375 21.1875 
Q 55.609375 10.40625 48.1875 4.484375 
Q 40.765625 -1.421875 27.09375 -1.421875 
Q 22.515625 -1.421875 17.65625 -0.515625 
Q 12.796875 0.390625 7.625 2.203125 
L 7.625 11.71875 
Q 11.71875 9.328125 16.59375 8.109375 
Q 21.484375 6.890625 26.8125 6.890625 
Q 36.078125 6.890625 40.9375 10.546875 
Q 45.796875 14.203125 45.796875 21.1875 
Q 45.796875 27.640625 41.28125 31.265625 
Q 36.765625 34.90625 28.71875 34.90625 
L 20.21875 34.90625 
L 20.21875 43.015625 
L 29.109375 43.015625 
Q 36.375 43.015625 40.234375 45.921875 
Q 44.09375 48.828125 44.09375 54.296875 
Q 44.09375 59.90625 40.109375 62.90625 
Q 36.140625 65.921875 28.71875 65.921875 
Q 24.65625 65.921875 20.015625 65.03125 
Q 15.375 64.15625 9.8125 62.3125 
L 9.8125 71.09375 
Q 15.4375 72.65625 20.34375 73.4375 
Q 25.25 74.21875 29.59375 74.21875 
Q 40.828125 74.21875 47.359375 69.109375 
Q 53.90625 64.015625 53.90625 55.328125 
Q 53.90625 49.265625 50.4375 45.09375 
Q 46.96875 40.921875 40.578125 39.3125 
z
" id="DejaVuSans-51"/>
      </defs>
      <g transform="translate(33.37625 65.039062)scale(0.12 -0.12)">
       <use xlink:href="#DejaVuSans-49"/>
       <use x="63.623047" xlink:href="#DejaVuSans-51"/>
       <use x="127.246094" xlink:href="#DejaVuSans-48"/>
       <use x="190.869141" xlink:href="#DejaVuSans-44"/>
       <use x="222.65625" xlink:href="#DejaVuSans-48"/>
       <use x="286.279297" xlink:href="#DejaVuSans-48"/>
       <use x="349.902344" xlink:href="#DejaVuSans-48"/>
      </g>
     </g>
    </g>
    <g id="text_15">
     <!-- Transfer from MF6 to HSPF ($m^{3}/day$) -->
     <defs>
      <path d="M -0.296875 72.90625 
L 61.375 72.90625 
L 61.375 64.59375 
L 35.5 64.59375 
L 35.5 0 
L 25.59375 0 
L 25.59375 64.59375 
L -0.296875 64.59375 
z
" id="DejaVuSans-84"/>
      <path d="M 41.109375 46.296875 
Q 39.59375 47.171875 37.8125 47.578125 
Q 36.03125 48 33.890625 48 
Q 26.265625 48 22.1875 43.046875 
Q 18.109375 38.09375 18.109375 28.8125 
L 18.109375 0 
L 9.078125 0 
L 9.078125 54.6875 
L 18.109375 54.6875 
L 18.109375 46.1875 
Q 20.953125 51.171875 25.484375 53.578125 
Q 30.03125 56 36.53125 56 
Q 37.453125 56 38.578125 55.875 
Q 39.703125 55.765625 41.0625 55.515625 
z
" id="DejaVuSans-114"/>
      <path d="M 34.28125 27.484375 
Q 23.390625 27.484375 19.1875 25 
Q 14.984375 22.515625 14.984375 16.5 
Q 14.984375 11.71875 18.140625 8.90625 
Q 21.296875 6.109375 26.703125 6.109375 
Q 34.1875 6.109375 38.703125 11.40625 
Q 43.21875 16.703125 43.21875 25.484375 
L 43.21875 27.484375 
z
M 52.203125 31.203125 
L 52.203125 0 
L 43.21875 0 
L 43.21875 8.296875 
Q 40.140625 3.328125 35.546875 0.953125 
Q 30.953125 -1.421875 24.3125 -1.421875 
Q 15.921875 -1.421875 10.953125 3.296875 
Q 6 8.015625 6 15.921875 
Q 6 25.140625 12.171875 29.828125 
Q 18.359375 34.515625 30.609375 34.515625 
L 43.21875 34.515625 
L 43.21875 35.40625 
Q 43.21875 41.609375 39.140625 45 
Q 35.0625 48.390625 27.6875 48.390625 
Q 23 48.390625 18.546875 47.265625 
Q 14.109375 46.140625 10.015625 43.890625 
L 10.015625 52.203125 
Q 14.9375 54.109375 19.578125 55.046875 
Q 24.21875 56 28.609375 56 
Q 40.484375 56 46.34375 49.84375 
Q 52.203125 43.703125 52.203125 31.203125 
z
" id="DejaVuSans-97"/>
      <path d="M 54.890625 33.015625 
L 54.890625 0 
L 45.90625 0 
L 45.90625 32.71875 
Q 45.90625 40.484375 42.875 44.328125 
Q 39.84375 48.1875 33.796875 48.1875 
Q 26.515625 48.1875 22.3125 43.546875 
Q 18.109375 38.921875 18.109375 30.90625 
L 18.109375 0 
L 9.078125 0 
L 9.078125 54.6875 
L 18.109375 54.6875 
L 18.109375 46.1875 
Q 21.34375 51.125 25.703125 53.5625 
Q 30.078125 56 35.796875 56 
Q 45.21875 56 50.046875 50.171875 
Q 54.890625 44.34375 54.890625 33.015625 
z
" id="DejaVuSans-110"/>
      <path d="M 44.28125 53.078125 
L 44.28125 44.578125 
Q 40.484375 46.53125 36.375 47.5 
Q 32.28125 48.484375 27.875 48.484375 
Q 21.1875 48.484375 17.84375 46.4375 
Q 14.5 44.390625 14.5 40.28125 
Q 14.5 37.15625 16.890625 35.375 
Q 19.28125 33.59375 26.515625 31.984375 
L 29.59375 31.296875 
Q 39.15625 29.25 43.1875 25.515625 
Q 47.21875 21.78125 47.21875 15.09375 
Q 47.21875 7.46875 41.1875 3.015625 
Q 35.15625 -1.421875 24.609375 -1.421875 
Q 20.21875 -1.421875 15.453125 -0.5625 
Q 10.6875 0.296875 5.421875 2 
L 5.421875 11.28125 
Q 10.40625 8.6875 15.234375 7.390625 
Q 20.0625 6.109375 24.8125 6.109375 
Q 31.15625 6.109375 34.5625 8.28125 
Q 37.984375 10.453125 37.984375 14.40625 
Q 37.984375 18.0625 35.515625 20.015625 
Q 33.0625 21.96875 24.703125 23.78125 
L 21.578125 24.515625 
Q 13.234375 26.265625 9.515625 29.90625 
Q 5.8125 33.546875 5.8125 39.890625 
Q 5.8125 47.609375 11.28125 51.796875 
Q 16.75 56 26.8125 56 
Q 31.78125 56 36.171875 55.265625 
Q 40.578125 54.546875 44.28125 53.078125 
z
" id="DejaVuSans-115"/>
      <path d="M 37.109375 75.984375 
L 37.109375 68.5 
L 28.515625 68.5 
Q 23.6875 68.5 21.796875 66.546875 
Q 19.921875 64.59375 19.921875 59.515625 
L 19.921875 54.6875 
L 34.71875 54.6875 
L 34.71875 47.703125 
L 19.921875 47.703125 
L 19.921875 0 
L 10.890625 0 
L 10.890625 47.703125 
L 2.296875 47.703125 
L 2.296875 54.6875 
L 10.890625 54.6875 
L 10.890625 58.5 
Q 10.890625 67.625 15.140625 71.796875 
Q 19.390625 75.984375 28.609375 75.984375 
z
" id="DejaVuSans-102"/>
      <path d="M 56.203125 29.59375 
L 56.203125 25.203125 
L 14.890625 25.203125 
Q 15.484375 15.921875 20.484375 11.0625 
Q 25.484375 6.203125 34.421875 6.203125 
Q 39.59375 6.203125 44.453125 7.46875 
Q 49.3125 8.734375 54.109375 11.28125 
L 54.109375 2.78125 
Q 49.265625 0.734375 44.1875 -0.34375 
Q 39.109375 -1.421875 33.890625 -1.421875 
Q 20.796875 -1.421875 13.15625 6.1875 
Q 5.515625 13.8125 5.515625 26.8125 
Q 5.515625 40.234375 12.765625 48.109375 
Q 20.015625 56 32.328125 56 
Q 43.359375 56 49.78125 48.890625 
Q 56.203125 41.796875 56.203125 29.59375 
z
M 47.21875 32.234375 
Q 47.125 39.59375 43.09375 43.984375 
Q 39.0625 48.390625 32.421875 48.390625 
Q 24.90625 48.390625 20.390625 44.140625 
Q 15.875 39.890625 15.1875 32.171875 
z
" id="DejaVuSans-101"/>
      <path id="DejaVuSans-32"/>
      <path d="M 30.609375 48.390625 
Q 23.390625 48.390625 19.1875 42.75 
Q 14.984375 37.109375 14.984375 27.296875 
Q 14.984375 17.484375 19.15625 11.84375 
Q 23.34375 6.203125 30.609375 6.203125 
Q 37.796875 6.203125 41.984375 11.859375 
Q 46.1875 17.53125 46.1875 27.296875 
Q 46.1875 37.015625 41.984375 42.703125 
Q 37.796875 48.390625 30.609375 48.390625 
z
M 30.609375 56 
Q 42.328125 56 49.015625 48.375 
Q 55.71875 40.765625 55.71875 27.296875 
Q 55.71875 13.875 49.015625 6.21875 
Q 42.328125 -1.421875 30.609375 -1.421875 
Q 18.84375 -1.421875 12.171875 6.21875 
Q 5.515625 13.875 5.515625 27.296875 
Q 5.515625 40.765625 12.171875 48.375 
Q 18.84375 56 30.609375 56 
z
" id="DejaVuSans-111"/>
      <path d="M 52 44.1875 
Q 55.375 50.25 60.0625 53.125 
Q 64.75 56 71.09375 56 
Q 79.640625 56 84.28125 50.015625 
Q 88.921875 44.046875 88.921875 33.015625 
L 88.921875 0 
L 79.890625 0 
L 79.890625 32.71875 
Q 79.890625 40.578125 77.09375 44.375 
Q 74.3125 48.1875 68.609375 48.1875 
Q 61.625 48.1875 57.5625 43.546875 
Q 53.515625 38.921875 53.515625 30.90625 
L 53.515625 0 
L 44.484375 0 
L 44.484375 32.71875 
Q 44.484375 40.625 41.703125 44.40625 
Q 38.921875 48.1875 33.109375 48.1875 
Q 26.21875 48.1875 22.15625 43.53125 
Q 18.109375 38.875 18.109375 30.90625 
L 18.109375 0 
L 9.078125 0 
L 9.078125 54.6875 
L 18.109375 54.6875 
L 18.109375 46.1875 
Q 21.1875 51.21875 25.484375 53.609375 
Q 29.78125 56 35.6875 56 
Q 41.65625 56 45.828125 52.96875 
Q 50 49.953125 52 44.1875 
z
" id="DejaVuSans-109"/>
      <path d="M 9.8125 72.90625 
L 24.515625 72.90625 
L 43.109375 23.296875 
L 61.8125 72.90625 
L 76.515625 72.90625 
L 76.515625 0 
L 66.890625 0 
L 66.890625 64.015625 
L 48.09375 14.015625 
L 38.1875 14.015625 
L 19.390625 64.015625 
L 19.390625 0 
L 9.8125 0 
z
" id="DejaVuSans-77"/>
      <path d="M 9.8125 72.90625 
L 51.703125 72.90625 
L 51.703125 64.59375 
L 19.671875 64.59375 
L 19.671875 43.109375 
L 48.578125 43.109375 
L 48.578125 34.8125 
L 19.671875 34.8125 
L 19.671875 0 
L 9.8125 0 
z
" id="DejaVuSans-70"/>
      <path d="M 18.3125 70.21875 
L 18.3125 54.6875 
L 36.8125 54.6875 
L 36.8125 47.703125 
L 18.3125 47.703125 
L 18.3125 18.015625 
Q 18.3125 11.328125 20.140625 9.421875 
Q 21.96875 7.515625 27.59375 7.515625 
L 36.8125 7.515625 
L 36.8125 0 
L 27.59375 0 
Q 17.1875 0 13.234375 3.875 
Q 9.28125 7.765625 9.28125 18.015625 
L 9.28125 47.703125 
L 2.6875 47.703125 
L 2.6875 54.6875 
L 9.28125 54.6875 
L 9.28125 70.21875 
z
" id="DejaVuSans-116"/>
      <path d="M 9.8125 72.90625 
L 19.671875 72.90625 
L 19.671875 43.015625 
L 55.515625 43.015625 
L 55.515625 72.90625 
L 65.375 72.90625 
L 65.375 0 
L 55.515625 0 
L 55.515625 34.71875 
L 19.671875 34.71875 
L 19.671875 0 
L 9.8125 0 
z
" id="DejaVuSans-72"/>
      <path d="M 53.515625 70.515625 
L 53.515625 60.890625 
Q 47.90625 63.578125 42.921875 64.890625 
Q 37.9375 66.21875 33.296875 66.21875 
Q 25.25 66.21875 20.875 63.09375 
Q 16.5 59.96875 16.5 54.203125 
Q 16.5 49.359375 19.40625 46.890625 
Q 22.3125 44.4375 30.421875 42.921875 
L 36.375 41.703125 
Q 47.40625 39.59375 52.65625 34.296875 
Q 57.90625 29 57.90625 20.125 
Q 57.90625 9.515625 50.796875 4.046875 
Q 43.703125 -1.421875 29.984375 -1.421875 
Q 24.8125 -1.421875 18.96875 -0.25 
Q 13.140625 0.921875 6.890625 3.21875 
L 6.890625 13.375 
Q 12.890625 10.015625 18.65625 8.296875 
Q 24.421875 6.59375 29.984375 6.59375 
Q 38.421875 6.59375 43.015625 9.90625 
Q 47.609375 13.234375 47.609375 19.390625 
Q 47.609375 24.75 44.3125 27.78125 
Q 41.015625 30.8125 33.5 32.328125 
L 27.484375 33.5 
Q 16.453125 35.6875 11.515625 40.375 
Q 6.59375 45.0625 6.59375 53.421875 
Q 6.59375 63.09375 13.40625 68.65625 
Q 20.21875 74.21875 32.171875 74.21875 
Q 37.3125 74.21875 42.625 73.28125 
Q 47.953125 72.359375 53.515625 70.515625 
z
" id="DejaVuSans-83"/>
      <path d="M 19.671875 64.796875 
L 19.671875 37.40625 
L 32.078125 37.40625 
Q 38.96875 37.40625 42.71875 40.96875 
Q 46.484375 44.53125 46.484375 51.125 
Q 46.484375 57.671875 42.71875 61.234375 
Q 38.96875 64.796875 32.078125 64.796875 
z
M 9.8125 72.90625 
L 32.078125 72.90625 
Q 44.34375 72.90625 50.609375 67.359375 
Q 56.890625 61.8125 56.890625 51.125 
Q 56.890625 40.328125 50.609375 34.8125 
Q 44.34375 29.296875 32.078125 29.296875 
L 19.671875 29.296875 
L 19.671875 0 
L 9.8125 0 
z
" id="DejaVuSans-80"/>
      <path d="M 31 75.875 
Q 24.46875 64.65625 21.28125 53.65625 
Q 18.109375 42.671875 18.109375 31.390625 
Q 18.109375 20.125 21.3125 9.0625 
Q 24.515625 -2 31 -13.1875 
L 23.1875 -13.1875 
Q 15.875 -1.703125 12.234375 9.375 
Q 8.59375 20.453125 8.59375 31.390625 
Q 8.59375 42.28125 12.203125 53.3125 
Q 15.828125 64.359375 23.1875 75.875 
z
" id="DejaVuSans-40"/>
      <path d="M 89.796875 33.015625 
L 83.40625 0 
L 74.421875 0 
L 80.71875 32.71875 
Q 81.109375 34.8125 81.296875 36.328125 
Q 81.5 37.84375 81.5 38.921875 
Q 81.5 43.3125 79.046875 45.75 
Q 76.609375 48.1875 72.21875 48.1875 
Q 65.671875 48.1875 60.546875 43.28125 
Q 55.421875 38.375 53.90625 30.515625 
L 47.90625 0 
L 38.921875 0 
L 45.3125 32.71875 
Q 45.703125 34.515625 45.890625 36.046875 
Q 46.09375 37.59375 46.09375 38.8125 
Q 46.09375 43.265625 43.65625 45.71875 
Q 41.21875 48.1875 36.921875 48.1875 
Q 30.28125 48.1875 25.140625 43.28125 
Q 20.015625 38.375 18.5 30.515625 
L 12.5 0 
L 3.515625 0 
L 14.203125 54.6875 
L 23.1875 54.6875 
L 21.484375 46.1875 
Q 25.140625 50.984375 30.046875 53.484375 
Q 34.96875 56 40.578125 56 
Q 46.53125 56 50.359375 52.875 
Q 54.203125 49.75 54.984375 44.1875 
Q 59.078125 49.953125 64.46875 52.96875 
Q 69.875 56 75.875 56 
Q 82.90625 56 86.734375 51.953125 
Q 90.578125 47.90625 90.578125 40.484375 
Q 90.578125 38.875 90.375 36.9375 
Q 90.1875 35.015625 89.796875 33.015625 
z
" id="DejaVuSans-Oblique-109"/>
      <path d="M 41.796875 8.203125 
Q 38.1875 3.46875 33.25 1.015625 
Q 28.328125 -1.421875 22.3125 -1.421875 
Q 14.109375 -1.421875 9.34375 4.171875 
Q 4.59375 9.765625 4.59375 19.484375 
Q 4.59375 27.59375 7.46875 34.9375 
Q 10.359375 42.28125 15.828125 48.09375 
Q 19.4375 51.953125 23.96875 53.96875 
Q 28.515625 56 33.5 56 
Q 38.765625 56 42.796875 53.453125 
Q 46.828125 50.921875 49.03125 46.1875 
L 54.890625 75.984375 
L 63.921875 75.984375 
L 49.125 0 
L 40.09375 0 
z
M 13.921875 21.09375 
Q 13.921875 14.015625 17.109375 10.0625 
Q 20.3125 6.109375 25.984375 6.109375 
Q 30.171875 6.109375 33.765625 8.125 
Q 37.359375 10.15625 40.09375 14.109375 
Q 42.96875 18.21875 44.625 23.578125 
Q 46.296875 28.953125 46.296875 34.1875 
Q 46.296875 40.96875 43.09375 44.765625 
Q 39.890625 48.578125 34.28125 48.578125 
Q 30.03125 48.578125 26.359375 46.578125 
Q 22.703125 44.578125 20.125 40.828125 
Q 17.28125 36.765625 15.59375 31.390625 
Q 13.921875 26.03125 13.921875 21.09375 
z
" id="DejaVuSans-Oblique-100"/>
      <path d="M 53.71875 31.203125 
L 47.609375 0 
L 38.625 0 
L 40.28125 8.296875 
Q 36.328125 3.421875 31.265625 1 
Q 26.21875 -1.421875 20.015625 -1.421875 
Q 13.03125 -1.421875 8.5625 2.84375 
Q 4.109375 7.125 4.109375 13.8125 
Q 4.109375 23.390625 11.75 28.953125 
Q 19.390625 34.515625 32.8125 34.515625 
L 45.3125 34.515625 
L 45.796875 36.921875 
Q 45.90625 37.3125 45.953125 37.765625 
Q 46 38.234375 46 39.203125 
Q 46 43.5625 42.453125 45.96875 
Q 38.921875 48.390625 32.515625 48.390625 
Q 28.125 48.390625 23.5 47.265625 
Q 18.890625 46.140625 14.015625 43.890625 
L 15.578125 52.203125 
Q 20.65625 54.109375 25.515625 55.046875 
Q 30.375 56 34.90625 56 
Q 44.578125 56 49.625 51.796875 
Q 54.6875 47.609375 54.6875 39.59375 
Q 54.6875 37.984375 54.4375 35.8125 
Q 54.203125 33.640625 53.71875 31.203125 
z
M 44 27.484375 
L 35.015625 27.484375 
Q 23.96875 27.484375 18.671875 24.53125 
Q 13.375 21.578125 13.375 15.375 
Q 13.375 11.078125 16.078125 8.640625 
Q 18.796875 6.203125 23.578125 6.203125 
Q 30.90625 6.203125 36.375 11.453125 
Q 41.84375 16.703125 43.609375 25.484375 
z
" id="DejaVuSans-Oblique-97"/>
      <path d="M 24.8125 -5.078125 
Q 18.5625 -15.578125 14.625 -18.1875 
Q 10.6875 -20.796875 4.59375 -20.796875 
L -2.484375 -20.796875 
L -0.984375 -13.28125 
L 4.203125 -13.28125 
Q 7.953125 -13.28125 10.59375 -11.234375 
Q 13.234375 -9.1875 16.5 -3.21875 
L 19.28125 2 
L 7.171875 54.6875 
L 16.703125 54.6875 
L 25.78125 12.796875 
L 50.875 54.6875 
L 60.296875 54.6875 
z
" id="DejaVuSans-Oblique-121"/>
      <path d="M 8.015625 75.875 
L 15.828125 75.875 
Q 23.140625 64.359375 26.78125 53.3125 
Q 30.421875 42.28125 30.421875 31.390625 
Q 30.421875 20.453125 26.78125 9.375 
Q 23.140625 -1.703125 15.828125 -13.1875 
L 8.015625 -13.1875 
Q 14.5 -2 17.703125 9.0625 
Q 20.90625 20.125 20.90625 31.390625 
Q 20.90625 42.671875 17.703125 53.65625 
Q 14.5 64.65625 8.015625 75.875 
z
" id="DejaVuSans-41"/>
     </defs>
     <g transform="translate(26.64625 369.04)rotate(-90)scale(0.13 -0.13)">
      <use transform="translate(0 0.765625)" xlink:href="#DejaVuSans-84"/>
      <use transform="translate(61.083984 0.765625)" xlink:href="#DejaVuSans-114"/>
      <use transform="translate(102.197266 0.765625)" xlink:href="#DejaVuSans-97"/>
      <use transform="translate(163.476562 0.765625)" xlink:href="#DejaVuSans-110"/>
      <use transform="translate(226.855469 0.765625)" xlink:href="#DejaVuSans-115"/>
      <use transform="translate(278.955078 0.765625)" xlink:href="#DejaVuSans-102"/>
      <use transform="translate(314.160156 0.765625)" xlink:href="#DejaVuSans-101"/>
      <use transform="translate(375.683594 0.765625)" xlink:href="#DejaVuSans-114"/>
      <use transform="translate(416.796875 0.765625)" xlink:href="#DejaVuSans-32"/>
      <use transform="translate(448.583984 0.765625)" xlink:href="#DejaVuSans-102"/>
      <use transform="translate(483.789062 0.765625)" xlink:href="#DejaVuSans-114"/>
      <use transform="translate(524.902344 0.765625)" xlink:href="#DejaVuSans-111"/>
      <use transform="translate(586.083984 0.765625)" xlink:href="#DejaVuSans-109"/>
      <use transform="translate(683.496094 0.765625)" xlink:href="#DejaVuSans-32"/>
      <use transform="translate(715.283203 0.765625)" xlink:href="#DejaVuSans-77"/>
      <use transform="translate(801.5625 0.765625)" xlink:href="#DejaVuSans-70"/>
      <use transform="translate(859.082031 0.765625)" xlink:href="#DejaVuSans-54"/>
      <use transform="translate(922.705078 0.765625)" xlink:href="#DejaVuSans-32"/>
      <use transform="translate(954.492188 0.765625)" xlink:href="#DejaVuSans-116"/>
      <use transform="translate(993.701172 0.765625)" xlink:href="#DejaVuSans-111"/>
      <use transform="translate(1054.882812 0.765625)" xlink:href="#DejaVuSans-32"/>
      <use transform="translate(1086.669922 0.765625)" xlink:href="#DejaVuSans-72"/>
      <use transform="translate(1161.865234 0.765625)" xlink:href="#DejaVuSans-83"/>
      <use transform="translate(1225.341797 0.765625)" xlink:href="#DejaVuSans-80"/>
      <use transform="translate(1285.644531 0.765625)" xlink:href="#DejaVuSans-70"/>
      <use transform="translate(1343.164062 0.765625)" xlink:href="#DejaVuSans-32"/>
      <use transform="translate(1374.951172 0.765625)" xlink:href="#DejaVuSans-40"/>
      <use transform="translate(1413.964844 0.765625)" xlink:href="#DejaVuSans-Oblique-109"/>
      <use transform="translate(1516.026849 39.046875)scale(0.7)" xlink:href="#DejaVuSans-51"/>
      <use transform="translate(1563.297357 0.765625)" xlink:href="#DejaVuSans-47"/>
      <use transform="translate(1596.988763 0.765625)" xlink:href="#DejaVuSans-Oblique-100"/>
      <use transform="translate(1660.465326 0.765625)" xlink:href="#DejaVuSans-Oblique-97"/>
      <use transform="translate(1721.744622 0.765625)" xlink:href="#DejaVuSans-Oblique-121"/>
      <use transform="translate(1780.92431 0.765625)" xlink:href="#DejaVuSans-41"/>
     </g>
    </g>
   </g>
   <g id="line2d_24">
    <path clip-path="url(#pefb1da7c59)" d="M 90 113.039515 
L 93.361446 119.100875 
L 94.278204 120.79925 
L 94.889376 121.291019 
L 96.11172 122.917767 
L 97.63965 125.146986 
L 100.389923 129.558126 
L 103.140197 134.245391 
L 106.196057 139.585865 
L 107.418401 141.008693 
L 107.723987 140.924021 
L 108.335159 141.75071 
L 111.696605 145.582252 
L 114.446878 149.148923 
L 114.752464 148.651849 
L 115.05805 146.500779 
L 115.363636 146.989633 
L 115.974808 146.383436 
L 116.58598 145.816614 
L 117.502738 145.454178 
L 118.419496 145.624794 
L 119.336254 145.857976 
L 120.558598 146.342645 
L 122.392114 147.16832 
L 122.6977 146.570158 
L 123.003286 147.070989 
L 123.920044 147.287828 
L 125.142388 147.812489 
L 126.975904 148.99563 
L 132.170865 153.094059 
L 134.004381 154.601165 
L 134.615553 154.978254 
L 135.226725 155.282134 
L 137.060241 156.514277 
L 142.255203 160.97635 
L 144.394304 162.921321 
L 148.978094 167.076599 
L 152.950712 170.983579 
L 160.895947 178.900393 
L 164.868565 182.941591 
L 166.702081 185.000737 
L 168.535597 187.203015 
L 172.202629 191.948813 
L 177.39759 199.097272 
L 186.56517 211.735863 
L 191.148959 217.436423 
L 193.288061 219.90244 
L 197.871851 225.370827 
L 198.177437 225.244618 
L 198.483023 224.614296 
L 199.399781 224.892827 
L 199.705367 224.225842 
L 200.010953 224.675931 
L 200.622125 224.637336 
L 201.844469 224.846451 
L 203.372399 225.381862 
L 205.511501 226.439061 
L 208.261774 228.068247 
L 210.400876 229.659268 
L 211.317634 230.374493 
L 211.62322 230.191149 
L 211.928806 230.673801 
L 213.762322 231.972192 
L 215.901424 233.740402 
L 217.429354 234.841608 
L 219.568456 236.721206 
L 228.124863 245.046251 
L 228.430449 245.114206 
L 232.403067 248.451125 
L 232.708653 248.536523 
L 233.319825 249.169775 
L 239.73713 254.427277 
L 240.042716 254.690692 
L 240.348302 254.567696 
L 240.653888 254.008943 
L 240.959474 254.375374 
L 242.487404 254.605465 
L 243.709748 255.009967 
L 246.765608 256.448304 
L 250.127054 258.448764 
L 257.461117 263.338561 
L 259.600219 264.469295 
L 267.239869 268.999113 
L 272.740416 272.806174 
L 276.713034 275.755109 
L 278.852136 277.267001 
L 281.60241 279.337962 
L 281.907996 279.369158 
L 282.213582 279.245391 
L 282.519168 279.503469 
L 284.047097 280.149782 
L 286.186199 281.438223 
L 290.158817 284.026634 
L 291.075575 284.515307 
L 294.437021 286.645801 
L 297.187295 288.63514 
L 297.492881 288.561956 
L 297.798467 287.289621 
L 298.104053 286.806532 
L 298.409639 286.817967 
L 298.715225 286.700595 
L 299.326396 285.379896 
L 299.631982 285.430068 
L 300.854326 284.27869 
L 302.07667 283.528571 
L 302.687842 283.284667 
L 302.993428 282.446943 
L 303.299014 282.784598 
L 303.6046 281.939253 
L 303.910186 282.087409 
L 304.826944 281.481288 
L 305.743702 281.090789 
L 310.021906 280.102274 
L 311.855422 280.057807 
L 312.161008 279.934003 
L 312.77218 279.971394 
L 313.994524 280.013737 
L 317.050383 280.591052 
L 319.800657 281.676742 
L 322.856517 283.209876 
L 325.606791 284.829512 
L 326.829135 285.668521 
L 327.745893 286.118248 
L 328.662651 286.597528 
L 331.107338 288.154734 
L 332.940854 289.525414 
L 338.135816 293.942519 
L 343.330778 298.533578 
L 344.247536 299.173661 
L 347.914567 301.944084 
L 348.220153 301.501929 
L 348.525739 300.032399 
L 348.831325 300.414546 
L 350.053669 299.613142 
L 350.359255 298.093326 
L 350.664841 299.050629 
L 353.720701 298.293613 
L 356.470975 298.273854 
L 357.998905 298.450216 
L 358.610077 298.51968 
L 358.915663 298.106521 
L 359.221249 298.426386 
L 360.749179 298.483121 
L 362.88828 298.901884 
L 363.193866 298.998736 
L 363.499452 298.641684 
L 363.805038 298.96719 
L 365.027382 299.174193 
L 366.249726 299.521113 
L 367.47207 299.987812 
L 367.777656 299.738562 
L 368.388828 300.072373 
L 370.222344 300.576647 
L 371.444688 301.050509 
L 375.11172 302.894423 
L 382.140197 307.053554 
L 386.112815 309.617118 
L 387.946331 310.732393 
L 389.779847 311.820716 
L 390.391019 311.658694 
L 390.696605 311.260251 
L 392.835706 310.935591 
L 393.141292 310.702176 
L 393.446878 310.863539 
L 394.669222 310.905739 
L 396.197152 311.158518 
L 398.030668 311.731144 
L 400.16977 312.636211 
L 401.086528 313.004859 
L 401.6977 313.264288 
L 402.308872 312.54797 
L 402.614458 312.624434 
L 403.836802 312.452286 
L 405.975904 312.693669 
L 407.809419 313.227777 
L 409.948521 314.198683 
L 411.170865 314.847898 
L 413.921139 315.879221 
L 415.754655 316.988656 
L 416.060241 316.90335 
L 416.365827 316.956845 
L 417.282585 317.348447 
L 418.810515 318.0811 
L 420.949617 319.427123 
L 423.394304 321.086727 
L 423.69989 320.324163 
L 425.22782 320.160537 
L 426.450164 320.409198 
L 427.978094 321.048528 
L 429.81161 322.085588 
L 432.86747 324.21217 
L 436.228916 326.851392 
L 437.756846 328.112235 
L 438.062432 328.233181 
L 438.368018 327.991173 
L 438.673604 328.330191 
L 438.979189 328.445555 
L 439.284775 328.255092 
L 439.590361 328.591412 
L 439.895947 328.685964 
L 440.201533 326.841755 
L 440.507119 327.772307 
L 441.118291 327.31339 
L 441.423877 327.593872 
L 442.951807 327.318789 
L 443.868565 327.389285 
L 444.174151 327.409691 
L 444.479737 327.200366 
L 444.785323 327.489647 
L 446.313253 327.846261 
L 447.230011 328.115755 
L 447.535597 328.134723 
L 448.452355 328.515272 
L 450.591457 329.434885 
L 450.897043 329.585903 
L 451.202629 329.391618 
L 451.508215 326.876744 
L 451.813801 327.127321 
L 452.119387 326.996617 
L 453.036145 325.9636 
L 453.952903 325.290755 
L 455.175246 324.842969 
L 456.39759 324.630724 
L 457.314348 324.6312 
L 458.842278 324.861234 
L 460.98138 325.514758 
L 462.814896 326.338308 
L 463.426068 326.537659 
L 464.953998 327.185203 
L 465.259584 327.143229 
L 468.315444 328.290347 
L 471.371303 329.880683 
L 472.288061 330.354349 
L 472.593647 330.402095 
L 472.899233 329.582869 
L 473.204819 329.858223 
L 474.121577 329.638976 
L 475.038335 329.642135 
L 475.955093 329.749584 
L 477.788609 330.254896 
L 480.233297 331.305939 
L 482.983571 332.774328 
L 491.234392 337.515113 
L 494.595838 339.553333 
L 496.429354 340.277612 
L 497.651698 340.916866 
L 502.235487 343.829328 
L 508.652793 348.48968 
L 508.958379 348.511556 
L 514.764513 351.7833 
L 523.932092 358.169548 
L 524.237678 358.157628 
L 524.84885 358.600325 
L 526.071194 359.300777 
L 526.37678 359.217531 
L 526.682366 359.293452 
L 526.987952 357.838857 
L 527.293538 358.291459 
L 527.599124 358.328758 
L 527.90471 358.202611 
L 528.210296 357.780083 
L 528.515882 357.843975 
L 529.43264 357.637942 
L 530.349398 357.626869 
L 531.571742 357.855904 
L 532.488499 358.129593 
L 534.627601 359.091862 
L 543.489595 363.500757 
L 544.711939 363.923001 
L 548.073384 365.520747 
L 548.37897 365.203812 
L 549.295728 365.165437 
L 550.823658 365.466361 
L 552.046002 365.898413 
L 556.935378 368.170508 
L 559.991238 369.99356 
L 562.741512 371.64985 
L 563.047097 371.671821 
L 563.352683 370.786916 
L 563.658269 368.846054 
L 563.963855 368.876487 
L 564.269441 368.738985 
L 564.880613 367.954315 
L 565.186199 367.578114 
L 565.491785 366.800217 
L 565.797371 366.829584 
L 566.714129 366.0237 
L 567.019715 365.795597 
L 567.325301 365.272857 
L 567.630887 365.392036 
L 569.158817 364.56569 
L 570.992333 363.899361 
L 573.131435 363.376308 
L 575.881709 363.141261 
L 577.409639 363.147083 
L 579.243154 363.284897 
L 581.382256 363.522351 
L 584.13253 364.070538 
L 584.743702 364.193094 
L 585.66046 364.052815 
L 588.105148 364.084313 
L 589.633078 364.26017 
L 591.77218 364.539025 
L 594.216867 364.938637 
L 600.328587 366.357083 
L 606.440307 368.908241 
L 607.968237 369.656978 
L 608.579409 369.734026 
L 610.107338 370.222452 
L 611.940854 371.001348 
L 615.913472 373.095664 
L 619.580504 375.347886 
L 622.94195 377.567611 
L 629.970427 382.352935 
L 630.581599 382.471677 
L 633.026287 383.643516 
L 635.470975 384.876884 
L 636.998905 385.462545 
L 639.138007 386.526669 
L 642.805038 388.664592 
L 645.860898 390.593581 
L 648 391.954092 
L 648 391.954092 
" style="fill:none;stroke:#03719c;stroke-linecap:square;stroke-opacity:0.9;stroke-width:4;"/>
   </g>
   <g id="line2d_25">
    <path clip-path="url(#pefb1da7c59)" d="M 90 112.474189 
L 94.58379 120.807457 
L 95.194962 121.294469 
L 96.417306 122.907515 
L 98.250821 125.60649 
L 101.001095 130.056468 
L 107.418401 140.867855 
L 107.723987 141.012348 
L 108.029573 140.92721 
L 108.640745 141.749579 
L 111.391019 144.849354 
L 112.613363 146.349868 
L 114.752464 149.141859 
L 115.05805 148.648223 
L 115.363636 146.502239 
L 115.669222 146.985759 
L 116.280394 146.390065 
L 116.891566 145.812007 
L 117.808324 145.462952 
L 118.419496 145.574768 
L 119.336254 145.75695 
L 120.864184 146.350853 
L 122.6977 147.167314 
L 123.003286 146.564995 
L 123.308872 147.067315 
L 124.22563 147.294528 
L 125.447974 147.823257 
L 126.975904 148.780002 
L 130.642935 151.542897 
L 134.921139 154.974628 
L 135.532311 155.282501 
L 137.060241 156.29117 
L 140.116101 158.735896 
L 142.255203 160.679377 
L 144.69989 162.931984 
L 147.144578 165.076267 
L 151.422782 169.159554 
L 161.507119 179.223236 
L 167.924425 186.079803 
L 170.674699 189.531497 
L 175.564074 196.157002 
L 190.537788 216.594477 
L 191.148959 217.114343 
L 193.288061 219.529885 
L 198.177437 225.363459 
L 198.483023 225.245556 
L 198.788609 224.612888 
L 199.705367 224.892204 
L 200.010953 224.230978 
L 200.316539 224.670094 
L 201.233297 224.661321 
L 202.455641 224.931863 
L 203.983571 225.511711 
L 206.428258 226.679823 
L 207.03943 227.093245 
L 208.56736 228.052765 
L 211.012048 229.915943 
L 211.62322 230.375381 
L 211.928806 230.195258 
L 212.234392 230.673407 
L 213.762322 231.733642 
L 219.568456 236.439659 
L 223.541073 240.263505 
L 228.430449 245.053407 
L 228.736035 245.111508 
L 240.348302 254.688894 
L 240.653888 254.572602 
L 240.959474 254.009047 
L 241.26506 254.370725 
L 242.79299 254.605457 
L 244.32092 255.133023 
L 246.765608 256.282245 
L 249.210296 257.68115 
L 252.571742 259.873597 
L 257.766703 263.328335 
L 265.100767 267.468022 
L 269.684556 270.400208 
L 273.657174 273.263997 
L 277.935378 276.384183 
L 280.685652 278.417366 
L 281.907996 279.335168 
L 282.213582 279.367665 
L 282.519168 279.241615 
L 283.13034 279.60947 
L 284.658269 280.317696 
L 286.491785 281.442567 
L 291.381161 284.517723 
L 294.742607 286.653501 
L 297.492881 288.636641 
L 297.798467 288.553831 
L 298.104053 287.291629 
L 298.409639 286.801037 
L 298.715225 286.812496 
L 299.020811 286.703993 
L 299.631982 285.381004 
L 299.937568 285.431944 
L 301.159912 284.274038 
L 302.382256 283.523825 
L 302.993428 283.283453 
L 303.299014 282.45043 
L 303.6046 282.783192 
L 303.910186 281.941486 
L 304.215772 282.086157 
L 305.13253 281.476945 
L 306.354874 281.009897 
L 307.577218 280.754037 
L 307.882804 280.720197 
L 308.18839 280.438017 
L 308.493976 280.506771 
L 308.799562 280.333631 
L 309.71632 280.208208 
L 310.021906 280.023699 
L 310.633078 280.09863 
L 311.549836 280.126562 
L 311.855422 280.165415 
L 312.466594 279.943216 
L 313.077766 279.968552 
L 313.994524 279.979474 
L 316.744797 280.415635 
L 318.578313 281.019118 
L 320.717415 281.973177 
L 324.995619 284.220592 
L 328.662651 286.441329 
L 329.884995 287.144452 
L 332.635268 289.042096 
L 335.691128 291.543401 
L 341.191676 296.366427 
L 343.94195 298.722434 
L 344.553122 299.170055 
L 348.220153 301.948707 
L 348.525739 301.488463 
L 348.831325 300.031546 
L 349.136911 300.417843 
L 350.359255 299.608813 
L 350.664841 298.101047 
L 350.970427 299.050899 
L 354.026287 298.302656 
L 355.859803 298.23032 
L 357.998905 298.406683 
L 358.915663 298.518498 
L 359.221249 298.096034 
L 359.526835 298.426557 
L 361.054765 298.491014 
L 362.582694 298.738549 
L 363.499452 298.998795 
L 363.805038 298.640788 
L 364.110624 298.957525 
L 365.638554 299.239078 
L 367.47207 299.858944 
L 367.777656 299.984278 
L 368.083242 299.740772 
L 368.694414 300.074787 
L 370.222344 300.470125 
L 372.05586 301.183723 
L 374.500548 302.387107 
L 379.695509 305.332541 
L 383.362541 307.66402 
L 386.418401 309.611976 
L 388.557503 310.932279 
L 389.779847 311.76745 
L 390.391019 311.767987 
L 390.696605 311.657066 
L 391.002191 311.258147 
L 393.141292 310.940336 
L 393.446878 310.697725 
L 393.752464 310.861734 
L 394.974808 310.901661 
L 396.502738 311.156716 
L 398.336254 311.724299 
L 400.475356 312.641832 
L 401.392114 312.996706 
L 402.003286 313.261608 
L 402.614458 312.546489 
L 402.920044 312.623122 
L 404.142388 312.460994 
L 405.670318 312.569497 
L 407.198248 312.921416 
L 408.726177 313.481032 
L 410.254107 314.212713 
L 411.782037 314.957017 
L 412.087623 314.941888 
L 414.532311 316.052614 
L 416.060241 316.984292 
L 416.671413 316.954033 
L 417.893757 317.46826 
L 419.421687 318.259385 
L 421.255203 319.429018 
L 423.69989 321.094795 
L 424.005476 320.325872 
L 425.533406 320.162938 
L 426.75575 320.4145 
L 427.978094 320.903392 
L 429.81161 321.892455 
L 431.950712 323.334332 
L 435.617744 326.103135 
L 438.368018 328.237034 
L 438.673604 327.996393 
L 438.979189 328.334167 
L 439.284775 328.449295 
L 439.590361 328.255923 
L 439.895947 328.591102 
L 440.201533 328.694144 
L 440.507119 326.838666 
L 440.812705 327.774104 
L 441.423877 327.318247 
L 441.729463 327.601412 
L 443.257393 327.324961 
L 444.479737 327.416007 
L 444.785323 327.196673 
L 445.090909 327.487089 
L 446.618839 327.841874 
L 449.674699 328.876057 
L 451.202629 329.584372 
L 451.508215 329.386345 
L 451.813801 326.877072 
L 452.119387 327.128724 
L 452.424973 326.989693 
L 453.341731 325.960344 
L 454.258488 325.304311 
L 455.175246 324.922311 
L 456.39759 324.657051 
L 457.619934 324.624375 
L 459.147864 324.867702 
L 460.98138 325.397864 
L 462.814896 326.181737 
L 463.731654 326.537775 
L 465.259584 327.183692 
L 465.56517 327.131679 
L 469.537788 328.736131 
L 472.899233 330.398684 
L 473.204819 329.586521 
L 473.510405 329.848111 
L 474.427163 329.63746 
L 475.649507 329.65447 
L 477.177437 329.981591 
L 479.010953 330.596801 
L 481.150055 331.605112 
L 484.205915 333.301685 
L 486.345016 334.549115 
L 486.650602 334.613841 
L 487.56736 335.140153 
L 490.62322 336.932069 
L 494.290252 339.374378 
L 494.595838 339.589326 
L 494.901424 339.548234 
L 496.429354 340.141959 
L 497.957284 340.916969 
L 500.707558 342.590803 
L 504.069003 344.902138 
L 508.958379 348.482031 
L 509.569551 348.672538 
L 511.403067 349.666257 
L 513.542169 350.872147 
L 515.070099 351.792814 
L 518.431544 354.107551 
L 523.932092 357.973115 
L 524.237678 358.170606 
L 524.543264 358.156819 
L 525.154436 358.600232 
L 526.37678 359.306757 
L 526.682366 359.219292 
L 526.987952 359.289748 
L 527.293538 357.840262 
L 527.599124 358.299431 
L 527.90471 358.331302 
L 528.210296 358.199701 
L 528.515882 357.781355 
L 528.821468 357.841604 
L 529.738226 357.62791 
L 530.654984 357.624777 
L 531.877327 357.847603 
L 533.405257 358.366306 
L 536.155531 359.659124 
L 543.795181 363.502576 
L 545.017525 363.921639 
L 548.073384 365.350176 
L 548.37897 365.515617 
L 548.684556 365.200402 
L 549.601314 365.158147 
L 550.823658 365.38142 
L 552.046002 365.77461 
L 555.713034 367.349162 
L 558.768894 369.055134 
L 562.435926 371.35698 
L 563.047097 371.645695 
L 563.352683 371.670225 
L 563.658269 370.785995 
L 563.963855 368.8452 
L 564.269441 368.868208 
L 564.575027 368.740009 
L 565.491785 367.582103 
L 565.797371 366.807898 
L 566.102957 366.823744 
L 567.019715 366.015341 
L 567.325301 365.795111 
L 567.630887 365.254922 
L 567.936473 365.39082 
L 569.769989 364.432464 
L 571.603505 363.804183 
L 573.742607 363.334271 
L 575.881709 363.137497 
L 578.326396 363.171068 
L 581.382256 363.477151 
L 584.13253 363.999525 
L 585.049288 364.192987 
L 585.966046 364.059775 
L 587.799562 364.091556 
L 591.466594 364.442759 
L 595.133625 365.052061 
L 599.411829 365.986604 
L 601.856517 366.79626 
L 604.912377 368.060431 
L 608.579409 369.662735 
L 609.801752 370.000868 
L 611.940854 370.855107 
L 614.996714 372.403428 
L 618.052574 374.193732 
L 623.247536 377.563512 
L 630.581599 382.390745 
L 631.498357 382.736129 
L 633.637459 383.805496 
L 635.776561 384.872355 
L 637.304491 385.451935 
L 639.443593 386.527299 
L 643.41621 388.861553 
L 648 391.760883 
L 648 391.760883 
" style="fill:none;stroke:#e17701;stroke-linecap:square;stroke-width:1.3;"/>
   </g>
   <g id="patch_3">
    <path d="M 90 441 
L 90 60.48 
" style="fill:none;stroke:#000000;stroke-linecap:square;stroke-linejoin:miter;stroke-width:0.8;"/>
   </g>
   <g id="patch_4">
    <path d="M 648 441 
L 648 60.48 
" style="fill:none;stroke:#000000;stroke-linecap:square;stroke-linejoin:miter;stroke-width:0.8;"/>
   </g>
   <g id="patch_5">
    <path d="M 90 441 
L 648 441 
" style="fill:none;stroke:#000000;stroke-linecap:square;stroke-linejoin:miter;stroke-width:0.8;"/>
   </g>
   <g id="patch_6">
    <path d="M 90 60.48 
L 648 60.48 
" style="fill:none;stroke:#000000;stroke-linecap:square;stroke-linejoin:miter;stroke-width:0.8;"/>
   </g>
   <g id="legend_1">
    <g id="patch_7">
     <path d="M 363.9675 105.3075 
L 639.6 105.3075 
Q 642 105.3075 642 102.9075 
L 642 68.88 
Q 642 66.48 639.6 66.48 
L 363.9675 66.48 
Q 361.5675 66.48 361.5675 68.88 
L 361.5675 102.9075 
Q 361.5675 105.3075 363.9675 105.3075 
z
" style="fill:#ffffff;opacity:0.8;stroke:#cccccc;stroke-linejoin:miter;"/>
    </g>
    <g id="line2d_26">
     <path d="M 366.3675 76.198125 
L 390.3675 76.198125 
" style="fill:none;stroke:#03719c;stroke-linecap:square;stroke-opacity:0.9;stroke-width:4;"/>
    </g>
    <g id="line2d_27"/>
    <g id="text_16">
     <!-- MF6 Total Surface Discharge -->
     <defs>
      <path d="M 9.421875 75.984375 
L 18.40625 75.984375 
L 18.40625 0 
L 9.421875 0 
z
" id="DejaVuSans-108"/>
      <path d="M 8.5 21.578125 
L 8.5 54.6875 
L 17.484375 54.6875 
L 17.484375 21.921875 
Q 17.484375 14.15625 20.5 10.265625 
Q 23.53125 6.390625 29.59375 6.390625 
Q 36.859375 6.390625 41.078125 11.03125 
Q 45.3125 15.671875 45.3125 23.6875 
L 45.3125 54.6875 
L 54.296875 54.6875 
L 54.296875 0 
L 45.3125 0 
L 45.3125 8.40625 
Q 42.046875 3.421875 37.71875 1 
Q 33.40625 -1.421875 27.6875 -1.421875 
Q 18.265625 -1.421875 13.375 4.4375 
Q 8.5 10.296875 8.5 21.578125 
z
M 31.109375 56 
z
" id="DejaVuSans-117"/>
      <path d="M 48.78125 52.59375 
L 48.78125 44.1875 
Q 44.96875 46.296875 41.140625 47.34375 
Q 37.3125 48.390625 33.40625 48.390625 
Q 24.65625 48.390625 19.8125 42.84375 
Q 14.984375 37.3125 14.984375 27.296875 
Q 14.984375 17.28125 19.8125 11.734375 
Q 24.65625 6.203125 33.40625 6.203125 
Q 37.3125 6.203125 41.140625 7.25 
Q 44.96875 8.296875 48.78125 10.40625 
L 48.78125 2.09375 
Q 45.015625 0.34375 40.984375 -0.53125 
Q 36.96875 -1.421875 32.421875 -1.421875 
Q 20.0625 -1.421875 12.78125 6.34375 
Q 5.515625 14.109375 5.515625 27.296875 
Q 5.515625 40.671875 12.859375 48.328125 
Q 20.21875 56 33.015625 56 
Q 37.15625 56 41.109375 55.140625 
Q 45.0625 54.296875 48.78125 52.59375 
z
" id="DejaVuSans-99"/>
      <path d="M 19.671875 64.796875 
L 19.671875 8.109375 
L 31.59375 8.109375 
Q 46.6875 8.109375 53.6875 14.9375 
Q 60.6875 21.78125 60.6875 36.53125 
Q 60.6875 51.171875 53.6875 57.984375 
Q 46.6875 64.796875 31.59375 64.796875 
z
M 9.8125 72.90625 
L 30.078125 72.90625 
Q 51.265625 72.90625 61.171875 64.09375 
Q 71.09375 55.28125 71.09375 36.53125 
Q 71.09375 17.671875 61.125 8.828125 
Q 51.171875 0 30.078125 0 
L 9.8125 0 
z
" id="DejaVuSans-68"/>
      <path d="M 9.421875 54.6875 
L 18.40625 54.6875 
L 18.40625 0 
L 9.421875 0 
z
M 9.421875 75.984375 
L 18.40625 75.984375 
L 18.40625 64.59375 
L 9.421875 64.59375 
z
" id="DejaVuSans-105"/>
      <path d="M 54.890625 33.015625 
L 54.890625 0 
L 45.90625 0 
L 45.90625 32.71875 
Q 45.90625 40.484375 42.875 44.328125 
Q 39.84375 48.1875 33.796875 48.1875 
Q 26.515625 48.1875 22.3125 43.546875 
Q 18.109375 38.921875 18.109375 30.90625 
L 18.109375 0 
L 9.078125 0 
L 9.078125 75.984375 
L 18.109375 75.984375 
L 18.109375 46.1875 
Q 21.34375 51.125 25.703125 53.5625 
Q 30.078125 56 35.796875 56 
Q 45.21875 56 50.046875 50.171875 
Q 54.890625 44.34375 54.890625 33.015625 
z
" id="DejaVuSans-104"/>
      <path d="M 45.40625 27.984375 
Q 45.40625 37.75 41.375 43.109375 
Q 37.359375 48.484375 30.078125 48.484375 
Q 22.859375 48.484375 18.828125 43.109375 
Q 14.796875 37.75 14.796875 27.984375 
Q 14.796875 18.265625 18.828125 12.890625 
Q 22.859375 7.515625 30.078125 7.515625 
Q 37.359375 7.515625 41.375 12.890625 
Q 45.40625 18.265625 45.40625 27.984375 
z
M 54.390625 6.78125 
Q 54.390625 -7.171875 48.1875 -13.984375 
Q 42 -20.796875 29.203125 -20.796875 
Q 24.46875 -20.796875 20.265625 -20.09375 
Q 16.0625 -19.390625 12.109375 -17.921875 
L 12.109375 -9.1875 
Q 16.0625 -11.328125 19.921875 -12.34375 
Q 23.78125 -13.375 27.78125 -13.375 
Q 36.625 -13.375 41.015625 -8.765625 
Q 45.40625 -4.15625 45.40625 5.171875 
L 45.40625 9.625 
Q 42.625 4.78125 38.28125 2.390625 
Q 33.9375 0 27.875 0 
Q 17.828125 0 11.671875 7.65625 
Q 5.515625 15.328125 5.515625 27.984375 
Q 5.515625 40.671875 11.671875 48.328125 
Q 17.828125 56 27.875 56 
Q 33.9375 56 38.28125 53.609375 
Q 42.625 51.21875 45.40625 46.390625 
L 45.40625 54.6875 
L 54.390625 54.6875 
z
" id="DejaVuSans-103"/>
     </defs>
     <g transform="translate(399.9675 80.398125)scale(0.12 -0.12)">
      <use xlink:href="#DejaVuSans-77"/>
      <use x="86.279297" xlink:href="#DejaVuSans-70"/>
      <use x="143.798828" xlink:href="#DejaVuSans-54"/>
      <use x="207.421875" xlink:href="#DejaVuSans-32"/>
      <use x="239.208984" xlink:href="#DejaVuSans-84"/>
      <use x="300.027344" xlink:href="#DejaVuSans-111"/>
      <use x="361.208984" xlink:href="#DejaVuSans-116"/>
      <use x="400.417969" xlink:href="#DejaVuSans-97"/>
      <use x="461.697266" xlink:href="#DejaVuSans-108"/>
      <use x="489.480469" xlink:href="#DejaVuSans-32"/>
      <use x="521.267578" xlink:href="#DejaVuSans-83"/>
      <use x="584.744141" xlink:href="#DejaVuSans-117"/>
      <use x="648.123047" xlink:href="#DejaVuSans-114"/>
      <use x="689.236328" xlink:href="#DejaVuSans-102"/>
      <use x="724.441406" xlink:href="#DejaVuSans-97"/>
      <use x="785.720703" xlink:href="#DejaVuSans-99"/>
      <use x="840.701172" xlink:href="#DejaVuSans-101"/>
      <use x="902.224609" xlink:href="#DejaVuSans-32"/>
      <use x="934.011719" xlink:href="#DejaVuSans-68"/>
      <use x="1011.013672" xlink:href="#DejaVuSans-105"/>
      <use x="1038.796875" xlink:href="#DejaVuSans-115"/>
      <use x="1090.896484" xlink:href="#DejaVuSans-99"/>
      <use x="1145.876953" xlink:href="#DejaVuSans-104"/>
      <use x="1209.255859" xlink:href="#DejaVuSans-97"/>
      <use x="1270.535156" xlink:href="#DejaVuSans-114"/>
      <use x="1311.632812" xlink:href="#DejaVuSans-103"/>
      <use x="1375.109375" xlink:href="#DejaVuSans-101"/>
     </g>
    </g>
    <g id="line2d_28">
     <path d="M 366.3675 93.811875 
L 390.3675 93.811875 
" style="fill:none;stroke:#e17701;stroke-linecap:square;stroke-width:1.3;"/>
    </g>
    <g id="line2d_29"/>
    <g id="text_17">
     <!-- HSPF Total Surface Discharge Received -->
     <defs>
      <path d="M 44.390625 34.1875 
Q 47.5625 33.109375 50.5625 29.59375 
Q 53.5625 26.078125 56.59375 19.921875 
L 66.609375 0 
L 56 0 
L 46.6875 18.703125 
Q 43.0625 26.03125 39.671875 28.421875 
Q 36.28125 30.8125 30.421875 30.8125 
L 19.671875 30.8125 
L 19.671875 0 
L 9.8125 0 
L 9.8125 72.90625 
L 32.078125 72.90625 
Q 44.578125 72.90625 50.734375 67.671875 
Q 56.890625 62.453125 56.890625 51.90625 
Q 56.890625 45.015625 53.6875 40.46875 
Q 50.484375 35.9375 44.390625 34.1875 
z
M 19.671875 64.796875 
L 19.671875 38.921875 
L 32.078125 38.921875 
Q 39.203125 38.921875 42.84375 42.21875 
Q 46.484375 45.515625 46.484375 51.90625 
Q 46.484375 58.296875 42.84375 61.546875 
Q 39.203125 64.796875 32.078125 64.796875 
z
" id="DejaVuSans-82"/>
      <path d="M 2.984375 54.6875 
L 12.5 54.6875 
L 29.59375 8.796875 
L 46.6875 54.6875 
L 56.203125 54.6875 
L 35.6875 0 
L 23.484375 0 
z
" id="DejaVuSans-118"/>
      <path d="M 45.40625 46.390625 
L 45.40625 75.984375 
L 54.390625 75.984375 
L 54.390625 0 
L 45.40625 0 
L 45.40625 8.203125 
Q 42.578125 3.328125 38.25 0.953125 
Q 33.9375 -1.421875 27.875 -1.421875 
Q 17.96875 -1.421875 11.734375 6.484375 
Q 5.515625 14.40625 5.515625 27.296875 
Q 5.515625 40.1875 11.734375 48.09375 
Q 17.96875 56 27.875 56 
Q 33.9375 56 38.25 53.625 
Q 42.578125 51.265625 45.40625 46.390625 
z
M 14.796875 27.296875 
Q 14.796875 17.390625 18.875 11.75 
Q 22.953125 6.109375 30.078125 6.109375 
Q 37.203125 6.109375 41.296875 11.75 
Q 45.40625 17.390625 45.40625 27.296875 
Q 45.40625 37.203125 41.296875 42.84375 
Q 37.203125 48.484375 30.078125 48.484375 
Q 22.953125 48.484375 18.875 42.84375 
Q 14.796875 37.203125 14.796875 27.296875 
z
" id="DejaVuSans-100"/>
     </defs>
     <g transform="translate(399.9675 98.011875)scale(0.12 -0.12)">
      <use xlink:href="#DejaVuSans-72"/>
      <use x="75.195312" xlink:href="#DejaVuSans-83"/>
      <use x="138.671875" xlink:href="#DejaVuSans-80"/>
      <use x="198.974609" xlink:href="#DejaVuSans-70"/>
      <use x="256.494141" xlink:href="#DejaVuSans-32"/>
      <use x="288.28125" xlink:href="#DejaVuSans-84"/>
      <use x="349.099609" xlink:href="#DejaVuSans-111"/>
      <use x="410.28125" xlink:href="#DejaVuSans-116"/>
      <use x="449.490234" xlink:href="#DejaVuSans-97"/>
      <use x="510.769531" xlink:href="#DejaVuSans-108"/>
      <use x="538.552734" xlink:href="#DejaVuSans-32"/>
      <use x="570.339844" xlink:href="#DejaVuSans-83"/>
      <use x="633.816406" xlink:href="#DejaVuSans-117"/>
      <use x="697.195312" xlink:href="#DejaVuSans-114"/>
      <use x="738.308594" xlink:href="#DejaVuSans-102"/>
      <use x="773.513672" xlink:href="#DejaVuSans-97"/>
      <use x="834.792969" xlink:href="#DejaVuSans-99"/>
      <use x="889.773438" xlink:href="#DejaVuSans-101"/>
      <use x="951.296875" xlink:href="#DejaVuSans-32"/>
      <use x="983.083984" xlink:href="#DejaVuSans-68"/>
      <use x="1060.085938" xlink:href="#DejaVuSans-105"/>
      <use x="1087.869141" xlink:href="#DejaVuSans-115"/>
      <use x="1139.96875" xlink:href="#DejaVuSans-99"/>
      <use x="1194.949219" xlink:href="#DejaVuSans-104"/>
      <use x="1258.328125" xlink:href="#DejaVuSans-97"/>
      <use x="1319.607422" xlink:href="#DejaVuSans-114"/>
      <use x="1360.705078" xlink:href="#DejaVuSans-103"/>
      <use x="1424.181641" xlink:href="#DejaVuSans-101"/>
      <use x="1485.705078" xlink:href="#DejaVuSans-32"/>
      <use x="1517.492188" xlink:href="#DejaVuSans-82"/>
      <use x="1586.912109" xlink:href="#DejaVuSans-101"/>
      <use x="1648.435547" xlink:href="#DejaVuSans-99"/>
      <use x="1703.416016" xlink:href="#DejaVuSans-101"/>
      <use x="1764.939453" xlink:href="#DejaVuSans-105"/>
      <use x="1792.722656" xlink:href="#DejaVuSans-118"/>
      <use x="1851.902344" xlink:href="#DejaVuSans-101"/>
      <use x="1913.425781" xlink:href="#DejaVuSans-100"/>
     </g>
    </g>
   </g>
  </g>
 </g>
 <defs>
  <clipPath id="pefb1da7c59">
   <rect height="380.52" width="558" x="90" y="60.48"/>
  </clipPath>
 </defs>
</svg>
