<?xml version="1.0" encoding="utf-8" standalone="no"?>
<!DOCTYPE svg PUBLIC "-//W3C//DTD SVG 1.1//EN"
  "http://www.w3.org/Graphics/SVG/1.1/DTD/svg11.dtd">
<!-- Created with matplotlib (https://matplotlib.org/) -->
<svg height="504pt" version="1.1" viewBox="0 0 720 504" width="720pt" xmlns="http://www.w3.org/2000/svg" xmlns:xlink="http://www.w3.org/1999/xlink">
 <defs>
  <style type="text/css">
*{stroke-linecap:butt;stroke-linejoin:round;}
  </style>
 </defs>
 <g id="figure_1">
  <g id="patch_1">
   <path d="M 0 504 
L 720 504 
L 720 0 
L 0 0 
z
" style="fill:#ffffff;"/>
  </g>
  <g id="axes_1">
   <g id="patch_2">
    <path d="M 90 441 
L 648 441 
L 648 60.48 
L 90 60.48 
z
" style="fill:#ffffff;"/>
   </g>
   <g id="matplotlib.axis_1">
    <g id="xtick_1">
     <g id="line2d_1">
      <defs>
       <path d="M 0 0 
L 0 3.5 
" id="m92d8a7b6db" style="stroke:#000000;stroke-width:0.8;"/>
      </defs>
      <g>
       <use style="stroke:#000000;stroke-width:0.8;" x="146.22782" xlink:href="#m92d8a7b6db" y="441"/>
      </g>
     </g>
     <g id="text_1">
      <!-- 01/01/2014 -->
      <defs>
       <path d="M 31.78125 66.40625 
Q 24.171875 66.40625 20.328125 58.90625 
Q 16.5 51.421875 16.5 36.375 
Q 16.5 21.390625 20.328125 13.890625 
Q 24.171875 6.390625 31.78125 6.390625 
Q 39.453125 6.390625 43.28125 13.890625 
Q 47.125 21.390625 47.125 36.375 
Q 47.125 51.421875 43.28125 58.90625 
Q 39.453125 66.40625 31.78125 66.40625 
z
M 31.78125 74.21875 
Q 44.046875 74.21875 50.515625 64.515625 
Q 56.984375 54.828125 56.984375 36.375 
Q 56.984375 17.96875 50.515625 8.265625 
Q 44.046875 -1.421875 31.78125 -1.421875 
Q 19.53125 -1.421875 13.0625 8.265625 
Q 6.59375 17.96875 6.59375 36.375 
Q 6.59375 54.828125 13.0625 64.515625 
Q 19.53125 74.21875 31.78125 74.21875 
z
" id="DejaVuSans-48"/>
       <path d="M 12.40625 8.296875 
L 28.515625 8.296875 
L 28.515625 63.921875 
L 10.984375 60.40625 
L 10.984375 69.390625 
L 28.421875 72.90625 
L 38.28125 72.90625 
L 38.28125 8.296875 
L 54.390625 8.296875 
L 54.390625 0 
L 12.40625 0 
z
" id="DejaVuSans-49"/>
       <path d="M 25.390625 72.90625 
L 33.6875 72.90625 
L 8.296875 -9.28125 
L 0 -9.28125 
z
" id="DejaVuSans-47"/>
       <path d="M 19.1875 8.296875 
L 53.609375 8.296875 
L 53.609375 0 
L 7.328125 0 
L 7.328125 8.296875 
Q 12.9375 14.109375 22.625 23.890625 
Q 32.328125 33.6875 34.8125 36.53125 
Q 39.546875 41.84375 41.421875 45.53125 
Q 43.3125 49.21875 43.3125 52.78125 
Q 43.3125 58.59375 39.234375 62.25 
Q 35.15625 65.921875 28.609375 65.921875 
Q 23.96875 65.921875 18.8125 64.3125 
Q 13.671875 62.703125 7.8125 59.421875 
L 7.8125 69.390625 
Q 13.765625 71.78125 18.9375 73 
Q 24.125 74.21875 28.421875 74.21875 
Q 39.75 74.21875 46.484375 68.546875 
Q 53.21875 62.890625 53.21875 53.421875 
Q 53.21875 48.921875 51.53125 44.890625 
Q 49.859375 40.875 45.40625 35.40625 
Q 44.1875 33.984375 37.640625 27.21875 
Q 31.109375 20.453125 19.1875 8.296875 
z
" id="DejaVuSans-50"/>
       <path d="M 37.796875 64.3125 
L 12.890625 25.390625 
L 37.796875 25.390625 
z
M 35.203125 72.90625 
L 47.609375 72.90625 
L 47.609375 25.390625 
L 58.015625 25.390625 
L 58.015625 17.1875 
L 47.609375 17.1875 
L 47.609375 0 
L 37.796875 0 
L 37.796875 17.1875 
L 4.890625 17.1875 
L 4.890625 26.703125 
z
" id="DejaVuSans-52"/>
      </defs>
      <g transform="translate(120.29193 486.939109)rotate(-30)scale(0.11 -0.11)">
       <use xlink:href="#DejaVuSans-48"/>
       <use x="63.623047" xlink:href="#DejaVuSans-49"/>
       <use x="127.246094" xlink:href="#DejaVuSans-47"/>
       <use x="160.9375" xlink:href="#DejaVuSans-48"/>
       <use x="224.560547" xlink:href="#DejaVuSans-49"/>
       <use x="288.183594" xlink:href="#DejaVuSans-47"/>
       <use x="321.875" xlink:href="#DejaVuSans-50"/>
       <use x="385.498047" xlink:href="#DejaVuSans-48"/>
       <use x="449.121094" xlink:href="#DejaVuSans-49"/>
       <use x="512.744141" xlink:href="#DejaVuSans-52"/>
      </g>
     </g>
    </g>
    <g id="xtick_2">
     <g id="line2d_2">
      <g>
       <use style="stroke:#000000;stroke-width:0.8;" x="257.766703" xlink:href="#m92d8a7b6db" y="441"/>
      </g>
     </g>
     <g id="text_2">
      <!-- 01/01/2015 -->
      <defs>
       <path d="M 10.796875 72.90625 
L 49.515625 72.90625 
L 49.515625 64.59375 
L 19.828125 64.59375 
L 19.828125 46.734375 
Q 21.96875 47.46875 24.109375 47.828125 
Q 26.265625 48.1875 28.421875 48.1875 
Q 40.625 48.1875 47.75 41.5 
Q 54.890625 34.8125 54.890625 23.390625 
Q 54.890625 11.625 47.5625 5.09375 
Q 40.234375 -1.421875 26.90625 -1.421875 
Q 22.3125 -1.421875 17.546875 -0.640625 
Q 12.796875 0.140625 7.71875 1.703125 
L 7.71875 11.625 
Q 12.109375 9.234375 16.796875 8.0625 
Q 21.484375 6.890625 26.703125 6.890625 
Q 35.15625 6.890625 40.078125 11.328125 
Q 45.015625 15.765625 45.015625 23.390625 
Q 45.015625 31 40.078125 35.4375 
Q 35.15625 39.890625 26.703125 39.890625 
Q 22.75 39.890625 18.8125 39.015625 
Q 14.890625 38.140625 10.796875 36.28125 
z
" id="DejaVuSans-53"/>
      </defs>
      <g transform="translate(231.830813 486.939109)rotate(-30)scale(0.11 -0.11)">
       <use xlink:href="#DejaVuSans-48"/>
       <use x="63.623047" xlink:href="#DejaVuSans-49"/>
       <use x="127.246094" xlink:href="#DejaVuSans-47"/>
       <use x="160.9375" xlink:href="#DejaVuSans-48"/>
       <use x="224.560547" xlink:href="#DejaVuSans-49"/>
       <use x="288.183594" xlink:href="#DejaVuSans-47"/>
       <use x="321.875" xlink:href="#DejaVuSans-50"/>
       <use x="385.498047" xlink:href="#DejaVuSans-48"/>
       <use x="449.121094" xlink:href="#DejaVuSans-49"/>
       <use x="512.744141" xlink:href="#DejaVuSans-53"/>
      </g>
     </g>
    </g>
    <g id="xtick_3">
     <g id="line2d_3">
      <g>
       <use style="stroke:#000000;stroke-width:0.8;" x="369.305586" xlink:href="#m92d8a7b6db" y="441"/>
      </g>
     </g>
     <g id="text_3">
      <!-- 01/01/2016 -->
      <defs>
       <path d="M 33.015625 40.375 
Q 26.375 40.375 22.484375 35.828125 
Q 18.609375 31.296875 18.609375 23.390625 
Q 18.609375 15.53125 22.484375 10.953125 
Q 26.375 6.390625 33.015625 6.390625 
Q 39.65625 6.390625 43.53125 10.953125 
Q 47.40625 15.53125 47.40625 23.390625 
Q 47.40625 31.296875 43.53125 35.828125 
Q 39.65625 40.375 33.015625 40.375 
z
M 52.59375 71.296875 
L 52.59375 62.3125 
Q 48.875 64.0625 45.09375 64.984375 
Q 41.3125 65.921875 37.59375 65.921875 
Q 27.828125 65.921875 22.671875 59.328125 
Q 17.53125 52.734375 16.796875 39.40625 
Q 19.671875 43.65625 24.015625 45.921875 
Q 28.375 48.1875 33.59375 48.1875 
Q 44.578125 48.1875 50.953125 41.515625 
Q 57.328125 34.859375 57.328125 23.390625 
Q 57.328125 12.15625 50.6875 5.359375 
Q 44.046875 -1.421875 33.015625 -1.421875 
Q 20.359375 -1.421875 13.671875 8.265625 
Q 6.984375 17.96875 6.984375 36.375 
Q 6.984375 53.65625 15.1875 63.9375 
Q 23.390625 74.21875 37.203125 74.21875 
Q 40.921875 74.21875 44.703125 73.484375 
Q 48.484375 72.75 52.59375 71.296875 
z
" id="DejaVuSans-54"/>
      </defs>
      <g transform="translate(343.369696 486.939109)rotate(-30)scale(0.11 -0.11)">
       <use xlink:href="#DejaVuSans-48"/>
       <use x="63.623047" xlink:href="#DejaVuSans-49"/>
       <use x="127.246094" xlink:href="#DejaVuSans-47"/>
       <use x="160.9375" xlink:href="#DejaVuSans-48"/>
       <use x="224.560547" xlink:href="#DejaVuSans-49"/>
       <use x="288.183594" xlink:href="#DejaVuSans-47"/>
       <use x="321.875" xlink:href="#DejaVuSans-50"/>
       <use x="385.498047" xlink:href="#DejaVuSans-48"/>
       <use x="449.121094" xlink:href="#DejaVuSans-49"/>
       <use x="512.744141" xlink:href="#DejaVuSans-54"/>
      </g>
     </g>
    </g>
    <g id="xtick_4">
     <g id="line2d_4">
      <g>
       <use style="stroke:#000000;stroke-width:0.8;" x="481.150055" xlink:href="#m92d8a7b6db" y="441"/>
      </g>
     </g>
     <g id="text_4">
      <!-- 01/01/2017 -->
      <defs>
       <path d="M 8.203125 72.90625 
L 55.078125 72.90625 
L 55.078125 68.703125 
L 28.609375 0 
L 18.3125 0 
L 43.21875 64.59375 
L 8.203125 64.59375 
z
" id="DejaVuSans-55"/>
      </defs>
      <g transform="translate(455.214164 486.939109)rotate(-30)scale(0.11 -0.11)">
       <use xlink:href="#DejaVuSans-48"/>
       <use x="63.623047" xlink:href="#DejaVuSans-49"/>
       <use x="127.246094" xlink:href="#DejaVuSans-47"/>
       <use x="160.9375" xlink:href="#DejaVuSans-48"/>
       <use x="224.560547" xlink:href="#DejaVuSans-49"/>
       <use x="288.183594" xlink:href="#DejaVuSans-47"/>
       <use x="321.875" xlink:href="#DejaVuSans-50"/>
       <use x="385.498047" xlink:href="#DejaVuSans-48"/>
       <use x="449.121094" xlink:href="#DejaVuSans-49"/>
       <use x="512.744141" xlink:href="#DejaVuSans-55"/>
      </g>
     </g>
    </g>
    <g id="xtick_5">
     <g id="line2d_5">
      <g>
       <use style="stroke:#000000;stroke-width:0.8;" x="592.688938" xlink:href="#m92d8a7b6db" y="441"/>
      </g>
     </g>
     <g id="text_5">
      <!-- 01/01/2018 -->
      <defs>
       <path d="M 31.78125 34.625 
Q 24.75 34.625 20.71875 30.859375 
Q 16.703125 27.09375 16.703125 20.515625 
Q 16.703125 13.921875 20.71875 10.15625 
Q 24.75 6.390625 31.78125 6.390625 
Q 38.8125 6.390625 42.859375 10.171875 
Q 46.921875 13.96875 46.921875 20.515625 
Q 46.921875 27.09375 42.890625 30.859375 
Q 38.875 34.625 31.78125 34.625 
z
M 21.921875 38.8125 
Q 15.578125 40.375 12.03125 44.71875 
Q 8.5 49.078125 8.5 55.328125 
Q 8.5 64.0625 14.71875 69.140625 
Q 20.953125 74.21875 31.78125 74.21875 
Q 42.671875 74.21875 48.875 69.140625 
Q 55.078125 64.0625 55.078125 55.328125 
Q 55.078125 49.078125 51.53125 44.71875 
Q 48 40.375 41.703125 38.8125 
Q 48.828125 37.15625 52.796875 32.3125 
Q 56.78125 27.484375 56.78125 20.515625 
Q 56.78125 9.90625 50.3125 4.234375 
Q 43.84375 -1.421875 31.78125 -1.421875 
Q 19.734375 -1.421875 13.25 4.234375 
Q 6.78125 9.90625 6.78125 20.515625 
Q 6.78125 27.484375 10.78125 32.3125 
Q 14.796875 37.15625 21.921875 38.8125 
z
M 18.3125 54.390625 
Q 18.3125 48.734375 21.84375 45.5625 
Q 25.390625 42.390625 31.78125 42.390625 
Q 38.140625 42.390625 41.71875 45.5625 
Q 45.3125 48.734375 45.3125 54.390625 
Q 45.3125 60.0625 41.71875 63.234375 
Q 38.140625 66.40625 31.78125 66.40625 
Q 25.390625 66.40625 21.84375 63.234375 
Q 18.3125 60.0625 18.3125 54.390625 
z
" id="DejaVuSans-56"/>
      </defs>
      <g transform="translate(566.753047 486.939109)rotate(-30)scale(0.11 -0.11)">
       <use xlink:href="#DejaVuSans-48"/>
       <use x="63.623047" xlink:href="#DejaVuSans-49"/>
       <use x="127.246094" xlink:href="#DejaVuSans-47"/>
       <use x="160.9375" xlink:href="#DejaVuSans-48"/>
       <use x="224.560547" xlink:href="#DejaVuSans-49"/>
       <use x="288.183594" xlink:href="#DejaVuSans-47"/>
       <use x="321.875" xlink:href="#DejaVuSans-50"/>
       <use x="385.498047" xlink:href="#DejaVuSans-48"/>
       <use x="449.121094" xlink:href="#DejaVuSans-49"/>
       <use x="512.744141" xlink:href="#DejaVuSans-56"/>
      </g>
     </g>
    </g>
   </g>
   <g id="matplotlib.axis_2">
    <g id="ytick_1">
     <g id="line2d_6">
      <defs>
       <path d="M 0 0 
L -3.5 0 
" id="m8deb4ef2ac" style="stroke:#000000;stroke-width:0.8;"/>
      </defs>
      <g>
       <use style="stroke:#000000;stroke-width:0.8;" x="90" xlink:href="#m8deb4ef2ac" y="441"/>
      </g>
     </g>
     <g id="text_6">
      <!-- 20,000.0 -->
      <defs>
       <path d="M 11.71875 12.40625 
L 22.015625 12.40625 
L 22.015625 4 
L 14.015625 -11.625 
L 7.71875 -11.625 
L 11.71875 4 
z
" id="DejaVuSans-44"/>
       <path d="M 10.6875 12.40625 
L 21 12.40625 
L 21 0 
L 10.6875 0 
z
" id="DejaVuSans-46"/>
      </defs>
      <g transform="translate(34.015625 445.179141)scale(0.11 -0.11)">
       <use xlink:href="#DejaVuSans-50"/>
       <use x="63.623047" xlink:href="#DejaVuSans-48"/>
       <use x="127.246094" xlink:href="#DejaVuSans-44"/>
       <use x="159.033203" xlink:href="#DejaVuSans-48"/>
       <use x="222.65625" xlink:href="#DejaVuSans-48"/>
       <use x="286.279297" xlink:href="#DejaVuSans-48"/>
       <use x="349.902344" xlink:href="#DejaVuSans-46"/>
       <use x="381.689453" xlink:href="#DejaVuSans-48"/>
      </g>
     </g>
    </g>
    <g id="ytick_2">
     <g id="line2d_7">
      <g>
       <use style="stroke:#000000;stroke-width:0.8;" x="90" xlink:href="#m8deb4ef2ac" y="393.435"/>
      </g>
     </g>
     <g id="text_7">
      <!-- 25,000.0 -->
      <g transform="translate(34.015625 397.614141)scale(0.11 -0.11)">
       <use xlink:href="#DejaVuSans-50"/>
       <use x="63.623047" xlink:href="#DejaVuSans-53"/>
       <use x="127.246094" xlink:href="#DejaVuSans-44"/>
       <use x="159.033203" xlink:href="#DejaVuSans-48"/>
       <use x="222.65625" xlink:href="#DejaVuSans-48"/>
       <use x="286.279297" xlink:href="#DejaVuSans-48"/>
       <use x="349.902344" xlink:href="#DejaVuSans-46"/>
       <use x="381.689453" xlink:href="#DejaVuSans-48"/>
      </g>
     </g>
    </g>
    <g id="ytick_3">
     <g id="line2d_8">
      <g>
       <use style="stroke:#000000;stroke-width:0.8;" x="90" xlink:href="#m8deb4ef2ac" y="345.87"/>
      </g>
     </g>
     <g id="text_8">
      <!-- 30,000.0 -->
      <defs>
       <path d="M 40.578125 39.3125 
Q 47.65625 37.796875 51.625 33 
Q 55.609375 28.21875 55.609375 21.1875 
Q 55.609375 10.40625 48.1875 4.484375 
Q 40.765625 -1.421875 27.09375 -1.421875 
Q 22.515625 -1.421875 17.65625 -0.515625 
Q 12.796875 0.390625 7.625 2.203125 
L 7.625 11.71875 
Q 11.71875 9.328125 16.59375 8.109375 
Q 21.484375 6.890625 26.8125 6.890625 
Q 36.078125 6.890625 40.9375 10.546875 
Q 45.796875 14.203125 45.796875 21.1875 
Q 45.796875 27.640625 41.28125 31.265625 
Q 36.765625 34.90625 28.71875 34.90625 
L 20.21875 34.90625 
L 20.21875 43.015625 
L 29.109375 43.015625 
Q 36.375 43.015625 40.234375 45.921875 
Q 44.09375 48.828125 44.09375 54.296875 
Q 44.09375 59.90625 40.109375 62.90625 
Q 36.140625 65.921875 28.71875 65.921875 
Q 24.65625 65.921875 20.015625 65.03125 
Q 15.375 64.15625 9.8125 62.3125 
L 9.8125 71.09375 
Q 15.4375 72.65625 20.34375 73.4375 
Q 25.25 74.21875 29.59375 74.21875 
Q 40.828125 74.21875 47.359375 69.109375 
Q 53.90625 64.015625 53.90625 55.328125 
Q 53.90625 49.265625 50.4375 45.09375 
Q 46.96875 40.921875 40.578125 39.3125 
z
" id="DejaVuSans-51"/>
      </defs>
      <g transform="translate(34.015625 350.049141)scale(0.11 -0.11)">
       <use xlink:href="#DejaVuSans-51"/>
       <use x="63.623047" xlink:href="#DejaVuSans-48"/>
       <use x="127.246094" xlink:href="#DejaVuSans-44"/>
       <use x="159.033203" xlink:href="#DejaVuSans-48"/>
       <use x="222.65625" xlink:href="#DejaVuSans-48"/>
       <use x="286.279297" xlink:href="#DejaVuSans-48"/>
       <use x="349.902344" xlink:href="#DejaVuSans-46"/>
       <use x="381.689453" xlink:href="#DejaVuSans-48"/>
      </g>
     </g>
    </g>
    <g id="ytick_4">
     <g id="line2d_9">
      <g>
       <use style="stroke:#000000;stroke-width:0.8;" x="90" xlink:href="#m8deb4ef2ac" y="298.305"/>
      </g>
     </g>
     <g id="text_9">
      <!-- 35,000.0 -->
      <g transform="translate(34.015625 302.484141)scale(0.11 -0.11)">
       <use xlink:href="#DejaVuSans-51"/>
       <use x="63.623047" xlink:href="#DejaVuSans-53"/>
       <use x="127.246094" xlink:href="#DejaVuSans-44"/>
       <use x="159.033203" xlink:href="#DejaVuSans-48"/>
       <use x="222.65625" xlink:href="#DejaVuSans-48"/>
       <use x="286.279297" xlink:href="#DejaVuSans-48"/>
       <use x="349.902344" xlink:href="#DejaVuSans-46"/>
       <use x="381.689453" xlink:href="#DejaVuSans-48"/>
      </g>
     </g>
    </g>
    <g id="ytick_5">
     <g id="line2d_10">
      <g>
       <use style="stroke:#000000;stroke-width:0.8;" x="90" xlink:href="#m8deb4ef2ac" y="250.74"/>
      </g>
     </g>
     <g id="text_10">
      <!-- 40,000.0 -->
      <g transform="translate(34.015625 254.919141)scale(0.11 -0.11)">
       <use xlink:href="#DejaVuSans-52"/>
       <use x="63.623047" xlink:href="#DejaVuSans-48"/>
       <use x="127.246094" xlink:href="#DejaVuSans-44"/>
       <use x="159.033203" xlink:href="#DejaVuSans-48"/>
       <use x="222.65625" xlink:href="#DejaVuSans-48"/>
       <use x="286.279297" xlink:href="#DejaVuSans-48"/>
       <use x="349.902344" xlink:href="#DejaVuSans-46"/>
       <use x="381.689453" xlink:href="#DejaVuSans-48"/>
      </g>
     </g>
    </g>
    <g id="ytick_6">
     <g id="line2d_11">
      <g>
       <use style="stroke:#000000;stroke-width:0.8;" x="90" xlink:href="#m8deb4ef2ac" y="203.175"/>
      </g>
     </g>
     <g id="text_11">
      <!-- 45,000.0 -->
      <g transform="translate(34.015625 207.354141)scale(0.11 -0.11)">
       <use xlink:href="#DejaVuSans-52"/>
       <use x="63.623047" xlink:href="#DejaVuSans-53"/>
       <use x="127.246094" xlink:href="#DejaVuSans-44"/>
       <use x="159.033203" xlink:href="#DejaVuSans-48"/>
       <use x="222.65625" xlink:href="#DejaVuSans-48"/>
       <use x="286.279297" xlink:href="#DejaVuSans-48"/>
       <use x="349.902344" xlink:href="#DejaVuSans-46"/>
       <use x="381.689453" xlink:href="#DejaVuSans-48"/>
      </g>
     </g>
    </g>
    <g id="ytick_7">
     <g id="line2d_12">
      <g>
       <use style="stroke:#000000;stroke-width:0.8;" x="90" xlink:href="#m8deb4ef2ac" y="155.61"/>
      </g>
     </g>
     <g id="text_12">
      <!-- 50,000.0 -->
      <g transform="translate(34.015625 159.789141)scale(0.11 -0.11)">
       <use xlink:href="#DejaVuSans-53"/>
       <use x="63.623047" xlink:href="#DejaVuSans-48"/>
       <use x="127.246094" xlink:href="#DejaVuSans-44"/>
       <use x="159.033203" xlink:href="#DejaVuSans-48"/>
       <use x="222.65625" xlink:href="#DejaVuSans-48"/>
       <use x="286.279297" xlink:href="#DejaVuSans-48"/>
       <use x="349.902344" xlink:href="#DejaVuSans-46"/>
       <use x="381.689453" xlink:href="#DejaVuSans-48"/>
      </g>
     </g>
    </g>
    <g id="ytick_8">
     <g id="line2d_13">
      <g>
       <use style="stroke:#000000;stroke-width:0.8;" x="90" xlink:href="#m8deb4ef2ac" y="108.045"/>
      </g>
     </g>
     <g id="text_13">
      <!-- 55,000.0 -->
      <g transform="translate(34.015625 112.224141)scale(0.11 -0.11)">
       <use xlink:href="#DejaVuSans-53"/>
       <use x="63.623047" xlink:href="#DejaVuSans-53"/>
       <use x="127.246094" xlink:href="#DejaVuSans-44"/>
       <use x="159.033203" xlink:href="#DejaVuSans-48"/>
       <use x="222.65625" xlink:href="#DejaVuSans-48"/>
       <use x="286.279297" xlink:href="#DejaVuSans-48"/>
       <use x="349.902344" xlink:href="#DejaVuSans-46"/>
       <use x="381.689453" xlink:href="#DejaVuSans-48"/>
      </g>
     </g>
    </g>
    <g id="ytick_9">
     <g id="line2d_14">
      <g>
       <use style="stroke:#000000;stroke-width:0.8;" x="90" xlink:href="#m8deb4ef2ac" y="60.48"/>
      </g>
     </g>
     <g id="text_14">
      <!-- 60,000.0 -->
      <g transform="translate(34.015625 64.659141)scale(0.11 -0.11)">
       <use xlink:href="#DejaVuSans-54"/>
       <use x="63.623047" xlink:href="#DejaVuSans-48"/>
       <use x="127.246094" xlink:href="#DejaVuSans-44"/>
       <use x="159.033203" xlink:href="#DejaVuSans-48"/>
       <use x="222.65625" xlink:href="#DejaVuSans-48"/>
       <use x="286.279297" xlink:href="#DejaVuSans-48"/>
       <use x="349.902344" xlink:href="#DejaVuSans-46"/>
       <use x="381.689453" xlink:href="#DejaVuSans-48"/>
      </g>
     </g>
    </g>
    <g id="text_15">
     <!-- Transfer from HSPF to MF6 (m3/day) -->
     <defs>
      <path d="M -0.296875 72.90625 
L 61.375 72.90625 
L 61.375 64.59375 
L 35.5 64.59375 
L 35.5 0 
L 25.59375 0 
L 25.59375 64.59375 
L -0.296875 64.59375 
z
" id="DejaVuSans-84"/>
      <path d="M 41.109375 46.296875 
Q 39.59375 47.171875 37.8125 47.578125 
Q 36.03125 48 33.890625 48 
Q 26.265625 48 22.1875 43.046875 
Q 18.109375 38.09375 18.109375 28.8125 
L 18.109375 0 
L 9.078125 0 
L 9.078125 54.6875 
L 18.109375 54.6875 
L 18.109375 46.1875 
Q 20.953125 51.171875 25.484375 53.578125 
Q 30.03125 56 36.53125 56 
Q 37.453125 56 38.578125 55.875 
Q 39.703125 55.765625 41.0625 55.515625 
z
" id="DejaVuSans-114"/>
      <path d="M 34.28125 27.484375 
Q 23.390625 27.484375 19.1875 25 
Q 14.984375 22.515625 14.984375 16.5 
Q 14.984375 11.71875 18.140625 8.90625 
Q 21.296875 6.109375 26.703125 6.109375 
Q 34.1875 6.109375 38.703125 11.40625 
Q 43.21875 16.703125 43.21875 25.484375 
L 43.21875 27.484375 
z
M 52.203125 31.203125 
L 52.203125 0 
L 43.21875 0 
L 43.21875 8.296875 
Q 40.140625 3.328125 35.546875 0.953125 
Q 30.953125 -1.421875 24.3125 -1.421875 
Q 15.921875 -1.421875 10.953125 3.296875 
Q 6 8.015625 6 15.921875 
Q 6 25.140625 12.171875 29.828125 
Q 18.359375 34.515625 30.609375 34.515625 
L 43.21875 34.515625 
L 43.21875 35.40625 
Q 43.21875 41.609375 39.140625 45 
Q 35.0625 48.390625 27.6875 48.390625 
Q 23 48.390625 18.546875 47.265625 
Q 14.109375 46.140625 10.015625 43.890625 
L 10.015625 52.203125 
Q 14.9375 54.109375 19.578125 55.046875 
Q 24.21875 56 28.609375 56 
Q 40.484375 56 46.34375 49.84375 
Q 52.203125 43.703125 52.203125 31.203125 
z
" id="DejaVuSans-97"/>
      <path d="M 54.890625 33.015625 
L 54.890625 0 
L 45.90625 0 
L 45.90625 32.71875 
Q 45.90625 40.484375 42.875 44.328125 
Q 39.84375 48.1875 33.796875 48.1875 
Q 26.515625 48.1875 22.3125 43.546875 
Q 18.109375 38.921875 18.109375 30.90625 
L 18.109375 0 
L 9.078125 0 
L 9.078125 54.6875 
L 18.109375 54.6875 
L 18.109375 46.1875 
Q 21.34375 51.125 25.703125 53.5625 
Q 30.078125 56 35.796875 56 
Q 45.21875 56 50.046875 50.171875 
Q 54.890625 44.34375 54.890625 33.015625 
z
" id="DejaVuSans-110"/>
      <path d="M 44.28125 53.078125 
L 44.28125 44.578125 
Q 40.484375 46.53125 36.375 47.5 
Q 32.28125 48.484375 27.875 48.484375 
Q 21.1875 48.484375 17.84375 46.4375 
Q 14.5 44.390625 14.5 40.28125 
Q 14.5 37.15625 16.890625 35.375 
Q 19.28125 33.59375 26.515625 31.984375 
L 29.59375 31.296875 
Q 39.15625 29.25 43.1875 25.515625 
Q 47.21875 21.78125 47.21875 15.09375 
Q 47.21875 7.46875 41.1875 3.015625 
Q 35.15625 -1.421875 24.609375 -1.421875 
Q 20.21875 -1.421875 15.453125 -0.5625 
Q 10.6875 0.296875 5.421875 2 
L 5.421875 11.28125 
Q 10.40625 8.6875 15.234375 7.390625 
Q 20.0625 6.109375 24.8125 6.109375 
Q 31.15625 6.109375 34.5625 8.28125 
Q 37.984375 10.453125 37.984375 14.40625 
Q 37.984375 18.0625 35.515625 20.015625 
Q 33.0625 21.96875 24.703125 23.78125 
L 21.578125 24.515625 
Q 13.234375 26.265625 9.515625 29.90625 
Q 5.8125 33.546875 5.8125 39.890625 
Q 5.8125 47.609375 11.28125 51.796875 
Q 16.75 56 26.8125 56 
Q 31.78125 56 36.171875 55.265625 
Q 40.578125 54.546875 44.28125 53.078125 
z
" id="DejaVuSans-115"/>
      <path d="M 37.109375 75.984375 
L 37.109375 68.5 
L 28.515625 68.5 
Q 23.6875 68.5 21.796875 66.546875 
Q 19.921875 64.59375 19.921875 59.515625 
L 19.921875 54.6875 
L 34.71875 54.6875 
L 34.71875 47.703125 
L 19.921875 47.703125 
L 19.921875 0 
L 10.890625 0 
L 10.890625 47.703125 
L 2.296875 47.703125 
L 2.296875 54.6875 
L 10.890625 54.6875 
L 10.890625 58.5 
Q 10.890625 67.625 15.140625 71.796875 
Q 19.390625 75.984375 28.609375 75.984375 
z
" id="DejaVuSans-102"/>
      <path d="M 56.203125 29.59375 
L 56.203125 25.203125 
L 14.890625 25.203125 
Q 15.484375 15.921875 20.484375 11.0625 
Q 25.484375 6.203125 34.421875 6.203125 
Q 39.59375 6.203125 44.453125 7.46875 
Q 49.3125 8.734375 54.109375 11.28125 
L 54.109375 2.78125 
Q 49.265625 0.734375 44.1875 -0.34375 
Q 39.109375 -1.421875 33.890625 -1.421875 
Q 20.796875 -1.421875 13.15625 6.1875 
Q 5.515625 13.8125 5.515625 26.8125 
Q 5.515625 40.234375 12.765625 48.109375 
Q 20.015625 56 32.328125 56 
Q 43.359375 56 49.78125 48.890625 
Q 56.203125 41.796875 56.203125 29.59375 
z
M 47.21875 32.234375 
Q 47.125 39.59375 43.09375 43.984375 
Q 39.0625 48.390625 32.421875 48.390625 
Q 24.90625 48.390625 20.390625 44.140625 
Q 15.875 39.890625 15.1875 32.171875 
z
" id="DejaVuSans-101"/>
      <path id="DejaVuSans-32"/>
      <path d="M 30.609375 48.390625 
Q 23.390625 48.390625 19.1875 42.75 
Q 14.984375 37.109375 14.984375 27.296875 
Q 14.984375 17.484375 19.15625 11.84375 
Q 23.34375 6.203125 30.609375 6.203125 
Q 37.796875 6.203125 41.984375 11.859375 
Q 46.1875 17.53125 46.1875 27.296875 
Q 46.1875 37.015625 41.984375 42.703125 
Q 37.796875 48.390625 30.609375 48.390625 
z
M 30.609375 56 
Q 42.328125 56 49.015625 48.375 
Q 55.71875 40.765625 55.71875 27.296875 
Q 55.71875 13.875 49.015625 6.21875 
Q 42.328125 -1.421875 30.609375 -1.421875 
Q 18.84375 -1.421875 12.171875 6.21875 
Q 5.515625 13.875 5.515625 27.296875 
Q 5.515625 40.765625 12.171875 48.375 
Q 18.84375 56 30.609375 56 
z
" id="DejaVuSans-111"/>
      <path d="M 52 44.1875 
Q 55.375 50.25 60.0625 53.125 
Q 64.75 56 71.09375 56 
Q 79.640625 56 84.28125 50.015625 
Q 88.921875 44.046875 88.921875 33.015625 
L 88.921875 0 
L 79.890625 0 
L 79.890625 32.71875 
Q 79.890625 40.578125 77.09375 44.375 
Q 74.3125 48.1875 68.609375 48.1875 
Q 61.625 48.1875 57.5625 43.546875 
Q 53.515625 38.921875 53.515625 30.90625 
L 53.515625 0 
L 44.484375 0 
L 44.484375 32.71875 
Q 44.484375 40.625 41.703125 44.40625 
Q 38.921875 48.1875 33.109375 48.1875 
Q 26.21875 48.1875 22.15625 43.53125 
Q 18.109375 38.875 18.109375 30.90625 
L 18.109375 0 
L 9.078125 0 
L 9.078125 54.6875 
L 18.109375 54.6875 
L 18.109375 46.1875 
Q 21.1875 51.21875 25.484375 53.609375 
Q 29.78125 56 35.6875 56 
Q 41.65625 56 45.828125 52.96875 
Q 50 49.953125 52 44.1875 
z
" id="DejaVuSans-109"/>
      <path d="M 9.8125 72.90625 
L 19.671875 72.90625 
L 19.671875 43.015625 
L 55.515625 43.015625 
L 55.515625 72.90625 
L 65.375 72.90625 
L 65.375 0 
L 55.515625 0 
L 55.515625 34.71875 
L 19.671875 34.71875 
L 19.671875 0 
L 9.8125 0 
z
" id="DejaVuSans-72"/>
      <path d="M 53.515625 70.515625 
L 53.515625 60.890625 
Q 47.90625 63.578125 42.921875 64.890625 
Q 37.9375 66.21875 33.296875 66.21875 
Q 25.25 66.21875 20.875 63.09375 
Q 16.5 59.96875 16.5 54.203125 
Q 16.5 49.359375 19.40625 46.890625 
Q 22.3125 44.4375 30.421875 42.921875 
L 36.375 41.703125 
Q 47.40625 39.59375 52.65625 34.296875 
Q 57.90625 29 57.90625 20.125 
Q 57.90625 9.515625 50.796875 4.046875 
Q 43.703125 -1.421875 29.984375 -1.421875 
Q 24.8125 -1.421875 18.96875 -0.25 
Q 13.140625 0.921875 6.890625 3.21875 
L 6.890625 13.375 
Q 12.890625 10.015625 18.65625 8.296875 
Q 24.421875 6.59375 29.984375 6.59375 
Q 38.421875 6.59375 43.015625 9.90625 
Q 47.609375 13.234375 47.609375 19.390625 
Q 47.609375 24.75 44.3125 27.78125 
Q 41.015625 30.8125 33.5 32.328125 
L 27.484375 33.5 
Q 16.453125 35.6875 11.515625 40.375 
Q 6.59375 45.0625 6.59375 53.421875 
Q 6.59375 63.09375 13.40625 68.65625 
Q 20.21875 74.21875 32.171875 74.21875 
Q 37.3125 74.21875 42.625 73.28125 
Q 47.953125 72.359375 53.515625 70.515625 
z
" id="DejaVuSans-83"/>
      <path d="M 19.671875 64.796875 
L 19.671875 37.40625 
L 32.078125 37.40625 
Q 38.96875 37.40625 42.71875 40.96875 
Q 46.484375 44.53125 46.484375 51.125 
Q 46.484375 57.671875 42.71875 61.234375 
Q 38.96875 64.796875 32.078125 64.796875 
z
M 9.8125 72.90625 
L 32.078125 72.90625 
Q 44.34375 72.90625 50.609375 67.359375 
Q 56.890625 61.8125 56.890625 51.125 
Q 56.890625 40.328125 50.609375 34.8125 
Q 44.34375 29.296875 32.078125 29.296875 
L 19.671875 29.296875 
L 19.671875 0 
L 9.8125 0 
z
" id="DejaVuSans-80"/>
      <path d="M 9.8125 72.90625 
L 51.703125 72.90625 
L 51.703125 64.59375 
L 19.671875 64.59375 
L 19.671875 43.109375 
L 48.578125 43.109375 
L 48.578125 34.8125 
L 19.671875 34.8125 
L 19.671875 0 
L 9.8125 0 
z
" id="DejaVuSans-70"/>
      <path d="M 18.3125 70.21875 
L 18.3125 54.6875 
L 36.8125 54.6875 
L 36.8125 47.703125 
L 18.3125 47.703125 
L 18.3125 18.015625 
Q 18.3125 11.328125 20.140625 9.421875 
Q 21.96875 7.515625 27.59375 7.515625 
L 36.8125 7.515625 
L 36.8125 0 
L 27.59375 0 
Q 17.1875 0 13.234375 3.875 
Q 9.28125 7.765625 9.28125 18.015625 
L 9.28125 47.703125 
L 2.6875 47.703125 
L 2.6875 54.6875 
L 9.28125 54.6875 
L 9.28125 70.21875 
z
" id="DejaVuSans-116"/>
      <path d="M 9.8125 72.90625 
L 24.515625 72.90625 
L 43.109375 23.296875 
L 61.8125 72.90625 
L 76.515625 72.90625 
L 76.515625 0 
L 66.890625 0 
L 66.890625 64.015625 
L 48.09375 14.015625 
L 38.1875 14.015625 
L 19.390625 64.015625 
L 19.390625 0 
L 9.8125 0 
z
" id="DejaVuSans-77"/>
      <path d="M 31 75.875 
Q 24.46875 64.65625 21.28125 53.65625 
Q 18.109375 42.671875 18.109375 31.390625 
Q 18.109375 20.125 21.3125 9.0625 
Q 24.515625 -2 31 -13.1875 
L 23.1875 -13.1875 
Q 15.875 -1.703125 12.234375 9.375 
Q 8.59375 20.453125 8.59375 31.390625 
Q 8.59375 42.28125 12.203125 53.3125 
Q 15.828125 64.359375 23.1875 75.875 
z
" id="DejaVuSans-40"/>
      <path d="M 45.40625 46.390625 
L 45.40625 75.984375 
L 54.390625 75.984375 
L 54.390625 0 
L 45.40625 0 
L 45.40625 8.203125 
Q 42.578125 3.328125 38.25 0.953125 
Q 33.9375 -1.421875 27.875 -1.421875 
Q 17.96875 -1.421875 11.734375 6.484375 
Q 5.515625 14.40625 5.515625 27.296875 
Q 5.515625 40.1875 11.734375 48.09375 
Q 17.96875 56 27.875 56 
Q 33.9375 56 38.25 53.625 
Q 42.578125 51.265625 45.40625 46.390625 
z
M 14.796875 27.296875 
Q 14.796875 17.390625 18.875 11.75 
Q 22.953125 6.109375 30.078125 6.109375 
Q 37.203125 6.109375 41.296875 11.75 
Q 45.40625 17.390625 45.40625 27.296875 
Q 45.40625 37.203125 41.296875 42.84375 
Q 37.203125 48.484375 30.078125 48.484375 
Q 22.953125 48.484375 18.875 42.84375 
Q 14.796875 37.203125 14.796875 27.296875 
z
" id="DejaVuSans-100"/>
      <path d="M 32.171875 -5.078125 
Q 28.375 -14.84375 24.75 -17.8125 
Q 21.140625 -20.796875 15.09375 -20.796875 
L 7.90625 -20.796875 
L 7.90625 -13.28125 
L 13.1875 -13.28125 
Q 16.890625 -13.28125 18.9375 -11.515625 
Q 21 -9.765625 23.484375 -3.21875 
L 25.09375 0.875 
L 2.984375 54.6875 
L 12.5 54.6875 
L 29.59375 11.921875 
L 46.6875 54.6875 
L 56.203125 54.6875 
z
" id="DejaVuSans-121"/>
      <path d="M 8.015625 75.875 
L 15.828125 75.875 
Q 23.140625 64.359375 26.78125 53.3125 
Q 30.421875 42.28125 30.421875 31.390625 
Q 30.421875 20.453125 26.78125 9.375 
Q 23.140625 -1.703125 15.828125 -13.1875 
L 8.015625 -13.1875 
Q 14.5 -2 17.703125 9.0625 
Q 20.90625 20.125 20.90625 31.390625 
Q 20.90625 42.671875 17.703125 53.65625 
Q 14.5 64.65625 8.015625 75.875 
z
" id="DejaVuSans-41"/>
     </defs>
     <g transform="translate(27.52 360.621562)rotate(-90)scale(0.12 -0.12)">
      <use xlink:href="#DejaVuSans-84"/>
      <use x="60.865234" xlink:href="#DejaVuSans-114"/>
      <use x="101.978516" xlink:href="#DejaVuSans-97"/>
      <use x="163.257812" xlink:href="#DejaVuSans-110"/>
      <use x="226.636719" xlink:href="#DejaVuSans-115"/>
      <use x="278.736328" xlink:href="#DejaVuSans-102"/>
      <use x="313.941406" xlink:href="#DejaVuSans-101"/>
      <use x="375.464844" xlink:href="#DejaVuSans-114"/>
      <use x="416.578125" xlink:href="#DejaVuSans-32"/>
      <use x="448.365234" xlink:href="#DejaVuSans-102"/>
      <use x="483.570312" xlink:href="#DejaVuSans-114"/>
      <use x="524.652344" xlink:href="#DejaVuSans-111"/>
      <use x="585.833984" xlink:href="#DejaVuSans-109"/>
      <use x="683.246094" xlink:href="#DejaVuSans-32"/>
      <use x="715.033203" xlink:href="#DejaVuSans-72"/>
      <use x="790.228516" xlink:href="#DejaVuSans-83"/>
      <use x="853.705078" xlink:href="#DejaVuSans-80"/>
      <use x="914.007812" xlink:href="#DejaVuSans-70"/>
      <use x="971.527344" xlink:href="#DejaVuSans-32"/>
      <use x="1003.314453" xlink:href="#DejaVuSans-116"/>
      <use x="1042.523438" xlink:href="#DejaVuSans-111"/>
      <use x="1103.705078" xlink:href="#DejaVuSans-32"/>
      <use x="1135.492188" xlink:href="#DejaVuSans-77"/>
      <use x="1221.771484" xlink:href="#DejaVuSans-70"/>
      <use x="1279.291016" xlink:href="#DejaVuSans-54"/>
      <use x="1342.914062" xlink:href="#DejaVuSans-32"/>
      <use x="1374.701172" xlink:href="#DejaVuSans-40"/>
      <use x="1413.714844" xlink:href="#DejaVuSans-109"/>
      <use x="1511.126953" xlink:href="#DejaVuSans-51"/>
      <use x="1574.75" xlink:href="#DejaVuSans-47"/>
      <use x="1608.441406" xlink:href="#DejaVuSans-100"/>
      <use x="1671.917969" xlink:href="#DejaVuSans-97"/>
      <use x="1733.197266" xlink:href="#DejaVuSans-121"/>
      <use x="1792.376953" xlink:href="#DejaVuSans-41"/>
     </g>
    </g>
   </g>
   <g id="line2d_15">
    <path clip-path="url(#p4b5c388df0)" d="M 90 316.184208 
L 90.305586 316.27753 
L 91.833516 317.968152 
L 93.972618 320.512109 
L 94.278204 320.720311 
L 94.889376 315.248519 
L 95.194962 316.703047 
L 95.500548 315.750796 
L 95.806134 316.451143 
L 96.417306 316.830331 
L 99.167579 319.741918 
L 102.834611 324.195476 
L 106.196057 327.82401 
L 106.501643 326.613774 
L 107.112815 326.726904 
L 107.418401 323.08002 
L 107.723987 317.411756 
L 108.029573 319.572323 
L 108.335159 320.301097 
L 108.946331 320.580825 
L 109.251917 320.76994 
L 109.557503 317.753215 
L 109.863089 320.393206 
L 110.168675 319.005764 
L 110.474261 319.085387 
L 110.779847 319.776669 
L 111.085433 319.979667 
L 111.391019 318.806495 
L 111.696605 320.03214 
L 112.002191 320.031265 
L 113.53012 321.382244 
L 113.835706 321.298244 
L 114.141292 319.969019 
L 114.446878 321.073681 
L 114.752464 311.93359 
L 115.05805 258.942023 
L 115.363636 257.319362 
L 115.669222 268.412072 
L 115.974808 269.59686 
L 116.280394 270.094032 
L 116.891566 270.221863 
L 117.197152 270.221863 
L 117.502738 264.783376 
L 117.808324 270.221863 
L 121.780942 270.221863 
L 122.086528 269.774224 
L 122.392114 266.913898 
L 122.6977 262.60487 
L 123.003286 269.771321 
L 124.22563 270.2129 
L 129.115005 270.221863 
L 130.337349 270.221863 
L 134.309967 270.221863 
L 134.615553 269.929034 
L 134.921139 269.176371 
L 135.226725 270.221863 
L 141.949617 270.275136 
L 142.560789 270.593155 
L 142.866375 270.437479 
L 143.783133 270.811479 
L 144.394304 271.01344 
L 145.005476 270.839252 
L 149.589266 275.136374 
L 151.422782 277.006725 
L 152.033954 277.490841 
L 152.950712 278.067995 
L 155.700986 278.56914 
L 159.062432 279.211743 
L 161.507119 279.402384 
L 168.230011 279.519489 
L 174.036145 279.525292 
L 174.647317 280.125173 
L 175.258488 281.107113 
L 181.675794 298.270753 
L 182.898138 301.320031 
L 184.120482 304.12961 
L 184.426068 304.912692 
L 184.731654 305.237827 
L 185.342826 306.688493 
L 185.648412 307.058159 
L 186.259584 308.538515 
L 186.56517 308.681657 
L 187.176342 309.667888 
L 188.398686 312.36529 
L 189.926616 315.696648 
L 190.232202 316.060539 
L 190.537788 314.042377 
L 190.843373 314.047374 
L 191.760131 315.695382 
L 194.204819 320.642732 
L 195.732749 323.44179 
L 196.038335 323.925454 
L 196.343921 323.478137 
L 197.871851 326.090104 
L 198.177437 321.07931 
L 198.483023 293.521483 
L 198.788609 282.045951 
L 199.094195 293.396416 
L 199.399781 294.034178 
L 199.705367 273.032193 
L 200.010953 288.353347 
L 200.316539 288.482461 
L 200.927711 287.070242 
L 201.844469 285.667075 
L 202.455641 285.083262 
L 203.066813 284.778846 
L 203.677985 284.750973 
L 204.594743 285.167166 
L 204.900329 285.037219 
L 205.817087 285.682866 
L 206.122673 283.854544 
L 206.428258 285.35638 
L 206.733844 285.464733 
L 207.345016 286.056156 
L 207.956188 286.60753 
L 209.178532 288.37457 
L 211.012048 292.012721 
L 211.317634 291.841493 
L 211.62322 288.210137 
L 211.928806 289.844147 
L 213.15115 292.492176 
L 214.373494 294.968886 
L 214.67908 294.799421 
L 215.290252 296.567764 
L 215.901424 297.810638 
L 216.20701 297.277501 
L 216.512596 297.181039 
L 221.401972 307.977581 
L 221.707558 307.962502 
L 222.318729 309.322148 
L 222.624315 309.434335 
L 224.152245 312.619887 
L 224.457831 313.017444 
L 225.680175 315.379522 
L 225.985761 315.272722 
L 226.291347 316.016655 
L 226.596933 315.776831 
L 226.902519 316.140106 
L 228.124863 318.320656 
L 228.430449 315.371503 
L 228.736035 315.011341 
L 229.041621 316.022961 
L 231.180723 319.927088 
L 232.403067 322.1379 
L 232.708653 320.686958 
L 233.014239 322.152479 
L 236.070099 326.349086 
L 236.375685 326.038558 
L 236.986857 327.089207 
L 239.73713 330.735131 
L 240.042716 331.131623 
L 240.348302 326.775283 
L 240.653888 311.309613 
L 240.959474 308.163826 
L 241.26506 310.246212 
L 242.181818 310.50123 
L 244.015334 309.937566 
L 244.626506 309.937021 
L 245.237678 310.124522 
L 245.543264 310.291665 
L 245.84885 309.363006 
L 246.154436 310.1484 
L 247.071194 310.621576 
L 248.599124 311.747002 
L 249.515882 312.532148 
L 252.571742 315.638647 
L 255.016429 318.145455 
L 255.933187 319.01404 
L 256.238773 319.363919 
L 256.544359 317.91505 
L 257.461117 318.552403 
L 257.766703 318.537058 
L 258.072289 318.139334 
L 258.377875 317.158258 
L 258.683461 318.354237 
L 259.600219 319.159351 
L 260.211391 319.688607 
L 260.516977 318.184341 
L 260.822563 319.392791 
L 262.656079 321.208033 
L 263.878423 322.697464 
L 264.184009 322.685394 
L 264.489595 322.059808 
L 264.795181 322.872475 
L 266.017525 324.30244 
L 266.628697 325.101009 
L 266.934283 325.11252 
L 267.239869 324.589359 
L 267.545455 325.403275 
L 269.37897 327.449569 
L 271.823658 330.634369 
L 272.740416 331.612838 
L 274.573932 333.780623 
L 275.185104 334.460612 
L 275.796276 334.877472 
L 276.713034 335.912125 
L 277.01862 335.757808 
L 279.157722 338.029167 
L 281.296824 340.776083 
L 281.60241 340.698363 
L 282.213582 335.035816 
L 282.519168 336.345118 
L 283.435926 337.202107 
L 284.047097 337.806124 
L 285.575027 339.866232 
L 286.491785 341.098764 
L 287.102957 341.845088 
L 287.408543 342.284141 
L 287.714129 342.476504 
L 288.630887 343.678861 
L 288.936473 342.779931 
L 289.242059 343.57027 
L 289.547645 343.880413 
L 289.853231 343.563021 
L 290.158817 344.20493 
L 290.464403 343.145942 
L 290.769989 344.094931 
L 291.992333 345.570512 
L 292.297919 345.102484 
L 292.603505 346.058348 
L 292.909091 346.497668 
L 293.214677 344.796506 
L 293.520263 346.637252 
L 294.437021 347.667158 
L 296.576123 350.644793 
L 297.187295 351.543458 
L 297.492881 347.150668 
L 297.798467 295.279124 
L 298.104053 269.26633 
L 298.409639 271.165362 
L 298.715225 277.84384 
L 299.020811 262.429289 
L 299.326396 259.095839 
L 299.631982 273.679106 
L 299.937568 278.255278 
L 300.243154 278.046559 
L 300.54874 263.429961 
L 300.854326 275.130951 
L 301.159912 274.219226 
L 301.465498 265.466314 
L 301.771084 272.653861 
L 302.382256 271.602009 
L 302.687842 271.177254 
L 302.993428 253.163342 
L 303.299014 269.919701 
L 303.6046 250.920271 
L 303.910186 268.845439 
L 304.215772 270.088327 
L 304.826944 270.221007 
L 307.577218 270.221863 
L 307.882804 263.527593 
L 308.18839 270.218101 
L 308.493976 266.170086 
L 308.799562 270.041116 
L 309.105148 270.221863 
L 309.410734 270.221863 
L 309.71632 265.329536 
L 310.021906 270.221863 
L 310.327492 270.221863 
L 310.633078 269.745547 
L 310.938664 270.221863 
L 311.549836 270.221863 
L 311.855422 265.817972 
L 312.161008 263.43355 
L 312.466594 270.221863 
L 314.911281 270.221863 
L 315.216867 267.917622 
L 315.522453 270.221863 
L 319.495071 270.221863 
L 319.800657 270.432861 
L 322.245345 275.546955 
L 322.856517 276.287637 
L 323.467689 277.534411 
L 324.078861 278.109377 
L 326.523549 279.026525 
L 326.829135 279.067336 
L 327.134721 278.914747 
L 327.440307 279.100441 
L 328.051479 279.210126 
L 328.357065 278.835063 
L 329.273823 279.326946 
L 330.190581 279.408377 
L 338.135816 279.525292 
L 338.746988 280.352827 
L 339.969332 282.038436 
L 340.274918 282.471753 
L 340.88609 284.177719 
L 343.025192 290.699452 
L 343.330778 291.584731 
L 343.636364 290.630097 
L 343.94195 290.227344 
L 345.164294 294.084288 
L 346.997809 298.775798 
L 347.608981 300.139582 
L 347.914567 300.380546 
L 348.220153 292.530888 
L 348.525739 262.120649 
L 348.831325 256.998736 
L 349.136911 267.401144 
L 349.442497 268.838203 
L 349.748083 269.644525 
L 350.053669 270.024619 
L 350.359255 251.710041 
L 350.664841 254.543107 
L 350.970427 266.67573 
L 351.276013 268.473764 
L 351.581599 269.44525 
L 351.887185 269.919778 
L 352.192771 270.129449 
L 352.803943 270.214678 
L 358.304491 270.221863 
L 358.610077 269.630345 
L 358.915663 259.881517 
L 359.221249 270.200853 
L 361.054765 270.221863 
L 363.193866 270.221863 
L 363.499452 262.394852 
L 363.805038 270.06928 
L 364.41621 270.17972 
L 366.249726 270.221863 
L 367.47207 270.221863 
L 367.777656 262.957137 
L 368.388828 270.21568 
L 371.750274 270.221863 
L 372.972618 271.069376 
L 376.945235 276.610984 
L 377.250821 273.759776 
L 377.556407 276.45811 
L 378.167579 277.125923 
L 379.389923 278.163981 
L 384.584885 279.390587 
L 385.196057 279.392205 
L 385.501643 279.190145 
L 385.807229 279.404762 
L 389.474261 279.508073 
L 389.779847 279.148861 
L 390.085433 277.876213 
L 390.391019 274.795352 
L 391.002191 261.333173 
L 391.307777 274.147981 
L 391.613363 274.171767 
L 391.918949 274.485474 
L 392.53012 274.429939 
L 392.835706 274.349839 
L 393.141292 261.211948 
L 393.446878 274.079765 
L 394.974808 271.791032 
L 396.197152 270.336399 
L 396.808324 270.221863 
L 400.475356 270.221863 
L 400.780942 269.908029 
L 401.086528 270.221863 
L 401.6977 270.221863 
L 402.003286 269.049409 
L 402.308872 261.351067 
L 402.920044 268.760114 
L 403.22563 269.900501 
L 403.531216 270.199233 
L 404.75356 270.221863 
L 405.059146 267.265698 
L 405.364732 270.221863 
L 411.170865 270.221863 
L 411.476451 269.963014 
L 411.782037 268.639125 
L 412.087623 270.206642 
L 413.921139 270.221863 
L 414.532311 270.785794 
L 414.837897 271.106572 
L 415.754655 272.873897 
L 416.365827 267.574091 
L 416.976999 270.518548 
L 417.588171 272.157088 
L 420.338445 277.626021 
L 420.644031 278.030419 
L 421.255203 278.329507 
L 421.560789 277.772997 
L 421.866375 278.469729 
L 423.088719 278.981624 
L 423.394304 278.48328 
L 423.69989 274.409351 
L 424.005476 264.988517 
L 424.311062 274.872304 
L 424.616648 276.130067 
L 425.22782 277.278321 
L 426.144578 278.393054 
L 427.672508 278.985048 
L 429.81161 279.42141 
L 432.561884 279.515208 
L 432.86747 279.265063 
L 433.173056 279.519203 
L 436.534502 279.525292 
L 436.840088 279.843121 
L 437.756846 281.431316 
L 438.062432 280.230662 
L 438.368018 277.624765 
L 438.673604 276.842226 
L 438.979189 278.330269 
L 439.284775 270.863248 
L 439.590361 278.187279 
L 439.895947 279.168754 
L 440.507119 251.26293 
L 440.812705 254.145844 
L 441.118291 254.473948 
L 441.423877 274.863322 
L 441.729463 277.561352 
L 442.035049 278.559066 
L 442.340635 279.151504 
L 442.646221 279.240548 
L 442.951807 276.955925 
L 443.257393 279.188056 
L 443.562979 277.817708 
L 443.868565 279.146199 
L 444.174151 279.136686 
L 444.479737 269.426862 
L 444.785323 279.121465 
L 447.230011 279.24951 
L 447.535597 275.507838 
L 447.841183 279.26473 
L 450.897043 279.457559 
L 451.202629 276.801577 
L 451.508215 263.70953 
L 451.813801 214.482818 
L 452.119387 263.305265 
L 452.730559 268.614128 
L 453.036145 269.719451 
L 453.341731 270.142549 
L 453.952903 270.221863 
L 463.120482 270.221863 
L 463.426068 268.62131 
L 463.731654 270.221863 
L 464.953998 270.221863 
L 465.259584 267.398928 
L 465.56517 270.206737 
L 468.315444 270.221863 
L 470.148959 270.199793 
L 470.760131 270.626546 
L 471.065717 270.882351 
L 471.982475 272.178687 
L 472.288061 271.801545 
L 472.593647 269.993821 
L 473.204819 261.555349 
L 473.510405 265.694274 
L 474.427163 268.508771 
L 475.343921 270.052683 
L 476.566265 271.187139 
L 478.705367 272.676597 
L 480.538883 275.524885 
L 481.455641 276.346142 
L 482.983571 277.579407 
L 484.511501 278.551541 
L 485.428258 278.757212 
L 485.733844 277.693379 
L 486.03943 278.81096 
L 486.345016 276.259174 
L 486.650602 278.812292 
L 492.15115 279.456893 
L 494.290252 279.502936 
L 494.595838 279.00981 
L 494.901424 279.40582 
L 499.7908 279.523294 
L 500.401972 280.135075 
L 503.457831 284.512292 
L 504.985761 286.688485 
L 507.430449 294.577997 
L 507.736035 294.037681 
L 508.652793 296.583528 
L 508.958379 293.645477 
L 509.569551 295.439168 
L 511.403067 300.557583 
L 511.708653 299.685812 
L 512.014239 301.09812 
L 512.319825 301.931165 
L 512.625411 299.431843 
L 512.930997 302.447055 
L 514.458927 306.388672 
L 515.681271 309.795087 
L 518.73713 318.132537 
L 520.570646 322.704808 
L 520.876232 322.201409 
L 521.487404 323.751219 
L 523.32092 328.223271 
L 523.626506 327.193672 
L 523.932092 328.038152 
L 524.237678 325.049677 
L 524.543264 327.115246 
L 526.071194 330.58748 
L 526.37678 326.216162 
L 526.682366 327.329391 
L 526.987952 299.085903 
L 527.293538 259.888842 
L 527.599124 299.148196 
L 527.90471 299.907379 
L 528.210296 282.084041 
L 528.515882 302.32869 
L 528.821468 302.894927 
L 529.43264 300.490326 
L 529.738226 300.053109 
L 530.349398 300.278377 
L 530.96057 300.232524 
L 531.571742 299.831646 
L 532.488499 298.812328 
L 533.405257 297.398792 
L 534.933187 294.805548 
L 535.238773 292.696801 
L 535.544359 293.363377 
L 536.155531 292.527279 
L 537.377875 291.366693 
L 537.989047 290.894278 
L 538.294633 290.325686 
L 538.600219 288.485376 
L 538.905805 289.477887 
L 539.822563 289.012987 
L 540.433735 288.834523 
L 540.739321 288.618007 
L 541.044907 287.909289 
L 541.350493 288.239961 
L 541.961665 288.316255 
L 542.878423 288.801132 
L 543.184009 289.031157 
L 543.489595 287.401865 
L 543.795181 288.126566 
L 544.711939 288.614012 
L 545.934283 289.399595 
L 546.545455 289.603839 
L 548.073384 290.950595 
L 548.37897 289.818072 
L 548.684556 289.175945 
L 549.295728 290.430329 
L 549.9069 291.015378 
L 552.351588 293.012157 
L 552.657174 293.310865 
L 553.268346 293.134038 
L 553.573932 293.562294 
L 553.879518 293.487712 
L 554.49069 294.798984 
L 556.01862 297.804141 
L 557.54655 300.815766 
L 560.60241 304.089094 
L 561.519168 304.9309 
L 562.435926 305.646467 
L 562.741512 304.822505 
L 563.047097 302.962032 
L 563.352683 296.090145 
L 563.658269 249.038029 
L 563.963855 242.978724 
L 564.269441 250.67379 
L 564.575027 265.471109 
L 565.186199 269.084473 
L 565.491785 250.804879 
L 565.797371 269.696332 
L 566.714129 270.221808 
L 567.019715 270.221863 
L 567.325301 263.239511 
L 567.630887 270.172346 
L 568.547645 270.221863 
L 584.743702 270.21216 
L 585.049288 270.013923 
L 585.354874 269.08681 
L 585.66046 270.215432 
L 587.799562 270.221767 
L 588.105148 269.01511 
L 588.410734 270.221863 
L 589.327492 270.293591 
L 589.938664 270.734328 
L 592.688938 274.417572 
L 593.605696 275.517179 
L 595.439211 277.992176 
L 599.411829 279.082461 
L 600.634173 279.355009 
L 607.662651 279.522343 
L 607.968237 279.51499 
L 608.273823 279.323149 
L 608.884995 279.433936 
L 610.71851 279.524185 
L 613.163198 279.527289 
L 614.996714 282.730221 
L 619.274918 296.934272 
L 623.247536 308.832714 
L 625.997809 316.660295 
L 627.525739 320.759114 
L 627.831325 321.052486 
L 629.970427 326.521481 
L 630.276013 324.097266 
L 630.581599 323.62794 
L 631.192771 324.7402 
L 633.026287 329.21151 
L 635.165389 334.42393 
L 635.470975 331.637747 
L 635.776561 331.799994 
L 636.693319 333.662333 
L 640.971522 343.450797 
L 644.027382 349.651712 
L 645.249726 351.850833 
L 647.694414 356.309224 
L 648 356.821822 
L 648 356.821822 
" style="fill:none;stroke:#03719c;stroke-linecap:square;stroke-width:4;"/>
   </g>
   <g id="line2d_16">
    <path clip-path="url(#p4b5c388df0)" d="M 90 316.183532 
L 90.305586 316.276771 
L 91.833516 317.968152 
L 93.972618 320.51225 
L 94.278204 320.719252 
L 94.889376 315.241872 
L 95.194962 316.702414 
L 95.500548 315.750257 
L 95.806134 316.451187 
L 96.417306 316.829382 
L 99.167579 319.740932 
L 102.834611 324.19467 
L 105.890471 327.516823 
L 106.196057 327.823085 
L 106.501643 326.612987 
L 107.112815 326.72572 
L 107.418401 323.074879 
L 107.723987 317.396562 
L 108.029573 319.568866 
L 108.335159 320.300547 
L 108.946331 320.5804 
L 109.251917 320.770281 
L 109.557503 317.739887 
L 109.863089 320.393026 
L 110.168675 319.007326 
L 110.474261 319.084048 
L 110.779847 319.777368 
L 111.085433 319.981125 
L 111.391019 318.808 
L 111.696605 320.031572 
L 112.002191 320.030587 
L 113.53012 321.382134 
L 113.835706 321.298473 
L 114.141292 319.965526 
L 114.446878 321.074238 
L 114.752464 311.92198 
L 115.05805 258.907933 
L 115.363636 257.288105 
L 115.669222 268.405844 
L 115.974808 269.595531 
L 116.280394 270.092166 
L 116.891566 270.22173 
L 117.197152 270.22173 
L 117.502738 264.78392 
L 117.808324 270.22173 
L 121.780942 270.22173 
L 122.086528 269.773729 
L 122.392114 266.906404 
L 122.6977 262.584266 
L 123.003286 269.770528 
L 124.22563 270.212643 
L 128.809419 270.22173 
L 134.309967 270.22173 
L 134.615553 269.927912 
L 134.921139 269.173805 
L 135.226725 270.22173 
L 141.949617 270.274773 
L 142.560789 270.59424 
L 142.866375 270.437931 
L 143.783133 270.812679 
L 144.394304 271.014511 
L 145.005476 270.837701 
L 149.589266 275.136563 
L 151.422782 277.00623 
L 152.033954 277.491653 
L 152.950712 278.068189 
L 155.3954 278.498979 
L 158.756846 279.160876 
L 160.590361 279.372421 
L 168.230011 279.519689 
L 174.036145 279.525351 
L 174.647317 280.12382 
L 175.258488 281.107825 
L 181.675794 298.270774 
L 182.898138 301.319788 
L 184.120482 304.129616 
L 184.426068 304.913535 
L 184.731654 305.237859 
L 185.342826 306.688396 
L 185.648412 307.058176 
L 186.259584 308.539107 
L 186.56517 308.682436 
L 187.176342 309.667828 
L 188.398686 312.364565 
L 189.926616 315.69614 
L 190.232202 316.061846 
L 190.537788 314.041733 
L 190.843373 314.04565 
L 191.760131 315.695357 
L 194.204819 320.641903 
L 195.732749 323.440653 
L 196.038335 323.923322 
L 196.343921 323.477649 
L 197.871851 326.08983 
L 198.177437 321.075357 
L 198.483023 293.473173 
L 198.788609 281.978627 
L 199.094195 293.384656 
L 199.399781 294.031468 
L 199.705367 272.944742 
L 200.010953 288.351204 
L 200.316539 288.481976 
L 200.927711 287.070247 
L 201.844469 285.667493 
L 202.455641 285.08299 
L 203.066813 284.778719 
L 203.677985 284.750765 
L 204.594743 285.166784 
L 204.900329 285.037019 
L 205.817087 285.681862 
L 206.122673 283.836836 
L 206.428258 285.356083 
L 206.733844 285.464027 
L 207.345016 286.056297 
L 207.956188 286.606915 
L 209.178532 288.373675 
L 211.012048 292.012385 
L 211.317634 291.836358 
L 211.62322 288.195454 
L 211.928806 289.835269 
L 213.15115 292.491317 
L 214.373494 294.969771 
L 214.67908 294.789044 
L 215.290252 296.567934 
L 215.901424 297.809747 
L 216.20701 297.277391 
L 216.512596 297.182205 
L 221.401972 307.978753 
L 221.707558 307.960356 
L 222.318729 309.321795 
L 222.624315 309.434953 
L 224.152245 312.620358 
L 224.457831 313.018159 
L 225.680175 315.378687 
L 225.985761 315.269356 
L 226.291347 316.014734 
L 226.596933 315.771743 
L 226.902519 316.138345 
L 228.124863 318.321168 
L 228.430449 315.364542 
L 228.736035 315.00526 
L 229.041621 316.019568 
L 230.875137 319.381067 
L 232.403067 322.137785 
L 232.708653 320.678071 
L 233.014239 322.152064 
L 236.070099 326.348443 
L 236.375685 326.036361 
L 236.986857 327.089099 
L 239.73713 330.735709 
L 240.042716 331.131585 
L 240.348302 326.773504 
L 240.653888 311.297325 
L 240.959474 308.146544 
L 241.26506 310.239731 
L 242.181818 310.500448 
L 244.015334 309.938437 
L 244.626506 309.936692 
L 245.237678 310.124983 
L 245.543264 310.291633 
L 245.84885 309.362774 
L 246.154436 310.149021 
L 247.071194 310.620656 
L 248.599124 311.747788 
L 249.515882 312.532535 
L 252.571742 315.639091 
L 255.016429 318.145231 
L 255.627601 318.687322 
L 256.238773 319.363028 
L 256.544359 317.914639 
L 257.461117 318.553103 
L 257.766703 318.537302 
L 258.072289 318.137375 
L 258.377875 317.154623 
L 258.683461 318.356082 
L 259.600219 319.159159 
L 260.211391 319.687911 
L 260.516977 318.182696 
L 260.822563 319.393891 
L 262.656079 321.208032 
L 263.878423 322.697893 
L 264.184009 322.684263 
L 264.489595 322.058959 
L 264.795181 322.872264 
L 266.017525 324.301629 
L 266.628697 325.101349 
L 266.934283 325.112897 
L 267.239869 324.588867 
L 267.545455 325.403627 
L 269.37897 327.448628 
L 271.823658 330.634278 
L 272.740416 331.613069 
L 274.573932 333.781053 
L 275.185104 334.461124 
L 275.796276 334.877031 
L 276.713034 335.911482 
L 277.01862 335.758396 
L 279.157722 338.028729 
L 281.296824 340.776159 
L 281.60241 340.698385 
L 282.213582 335.02723 
L 282.519168 336.342967 
L 283.435926 337.201033 
L 284.047097 337.805702 
L 285.575027 339.866325 
L 286.491785 341.09952 
L 287.102957 341.844787 
L 287.408543 342.28406 
L 287.714129 342.476648 
L 288.630887 343.678152 
L 288.936473 342.777047 
L 289.242059 343.570656 
L 289.547645 343.881014 
L 289.853231 343.562666 
L 290.158817 344.204935 
L 290.464403 343.14141 
L 290.769989 344.09529 
L 291.992333 345.570559 
L 292.297919 345.096663 
L 292.603505 346.058018 
L 292.909091 346.497112 
L 293.214677 344.78626 
L 293.520263 346.636747 
L 294.437021 347.667215 
L 296.576123 350.645774 
L 297.187295 351.544105 
L 297.492881 347.14567 
L 297.798467 295.265514 
L 298.104053 269.223177 
L 298.409639 271.093673 
L 298.715225 277.822288 
L 299.020811 262.348549 
L 299.326396 259.012028 
L 299.631982 273.673402 
L 299.937568 278.252116 
L 300.243154 278.047374 
L 300.54874 263.430113 
L 300.854326 275.130386 
L 301.159912 274.220126 
L 301.465498 265.391565 
L 301.771084 272.652692 
L 302.382256 271.60188 
L 302.687842 271.176215 
L 302.993428 253.099538 
L 303.299014 269.917147 
L 303.6046 250.847825 
L 303.910186 268.843304 
L 304.215772 270.087287 
L 304.826944 270.220924 
L 307.577218 270.22173 
L 307.882804 263.502941 
L 308.18839 270.217724 
L 308.493976 266.170448 
L 308.799562 270.04163 
L 309.105148 270.22173 
L 309.410734 270.22173 
L 309.71632 265.301907 
L 310.021906 270.22173 
L 310.327492 270.22173 
L 310.633078 269.745462 
L 310.938664 270.22173 
L 311.549836 270.22173 
L 311.855422 265.799169 
L 312.161008 263.428725 
L 312.466594 270.22173 
L 314.911281 270.22173 
L 315.216867 267.916751 
L 315.522453 270.22173 
L 319.495071 270.22173 
L 319.800657 270.432358 
L 322.550931 275.893781 
L 322.856517 276.288112 
L 323.467689 277.533147 
L 324.078861 278.109437 
L 326.523549 279.02847 
L 326.829135 279.06513 
L 327.134721 278.914595 
L 327.440307 279.100895 
L 328.051479 279.211815 
L 328.357065 278.834717 
L 329.273823 279.326697 
L 330.190581 279.408119 
L 338.135816 279.525306 
L 338.746988 280.353069 
L 339.969332 282.038093 
L 340.274918 282.471569 
L 340.88609 284.177139 
L 343.025192 290.699804 
L 343.330778 291.585824 
L 343.636364 290.627692 
L 343.94195 290.221185 
L 345.164294 294.084578 
L 346.997809 298.776541 
L 347.608981 300.140397 
L 347.914567 300.381015 
L 348.220153 292.52782 
L 348.525739 262.098329 
L 348.831325 256.967318 
L 349.136911 267.392833 
L 349.442497 268.833389 
L 349.748083 269.643091 
L 350.053669 270.022785 
L 350.359255 251.649112 
L 350.664841 254.29191 
L 350.970427 266.634295 
L 351.276013 268.452397 
L 351.581599 269.433447 
L 351.887185 269.913946 
L 352.192771 270.126767 
L 352.803943 270.21327 
L 358.304491 270.22173 
L 358.610077 269.629304 
L 358.915663 259.813761 
L 359.221249 270.198969 
L 361.054765 270.22173 
L 363.193866 270.22173 
L 363.499452 262.341745 
L 363.805038 270.067592 
L 364.41621 270.179049 
L 366.249726 270.221663 
L 367.47207 270.22173 
L 367.777656 262.918236 
L 368.388828 270.216829 
L 371.750274 270.22173 
L 372.972618 271.069009 
L 376.945235 276.611317 
L 377.250821 273.748289 
L 377.556407 276.457044 
L 378.167579 277.126417 
L 379.389923 278.163397 
L 384.584885 279.390819 
L 385.196057 279.392408 
L 385.501643 279.187062 
L 385.807229 279.403979 
L 389.474261 279.507312 
L 389.779847 279.147223 
L 390.085433 277.875197 
L 390.391019 274.790283 
L 391.002191 261.303354 
L 391.307777 274.146358 
L 391.613363 274.172231 
L 391.918949 274.483954 
L 392.53012 274.429725 
L 392.835706 274.349623 
L 393.141292 261.17943 
L 393.446878 274.079573 
L 394.974808 271.790888 
L 396.197152 270.335806 
L 396.808324 270.22173 
L 400.475356 270.22173 
L 400.780942 269.908239 
L 401.086528 270.22173 
L 401.6977 270.22173 
L 402.003286 269.04686 
L 402.308872 261.326116 
L 402.920044 268.752146 
L 403.22563 269.899421 
L 403.531216 270.197514 
L 404.75356 270.22173 
L 405.059146 267.265955 
L 405.364732 270.22173 
L 411.170865 270.22173 
L 411.476451 269.963251 
L 411.782037 268.637398 
L 412.087623 270.205661 
L 413.921139 270.22173 
L 414.532311 270.786292 
L 414.837897 271.106117 
L 415.754655 272.873078 
L 416.365827 267.5651 
L 416.976999 270.51622 
L 417.588171 272.156706 
L 420.338445 277.625312 
L 420.644031 278.029738 
L 421.255203 278.329756 
L 421.560789 277.772445 
L 421.866375 278.469055 
L 423.088719 278.982029 
L 423.394304 278.48329 
L 423.69989 274.404546 
L 424.005476 264.987229 
L 424.311062 274.872578 
L 424.616648 276.129542 
L 425.22782 277.277086 
L 426.144578 278.393206 
L 427.672508 278.984625 
L 429.81161 279.421078 
L 432.561884 279.515369 
L 432.86747 279.262978 
L 433.173056 279.519286 
L 436.534502 279.525284 
L 436.840088 279.842222 
L 437.756846 281.43056 
L 438.062432 280.230018 
L 438.368018 277.617009 
L 438.673604 276.826913 
L 438.979189 278.321833 
L 439.284775 270.819192 
L 439.590361 278.179131 
L 439.895947 279.16242 
L 440.507119 251.110176 
L 440.812705 254.025397 
L 441.118291 254.360486 
L 441.423877 274.839432 
L 441.729463 277.552596 
L 442.035049 278.555737 
L 442.340635 279.150424 
L 442.646221 279.239053 
L 442.951807 276.905247 
L 443.257393 279.186726 
L 443.562979 277.766805 
L 443.868565 279.145992 
L 444.174151 279.137241 
L 444.479737 269.338149 
L 444.785323 279.121597 
L 447.230011 279.249303 
L 447.535597 275.480761 
L 447.841183 279.264858 
L 450.897043 279.456753 
L 451.202629 276.784009 
L 451.508215 263.67185 
L 451.813801 214.16328 
L 452.119387 263.282465 
L 452.730559 268.607855 
L 453.036145 269.716254 
L 453.341731 270.139704 
L 453.952903 270.22173 
L 463.120482 270.22173 
L 463.426068 268.613048 
L 463.731654 270.22173 
L 464.953998 270.22173 
L 465.259584 267.388089 
L 465.56517 270.207115 
L 468.315444 270.22173 
L 470.148959 270.200356 
L 470.760131 270.625686 
L 471.065717 270.881747 
L 471.982475 272.177789 
L 472.288061 271.799907 
L 472.593647 269.990153 
L 473.204819 261.528597 
L 473.510405 265.673521 
L 474.427163 268.502418 
L 475.343921 270.051478 
L 476.566265 271.186935 
L 478.705367 272.677826 
L 480.538883 275.524896 
L 481.455641 276.345922 
L 482.983571 277.580125 
L 484.511501 278.55153 
L 485.428258 278.757972 
L 485.733844 277.693082 
L 486.03943 278.810098 
L 486.345016 276.25087 
L 486.650602 278.812515 
L 492.15115 279.457067 
L 494.290252 279.504201 
L 494.595838 279.00864 
L 494.901424 279.404471 
L 499.7908 279.522643 
L 500.401972 280.136264 
L 503.457831 284.512228 
L 504.985761 286.687957 
L 507.430449 294.577924 
L 507.736035 294.037131 
L 508.652793 296.583489 
L 508.958379 293.641188 
L 509.569551 295.437804 
L 511.403067 300.558475 
L 511.708653 299.685323 
L 512.014239 301.094747 
L 512.319825 301.931261 
L 512.625411 299.424584 
L 512.930997 302.446383 
L 514.458927 306.387595 
L 515.681271 309.796273 
L 518.73713 318.13263 
L 520.570646 322.703578 
L 520.876232 322.201974 
L 521.487404 323.752197 
L 523.32092 328.223482 
L 523.626506 327.193327 
L 523.932092 328.036891 
L 524.237678 325.042979 
L 524.543264 327.112151 
L 526.071194 330.587838 
L 526.37678 326.215678 
L 526.682366 327.329292 
L 526.987952 299.076961 
L 527.293538 259.741247 
L 527.599124 299.147618 
L 527.90471 299.895056 
L 528.210296 282.050045 
L 528.515882 302.328479 
L 528.821468 302.894317 
L 529.43264 300.489989 
L 529.738226 300.052663 
L 530.349398 300.278555 
L 530.96057 300.232271 
L 531.571742 299.83071 
L 532.488499 298.811231 
L 533.405257 297.398764 
L 534.933187 294.805114 
L 535.238773 292.696887 
L 535.544359 293.362879 
L 536.155531 292.526276 
L 537.377875 291.36696 
L 537.989047 290.893713 
L 538.294633 290.326309 
L 538.600219 288.484617 
L 538.905805 289.477978 
L 539.822563 289.012922 
L 540.433735 288.833963 
L 540.739321 288.617606 
L 541.044907 287.908596 
L 541.350493 288.239388 
L 541.961665 288.315797 
L 542.878423 288.801264 
L 543.184009 289.031028 
L 543.489595 287.401062 
L 543.795181 288.126028 
L 544.711939 288.613644 
L 545.934283 289.399957 
L 546.545455 289.603625 
L 548.073384 290.950829 
L 548.37897 289.818662 
L 548.684556 289.176013 
L 549.295728 290.430963 
L 549.9069 291.015376 
L 552.351588 293.012415 
L 552.657174 293.310105 
L 553.268346 293.132064 
L 553.573932 293.562496 
L 553.879518 293.487542 
L 554.49069 294.798981 
L 556.01862 297.802898 
L 557.54655 300.816662 
L 560.60241 304.088346 
L 561.519168 304.931014 
L 562.435926 305.64591 
L 562.741512 304.822332 
L 563.047097 302.956492 
L 563.352683 296.07338 
L 563.658269 248.939886 
L 563.963855 242.866253 
L 564.269441 250.568376 
L 564.575027 265.454501 
L 565.186199 269.07882 
L 565.491785 250.717344 
L 565.797371 269.691076 
L 566.714129 270.221641 
L 567.019715 270.22173 
L 567.325301 263.151446 
L 567.630887 270.169963 
L 568.547645 270.22173 
L 584.743702 270.213024 
L 585.049288 270.013407 
L 585.354874 269.083005 
L 585.66046 270.215195 
L 587.799562 270.221506 
L 588.105148 269.008566 
L 588.410734 270.221708 
L 589.327492 270.293864 
L 589.938664 270.735487 
L 592.688938 274.418109 
L 593.605696 275.517242 
L 595.439211 277.992496 
L 600.023001 279.257137 
L 601.245345 279.378934 
L 607.662651 279.522218 
L 607.968237 279.514384 
L 608.273823 279.322803 
L 608.884995 279.43247 
L 610.71851 279.523426 
L 613.163198 279.527858 
L 614.996714 282.729332 
L 619.274918 296.934267 
L 623.858708 310.690709 
L 626.303395 317.461333 
L 627.525739 320.760142 
L 627.831325 321.052551 
L 629.970427 326.521918 
L 630.276013 324.0955 
L 630.581599 323.628653 
L 631.192771 324.741148 
L 633.026287 329.211314 
L 635.165389 334.422964 
L 635.470975 331.63489 
L 635.776561 331.7991 
L 636.693319 333.662546 
L 640.971522 343.451119 
L 644.027382 349.651362 
L 645.249726 351.850367 
L 647.694414 356.308895 
L 648 356.821219 
L 648 356.821219 
" style="fill:none;stroke:#c04e01;stroke-linecap:square;stroke-width:2;"/>
   </g>
   <g id="patch_3">
    <path d="M 90 441 
L 90 60.48 
" style="fill:none;stroke:#000000;stroke-linecap:square;stroke-linejoin:miter;stroke-width:0.8;"/>
   </g>
   <g id="patch_4">
    <path d="M 648 441 
L 648 60.48 
" style="fill:none;stroke:#000000;stroke-linecap:square;stroke-linejoin:miter;stroke-width:0.8;"/>
   </g>
   <g id="patch_5">
    <path d="M 90 441 
L 648 441 
" style="fill:none;stroke:#000000;stroke-linecap:square;stroke-linejoin:miter;stroke-width:0.8;"/>
   </g>
   <g id="patch_6">
    <path d="M 90 60.48 
L 648 60.48 
" style="fill:none;stroke:#000000;stroke-linecap:square;stroke-linejoin:miter;stroke-width:0.8;"/>
   </g>
   <g id="legend_1">
    <g id="patch_7">
     <path d="M 248.25375 105.3075 
L 489.74625 105.3075 
Q 492.14625 105.3075 492.14625 102.9075 
L 492.14625 68.88 
Q 492.14625 66.48 489.74625 66.48 
L 248.25375 66.48 
Q 245.85375 66.48 245.85375 68.88 
L 245.85375 102.9075 
Q 245.85375 105.3075 248.25375 105.3075 
z
" style="fill:#ffffff;opacity:0.8;stroke:#cccccc;stroke-linejoin:miter;"/>
    </g>
    <g id="line2d_17">
     <path d="M 250.65375 76.198125 
L 274.65375 76.198125 
" style="fill:none;stroke:#03719c;stroke-linecap:square;stroke-width:4;"/>
    </g>
    <g id="line2d_18"/>
    <g id="text_16">
     <!-- MF6 Total Applied Infiltration -->
     <defs>
      <path d="M 9.421875 75.984375 
L 18.40625 75.984375 
L 18.40625 0 
L 9.421875 0 
z
" id="DejaVuSans-108"/>
      <path d="M 34.1875 63.1875 
L 20.796875 26.90625 
L 47.609375 26.90625 
z
M 28.609375 72.90625 
L 39.796875 72.90625 
L 67.578125 0 
L 57.328125 0 
L 50.6875 18.703125 
L 17.828125 18.703125 
L 11.1875 0 
L 0.78125 0 
z
" id="DejaVuSans-65"/>
      <path d="M 18.109375 8.203125 
L 18.109375 -20.796875 
L 9.078125 -20.796875 
L 9.078125 54.6875 
L 18.109375 54.6875 
L 18.109375 46.390625 
Q 20.953125 51.265625 25.265625 53.625 
Q 29.59375 56 35.59375 56 
Q 45.5625 56 51.78125 48.09375 
Q 58.015625 40.1875 58.015625 27.296875 
Q 58.015625 14.40625 51.78125 6.484375 
Q 45.5625 -1.421875 35.59375 -1.421875 
Q 29.59375 -1.421875 25.265625 0.953125 
Q 20.953125 3.328125 18.109375 8.203125 
z
M 48.6875 27.296875 
Q 48.6875 37.203125 44.609375 42.84375 
Q 40.53125 48.484375 33.40625 48.484375 
Q 26.265625 48.484375 22.1875 42.84375 
Q 18.109375 37.203125 18.109375 27.296875 
Q 18.109375 17.390625 22.1875 11.75 
Q 26.265625 6.109375 33.40625 6.109375 
Q 40.53125 6.109375 44.609375 11.75 
Q 48.6875 17.390625 48.6875 27.296875 
z
" id="DejaVuSans-112"/>
      <path d="M 9.421875 54.6875 
L 18.40625 54.6875 
L 18.40625 0 
L 9.421875 0 
z
M 9.421875 75.984375 
L 18.40625 75.984375 
L 18.40625 64.59375 
L 9.421875 64.59375 
z
" id="DejaVuSans-105"/>
      <path d="M 9.8125 72.90625 
L 19.671875 72.90625 
L 19.671875 0 
L 9.8125 0 
z
" id="DejaVuSans-73"/>
     </defs>
     <g transform="translate(284.25375 80.398125)scale(0.12 -0.12)">
      <use xlink:href="#DejaVuSans-77"/>
      <use x="86.279297" xlink:href="#DejaVuSans-70"/>
      <use x="143.798828" xlink:href="#DejaVuSans-54"/>
      <use x="207.421875" xlink:href="#DejaVuSans-32"/>
      <use x="239.208984" xlink:href="#DejaVuSans-84"/>
      <use x="300.027344" xlink:href="#DejaVuSans-111"/>
      <use x="361.208984" xlink:href="#DejaVuSans-116"/>
      <use x="400.417969" xlink:href="#DejaVuSans-97"/>
      <use x="461.697266" xlink:href="#DejaVuSans-108"/>
      <use x="489.480469" xlink:href="#DejaVuSans-32"/>
      <use x="521.267578" xlink:href="#DejaVuSans-65"/>
      <use x="589.675781" xlink:href="#DejaVuSans-112"/>
      <use x="653.152344" xlink:href="#DejaVuSans-112"/>
      <use x="716.628906" xlink:href="#DejaVuSans-108"/>
      <use x="744.412109" xlink:href="#DejaVuSans-105"/>
      <use x="772.195312" xlink:href="#DejaVuSans-101"/>
      <use x="833.71875" xlink:href="#DejaVuSans-100"/>
      <use x="897.195312" xlink:href="#DejaVuSans-32"/>
      <use x="928.982422" xlink:href="#DejaVuSans-73"/>
      <use x="958.474609" xlink:href="#DejaVuSans-110"/>
      <use x="1021.853516" xlink:href="#DejaVuSans-102"/>
      <use x="1057.058594" xlink:href="#DejaVuSans-105"/>
      <use x="1084.841797" xlink:href="#DejaVuSans-108"/>
      <use x="1112.625" xlink:href="#DejaVuSans-116"/>
      <use x="1151.833984" xlink:href="#DejaVuSans-114"/>
      <use x="1192.947266" xlink:href="#DejaVuSans-97"/>
      <use x="1254.226562" xlink:href="#DejaVuSans-116"/>
      <use x="1293.435547" xlink:href="#DejaVuSans-105"/>
      <use x="1321.21875" xlink:href="#DejaVuSans-111"/>
      <use x="1382.400391" xlink:href="#DejaVuSans-110"/>
     </g>
    </g>
    <g id="line2d_19">
     <path d="M 250.65375 93.811875 
L 274.65375 93.811875 
" style="fill:none;stroke:#c04e01;stroke-linecap:square;stroke-width:2;"/>
    </g>
    <g id="line2d_20"/>
    <g id="text_17">
     <!-- HSPF Losses to Unsaturated Zone -->
     <defs>
      <path d="M 9.8125 72.90625 
L 19.671875 72.90625 
L 19.671875 8.296875 
L 55.171875 8.296875 
L 55.171875 0 
L 9.8125 0 
z
" id="DejaVuSans-76"/>
      <path d="M 8.6875 72.90625 
L 18.609375 72.90625 
L 18.609375 28.609375 
Q 18.609375 16.890625 22.84375 11.734375 
Q 27.09375 6.59375 36.625 6.59375 
Q 46.09375 6.59375 50.34375 11.734375 
Q 54.59375 16.890625 54.59375 28.609375 
L 54.59375 72.90625 
L 64.5 72.90625 
L 64.5 27.390625 
Q 64.5 13.140625 57.4375 5.859375 
Q 50.390625 -1.421875 36.625 -1.421875 
Q 22.796875 -1.421875 15.734375 5.859375 
Q 8.6875 13.140625 8.6875 27.390625 
z
" id="DejaVuSans-85"/>
      <path d="M 8.5 21.578125 
L 8.5 54.6875 
L 17.484375 54.6875 
L 17.484375 21.921875 
Q 17.484375 14.15625 20.5 10.265625 
Q 23.53125 6.390625 29.59375 6.390625 
Q 36.859375 6.390625 41.078125 11.03125 
Q 45.3125 15.671875 45.3125 23.6875 
L 45.3125 54.6875 
L 54.296875 54.6875 
L 54.296875 0 
L 45.3125 0 
L 45.3125 8.40625 
Q 42.046875 3.421875 37.71875 1 
Q 33.40625 -1.421875 27.6875 -1.421875 
Q 18.265625 -1.421875 13.375 4.4375 
Q 8.5 10.296875 8.5 21.578125 
z
M 31.109375 56 
z
" id="DejaVuSans-117"/>
      <path d="M 5.609375 72.90625 
L 62.890625 72.90625 
L 62.890625 65.375 
L 16.796875 8.296875 
L 64.015625 8.296875 
L 64.015625 0 
L 4.5 0 
L 4.5 7.515625 
L 50.59375 64.59375 
L 5.609375 64.59375 
z
" id="DejaVuSans-90"/>
     </defs>
     <g transform="translate(284.25375 98.011875)scale(0.12 -0.12)">
      <use xlink:href="#DejaVuSans-72"/>
      <use x="75.195312" xlink:href="#DejaVuSans-83"/>
      <use x="138.671875" xlink:href="#DejaVuSans-80"/>
      <use x="198.974609" xlink:href="#DejaVuSans-70"/>
      <use x="256.494141" xlink:href="#DejaVuSans-32"/>
      <use x="288.28125" xlink:href="#DejaVuSans-76"/>
      <use x="343.978516" xlink:href="#DejaVuSans-111"/>
      <use x="405.160156" xlink:href="#DejaVuSans-115"/>
      <use x="457.259766" xlink:href="#DejaVuSans-115"/>
      <use x="509.359375" xlink:href="#DejaVuSans-101"/>
      <use x="570.882812" xlink:href="#DejaVuSans-115"/>
      <use x="622.982422" xlink:href="#DejaVuSans-32"/>
      <use x="654.769531" xlink:href="#DejaVuSans-116"/>
      <use x="693.978516" xlink:href="#DejaVuSans-111"/>
      <use x="755.160156" xlink:href="#DejaVuSans-32"/>
      <use x="786.947266" xlink:href="#DejaVuSans-85"/>
      <use x="860.140625" xlink:href="#DejaVuSans-110"/>
      <use x="923.519531" xlink:href="#DejaVuSans-115"/>
      <use x="975.619141" xlink:href="#DejaVuSans-97"/>
      <use x="1036.898438" xlink:href="#DejaVuSans-116"/>
      <use x="1076.107422" xlink:href="#DejaVuSans-117"/>
      <use x="1139.486328" xlink:href="#DejaVuSans-114"/>
      <use x="1180.599609" xlink:href="#DejaVuSans-97"/>
      <use x="1241.878906" xlink:href="#DejaVuSans-116"/>
      <use x="1281.087891" xlink:href="#DejaVuSans-101"/>
      <use x="1342.611328" xlink:href="#DejaVuSans-100"/>
      <use x="1406.087891" xlink:href="#DejaVuSans-32"/>
      <use x="1437.875" xlink:href="#DejaVuSans-90"/>
      <use x="1506.380859" xlink:href="#DejaVuSans-111"/>
      <use x="1567.5625" xlink:href="#DejaVuSans-110"/>
      <use x="1630.941406" xlink:href="#DejaVuSans-101"/>
     </g>
    </g>
   </g>
  </g>
 </g>
 <defs>
  <clipPath id="p4b5c388df0">
   <rect height="380.52" width="558" x="90" y="60.48"/>
  </clipPath>
 </defs>
</svg>
