<svg width="1280" height="720" xmlns="http://www.w3.org/2000/svg" xmlns:xlink="http://www.w3.org/1999/xlink" overflow="hidden"><defs><clipPath id="clip0"><path d="M0 0 1280 0 1280 720 0 720Z" fill-rule="evenodd" clip-rule="evenodd"/></clipPath></defs><g clip-path="url(#clip0)"><rect x="0" y="0" width="1280" height="720" fill="#FFFFFF"/><path d="M1025 331.936C1025 324.239 1031.04 318 1038.5 318L1146.5 318C1153.96 318 1160 324.239 1160 331.936L1160 614.064C1160 621.76 1153.96 628 1146.5 628L1038.5 628C1031.04 628 1025 621.76 1025 614.064L1025 331.936Z" fill="#FBE5D6" fill-rule="evenodd"/><text font-family="Calibri,Calibri_MSFontService,sans-serif" font-weight="700" font-size="19" transform="translate(1054.97 299)">Boundary <tspan x="6.35339" y="20">Package </tspan><tspan x="-7.70667" y="41">Component </tspan><tspan x="8.28662" y="61">Objects</tspan></text><path d="M868 331.936C868 324.239 874.044 318 881.5 318L989.5 318C996.956 318 1003 324.239 1003 331.936L1003 614.064C1003 621.76 996.956 628 989.5 628L881.5 628C874.044 628 868 621.76 868 614.064L868 331.936Z" fill="#FBE5D6" fill-rule="evenodd"/><text font-family="Calibri,Calibri_MSFontService,sans-serif" font-weight="700" font-size="19" transform="translate(888.769 319)">Model<tspan x="50.3334" y="0">-</tspan><tspan x="56.0001" y="0">level </tspan><tspan x="16.9467" y="20">Objects</tspan></text><path d="M710 331.936C710 324.239 716.044 318 723.5 318L831.5 318C838.956 318 845 324.239 845 331.936L845 614.064C845 621.76 838.956 628 831.5 628L723.5 628C716.044 628 710 621.76 710 614.064L710 331.936Z" fill="#FBE5D6" fill-rule="evenodd"/><text font-family="Calibri,Calibri_MSFontService,sans-serif" font-weight="700" font-size="19" transform="translate(744.589 309)">Program <tspan x="-12.3734" y="20">Control and </tspan><tspan x="-1.55334" y="41">Interface</tspan></text><path d="M0 19.0693 98.0161 19.0693" stroke="#843C0C" stroke-width="1.33333" stroke-miterlimit="8" fill="none" fill-rule="evenodd" transform="matrix(0.680043 -0.733172 -0.733172 -0.680043 842.844 579.206)"/><path d="M992.544 479.556 1037.74 447.068" stroke="#843C0C" stroke-width="1.33333" stroke-miterlimit="8" fill="none" fill-rule="evenodd"/><path d="M1038.5 423.4C1038.5 420.142 1041.03 417.5 1044.15 417.5L1145.85 417.5C1148.97 417.5 1151.5 420.142 1151.5 423.4L1151.5 470.6C1151.5 473.859 1148.97 476.5 1145.85 476.5L1044.15 476.5C1041.03 476.5 1038.5 473.859 1038.5 470.6L1038.5 423.4Z" stroke="#FFFFFF" stroke-width="1.33333" stroke-miterlimit="8" fill="#C55A11" fill-rule="evenodd"/><text fill="#FFFFFF" font-family="Calibri,Calibri_MSFontService,sans-serif" font-weight="400" font-size="16" transform="translate(1081.66 439)">UZF<tspan font-weight="700" x="-7.83325" y="24">cpUZF</tspan></text><path d="M992.544 480.637 1037.74 513.124" stroke="#843C0C" stroke-width="1.33333" stroke-miterlimit="8" fill="none" fill-rule="evenodd"/><path d="M1038.5 490.4C1038.5 487.142 1041.03 484.5 1044.15 484.5L1145.85 484.5C1148.97 484.5 1151.5 487.142 1151.5 490.4L1151.5 537.6C1151.5 540.859 1148.97 543.5 1145.85 543.5L1044.15 543.5C1041.03 543.5 1038.5 540.859 1038.5 537.6L1038.5 490.4Z" stroke="#FFFFFF" stroke-width="1.33333" stroke-miterlimit="8" fill="#C55A11" fill-rule="evenodd"/><text fill="#FFFFFF" font-family="Calibri,Calibri_MSFontService,sans-serif" font-weight="400" font-size="16" transform="translate(1050.1 518)">Discretization</text><path d="M824.5 579 890.5 579" stroke="#843C0C" stroke-width="1.33333" stroke-miterlimit="8" fill="none" fill-rule="evenodd"/><path d="M0 11.328 82.7264 11.328" stroke="#843C0C" stroke-width="1.33333" stroke-miterlimit="8" fill="none" fill-rule="evenodd" transform="matrix(0.642788 0.766044 0.766044 -0.642788 981.386 508.535)"/><path d="M1038.5 558.3C1038.5 555.097 1041.03 552.5 1044.15 552.5L1145.85 552.5C1148.97 552.5 1151.5 555.097 1151.5 558.3L1151.5 604.7C1151.5 607.903 1148.97 610.5 1145.85 610.5L1044.15 610.5C1041.03 610.5 1038.5 607.903 1038.5 604.7L1038.5 558.3Z" stroke="#FFFFFF" stroke-width="1.33333" stroke-miterlimit="8" fill="#C55A11" fill-rule="evenodd"/><text fill="#FFFFFF" font-family="Calibri,Calibri_MSFontService,sans-serif" font-weight="400" font-size="16" transform="translate(1079.83 573)">DRN<tspan font-weight="700" x="-8.08667" y="24">cpDRN</tspan></text><path d="M880.5 387.1C880.5 379.589 883.03 373.5 886.15 373.5L987.85 373.5C990.97 373.5 993.5 379.589 993.5 387.1L993.5 495.9C993.5 503.411 990.97 509.5 987.85 509.5L886.15 509.5C883.03 509.5 880.5 503.411 880.5 495.9L880.5 387.1Z" stroke="#FFFFFF" stroke-width="1.33333" stroke-miterlimit="8" fill="#C55A11" fill-rule="evenodd"/><text fill="#FFFFFF" font-family="Calibri,Calibri_MSFontService,sans-serif" font-weight="400" font-size="16" transform="translate(892.842 390)">Groundwater <tspan x="4.81329" y="17">Flow Model </tspan><tspan x="22.5733" y="35">(GWF)</tspan><tspan font-weight="700" x="15.62" y="59">Coupled </tspan><tspan font-weight="700" x="-1.19336" y="76">Groundwater </tspan><tspan font-weight="700" x="3.71997" y="93">Flow Model </tspan><tspan font-weight="700" x="14.5667" y="110">(</tspan><tspan font-weight="700" x="19.5667" y="110">cpGWF</tspan><tspan font-weight="700" x="66.84" y="110">)</tspan></text><path d="M1.33333-3.3073e-06 1.33342 35.6586-1.33324 35.6586-1.33333 3.3073e-06ZM4.00009 34.3252 0.000104987 42.3252-3.99991 34.3253Z" fill="#843C0C" transform="matrix(1 0 0 -1 935.5 551.825)"/><path d="M0 0 0.000104987 127.395" stroke="#843C0C" stroke-width="2" stroke-miterlimit="8" fill="none" fill-rule="evenodd" transform="matrix(1 0 0 -1 780 562.395)"/><path d="M723.5 401.3C723.5 398.097 726.03 395.5 729.15 395.5L830.85 395.5C833.97 395.5 836.5 398.097 836.5 401.3L836.5 447.7C836.5 450.903 833.97 453.5 830.85 453.5L729.15 453.5C726.03 453.5 723.5 450.903 723.5 447.7L723.5 401.3Z" stroke="#FFFFFF" stroke-width="1.33333" stroke-miterlimit="8" fill="#C55A11" fill-rule="evenodd"/><text fill="#FFFFFF" font-family="Calibri,Calibri_MSFontService,sans-serif" font-weight="400" font-size="16" transform="translate(729.168 416)">Python Module<tspan x="42.46" y="24">py</tspan></text><path d="M722.5 477.3C722.5 474.097 725.03 471.5 728.15 471.5L829.85 471.5C832.97 471.5 835.5 474.097 835.5 477.3L835.5 523.7C835.5 526.903 832.97 529.5 829.85 529.5L728.15 529.5C725.03 529.5 722.5 526.903 722.5 523.7L722.5 477.3Z" stroke="#FFFFFF" stroke-width="1.33333" stroke-miterlimit="8" fill="#C55A11" fill-rule="evenodd"/><text fill="#FFFFFF" font-family="Calibri,Calibri_MSFontService,sans-serif" font-weight="400" font-size="16" transform="translate(764.703 492)">f2py<tspan x="1.25336" y="24">PYD</tspan></text><path d="M721.5 554.4C721.5 551.142 724.03 548.5 727.15 548.5L828.85 548.5C831.97 548.5 834.5 551.142 834.5 554.4L834.5 601.6C834.5 604.859 831.97 607.5 828.85 607.5L727.15 607.5C724.03 607.5 721.5 604.859 721.5 601.6L721.5 554.4Z" stroke="#FFFFFF" stroke-width="1.33333" stroke-miterlimit="8" fill="#C55A11" fill-rule="evenodd"/><text fill="#FFFFFF" font-family="Calibri,Calibri_MSFontService,sans-serif" font-weight="400" font-size="16" transform="translate(766.263 582)">DLL</text><path d="M880.5 530.8C880.5 525.112 883.03 520.5 886.15 520.5L987.85 520.5C990.97 520.5 993.5 525.112 993.5 530.8L993.5 613.2C993.5 618.889 990.97 623.5 987.85 623.5L886.15 623.5C883.03 623.5 880.5 618.889 880.5 613.2L880.5 530.8Z" stroke="#843C0C" stroke-width="1.33333" stroke-miterlimit="8" fill="#C55A11" fill-rule="evenodd"/><text fill="#FFFFFF" font-family="Calibri,Calibri_MSFontService,sans-serif" font-weight="400" font-size="16" transform="translate(901.448 538)">Simulation <tspan x="13.0933" y="17">Object</tspan><tspan font-weight="700" x="7.01337" y="41">Coupled </tspan><tspan font-weight="700" x="-1.24664" y="59">Simulation </tspan><tspan font-weight="700" x="12.68" y="76">Object</tspan></text><path d="M448 440.811C448 435.945 454.358 432 462.2 432L575.8 432C583.642 432 590 435.945 590 440.811L590 619.189C590 624.055 583.642 628 575.8 628L462.2 628C454.358 628 448 624.055 448 619.189L448 440.811Z" fill="#CFD5EA" fill-rule="evenodd"/><text font-family="Calibri,Calibri_MSFontService,sans-serif" font-weight="700" font-size="19" transform="translate(481.15 356)">Boundary <tspan x="-14.06" y="20">Packages and </tspan><tspan x="-7.70667" y="41">Component </tspan><tspan x="8.29333" y="61">Objects</tspan></text><path d="M282 440.811C282 435.945 288.358 432 296.2 432L409.8 432C417.642 432 424 435.945 424 440.811L424 619.189C424 624.055 417.642 628 409.8 628L296.2 628C288.358 628 282 624.055 282 619.189L282 440.811Z" fill="#CFD5EA" fill-rule="evenodd"/><text font-family="Calibri,Calibri_MSFontService,sans-serif" font-weight="700" font-size="19" transform="translate(306.599 376)">Model<tspan x="50.3333" y="0">-</tspan><tspan x="56" y="0">level </tspan><tspan x="16.9533" y="20">Objects</tspan></text><path d="M116 440.811C116 435.945 122.358 432 130.2 432L243.8 432C251.642 432 258 435.945 258 440.811L258 619.189C258 624.055 251.642 628 243.8 628L130.2 628C122.358 628 116 624.055 116 619.189L116 440.811Z" fill="#CFD5EA" fill-rule="evenodd"/><text font-family="Calibri,Calibri_MSFontService,sans-serif" font-weight="700" font-size="19" transform="translate(154.054 366)">Program <tspan x="-12.3667" y="20">Control and </tspan><tspan x="-1.55334" y="41">Interface</tspan></text><path d="M128.5 532.1C128.5 529.56 131.164 527.5 134.45 527.5L241.55 527.5C244.836 527.5 247.5 529.56 247.5 532.1L247.5 568.9C247.5 571.441 244.836 573.5 241.55 573.5L134.45 573.5C131.164 573.5 128.5 571.441 128.5 568.9L128.5 532.1Z" stroke="#FFFFFF" stroke-width="1.33333" stroke-miterlimit="8" fill="#4472C4" fill-rule="evenodd"/><text fill="#FFFFFF" font-family="Calibri,Calibri_MSFontService,sans-serif" font-weight="400" font-size="16" transform="translate(141.212 542)">Main Program<tspan x="34.12" y="24">EXE</tspan></text><path d="M294.5 491.1C294.5 488.56 297.164 486.5 300.45 486.5L407.55 486.5C410.836 486.5 413.5 488.56 413.5 491.1L413.5 527.9C413.5 530.441 410.836 532.5 407.55 532.5L300.45 532.5C297.164 532.5 294.5 530.441 294.5 527.9L294.5 491.1Z" stroke="#FFFFFF" stroke-width="1.33333" stroke-miterlimit="8" fill="#4472C4" fill-rule="evenodd"/><text fill="#FFFFFF" font-family="Calibri,Calibri_MSFontService,sans-serif" font-weight="400" font-size="16" transform="translate(310.724 505)">Groundwater <tspan x="4.81335" y="17">Flow Model</tspan></text><path d="M413.424 513.6 461.022 479.39" stroke="#3D67B1" stroke-width="1.33333" stroke-miterlimit="8" fill="none" fill-rule="evenodd"/><path d="M461.5 465.1C461.5 462.56 464.164 460.5 467.45 460.5L574.55 460.5C577.836 460.5 580.5 462.56 580.5 465.1L580.5 501.9C580.5 504.441 577.836 506.5 574.55 506.5L467.45 506.5C464.164 506.5 461.5 504.441 461.5 501.9L461.5 465.1Z" stroke="#FFFFFF" stroke-width="1.33333" stroke-miterlimit="8" fill="#4472C4" fill-rule="evenodd"/><text fill="#FFFFFF" font-family="Calibri,Calibri_MSFontService,sans-serif" font-weight="400" font-size="16" transform="translate(507.936 487)">UZF</text><path d="M413.424 506.212 461.022 540.422" stroke="#3D67B1" stroke-width="1.33333" stroke-miterlimit="8" fill="none" fill-rule="evenodd"/><path d="M461.5 518.2C461.5 515.604 464.164 513.5 467.45 513.5L574.55 513.5C577.836 513.5 580.5 515.604 580.5 518.2L580.5 555.8C580.5 558.396 577.836 560.5 574.55 560.5L467.45 560.5C464.164 560.5 461.5 558.396 461.5 555.8L461.5 518.2Z" stroke="#FFFFFF" stroke-width="1.33333" stroke-miterlimit="8" fill="#4472C4" fill-rule="evenodd"/><text fill="#FFFFFF" font-family="Calibri,Calibri_MSFontService,sans-serif" font-weight="400" font-size="16" transform="translate(476.376 541)">Discretization</text><path d="M251.973 550.139 289.29 590.371" stroke="#34599C" stroke-width="1.33333" stroke-miterlimit="8" fill="none" fill-rule="evenodd"/><path d="M294.5 572.2C294.5 569.604 297.164 567.5 300.45 567.5L407.55 567.5C410.836 567.5 413.5 569.604 413.5 572.2L413.5 609.8C413.5 612.396 410.836 614.5 407.55 614.5L300.45 614.5C297.164 614.5 294.5 612.396 294.5 609.8L294.5 572.2Z" stroke="#FFFFFF" stroke-width="1.33333" stroke-miterlimit="8" fill="#4472C4" fill-rule="evenodd"/><text fill="#FFFFFF" font-family="Calibri,Calibri_MSFontService,sans-serif" font-weight="400" font-size="16" transform="translate(319.334 586)">Simulation <tspan x="13.0933" y="17">Object</tspan></text><path d="M418.416 524.352 455.619 568.689" stroke="#3D67B1" stroke-width="1.33333" stroke-miterlimit="8" fill="none" fill-rule="evenodd"/><path d="M461.5 572.2C461.5 569.604 464.164 567.5 467.45 567.5L574.55 567.5C577.836 567.5 580.5 569.604 580.5 572.2L580.5 609.8C580.5 612.396 577.836 614.5 574.55 614.5L467.45 614.5C464.164 614.5 461.5 612.396 461.5 609.8L461.5 572.2Z" stroke="#FFFFFF" stroke-width="1.33333" stroke-miterlimit="8" fill="#4472C4" fill-rule="evenodd"/><text fill="#FFFFFF" font-family="Calibri,Calibri_MSFontService,sans-serif" font-weight="400" font-size="16" transform="translate(506.102 595)">DRN</text><path d="M1.16667-3.62179e-06 1.16675 27.1521-1.16658 27.1521-1.16667 3.62179e-06ZM4.00008 25.8188 0.000104987 33.8188-3.99992 25.8188Z" fill="#203864" transform="matrix(1 0 0 -1 349 566.819)"/><path d="M79.5001 200.502C79.5001 150.243 120.243 109.5 170.502 109.5L536.498 109.5C586.757 109.5 627.5 150.243 627.5 200.502L627.5 564.498C627.5 614.757 586.757 655.5 536.498 655.5L170.502 655.5C120.243 655.5 79.5001 614.757 79.5001 564.498Z" stroke="#4472C4" stroke-width="3" stroke-miterlimit="8" stroke-dasharray="12 9" fill="none" fill-rule="evenodd"/><path d="M661.5 197.502C661.5 147.243 702.243 106.5 752.502 106.5L1118.5 106.5C1168.76 106.5 1209.5 147.243 1209.5 197.502L1209.5 561.498C1209.5 611.757 1168.76 652.5 1118.5 652.5L752.502 652.5C702.243 652.5 661.5 611.757 661.5 561.498Z" stroke="#C55A11" stroke-width="3" stroke-miterlimit="8" stroke-dasharray="12 9" fill="none" fill-rule="evenodd"/><text font-family="Calibri,Calibri_MSFontService,sans-serif" font-weight="700" font-size="24" transform="translate(288.655 137)">MODFLOW 6<tspan x="613.403" y="-3">pyMF</tspan><tspan x="669.443" y="-3">6</tspan><tspan font-family="Arial,Arial_MSFontService,sans-serif" font-weight="400" font-size="19" x="430.992" y="46">•</tspan><tspan font-weight="400" font-size="19" x="454.992" y="46">All MODFLOW 6 source compiled to DLL instead of </tspan><tspan font-weight="400" font-size="19" x="454.992" y="69">EXE</tspan><tspan font-family="Arial,Arial_MSFontService,sans-serif" font-weight="400" font-size="19" x="430.992" y="91">•</tspan><tspan font-weight="400" font-size="19" x="454.992" y="91">Added</tspan><tspan font-weight="400" font-size="19" x="508.825" y="91">Python</tspan><tspan font-weight="400" font-size="19" x="567.192" y="91">communication</tspan><tspan font-weight="400" font-size="19" x="689.378" y="91">and</tspan><tspan font-weight="400" font-size="19" x="722.212" y="91">integration</tspan><tspan font-weight="400" font-size="19" x="809.952" y="91">layers</tspan><tspan font-weight="400" font-size="19" x="454.992" y="114">to</tspan><tspan font-weight="400" font-size="19" x="475.145" y="114">replace</tspan><tspan font-weight="400" font-size="19" x="535.232" y="114">“Main</tspan><tspan font-weight="400" font-size="19" x="586.398" y="114">Program”</tspan><tspan font-weight="400" font-size="19" x="662.885" y="114">with</tspan><tspan font-weight="400" font-size="19" x="700.885" y="114">a</tspan><tspan font-weight="400" font-size="19" x="714.052" y="114">Python</tspan><tspan font-weight="400" font-size="19" x="772.418" y="114">Modul</tspan><tspan font-weight="400" font-size="19" x="822.252" y="114">e</tspan><tspan font-family="Arial,Arial_MSFontService,sans-serif" font-weight="400" font-size="19" x="-163.116" y="89">•</tspan><tspan font-weight="400" font-size="19" x="-139.116" y="89">Object</tspan><tspan font-weight="400" font-size="19" x="-84.7828" y="89">oriented</tspan><tspan font-weight="400" font-size="19" x="-15.6562" y="89">Fortran 2008 source code</tspan><tspan font-family="Arial,Arial_MSFontService,sans-serif" font-weight="400" font-size="19" x="-163.116" y="112">•</tspan><tspan font-weight="400" font-size="19" x="-139.116" y="112">Well</tspan><tspan font-weight="400" font-size="19" x="-100.969" y="112">organized,</tspan><tspan font-weight="400" font-size="19" x="-18.3228" y="112">with</tspan><tspan font-weight="400" font-size="19" x="19.6772" y="112">easy</tspan><tspan font-weight="400" font-size="19" x="57.6705" y="112">to</tspan><tspan font-weight="400" font-size="19" x="77.8238" y="112">extend</tspan><tspan font-weight="400" font-size="19" x="134.397" y="112">functionality, types, </tspan><tspan font-weight="400" font-size="19" x="-139.116" y="134">and objects</tspan></text></g></svg>